M48
METRIC
T1F00S00C0.600
T2F00S00C0.700
T3F00S00C1.000
%
M71
G05
T1
X5.7150Y5.3975
X10.1600Y9.2075
X13.9700Y6.9850
X4.4450Y1.9050
X5.0800Y12.7000
X3.4925Y8.8900
X12.7000Y12.7000
X20.9550Y4.1275
X13.3350Y9.5250
X24.1300Y9.2075
X24.4475Y0.9525
X22.2250Y8.8900
X11.4300Y4.4450
X9.5250Y11.4300
X13.9700Y4.4450
X17.7800Y1.9050
T2
X22.8600Y11.4300
X2.5400Y11.4300
T3
X23.4950Y4.4450
X23.4950Y6.9850
X1.9050Y4.4450
X1.9050Y6.9850
M17
M30
