%FSLAX35Y35*%
%MOIN*%
%TF.FileFunction,Legend,Top*%
%ADD10C,0.00197*%
%ADD11C,0.00295*%
%ADD12C,0.00984*%
%ADD13C,0.01024*%
%ADD14C,0.01181*%
%ADD15C,0.01575*%
%ADD16C,0.01969*%
%ADD17C,0.02362*%
%ADD18C,0.03150*%
%ADD19C,0.05000*%
%AMR_20*21,1,0.00984,0.00984,0,0,0.000*%
%ADD20R_20*%
%AMR_21*21,1,0.01837,0.01837,0,0,0.000*%
%ADD21R_21*%
%AMR_22*21,1,0.01969,0.01969,0,0,0.000*%
%ADD22R_22*%
%AMOCT_23*4,1,8,0.015748,0.031496,0.007874,0.039370,-0.007874,0.039370,-0.015748,0.031496,-0.015748,-0.031496,-0.007874,-0.039370,0.007874,-0.039370,0.015748,-0.031496,0.015748,0.031496,90.000*%
%ADD23OCT_23*%
%AMOCT_24*4,1,8,0.023622,0.011811,0.011811,0.023622,-0.011811,0.023622,-0.023622,0.011811,-0.023622,-0.011811,-0.011811,-0.023622,0.011811,-0.023622,0.023622,-0.011811,0.023622,0.011811,0.000*%
%ADD24OCT_24*%
%AMOCT_25*4,1,8,0.031496,0.015748,0.015748,0.031496,-0.015748,0.031496,-0.031496,0.015748,-0.031496,-0.015748,-0.015748,-0.031496,0.015748,-0.031496,0.031496,-0.015748,0.031496,0.015748,180.000*%
%ADD25OCT_25*%
%AMOCT_26*4,1,8,0.035433,0.017717,0.017717,0.035433,-0.017717,0.035433,-0.035433,0.017717,-0.035433,-0.017717,-0.017717,-0.035433,0.017717,-0.035433,0.035433,-0.017717,0.035433,0.017717,0.000*%
%ADD26OCT_26*%
%AMOCT_27*4,1,8,0.035433,0.017717,0.017717,0.035433,-0.017717,0.035433,-0.035433,0.017717,-0.035433,-0.017717,-0.017717,-0.035433,0.017717,-0.035433,0.035433,-0.017717,0.035433,0.017717,90.000*%
%ADD27OCT_27*%
%AMRR_28*21,1,0.03150,0.04409,0,0,270.000*21,1,0.02835,0.04724,0,0,270.000*1,1,0.00315,0.02205,-0.01417*1,1,0.00315,-0.02205,0.01417*1,1,0.00315,-0.02205,-0.01417*1,1,0.00315,0.02205,0.01417*%
%ADD28RR_28*%
%AMRR_29*21,1,0.03150,0.07244,0,0,90.000*21,1,0.02520,0.07874,0,0,90.000*1,1,0.00630,-0.03622,0.01260*1,1,0.00630,0.03622,-0.01260*1,1,0.00630,0.03622,0.01260*1,1,0.00630,-0.03622,-0.01260*%
%ADD29RR_29*%
%AMRR_30*21,1,0.04331,0.06654,0,0,270.000*21,1,0.03898,0.07087,0,0,270.000*1,1,0.00433,0.03327,-0.01949*1,1,0.00433,-0.03327,0.01949*1,1,0.00433,-0.03327,-0.01949*1,1,0.00433,0.03327,0.01949*%
%ADD30RR_30*%
%AMRR_31*21,1,0.05512,0.04961,0,0,0.000*21,1,0.04961,0.05512,0,0,0.000*1,1,0.00551,0.02480,0.02480*1,1,0.00551,-0.02480,-0.02480*1,1,0.00551,0.02480,-0.02480*1,1,0.00551,-0.02480,0.02480*%
%ADD31RR_31*%
%AMRR_32*21,1,0.05512,0.04961,0,0,180.000*21,1,0.04961,0.05512,0,0,180.000*1,1,0.00551,-0.02480,-0.02480*1,1,0.00551,0.02480,0.02480*1,1,0.00551,-0.02480,0.02480*1,1,0.00551,0.02480,-0.02480*%
%ADD32RR_32*%
%AMRR_33*21,1,0.05512,0.04961,0,0,270.000*21,1,0.04961,0.05512,0,0,270.000*1,1,0.00551,0.02480,-0.02480*1,1,0.00551,-0.02480,0.02480*1,1,0.00551,-0.02480,-0.02480*1,1,0.00551,0.02480,0.02480*%
%ADD33RR_33*%
%AMRR_34*21,1,0.06299,0.05039,0,0,180.000*21,1,0.05039,0.06299,0,0,180.000*1,1,0.01260,-0.02520,-0.02520*1,1,0.01260,0.02520,0.02520*1,1,0.01260,-0.02520,0.02520*1,1,0.01260,0.02520,-0.02520*%
%ADD34RR_34*%
%AMRR_35*21,1,0.07087,0.05669,0,0,0.000*21,1,0.05669,0.07087,0,0,0.000*1,1,0.01417,0.02835,0.02835*1,1,0.01417,-0.02835,-0.02835*1,1,0.01417,0.02835,-0.02835*1,1,0.01417,-0.02835,0.02835*%
%ADD35RR_35*%
%AMRR_36*21,1,0.07087,0.05669,0,0,90.000*21,1,0.05669,0.07087,0,0,90.000*1,1,0.01417,-0.02835,0.02835*1,1,0.01417,0.02835,-0.02835*1,1,0.01417,0.02835,0.02835*1,1,0.01417,-0.02835,-0.02835*%
%ADD36RR_36*%
%AMRR_37*21,1,0.13780,0.07087,0,0,180.000*21,1,0.12992,0.07874,0,0,180.000*1,1,0.00787,-0.06496,-0.03543*1,1,0.00787,0.06496,0.03543*1,1,0.00787,-0.06496,0.03543*1,1,0.00787,0.06496,-0.03543*%
%ADD37RR_37*%
G54D10*
X15538Y47130D02*
X15660Y46727D01*
X15727Y46646D01*
X15832Y46635D01*
X15913Y46702D01*
X15924Y46807D01*
X15802Y47210D01*
X15735Y47291D01*
X15630Y47302D01*
X15548Y47235D01*
X15538Y47130D01*
X15640Y46793D02*
X15922Y46793D01*
X15592Y46950D02*
X15880Y46950D01*
X15545Y47108D02*
X15833Y47108D01*
X15586Y47265D02*
X15756Y47265D01*
X15257Y47330D02*
X15582Y47063D01*
X15683Y47033D01*
X15776Y47082D01*
X15807Y47183D01*
X15757Y47276D01*
X15432Y47543D01*
X15331Y47574D01*
X15238Y47524D01*
X15208Y47423D01*
X15257Y47330D01*
X15428Y47190D02*
X15803Y47190D01*
X15248Y47348D02*
X15670Y47348D01*
X15232Y47505D02*
X15478Y47505D01*
X14913Y47341D02*
X15331Y47299D01*
X15432Y47330D01*
X15482Y47423D01*
X15451Y47524D01*
X15358Y47574D01*
X14940Y47615D01*
X14839Y47584D01*
X14789Y47491D01*
X14820Y47390D01*
X14913Y47341D01*
X14799Y47457D02*
X15471Y47457D01*
X14938Y47614D02*
X14945Y47614D01*
X14620Y47158D02*
X14991Y47356D01*
X15058Y47438D01*
X15048Y47543D01*
X14966Y47610D01*
X14861Y47599D01*
X14490Y47401D01*
X14423Y47319D01*
X14434Y47214D01*
X14515Y47148D01*
X14620Y47158D01*
X14425Y47305D02*
X14895Y47305D01*
X14605Y47463D02*
X15056Y47463D01*
X14478Y46844D02*
X14677Y47214D01*
X14687Y47319D01*
X14620Y47401D01*
X14515Y47411D01*
X14434Y47344D01*
X14235Y46974D01*
X14225Y46869D01*
X14292Y46787D01*
X14397Y46777D01*
X14478Y46844D01*
X14232Y46934D02*
X14527Y46934D01*
X14299Y47092D02*
X14611Y47092D01*
X14383Y47249D02*
X14680Y47249D01*
X14509Y47407D02*
X14563Y47407D01*
X14535Y46504D02*
X14494Y46922D01*
X14444Y47015D01*
X14343Y47046D01*
X14250Y46996D01*
X14220Y46895D01*
X14261Y46476D01*
X14311Y46383D01*
X14412Y46353D01*
X14505Y46403D01*
X14535Y46504D01*
X14258Y46510D02*
X14535Y46510D01*
X14242Y46668D02*
X14519Y46668D01*
X14227Y46825D02*
X14504Y46825D01*
X14246Y46983D02*
X14462Y46983D01*
X14771Y46252D02*
X14505Y46577D01*
X14412Y46627D01*
X14311Y46597D01*
X14261Y46504D01*
X14292Y46403D01*
X14558Y46077D01*
X14651Y46028D01*
X14752Y46058D01*
X14802Y46151D01*
X14771Y46252D01*
X14470Y46185D02*
X14792Y46185D01*
X14341Y46343D02*
X14697Y46343D01*
X14262Y46500D02*
X14568Y46500D01*
X15107Y46175D02*
X14705Y46297D01*
X14600Y46286D01*
X14533Y46205D01*
X14543Y46100D01*
X14625Y46033D01*
X15027Y45911D01*
X15132Y45921D01*
X15199Y46003D01*
X15189Y46108D01*
X15107Y46175D01*
X14582Y46068D02*
X15193Y46068D01*
X14550Y46226D02*
X14939Y46226D01*
X14634Y44970D02*
X14505Y45361D01*
X14437Y45441D01*
X14332Y45449D01*
X14252Y45381D01*
X14244Y45275D01*
X14372Y44885D01*
X14441Y44805D01*
X14546Y44797D01*
X14626Y44865D01*
X14634Y44970D01*
X14349Y44954D02*
X14632Y44954D01*
X14297Y45112D02*
X14587Y45112D01*
X14246Y45269D02*
X14536Y45269D01*
X14305Y45426D02*
X14449Y45426D01*
X14911Y44782D02*
X14588Y45036D01*
X14486Y45064D01*
X14394Y45013D01*
X14366Y44911D01*
X14418Y44819D01*
X14741Y44565D01*
X14843Y44537D01*
X14935Y44589D01*
X14963Y44690D01*
X14911Y44782D01*
X14577Y44694D02*
X14961Y44694D01*
X14399Y44852D02*
X14823Y44852D01*
X14393Y45009D02*
X14622Y45009D01*
X15247Y44780D02*
X14837Y44811D01*
X14737Y44778D01*
X14689Y44684D01*
X14722Y44584D01*
X14816Y44536D01*
X15226Y44505D01*
X15326Y44538D01*
X15374Y44632D01*
X15341Y44732D01*
X15247Y44780D01*
X14696Y44663D02*
X15364Y44663D01*
X15527Y44965D02*
X15169Y44763D01*
X15104Y44680D01*
X15117Y44575D01*
X15200Y44510D01*
X15304Y44522D01*
X15663Y44724D01*
X15728Y44807D01*
X15715Y44912D01*
X15632Y44977D01*
X15527Y44965D01*
X15105Y44667D02*
X15561Y44667D01*
X15279Y44825D02*
X15726Y44825D01*
X15658Y45274D02*
X15472Y44907D01*
X15464Y44802D01*
X15533Y44722D01*
X15638Y44714D01*
X15718Y44782D01*
X15904Y45149D01*
X15912Y45254D01*
X15843Y45334D01*
X15738Y45342D01*
X15658Y45274D01*
X15469Y44871D02*
X15763Y44871D01*
X15534Y45028D02*
X15843Y45028D01*
X15614Y45186D02*
X15907Y45186D01*
X15595Y45603D02*
X15644Y45195D01*
X15696Y45103D01*
X15797Y45075D01*
X15889Y45126D01*
X15918Y45228D01*
X15868Y45636D01*
X15817Y45728D01*
X15715Y45757D01*
X15623Y45705D01*
X15595Y45603D01*
X15640Y45232D02*
X15917Y45232D01*
X15621Y45390D02*
X15898Y45390D01*
X15602Y45547D02*
X15879Y45547D01*
X15623Y45705D02*
X15830Y45705D01*
X15359Y45842D02*
X15627Y45530D01*
X15721Y45483D01*
X15821Y45515D01*
X15869Y45609D01*
X15836Y45710D01*
X15568Y46022D01*
X15474Y46069D01*
X15374Y46037D01*
X15326Y45943D01*
X15359Y45842D01*
X15533Y45640D02*
X15859Y45640D01*
X15398Y45797D02*
X15761Y45797D01*
X15332Y45955D02*
X15626Y45955D01*
X15030Y45910D02*
X15427Y45799D01*
X15531Y45812D01*
X15596Y45895D01*
X15584Y46000D01*
X15501Y46065D01*
X15105Y46176D01*
X15000Y46163D01*
X14935Y46080D01*
X14947Y45975D01*
X15030Y45910D01*
X14971Y45957D02*
X15589Y45957D01*
X14962Y46114D02*
X15323Y46114D01*
X17049Y47558D02*
X16482Y46991D01*
X16441Y46893D01*
X16482Y46796D01*
X16579Y46755D01*
X16677Y46796D01*
X17244Y47363D01*
X17284Y47460D01*
X17244Y47558D01*
X17146Y47598D01*
X17049Y47558D01*
X16450Y46913D02*
X16794Y46913D01*
X16562Y47070D02*
X16951Y47070D01*
X16719Y47228D02*
X17109Y47228D01*
X16876Y47385D02*
X17253Y47385D01*
X17034Y47543D02*
X17250Y47543D01*
X17284Y44625D02*
X17284Y47460D01*
X17244Y47558D01*
X17146Y47598D01*
X17049Y47558D01*
X17008Y47460D01*
X17008Y44625D01*
X17049Y44528D01*
X17146Y44488D01*
X17244Y44528D01*
X17284Y44625D01*
X17008Y44645D02*
X17284Y44645D01*
X17008Y44803D02*
X17284Y44803D01*
X17008Y44960D02*
X17284Y44960D01*
X17008Y45118D02*
X17284Y45118D01*
X17008Y45275D02*
X17284Y45275D01*
X17008Y45433D02*
X17284Y45433D01*
X17008Y45590D02*
X17284Y45590D01*
X17008Y45748D02*
X17284Y45748D01*
X17008Y45905D02*
X17284Y45905D01*
X17008Y46062D02*
X17284Y46062D01*
X17008Y46220D02*
X17284Y46220D01*
X17008Y46377D02*
X17284Y46377D01*
X17008Y46535D02*
X17284Y46535D01*
X17008Y46692D02*
X17284Y46692D01*
X17008Y46850D02*
X17284Y46850D01*
X17008Y47007D02*
X17284Y47007D01*
X17008Y47165D02*
X17284Y47165D01*
X17008Y47322D02*
X17284Y47322D01*
X17017Y47480D02*
X17276Y47480D01*
X14237Y43459D02*
X14237Y40625D01*
X14277Y40527D01*
X14375Y40487D01*
X14472Y40527D01*
X14512Y40625D01*
X14512Y43459D01*
X14472Y43557D01*
X14375Y43597D01*
X14277Y43557D01*
X14237Y43459D01*
X14237Y40644D02*
X14512Y40644D01*
X14237Y40802D02*
X14512Y40802D01*
X14237Y40959D02*
X14512Y40959D01*
X14237Y41117D02*
X14512Y41117D01*
X14237Y41274D02*
X14512Y41274D01*
X14237Y41432D02*
X14512Y41432D01*
X14237Y41589D02*
X14512Y41589D01*
X14237Y41747D02*
X14512Y41747D01*
X14237Y41904D02*
X14512Y41904D01*
X14237Y42062D02*
X14512Y42062D01*
X14237Y42219D02*
X14512Y42219D01*
X14237Y42376D02*
X14512Y42376D01*
X14237Y42534D02*
X14512Y42534D01*
X14237Y42691D02*
X14512Y42691D01*
X14237Y42849D02*
X14512Y42849D01*
X14237Y43006D02*
X14512Y43006D01*
X14237Y43164D02*
X14512Y43164D01*
X14237Y43321D02*
X14512Y43321D01*
X14245Y43479D02*
X14504Y43479D01*
X15475Y41536D02*
X14498Y43520D01*
X14419Y43590D01*
X14314Y43583D01*
X14244Y43504D01*
X14251Y43398D01*
X15227Y41414D01*
X15306Y41344D01*
X15412Y41351D01*
X15481Y41430D01*
X15475Y41536D01*
X15184Y41502D02*
X15477Y41502D01*
X15107Y41659D02*
X15414Y41659D01*
X15029Y41817D02*
X15336Y41817D01*
X14952Y41974D02*
X15259Y41974D01*
X14874Y42132D02*
X15181Y42132D01*
X14797Y42289D02*
X15104Y42289D01*
X14719Y42447D02*
X15026Y42447D01*
X14642Y42604D02*
X14949Y42604D01*
X14564Y42762D02*
X14871Y42762D01*
X14487Y42919D02*
X14794Y42919D01*
X14409Y43077D02*
X14716Y43077D01*
X14332Y43234D02*
X14639Y43234D01*
X14254Y43392D02*
X14561Y43392D01*
X14284Y43549D02*
X14465Y43549D01*
X16236Y43522D02*
X15228Y41537D01*
X15220Y41432D01*
X15288Y41352D01*
X15394Y41344D01*
X15474Y41412D01*
X16482Y43397D01*
X16490Y43502D01*
X16421Y43582D01*
X16316Y43590D01*
X16236Y43522D01*
X15225Y41501D02*
X15519Y41501D01*
X15290Y41659D02*
X15599Y41659D01*
X15370Y41816D02*
X15679Y41816D01*
X15450Y41974D02*
X15759Y41974D01*
X15530Y42131D02*
X15839Y42131D01*
X15610Y42289D02*
X15919Y42289D01*
X15690Y42446D02*
X15999Y42446D01*
X15770Y42604D02*
X16079Y42604D01*
X15850Y42761D02*
X16159Y42761D01*
X15930Y42919D02*
X16239Y42919D01*
X16010Y43076D02*
X16319Y43076D01*
X16090Y43234D02*
X16399Y43234D01*
X16170Y43391D02*
X16479Y43391D01*
X16268Y43549D02*
X16450Y43549D01*
X16497Y40625D02*
X16497Y43459D01*
X16456Y43557D01*
X16359Y43597D01*
X16261Y43557D01*
X16221Y43459D01*
X16221Y40625D01*
X16261Y40527D01*
X16359Y40487D01*
X16456Y40527D01*
X16497Y40625D01*
X16221Y40644D02*
X16497Y40644D01*
X16221Y40802D02*
X16497Y40802D01*
X16221Y40959D02*
X16497Y40959D01*
X16221Y41117D02*
X16497Y41117D01*
X16221Y41274D02*
X16497Y41274D01*
X16221Y41432D02*
X16497Y41432D01*
X16221Y41589D02*
X16497Y41589D01*
X16221Y41747D02*
X16497Y41747D01*
X16221Y41904D02*
X16497Y41904D01*
X16221Y42062D02*
X16497Y42062D01*
X16221Y42219D02*
X16497Y42219D01*
X16221Y42376D02*
X16497Y42376D01*
X16221Y42534D02*
X16497Y42534D01*
X16221Y42691D02*
X16497Y42691D01*
X16221Y42849D02*
X16497Y42849D01*
X16221Y43006D02*
X16497Y43006D01*
X16221Y43164D02*
X16497Y43164D01*
X16221Y43321D02*
X16497Y43321D01*
X16229Y43479D02*
X16488Y43479D01*
X17008Y43459D02*
X17008Y40625D01*
X17049Y40527D01*
X17146Y40487D01*
X17244Y40527D01*
X17284Y40625D01*
X17284Y43459D01*
X17244Y43557D01*
X17146Y43597D01*
X17049Y43557D01*
X17008Y43459D01*
X17008Y40644D02*
X17284Y40644D01*
X17008Y40802D02*
X17284Y40802D01*
X17008Y40959D02*
X17284Y40959D01*
X17008Y41117D02*
X17284Y41117D01*
X17008Y41274D02*
X17284Y41274D01*
X17008Y41432D02*
X17284Y41432D01*
X17008Y41589D02*
X17284Y41589D01*
X17008Y41747D02*
X17284Y41747D01*
X17008Y41904D02*
X17284Y41904D01*
X17008Y42062D02*
X17284Y42062D01*
X17008Y42219D02*
X17284Y42219D01*
X17008Y42376D02*
X17284Y42376D01*
X17008Y42534D02*
X17284Y42534D01*
X17008Y42691D02*
X17284Y42691D01*
X17008Y42849D02*
X17284Y42849D01*
X17008Y43006D02*
X17284Y43006D01*
X17008Y43164D02*
X17284Y43164D01*
X17008Y43321D02*
X17284Y43321D01*
X17017Y43479D02*
X17276Y43479D01*
X18454Y43543D02*
X17037Y41684D01*
X17010Y41582D01*
X17063Y41491D01*
X17165Y41464D01*
X17256Y41517D01*
X18673Y43376D01*
X18700Y43478D01*
X18647Y43569D01*
X18545Y43596D01*
X18454Y43543D01*
X17020Y41622D02*
X17335Y41622D01*
X17109Y41779D02*
X17456Y41779D01*
X17229Y41937D02*
X17576Y41937D01*
X17349Y42094D02*
X17696Y42094D01*
X17469Y42252D02*
X17816Y42252D01*
X17589Y42409D02*
X17936Y42409D01*
X17709Y42567D02*
X18056Y42567D01*
X17830Y42724D02*
X18176Y42724D01*
X17950Y42882D02*
X18296Y42882D01*
X18070Y43039D02*
X18416Y43039D01*
X18190Y43197D02*
X18537Y43197D01*
X18310Y43354D02*
X18657Y43354D01*
X18430Y43512D02*
X18680Y43512D01*
X18687Y40686D02*
X17836Y42387D01*
X17757Y42456D01*
X17651Y42449D01*
X17582Y42369D01*
X17590Y42264D01*
X18440Y40563D01*
X18520Y40494D01*
X18625Y40501D01*
X18694Y40581D01*
X18687Y40686D01*
X18396Y40651D02*
X18689Y40651D01*
X18317Y40809D02*
X18625Y40809D01*
X18239Y40966D02*
X18547Y40966D01*
X18160Y41124D02*
X18468Y41124D01*
X18081Y41281D02*
X18389Y41281D01*
X18002Y41439D02*
X18310Y41439D01*
X17924Y41596D02*
X18232Y41596D01*
X17845Y41754D02*
X18153Y41754D01*
X17766Y41911D02*
X18074Y41911D01*
X17687Y42069D02*
X17995Y42069D01*
X17609Y42226D02*
X17917Y42226D01*
X17595Y42384D02*
X17838Y42384D01*
X20623Y41191D02*
X20623Y42892D01*
X20582Y42990D01*
X20485Y43030D01*
X20387Y42990D01*
X20347Y42892D01*
X20347Y41191D01*
X20387Y41094D01*
X20485Y41054D01*
X20582Y41094D01*
X20623Y41191D01*
X20347Y41211D02*
X20623Y41211D01*
X20347Y41369D02*
X20623Y41369D01*
X20347Y41526D02*
X20623Y41526D01*
X20347Y41684D02*
X20623Y41684D01*
X20347Y41841D02*
X20623Y41841D01*
X20347Y41999D02*
X20623Y41999D01*
X20347Y42156D02*
X20623Y42156D01*
X20347Y42313D02*
X20623Y42313D01*
X20347Y42471D02*
X20623Y42471D01*
X20347Y42628D02*
X20623Y42628D01*
X20347Y42786D02*
X20623Y42786D01*
X20368Y42943D02*
X20601Y42943D01*
X20245Y43183D02*
X20354Y42850D01*
X20422Y42769D01*
X20527Y42761D01*
X20608Y42830D01*
X20616Y42935D01*
X20508Y43268D01*
X20439Y43348D01*
X20334Y43357D01*
X20254Y43288D01*
X20245Y43183D01*
X20331Y42919D02*
X20615Y42919D01*
X20280Y43076D02*
X20570Y43076D01*
X20249Y43234D02*
X20519Y43234D01*
X20012Y43320D02*
X20295Y43114D01*
X20398Y43089D01*
X20488Y43144D01*
X20513Y43247D01*
X20457Y43337D01*
X20174Y43543D01*
X20071Y43567D01*
X19982Y43512D01*
X19957Y43410D01*
X20012Y43320D01*
X20113Y43247D02*
X20513Y43247D01*
X19960Y43404D02*
X20365Y43404D01*
X20062Y43562D02*
X20095Y43562D01*
X19743Y43294D02*
X20093Y43294D01*
X20190Y43334D01*
X20231Y43431D01*
X20190Y43529D01*
X20093Y43569D01*
X19743Y43569D01*
X19645Y43529D01*
X19605Y43431D01*
X19645Y43334D01*
X19743Y43294D01*
X19613Y43451D02*
X20223Y43451D01*
X19540Y43114D02*
X19824Y43320D01*
X19879Y43410D01*
X19854Y43512D01*
X19764Y43567D01*
X19662Y43543D01*
X19378Y43337D01*
X19323Y43247D01*
X19348Y43144D01*
X19438Y43089D01*
X19540Y43114D01*
X19323Y43247D02*
X19723Y43247D01*
X19471Y43404D02*
X19875Y43404D01*
X19740Y43562D02*
X19773Y43562D01*
X19482Y42850D02*
X19590Y43183D01*
X19582Y43288D01*
X19502Y43357D01*
X19397Y43348D01*
X19328Y43268D01*
X19220Y42935D01*
X19228Y42830D01*
X19308Y42761D01*
X19413Y42769D01*
X19482Y42850D01*
X19221Y42919D02*
X19504Y42919D01*
X19266Y43076D02*
X19556Y43076D01*
X19317Y43234D02*
X19586Y43234D01*
X19213Y42892D02*
X19213Y41191D01*
X19253Y41094D01*
X19351Y41054D01*
X19448Y41094D01*
X19489Y41191D01*
X19489Y42892D01*
X19448Y42990D01*
X19351Y43030D01*
X19253Y42990D01*
X19213Y42892D01*
X19213Y41211D02*
X19489Y41211D01*
X19213Y41369D02*
X19489Y41369D01*
X19213Y41526D02*
X19489Y41526D01*
X19213Y41684D02*
X19489Y41684D01*
X19213Y41841D02*
X19489Y41841D01*
X19213Y41999D02*
X19489Y41999D01*
X19213Y42156D02*
X19489Y42156D01*
X19213Y42313D02*
X19489Y42313D01*
X19213Y42471D02*
X19489Y42471D01*
X19213Y42628D02*
X19489Y42628D01*
X19213Y42786D02*
X19489Y42786D01*
X19234Y42943D02*
X19467Y42943D01*
X19590Y40901D02*
X19482Y41234D01*
X19413Y41314D01*
X19308Y41322D01*
X19228Y41254D01*
X19220Y41149D01*
X19328Y40816D01*
X19397Y40735D01*
X19502Y40727D01*
X19582Y40796D01*
X19590Y40901D01*
X19306Y40885D02*
X19589Y40885D01*
X19255Y41042D02*
X19544Y41042D01*
X19224Y41200D02*
X19493Y41200D01*
X19824Y40764D02*
X19540Y40970D01*
X19438Y40994D01*
X19348Y40939D01*
X19323Y40837D01*
X19378Y40747D01*
X19662Y40541D01*
X19764Y40516D01*
X19854Y40571D01*
X19879Y40674D01*
X19824Y40764D01*
X19479Y40674D02*
X19879Y40674D01*
X19326Y40831D02*
X19731Y40831D01*
X19428Y40989D02*
X19461Y40989D01*
X20093Y40790D02*
X19743Y40790D01*
X19645Y40750D01*
X19605Y40652D01*
X19645Y40555D01*
X19743Y40514D01*
X20093Y40514D01*
X20190Y40555D01*
X20231Y40652D01*
X20190Y40750D01*
X20093Y40790D01*
X19613Y40672D02*
X20223Y40672D01*
X20295Y40970D02*
X20012Y40764D01*
X19957Y40674D01*
X19982Y40571D01*
X20071Y40516D01*
X20174Y40541D01*
X20457Y40747D01*
X20513Y40837D01*
X20488Y40939D01*
X20398Y40994D01*
X20295Y40970D01*
X19957Y40674D02*
X20357Y40674D01*
X20105Y40831D02*
X20509Y40831D01*
X20374Y40989D02*
X20407Y40989D01*
X20354Y41234D02*
X20245Y40901D01*
X20254Y40796D01*
X20334Y40727D01*
X20439Y40735D01*
X20508Y40816D01*
X20616Y41149D01*
X20608Y41254D01*
X20527Y41322D01*
X20422Y41314D01*
X20354Y41234D01*
X20247Y40885D02*
X20530Y40885D01*
X20291Y41042D02*
X20581Y41042D01*
X20343Y41200D02*
X20612Y41200D01*
X22167Y43183D02*
X22275Y42850D01*
X22343Y42769D01*
X22449Y42761D01*
X22529Y42830D01*
X22537Y42935D01*
X22429Y43268D01*
X22360Y43348D01*
X22255Y43357D01*
X22175Y43288D01*
X22167Y43183D01*
X22253Y42919D02*
X22536Y42919D01*
X22201Y43076D02*
X22491Y43076D01*
X22171Y43234D02*
X22440Y43234D01*
X21933Y43320D02*
X22217Y43114D01*
X22319Y43089D01*
X22409Y43144D01*
X22434Y43247D01*
X22379Y43337D01*
X22095Y43543D01*
X21993Y43567D01*
X21903Y43512D01*
X21878Y43410D01*
X21933Y43320D01*
X22034Y43247D02*
X22434Y43247D01*
X21882Y43404D02*
X22286Y43404D01*
X21983Y43562D02*
X22016Y43562D01*
X21664Y43294D02*
X22014Y43294D01*
X22112Y43334D01*
X22152Y43431D01*
X22112Y43529D01*
X22014Y43569D01*
X21664Y43569D01*
X21566Y43529D01*
X21526Y43431D01*
X21566Y43334D01*
X21664Y43294D01*
X21534Y43451D02*
X22144Y43451D01*
X21461Y43114D02*
X21745Y43320D01*
X21800Y43410D01*
X21775Y43512D01*
X21685Y43567D01*
X21583Y43543D01*
X21299Y43337D01*
X21244Y43247D01*
X21269Y43144D01*
X21359Y43089D01*
X21461Y43114D01*
X21244Y43247D02*
X21644Y43247D01*
X21392Y43404D02*
X21797Y43404D01*
X21662Y43562D02*
X21695Y43562D01*
X21403Y42850D02*
X21511Y43183D01*
X21503Y43288D01*
X21423Y43357D01*
X21318Y43348D01*
X21249Y43268D01*
X21141Y42935D01*
X21149Y42830D01*
X21230Y42761D01*
X21335Y42769D01*
X21403Y42850D01*
X21142Y42919D02*
X21426Y42919D01*
X21187Y43076D02*
X21477Y43076D01*
X21238Y43234D02*
X21507Y43234D01*
X21410Y41191D02*
X21410Y42892D01*
X21370Y42990D01*
X21272Y43030D01*
X21175Y42990D01*
X21134Y42892D01*
X21134Y41191D01*
X21175Y41094D01*
X21272Y41054D01*
X21370Y41094D01*
X21410Y41191D01*
X21134Y41211D02*
X21410Y41211D01*
X21134Y41369D02*
X21410Y41369D01*
X21134Y41526D02*
X21410Y41526D01*
X21134Y41684D02*
X21410Y41684D01*
X21134Y41841D02*
X21410Y41841D01*
X21134Y41999D02*
X21410Y41999D01*
X21134Y42156D02*
X21410Y42156D01*
X21134Y42313D02*
X21410Y42313D01*
X21134Y42471D02*
X21410Y42471D01*
X21134Y42628D02*
X21410Y42628D01*
X21134Y42786D02*
X21410Y42786D01*
X21156Y42943D02*
X21389Y42943D01*
X21511Y40901D02*
X21403Y41234D01*
X21335Y41314D01*
X21230Y41322D01*
X21149Y41254D01*
X21141Y41149D01*
X21249Y40816D01*
X21318Y40735D01*
X21423Y40727D01*
X21503Y40796D01*
X21511Y40901D01*
X21227Y40885D02*
X21510Y40885D01*
X21176Y41042D02*
X21466Y41042D01*
X21145Y41200D02*
X21414Y41200D01*
X21745Y40764D02*
X21461Y40970D01*
X21359Y40994D01*
X21269Y40939D01*
X21244Y40837D01*
X21299Y40747D01*
X21583Y40541D01*
X21685Y40516D01*
X21775Y40571D01*
X21800Y40674D01*
X21745Y40764D01*
X21400Y40674D02*
X21800Y40674D01*
X21248Y40831D02*
X21652Y40831D01*
X21350Y40989D02*
X21383Y40989D01*
X22014Y40790D02*
X21664Y40790D01*
X21566Y40750D01*
X21526Y40652D01*
X21566Y40555D01*
X21664Y40514D01*
X22014Y40514D01*
X22112Y40555D01*
X22152Y40652D01*
X22112Y40750D01*
X22014Y40790D01*
X21534Y40672D02*
X22144Y40672D01*
X22217Y40970D02*
X21933Y40764D01*
X21878Y40674D01*
X21903Y40571D01*
X21993Y40516D01*
X22095Y40541D01*
X22379Y40747D01*
X22434Y40837D01*
X22409Y40939D01*
X22319Y40994D01*
X22217Y40970D01*
X21878Y40674D02*
X22278Y40674D01*
X22026Y40831D02*
X22430Y40831D01*
X22296Y40989D02*
X22329Y40989D01*
X22275Y41234D02*
X22167Y40901D01*
X22175Y40796D01*
X22255Y40727D01*
X22360Y40735D01*
X22429Y40816D01*
X22537Y41149D01*
X22529Y41254D01*
X22449Y41322D01*
X22343Y41314D01*
X22275Y41234D01*
X22168Y40885D02*
X22451Y40885D01*
X22213Y41042D02*
X22502Y41042D01*
X22264Y41200D02*
X22533Y41200D01*
X22268Y41758D02*
X22268Y41191D01*
X22309Y41094D01*
X22406Y41054D01*
X22503Y41094D01*
X22544Y41191D01*
X22544Y41758D01*
X22503Y41856D01*
X22406Y41896D01*
X22309Y41856D01*
X22268Y41758D01*
X22268Y41211D02*
X22544Y41211D01*
X22268Y41369D02*
X22544Y41369D01*
X22268Y41526D02*
X22544Y41526D01*
X22268Y41684D02*
X22544Y41684D01*
X22302Y41841D02*
X22510Y41841D01*
X22167Y42049D02*
X22275Y41716D01*
X22343Y41636D01*
X22449Y41627D01*
X22529Y41696D01*
X22537Y41801D01*
X22429Y42134D01*
X22360Y42214D01*
X22255Y42223D01*
X22175Y42154D01*
X22167Y42049D01*
X22253Y41785D02*
X22536Y41785D01*
X22201Y41942D02*
X22491Y41942D01*
X22171Y42100D02*
X22440Y42100D01*
X21933Y42186D02*
X22217Y41980D01*
X22319Y41955D01*
X22409Y42011D01*
X22434Y42113D01*
X22379Y42203D01*
X22095Y42409D01*
X21993Y42434D01*
X21903Y42379D01*
X21878Y42276D01*
X21933Y42186D01*
X22034Y42113D02*
X22434Y42113D01*
X21882Y42270D02*
X22286Y42270D01*
X21983Y42428D02*
X22016Y42428D01*
X21664Y42160D02*
X22014Y42160D01*
X22112Y42200D01*
X22152Y42298D01*
X22112Y42395D01*
X22014Y42435D01*
X21664Y42435D01*
X21566Y42395D01*
X21526Y42298D01*
X21566Y42200D01*
X21664Y42160D01*
X21534Y42317D02*
X22144Y42317D01*
X21461Y41980D02*
X21745Y42186D01*
X21800Y42276D01*
X21775Y42379D01*
X21685Y42434D01*
X21583Y42409D01*
X21299Y42203D01*
X21244Y42113D01*
X21269Y42011D01*
X21359Y41955D01*
X21461Y41980D01*
X21244Y42113D02*
X21644Y42113D01*
X21392Y42270D02*
X21797Y42270D01*
X21662Y42428D02*
X21695Y42428D01*
X21403Y41716D02*
X21511Y42049D01*
X21503Y42154D01*
X21423Y42223D01*
X21318Y42214D01*
X21249Y42134D01*
X21141Y41801D01*
X21149Y41696D01*
X21230Y41627D01*
X21335Y41636D01*
X21403Y41716D01*
X21142Y41785D02*
X21426Y41785D01*
X21187Y41942D02*
X21477Y41942D01*
X21238Y42100D02*
X21507Y42100D01*
X24453Y42180D02*
X23193Y42180D01*
X23096Y42139D01*
X23056Y42042D01*
X23096Y41944D01*
X23193Y41904D01*
X24453Y41904D01*
X24551Y41944D01*
X24591Y42042D01*
X24551Y42139D01*
X24453Y42180D01*
X23064Y42062D02*
X24583Y42062D01*
X26512Y41191D02*
X26512Y41601D01*
X26472Y41698D01*
X26375Y41739D01*
X26277Y41698D01*
X26237Y41601D01*
X26237Y41191D01*
X26277Y41094D01*
X26375Y41054D01*
X26472Y41094D01*
X26512Y41191D01*
X26237Y41211D02*
X26512Y41211D01*
X26237Y41369D02*
X26512Y41369D01*
X26237Y41526D02*
X26512Y41526D01*
X26271Y41684D02*
X26478Y41684D01*
X26135Y41892D02*
X26243Y41558D01*
X26312Y41478D01*
X26417Y41470D01*
X26497Y41538D01*
X26506Y41643D01*
X26397Y41977D01*
X26329Y42057D01*
X26224Y42065D01*
X26143Y41997D01*
X26135Y41892D01*
X26221Y41627D02*
X26504Y41627D01*
X26170Y41785D02*
X26460Y41785D01*
X26139Y41942D02*
X26408Y41942D01*
X25902Y42029D02*
X26185Y41823D01*
X26288Y41798D01*
X26378Y41853D01*
X26402Y41956D01*
X26347Y42046D01*
X26064Y42252D01*
X25961Y42276D01*
X25871Y42221D01*
X25847Y42119D01*
X25902Y42029D01*
X26002Y41955D02*
X26402Y41955D01*
X25850Y42113D02*
X26254Y42113D01*
X25952Y42270D02*
X25985Y42270D01*
X25632Y42002D02*
X25983Y42002D01*
X26080Y42043D01*
X26121Y42140D01*
X26080Y42237D01*
X25983Y42278D01*
X25632Y42278D01*
X25535Y42237D01*
X25495Y42140D01*
X25535Y42043D01*
X25632Y42002D01*
X25503Y42160D02*
X26112Y42160D01*
X25430Y41823D02*
X25713Y42029D01*
X25768Y42119D01*
X25744Y42221D01*
X25654Y42276D01*
X25551Y42252D01*
X25268Y42046D01*
X25213Y41956D01*
X25237Y41853D01*
X25327Y41798D01*
X25430Y41823D01*
X25213Y41955D02*
X25613Y41955D01*
X25361Y42113D02*
X25765Y42113D01*
X25630Y42270D02*
X25663Y42270D01*
X25372Y41558D02*
X25480Y41892D01*
X25472Y41997D01*
X25392Y42065D01*
X25286Y42057D01*
X25218Y41977D01*
X25110Y41643D01*
X25118Y41538D01*
X25198Y41470D01*
X25303Y41478D01*
X25372Y41558D01*
X25111Y41627D02*
X25394Y41627D01*
X25156Y41785D02*
X25445Y41785D01*
X25207Y41942D02*
X25476Y41942D01*
X25103Y41601D02*
X25103Y41191D01*
X25143Y41094D01*
X25241Y41054D01*
X25338Y41094D01*
X25378Y41191D01*
X25378Y41601D01*
X25338Y41698D01*
X25241Y41739D01*
X25143Y41698D01*
X25103Y41601D01*
X25103Y41211D02*
X25378Y41211D01*
X25103Y41369D02*
X25378Y41369D01*
X25103Y41526D02*
X25378Y41526D01*
X25137Y41684D02*
X25344Y41684D01*
X25480Y40901D02*
X25372Y41234D01*
X25303Y41314D01*
X25198Y41322D01*
X25118Y41254D01*
X25110Y41149D01*
X25218Y40816D01*
X25286Y40735D01*
X25392Y40727D01*
X25472Y40796D01*
X25480Y40901D01*
X25195Y40885D02*
X25479Y40885D01*
X25144Y41042D02*
X25434Y41042D01*
X25114Y41200D02*
X25383Y41200D01*
X25713Y40764D02*
X25430Y40970D01*
X25327Y40994D01*
X25237Y40939D01*
X25213Y40837D01*
X25268Y40747D01*
X25551Y40541D01*
X25654Y40516D01*
X25744Y40571D01*
X25768Y40674D01*
X25713Y40764D01*
X25369Y40674D02*
X25768Y40674D01*
X25216Y40831D02*
X25621Y40831D01*
X25318Y40989D02*
X25351Y40989D01*
X25983Y40790D02*
X25632Y40790D01*
X25535Y40750D01*
X25495Y40652D01*
X25535Y40555D01*
X25632Y40514D01*
X25983Y40514D01*
X26080Y40555D01*
X26121Y40652D01*
X26080Y40750D01*
X25983Y40790D01*
X25503Y40672D02*
X26112Y40672D01*
X26185Y40970D02*
X25902Y40764D01*
X25847Y40674D01*
X25871Y40571D01*
X25961Y40516D01*
X26064Y40541D01*
X26347Y40747D01*
X26402Y40837D01*
X26378Y40939D01*
X26288Y40994D01*
X26185Y40970D01*
X25847Y40674D02*
X26247Y40674D01*
X25995Y40831D02*
X26399Y40831D01*
X26264Y40989D02*
X26297Y40989D01*
X26243Y41234D02*
X26135Y40901D01*
X26143Y40796D01*
X26224Y40727D01*
X26329Y40735D01*
X26397Y40816D01*
X26506Y41149D01*
X26497Y41254D01*
X26417Y41322D01*
X26312Y41314D01*
X26243Y41234D01*
X26136Y40885D02*
X26420Y40885D01*
X26181Y41042D02*
X26471Y41042D01*
X26232Y41200D02*
X26502Y41200D01*
X26512Y42766D02*
X26512Y42892D01*
X26472Y42990D01*
X26375Y43030D01*
X26277Y42990D01*
X26237Y42892D01*
X26237Y42766D01*
X26277Y42669D01*
X26375Y42628D01*
X26472Y42669D01*
X26512Y42766D01*
X26237Y42786D02*
X26512Y42786D01*
X26258Y42943D02*
X26491Y42943D01*
X26135Y43183D02*
X26243Y42850D01*
X26312Y42769D01*
X26417Y42761D01*
X26497Y42830D01*
X26506Y42935D01*
X26397Y43268D01*
X26329Y43348D01*
X26224Y43357D01*
X26143Y43288D01*
X26135Y43183D01*
X26221Y42919D02*
X26504Y42919D01*
X26170Y43076D02*
X26460Y43076D01*
X26139Y43234D02*
X26408Y43234D01*
X25902Y43320D02*
X26185Y43114D01*
X26288Y43089D01*
X26378Y43144D01*
X26402Y43247D01*
X26347Y43337D01*
X26064Y43543D01*
X25961Y43567D01*
X25871Y43512D01*
X25847Y43410D01*
X25902Y43320D01*
X26002Y43247D02*
X26402Y43247D01*
X25850Y43404D02*
X26254Y43404D01*
X25952Y43562D02*
X25985Y43562D01*
X25632Y43294D02*
X25983Y43294D01*
X26080Y43334D01*
X26121Y43431D01*
X26080Y43529D01*
X25983Y43569D01*
X25632Y43569D01*
X25535Y43529D01*
X25495Y43431D01*
X25535Y43334D01*
X25632Y43294D01*
X25503Y43451D02*
X26112Y43451D01*
X25430Y43114D02*
X25713Y43320D01*
X25768Y43410D01*
X25744Y43512D01*
X25654Y43567D01*
X25551Y43543D01*
X25268Y43337D01*
X25213Y43247D01*
X25237Y43144D01*
X25327Y43089D01*
X25430Y43114D01*
X25213Y43247D02*
X25613Y43247D01*
X25361Y43404D02*
X25765Y43404D01*
X25630Y43562D02*
X25663Y43562D01*
X25372Y42850D02*
X25480Y43183D01*
X25472Y43288D01*
X25392Y43357D01*
X25286Y43348D01*
X25218Y43268D01*
X25110Y42935D01*
X25118Y42830D01*
X25198Y42761D01*
X25303Y42769D01*
X25372Y42850D01*
X25111Y42919D02*
X25394Y42919D01*
X25156Y43076D02*
X25445Y43076D01*
X25207Y43234D02*
X25476Y43234D01*
X25103Y42892D02*
X25103Y42766D01*
X25143Y42669D01*
X25241Y42628D01*
X25338Y42669D01*
X25378Y42766D01*
X25378Y42892D01*
X25338Y42990D01*
X25241Y43030D01*
X25143Y42990D01*
X25103Y42892D01*
X25103Y42786D02*
X25378Y42786D01*
X25124Y42943D02*
X25357Y42943D01*
X25480Y42476D02*
X25372Y42809D01*
X25303Y42889D01*
X25198Y42897D01*
X25118Y42829D01*
X25110Y42724D01*
X25218Y42390D01*
X25286Y42310D01*
X25392Y42302D01*
X25472Y42370D01*
X25480Y42476D01*
X25195Y42459D02*
X25479Y42459D01*
X25144Y42617D02*
X25434Y42617D01*
X25114Y42774D02*
X25383Y42774D01*
X25713Y42339D02*
X25430Y42544D01*
X25327Y42569D01*
X25237Y42514D01*
X25213Y42411D01*
X25268Y42322D01*
X25551Y42116D01*
X25654Y42091D01*
X25744Y42146D01*
X25768Y42249D01*
X25713Y42339D01*
X25369Y42248D02*
X25768Y42248D01*
X25216Y42406D02*
X25621Y42406D01*
X25318Y42563D02*
X25351Y42563D01*
X25983Y42365D02*
X25632Y42365D01*
X25535Y42324D01*
X25495Y42227D01*
X25535Y42130D01*
X25632Y42089D01*
X25983Y42089D01*
X26080Y42130D01*
X26121Y42227D01*
X26080Y42324D01*
X25983Y42365D01*
X25503Y42247D02*
X26112Y42247D01*
X26185Y42544D02*
X25902Y42339D01*
X25847Y42249D01*
X25871Y42146D01*
X25961Y42091D01*
X26064Y42116D01*
X26347Y42322D01*
X26402Y42411D01*
X26378Y42514D01*
X26288Y42569D01*
X26185Y42544D01*
X25847Y42248D02*
X26247Y42248D01*
X25995Y42406D02*
X26399Y42406D01*
X26264Y42563D02*
X26297Y42563D01*
X26243Y42809D02*
X26135Y42476D01*
X26143Y42370D01*
X26224Y42302D01*
X26329Y42310D01*
X26397Y42390D01*
X26506Y42724D01*
X26497Y42829D01*
X26417Y42897D01*
X26312Y42889D01*
X26243Y42809D01*
X26136Y42459D02*
X26420Y42459D01*
X26181Y42617D02*
X26471Y42617D01*
X26232Y42774D02*
X26502Y42774D01*
X27162Y41904D02*
X27855Y41904D01*
X27952Y41944D01*
X27993Y42042D01*
X27952Y42139D01*
X27855Y42180D01*
X27162Y42180D01*
X27064Y42139D01*
X27024Y42042D01*
X27064Y41944D01*
X27162Y41904D01*
X27032Y42062D02*
X27984Y42062D01*
X28173Y42286D02*
X27819Y42191D01*
X27735Y42126D01*
X27722Y42022D01*
X27786Y41938D01*
X27890Y41924D01*
X28245Y42019D01*
X28328Y42084D01*
X28342Y42188D01*
X28278Y42272D01*
X28173Y42286D01*
X27730Y42082D02*
X28326Y42082D01*
X28001Y42239D02*
X28303Y42239D01*
X28371Y42509D02*
X28112Y42250D01*
X28071Y42153D01*
X28112Y42055D01*
X28209Y42015D01*
X28307Y42055D01*
X28566Y42314D01*
X28606Y42412D01*
X28566Y42509D01*
X28469Y42550D01*
X28371Y42509D01*
X28080Y42172D02*
X28424Y42172D01*
X28191Y42330D02*
X28572Y42330D01*
X28349Y42487D02*
X28575Y42487D01*
X28430Y42802D02*
X28335Y42448D01*
X28349Y42343D01*
X28433Y42279D01*
X28537Y42293D01*
X28602Y42376D01*
X28697Y42731D01*
X28683Y42835D01*
X28599Y42899D01*
X28495Y42886D01*
X28430Y42802D01*
X28337Y42436D02*
X28618Y42436D01*
X28375Y42594D02*
X28660Y42594D01*
X28417Y42751D02*
X28694Y42751D01*
X28335Y43085D02*
X28430Y42731D01*
X28495Y42647D01*
X28599Y42633D01*
X28683Y42697D01*
X28697Y42802D01*
X28602Y43156D01*
X28537Y43240D01*
X28433Y43254D01*
X28349Y43189D01*
X28335Y43085D01*
X28414Y42791D02*
X28695Y42791D01*
X28372Y42948D02*
X28657Y42948D01*
X28338Y43106D02*
X28615Y43106D01*
X28112Y43283D02*
X28371Y43023D01*
X28469Y42983D01*
X28566Y43023D01*
X28606Y43121D01*
X28566Y43218D01*
X28307Y43477D01*
X28209Y43518D01*
X28112Y43477D01*
X28071Y43380D01*
X28112Y43283D01*
X28254Y43140D02*
X28598Y43140D01*
X28105Y43298D02*
X28486Y43298D01*
X28103Y43455D02*
X28329Y43455D01*
X27819Y43342D02*
X28173Y43247D01*
X28278Y43261D01*
X28342Y43344D01*
X28328Y43449D01*
X28245Y43513D01*
X27890Y43608D01*
X27786Y43594D01*
X27722Y43511D01*
X27735Y43406D01*
X27819Y43342D01*
X27738Y43404D02*
X28334Y43404D01*
X27761Y43562D02*
X28063Y43562D01*
X27855Y43597D02*
X27162Y43597D01*
X27064Y43557D01*
X27024Y43459D01*
X27064Y43362D01*
X27162Y43321D01*
X27855Y43321D01*
X27952Y43362D01*
X27993Y43459D01*
X27952Y43557D01*
X27855Y43597D01*
X27032Y43479D02*
X27984Y43479D01*
X27024Y43459D02*
X27024Y40625D01*
X27064Y40527D01*
X27162Y40487D01*
X27259Y40527D01*
X27300Y40625D01*
X27300Y43459D01*
X27259Y43557D01*
X27162Y43597D01*
X27064Y43557D01*
X27024Y43459D01*
X27024Y40644D02*
X27300Y40644D01*
X27024Y40802D02*
X27300Y40802D01*
X27024Y40959D02*
X27300Y40959D01*
X27024Y41117D02*
X27300Y41117D01*
X27024Y41274D02*
X27300Y41274D01*
X27024Y41432D02*
X27300Y41432D01*
X27024Y41589D02*
X27300Y41589D01*
X27024Y41747D02*
X27300Y41747D01*
X27024Y41904D02*
X27300Y41904D01*
X27024Y42062D02*
X27300Y42062D01*
X27024Y42219D02*
X27300Y42219D01*
X27024Y42376D02*
X27300Y42376D01*
X27024Y42534D02*
X27300Y42534D01*
X27024Y42691D02*
X27300Y42691D01*
X27024Y42849D02*
X27300Y42849D01*
X27024Y43006D02*
X27300Y43006D01*
X27024Y43164D02*
X27300Y43164D01*
X27024Y43321D02*
X27300Y43321D01*
X27032Y43479D02*
X27292Y43479D01*
X27162Y40487D02*
X27855Y40487D01*
X27952Y40527D01*
X27993Y40625D01*
X27952Y40722D01*
X27855Y40762D01*
X27162Y40762D01*
X27064Y40722D01*
X27024Y40625D01*
X27064Y40527D01*
X27162Y40487D01*
X27032Y40644D02*
X27984Y40644D01*
X28173Y40837D02*
X27819Y40742D01*
X27735Y40678D01*
X27722Y40573D01*
X27786Y40489D01*
X27890Y40476D01*
X28245Y40571D01*
X28328Y40635D01*
X28342Y40739D01*
X28278Y40823D01*
X28173Y40837D01*
X27730Y40633D02*
X28326Y40633D01*
X28001Y40791D02*
X28303Y40791D01*
X28371Y41061D02*
X28112Y40801D01*
X28071Y40704D01*
X28112Y40606D01*
X28209Y40566D01*
X28307Y40606D01*
X28566Y40866D01*
X28606Y40963D01*
X28566Y41061D01*
X28469Y41101D01*
X28371Y41061D01*
X28080Y40723D02*
X28424Y40723D01*
X28191Y40881D02*
X28572Y40881D01*
X28349Y41038D02*
X28575Y41038D01*
X28430Y41353D02*
X28335Y40999D01*
X28349Y40894D01*
X28433Y40830D01*
X28537Y40844D01*
X28602Y40927D01*
X28697Y41282D01*
X28683Y41386D01*
X28599Y41451D01*
X28495Y41437D01*
X28430Y41353D01*
X28337Y40987D02*
X28618Y40987D01*
X28375Y41145D02*
X28660Y41145D01*
X28417Y41302D02*
X28694Y41302D01*
X28335Y41636D02*
X28430Y41282D01*
X28495Y41198D01*
X28599Y41184D01*
X28683Y41249D01*
X28697Y41353D01*
X28602Y41707D01*
X28537Y41791D01*
X28433Y41805D01*
X28349Y41741D01*
X28335Y41636D01*
X28414Y41342D02*
X28695Y41342D01*
X28372Y41499D02*
X28657Y41499D01*
X28338Y41657D02*
X28615Y41657D01*
X28112Y41834D02*
X28371Y41574D01*
X28469Y41534D01*
X28566Y41574D01*
X28606Y41672D01*
X28566Y41769D01*
X28307Y42029D01*
X28209Y42069D01*
X28112Y42029D01*
X28071Y41931D01*
X28112Y41834D01*
X28254Y41691D02*
X28598Y41691D01*
X28105Y41849D02*
X28486Y41849D01*
X28103Y42006D02*
X28329Y42006D01*
X27819Y41893D02*
X28173Y41798D01*
X28278Y41812D01*
X28342Y41895D01*
X28328Y42000D01*
X28245Y42064D01*
X27890Y42159D01*
X27786Y42145D01*
X27722Y42062D01*
X27735Y41957D01*
X27819Y41893D01*
X27738Y41956D02*
X28334Y41956D01*
X27761Y42113D02*
X28063Y42113D01*
X40231Y12421D02*
X40231Y8877D01*
X40288Y8738D01*
X40428Y8681D01*
X40567Y8738D01*
X40625Y8877D01*
X40625Y12421D01*
X40567Y12560D01*
X40428Y12618D01*
X40288Y12560D01*
X40231Y12421D01*
X40247Y8838D02*
X40608Y8838D01*
X40231Y8996D02*
X40625Y8996D01*
X40231Y9153D02*
X40625Y9153D01*
X40231Y9311D02*
X40625Y9311D01*
X40231Y9468D02*
X40625Y9468D01*
X40231Y9625D02*
X40625Y9625D01*
X40231Y9783D02*
X40625Y9783D01*
X40231Y9940D02*
X40625Y9940D01*
X40231Y10098D02*
X40625Y10098D01*
X40231Y10255D02*
X40625Y10255D01*
X40231Y10413D02*
X40625Y10413D01*
X40231Y10570D02*
X40625Y10570D01*
X40231Y10728D02*
X40625Y10728D01*
X40231Y10885D02*
X40625Y10885D01*
X40231Y11043D02*
X40625Y11043D01*
X40231Y11200D02*
X40625Y11200D01*
X40231Y11358D02*
X40625Y11358D01*
X40231Y11515D02*
X40625Y11515D01*
X40231Y11673D02*
X40625Y11673D01*
X40231Y11830D02*
X40625Y11830D01*
X40231Y11988D02*
X40625Y11988D01*
X40231Y12145D02*
X40625Y12145D01*
X40231Y12303D02*
X40625Y12303D01*
X40247Y12460D02*
X40608Y12460D01*
X40428Y12618D02*
X40428Y12618D01*
X42855Y11947D02*
X42974Y11504D01*
X43065Y11384D01*
X43215Y11364D01*
X43334Y11456D01*
X43354Y11606D01*
X43235Y12048D01*
X43144Y12168D01*
X42994Y12188D01*
X42875Y12096D01*
X42855Y11947D01*
X42969Y11522D02*
X43343Y11522D01*
X42927Y11679D02*
X43334Y11679D01*
X42884Y11837D02*
X43292Y11837D01*
X42861Y11994D02*
X43250Y11994D01*
X42948Y12152D02*
X43156Y12152D01*
X42582Y12183D02*
X42906Y11858D01*
X43045Y11801D01*
X43184Y11858D01*
X43242Y11998D01*
X43184Y12137D01*
X42860Y12461D01*
X42721Y12519D01*
X42582Y12461D01*
X42524Y12322D01*
X42582Y12183D01*
X42806Y11958D02*
X43226Y11958D01*
X42649Y12116D02*
X43193Y12116D01*
X42544Y12273D02*
X43048Y12273D01*
X42569Y12431D02*
X42891Y12431D01*
X42227Y12250D02*
X42670Y12132D01*
X42819Y12151D01*
X42911Y12271D01*
X42891Y12420D01*
X42772Y12512D01*
X42329Y12631D01*
X42180Y12611D01*
X42088Y12491D01*
X42108Y12342D01*
X42227Y12250D01*
X42177Y12289D02*
X42909Y12289D01*
X42094Y12447D02*
X42857Y12447D01*
X42174Y12604D02*
X42428Y12604D01*
X41886Y12132D02*
X42329Y12250D01*
X42449Y12342D01*
X42468Y12491D01*
X42376Y12611D01*
X42227Y12631D01*
X41784Y12512D01*
X41665Y12420D01*
X41645Y12271D01*
X41737Y12151D01*
X41886Y12132D01*
X41647Y12289D02*
X42380Y12289D01*
X41699Y12447D02*
X42462Y12447D01*
X42128Y12604D02*
X42382Y12604D01*
X41650Y11858D02*
X41974Y12183D01*
X42032Y12322D01*
X41974Y12461D01*
X41835Y12519D01*
X41696Y12461D01*
X41372Y12137D01*
X41314Y11998D01*
X41372Y11858D01*
X41511Y11801D01*
X41650Y11858D01*
X41330Y11958D02*
X41750Y11958D01*
X41363Y12116D02*
X41907Y12116D01*
X41508Y12273D02*
X42012Y12273D01*
X41666Y12431D02*
X41987Y12431D01*
X41582Y11504D02*
X41701Y11947D01*
X41681Y12096D01*
X41562Y12188D01*
X41412Y12168D01*
X41321Y12048D01*
X41202Y11606D01*
X41222Y11456D01*
X41341Y11364D01*
X41491Y11384D01*
X41582Y11504D01*
X41213Y11522D02*
X41587Y11522D01*
X41222Y11679D02*
X41629Y11679D01*
X41264Y11837D02*
X41672Y11837D01*
X41306Y11994D02*
X41695Y11994D01*
X41400Y12152D02*
X41608Y12152D01*
X41609Y9744D02*
X41609Y11555D01*
X41551Y11694D01*
X41412Y11751D01*
X41273Y11694D01*
X41215Y11555D01*
X41215Y9744D01*
X41273Y9604D01*
X41412Y9547D01*
X41551Y9604D01*
X41609Y9744D01*
X41231Y9704D02*
X41592Y9704D01*
X41215Y9862D02*
X41609Y9862D01*
X41215Y10019D02*
X41609Y10019D01*
X41215Y10177D02*
X41609Y10177D01*
X41215Y10334D02*
X41609Y10334D01*
X41215Y10492D02*
X41609Y10492D01*
X41215Y10649D02*
X41609Y10649D01*
X41215Y10807D02*
X41609Y10807D01*
X41215Y10964D02*
X41609Y10964D01*
X41215Y11122D02*
X41609Y11122D01*
X41215Y11279D02*
X41609Y11279D01*
X41215Y11437D02*
X41609Y11437D01*
X41231Y11594D02*
X41592Y11594D01*
X41412Y11751D02*
X41412Y11751D01*
X41701Y9352D02*
X41582Y9795D01*
X41491Y9914D01*
X41341Y9934D01*
X41222Y9842D01*
X41202Y9693D01*
X41321Y9250D01*
X41412Y9130D01*
X41562Y9111D01*
X41681Y9202D01*
X41701Y9352D01*
X41316Y9268D02*
X41690Y9268D01*
X41274Y9426D02*
X41681Y9426D01*
X41231Y9583D02*
X41639Y9583D01*
X41208Y9740D02*
X41597Y9740D01*
X41295Y9898D02*
X41503Y9898D01*
X41974Y9116D02*
X41650Y9440D01*
X41511Y9498D01*
X41372Y9440D01*
X41314Y9301D01*
X41372Y9161D01*
X41696Y8837D01*
X41835Y8780D01*
X41974Y8837D01*
X42032Y8976D01*
X41974Y9116D01*
X41596Y8937D02*
X42016Y8937D01*
X41439Y9095D02*
X41983Y9095D01*
X41334Y9252D02*
X41838Y9252D01*
X41359Y9410D02*
X41680Y9410D01*
X42329Y9048D02*
X41886Y9167D01*
X41737Y9147D01*
X41645Y9027D01*
X41665Y8878D01*
X41784Y8786D01*
X42227Y8668D01*
X42376Y8687D01*
X42468Y8807D01*
X42449Y8956D01*
X42329Y9048D01*
X41734Y8825D02*
X42466Y8825D01*
X41651Y8983D02*
X42414Y8983D01*
X41731Y9140D02*
X41985Y9140D01*
X42670Y9167D02*
X42227Y9048D01*
X42108Y8956D01*
X42088Y8807D01*
X42180Y8687D01*
X42329Y8668D01*
X42772Y8786D01*
X42891Y8878D01*
X42911Y9027D01*
X42819Y9147D01*
X42670Y9167D01*
X42090Y8825D02*
X42822Y8825D01*
X42142Y8983D02*
X42905Y8983D01*
X42571Y9140D02*
X42825Y9140D01*
X42906Y9440D02*
X42582Y9116D01*
X42524Y8976D01*
X42582Y8837D01*
X42721Y8780D01*
X42860Y8837D01*
X43184Y9161D01*
X43242Y9301D01*
X43184Y9440D01*
X43045Y9498D01*
X42906Y9440D01*
X42540Y8937D02*
X42960Y8937D01*
X42573Y9095D02*
X43117Y9095D01*
X42718Y9252D02*
X43222Y9252D01*
X42876Y9410D02*
X43197Y9410D01*
X42974Y9795D02*
X42855Y9352D01*
X42875Y9202D01*
X42994Y9111D01*
X43144Y9130D01*
X43235Y9250D01*
X43354Y9693D01*
X43334Y9842D01*
X43215Y9934D01*
X43065Y9914D01*
X42974Y9795D01*
X42866Y9268D02*
X43240Y9268D01*
X42875Y9426D02*
X43282Y9426D01*
X42917Y9583D02*
X43325Y9583D01*
X42959Y9740D02*
X43348Y9740D01*
X43053Y9898D02*
X43261Y9898D01*
X44737Y12560D02*
X44029Y11851D01*
X43971Y11712D01*
X44029Y11573D01*
X44168Y11515D01*
X44307Y11573D01*
X45016Y12282D01*
X45073Y12421D01*
X45016Y12560D01*
X44876Y12618D01*
X44737Y12560D01*
X43987Y11673D02*
X44407Y11673D01*
X44020Y11830D02*
X44564Y11830D01*
X44165Y11988D02*
X44722Y11988D01*
X44322Y12145D02*
X44879Y12145D01*
X44480Y12303D02*
X45024Y12303D01*
X44637Y12460D02*
X45057Y12460D01*
X44876Y12618D02*
X44876Y12618D01*
X45073Y8877D02*
X45073Y12421D01*
X45016Y12560D01*
X44876Y12618D01*
X44737Y12560D01*
X44680Y12421D01*
X44680Y8877D01*
X44737Y8738D01*
X44876Y8681D01*
X45016Y8738D01*
X45073Y8877D01*
X44696Y8838D02*
X45057Y8838D01*
X44680Y8996D02*
X45073Y8996D01*
X44680Y9153D02*
X45073Y9153D01*
X44680Y9311D02*
X45073Y9311D01*
X44680Y9468D02*
X45073Y9468D01*
X44680Y9625D02*
X45073Y9625D01*
X44680Y9783D02*
X45073Y9783D01*
X44680Y9940D02*
X45073Y9940D01*
X44680Y10098D02*
X45073Y10098D01*
X44680Y10255D02*
X45073Y10255D01*
X44680Y10413D02*
X45073Y10413D01*
X44680Y10570D02*
X45073Y10570D01*
X44680Y10728D02*
X45073Y10728D01*
X44680Y10885D02*
X45073Y10885D01*
X44680Y11043D02*
X45073Y11043D01*
X44680Y11200D02*
X45073Y11200D01*
X44680Y11358D02*
X45073Y11358D01*
X44680Y11515D02*
X45073Y11515D01*
X44680Y11673D02*
X45073Y11673D01*
X44680Y11830D02*
X45073Y11830D01*
X44680Y11988D02*
X45073Y11988D01*
X44680Y12145D02*
X45073Y12145D01*
X44680Y12303D02*
X45073Y12303D01*
X44696Y12460D02*
X45057Y12460D01*
X44876Y12618D02*
X44876Y12618D01*
X41619Y7760D02*
X40399Y4217D01*
X40408Y4067D01*
X40521Y3967D01*
X40671Y3976D01*
X40771Y4089D01*
X41992Y7632D01*
X41983Y7783D01*
X41870Y7882D01*
X41719Y7873D01*
X41619Y7760D01*
X40405Y4124D02*
X40783Y4124D01*
X40421Y4282D02*
X40838Y4282D01*
X40476Y4439D02*
X40892Y4439D01*
X40530Y4597D02*
X40946Y4597D01*
X40584Y4754D02*
X41000Y4754D01*
X40638Y4912D02*
X41055Y4912D01*
X40693Y5069D02*
X41109Y5069D01*
X40747Y5227D02*
X41163Y5227D01*
X40801Y5384D02*
X41217Y5384D01*
X40855Y5542D02*
X41272Y5542D01*
X40910Y5699D02*
X41326Y5699D01*
X40964Y5857D02*
X41380Y5857D01*
X41018Y6014D02*
X41434Y6014D01*
X41072Y6172D02*
X41489Y6172D01*
X41126Y6329D02*
X41543Y6329D01*
X41181Y6487D02*
X41597Y6487D01*
X41235Y6644D02*
X41651Y6644D01*
X41289Y6802D02*
X41706Y6802D01*
X41343Y6959D02*
X41760Y6959D01*
X41398Y7117D02*
X41814Y7117D01*
X41452Y7274D02*
X41868Y7274D01*
X41506Y7431D02*
X41923Y7431D01*
X41560Y7589D02*
X41977Y7589D01*
X41615Y7746D02*
X41985Y7746D01*
X43251Y4219D02*
X41991Y7762D01*
X41890Y7874D01*
X41740Y7882D01*
X41628Y7781D01*
X41620Y7630D01*
X42880Y4087D01*
X42981Y3975D01*
X43131Y3968D01*
X43243Y4069D01*
X43251Y4219D01*
X42866Y4125D02*
X43246Y4125D01*
X42810Y4283D02*
X43228Y4283D01*
X42754Y4440D02*
X43172Y4440D01*
X42698Y4597D02*
X43116Y4597D01*
X42643Y4755D02*
X43060Y4755D01*
X42587Y4912D02*
X43004Y4912D01*
X42531Y5070D02*
X42948Y5070D01*
X42475Y5227D02*
X42892Y5227D01*
X42419Y5385D02*
X42836Y5385D01*
X42363Y5542D02*
X42780Y5542D01*
X42307Y5700D02*
X42724Y5700D01*
X42251Y5857D02*
X42668Y5857D01*
X42195Y6015D02*
X42612Y6015D01*
X42139Y6172D02*
X42556Y6172D01*
X42083Y6330D02*
X42500Y6330D01*
X42027Y6487D02*
X42444Y6487D01*
X41971Y6645D02*
X42388Y6645D01*
X41915Y6802D02*
X42332Y6802D01*
X41859Y6960D02*
X42276Y6960D01*
X41803Y7117D02*
X42220Y7117D01*
X41747Y7275D02*
X42164Y7275D01*
X41691Y7432D02*
X42108Y7432D01*
X41635Y7590D02*
X42052Y7590D01*
X41626Y7747D02*
X41996Y7747D01*
X42711Y5413D02*
X40939Y5413D01*
X40800Y5355D01*
X40743Y5216D01*
X40800Y5077D01*
X40939Y5019D01*
X42711Y5019D01*
X42850Y5077D01*
X42908Y5216D01*
X42850Y5355D01*
X42711Y5413D01*
X40759Y5177D02*
X42892Y5177D01*
X40792Y5334D02*
X42859Y5334D01*
X45821Y7893D02*
X44050Y7893D01*
X43911Y7836D01*
X43853Y7696D01*
X43911Y7557D01*
X44050Y7500D01*
X45821Y7500D01*
X45961Y7557D01*
X46018Y7696D01*
X45961Y7836D01*
X45821Y7893D01*
X43869Y7657D02*
X46002Y7657D01*
X43902Y7814D02*
X45969Y7814D01*
X45113Y4153D02*
X45113Y7696D01*
X45055Y7836D01*
X44916Y7893D01*
X44777Y7836D01*
X44719Y7696D01*
X44719Y4153D01*
X44777Y4014D01*
X44916Y3956D01*
X45055Y4014D01*
X45113Y4153D01*
X44735Y4114D02*
X45096Y4114D01*
X44719Y4271D02*
X45113Y4271D01*
X44719Y4429D02*
X45113Y4429D01*
X44719Y4586D02*
X45113Y4586D01*
X44719Y4744D02*
X45113Y4744D01*
X44719Y4901D02*
X45113Y4901D01*
X44719Y5059D02*
X45113Y5059D01*
X44719Y5216D02*
X45113Y5216D01*
X44719Y5374D02*
X45113Y5374D01*
X44719Y5531D02*
X45113Y5531D01*
X44719Y5688D02*
X45113Y5688D01*
X44719Y5846D02*
X45113Y5846D01*
X44719Y6003D02*
X45113Y6003D01*
X44719Y6161D02*
X45113Y6161D01*
X44719Y6318D02*
X45113Y6318D01*
X44719Y6476D02*
X45113Y6476D01*
X44719Y6633D02*
X45113Y6633D01*
X44719Y6791D02*
X45113Y6791D01*
X44719Y6948D02*
X45113Y6948D01*
X44719Y7106D02*
X45113Y7106D01*
X44719Y7263D02*
X45113Y7263D01*
X44719Y7421D02*
X45113Y7421D01*
X44719Y7578D02*
X45113Y7578D01*
X44735Y7736D02*
X45096Y7736D01*
X44916Y7893D02*
X44916Y7893D01*
X48577Y7893D02*
X46806Y7893D01*
X46666Y7836D01*
X46609Y7696D01*
X46666Y7557D01*
X46806Y7500D01*
X48577Y7500D01*
X48716Y7557D01*
X48774Y7696D01*
X48716Y7836D01*
X48577Y7893D01*
X46625Y7657D02*
X48758Y7657D01*
X46658Y7814D02*
X48725Y7814D01*
X47869Y4153D02*
X47869Y7696D01*
X47811Y7836D01*
X47672Y7893D01*
X47533Y7836D01*
X47475Y7696D01*
X47475Y4153D01*
X47533Y4014D01*
X47672Y3956D01*
X47811Y4014D01*
X47869Y4153D01*
X47491Y4114D02*
X47852Y4114D01*
X47475Y4271D02*
X47869Y4271D01*
X47475Y4429D02*
X47869Y4429D01*
X47475Y4586D02*
X47869Y4586D01*
X47475Y4744D02*
X47869Y4744D01*
X47475Y4901D02*
X47869Y4901D01*
X47475Y5059D02*
X47869Y5059D01*
X47475Y5216D02*
X47869Y5216D01*
X47475Y5374D02*
X47869Y5374D01*
X47475Y5531D02*
X47869Y5531D01*
X47475Y5688D02*
X47869Y5688D01*
X47475Y5846D02*
X47869Y5846D01*
X47475Y6003D02*
X47869Y6003D01*
X47475Y6161D02*
X47869Y6161D01*
X47475Y6318D02*
X47869Y6318D01*
X47475Y6476D02*
X47869Y6476D01*
X47475Y6633D02*
X47869Y6633D01*
X47475Y6791D02*
X47869Y6791D01*
X47475Y6948D02*
X47869Y6948D01*
X47475Y7106D02*
X47869Y7106D01*
X47475Y7263D02*
X47869Y7263D01*
X47475Y7421D02*
X47869Y7421D01*
X47475Y7578D02*
X47869Y7578D01*
X47491Y7736D02*
X47852Y7736D01*
X47672Y7893D02*
X47672Y7893D01*
X49365Y7696D02*
X49365Y4153D01*
X49422Y4014D01*
X49562Y3956D01*
X49701Y4014D01*
X49758Y4153D01*
X49758Y7696D01*
X49701Y7836D01*
X49562Y7893D01*
X49422Y7836D01*
X49365Y7696D01*
X49381Y4114D02*
X49742Y4114D01*
X49365Y4271D02*
X49758Y4271D01*
X49365Y4429D02*
X49758Y4429D01*
X49365Y4586D02*
X49758Y4586D01*
X49365Y4744D02*
X49758Y4744D01*
X49365Y4901D02*
X49758Y4901D01*
X49365Y5059D02*
X49758Y5059D01*
X49365Y5216D02*
X49758Y5216D01*
X49365Y5374D02*
X49758Y5374D01*
X49365Y5531D02*
X49758Y5531D01*
X49365Y5688D02*
X49758Y5688D01*
X49365Y5846D02*
X49758Y5846D01*
X49365Y6003D02*
X49758Y6003D01*
X49365Y6161D02*
X49758Y6161D01*
X49365Y6318D02*
X49758Y6318D01*
X49365Y6476D02*
X49758Y6476D01*
X49365Y6633D02*
X49758Y6633D01*
X49365Y6791D02*
X49758Y6791D01*
X49365Y6948D02*
X49758Y6948D01*
X49365Y7106D02*
X49758Y7106D01*
X49365Y7263D02*
X49758Y7263D01*
X49365Y7421D02*
X49758Y7421D01*
X49365Y7578D02*
X49758Y7578D01*
X49381Y7736D02*
X49742Y7736D01*
X49562Y7893D02*
X49562Y7893D01*
X50349Y7696D02*
X50349Y4153D01*
X50407Y4014D01*
X50546Y3956D01*
X50685Y4014D01*
X50743Y4153D01*
X50743Y7696D01*
X50685Y7836D01*
X50546Y7893D01*
X50407Y7836D01*
X50349Y7696D01*
X50365Y4114D02*
X50726Y4114D01*
X50349Y4271D02*
X50743Y4271D01*
X50349Y4429D02*
X50743Y4429D01*
X50349Y4586D02*
X50743Y4586D01*
X50349Y4744D02*
X50743Y4744D01*
X50349Y4901D02*
X50743Y4901D01*
X50349Y5059D02*
X50743Y5059D01*
X50349Y5216D02*
X50743Y5216D01*
X50349Y5374D02*
X50743Y5374D01*
X50349Y5531D02*
X50743Y5531D01*
X50349Y5688D02*
X50743Y5688D01*
X50349Y5846D02*
X50743Y5846D01*
X50349Y6003D02*
X50743Y6003D01*
X50349Y6161D02*
X50743Y6161D01*
X50349Y6318D02*
X50743Y6318D01*
X50349Y6476D02*
X50743Y6476D01*
X50349Y6633D02*
X50743Y6633D01*
X50349Y6791D02*
X50743Y6791D01*
X50349Y6948D02*
X50743Y6948D01*
X50349Y7106D02*
X50743Y7106D01*
X50349Y7263D02*
X50743Y7263D01*
X50349Y7421D02*
X50743Y7421D01*
X50349Y7578D02*
X50743Y7578D01*
X50365Y7736D02*
X50726Y7736D01*
X50546Y7893D02*
X50546Y7893D01*
X52493Y4241D02*
X50722Y7784D01*
X50608Y7883D01*
X50458Y7872D01*
X50359Y7759D01*
X50370Y7608D01*
X52141Y4065D01*
X52255Y3966D01*
X52405Y3977D01*
X52504Y4091D01*
X52493Y4241D01*
X52112Y4124D02*
X52502Y4124D01*
X52033Y4281D02*
X52473Y4281D01*
X51954Y4439D02*
X52395Y4439D01*
X51876Y4596D02*
X52316Y4596D01*
X51797Y4754D02*
X52237Y4754D01*
X51718Y4911D02*
X52158Y4911D01*
X51640Y5069D02*
X52080Y5069D01*
X51561Y5226D02*
X52001Y5226D01*
X51482Y5384D02*
X51922Y5384D01*
X51403Y5541D02*
X51843Y5541D01*
X51325Y5699D02*
X51765Y5699D01*
X51246Y5856D02*
X51686Y5856D01*
X51167Y6014D02*
X51607Y6014D01*
X51088Y6171D02*
X51529Y6171D01*
X51010Y6329D02*
X51450Y6329D01*
X50931Y6486D02*
X51371Y6486D01*
X50852Y6643D02*
X51292Y6643D01*
X50773Y6801D02*
X51214Y6801D01*
X50695Y6958D02*
X51135Y6958D01*
X50616Y7116D02*
X51056Y7116D01*
X50537Y7273D02*
X50977Y7273D01*
X50458Y7431D02*
X50899Y7431D01*
X50380Y7588D02*
X50820Y7588D01*
X50360Y7746D02*
X50741Y7746D01*
X52121Y7696D02*
X52121Y4153D01*
X52178Y4014D01*
X52317Y3956D01*
X52457Y4014D01*
X52514Y4153D01*
X52514Y7696D01*
X52457Y7836D01*
X52317Y7893D01*
X52178Y7836D01*
X52121Y7696D01*
X52137Y4114D02*
X52498Y4114D01*
X52121Y4271D02*
X52514Y4271D01*
X52121Y4429D02*
X52514Y4429D01*
X52121Y4586D02*
X52514Y4586D01*
X52121Y4744D02*
X52514Y4744D01*
X52121Y4901D02*
X52514Y4901D01*
X52121Y5059D02*
X52514Y5059D01*
X52121Y5216D02*
X52514Y5216D01*
X52121Y5374D02*
X52514Y5374D01*
X52121Y5531D02*
X52514Y5531D01*
X52121Y5688D02*
X52514Y5688D01*
X52121Y5846D02*
X52514Y5846D01*
X52121Y6003D02*
X52514Y6003D01*
X52121Y6161D02*
X52514Y6161D01*
X52121Y6318D02*
X52514Y6318D01*
X52121Y6476D02*
X52514Y6476D01*
X52121Y6633D02*
X52514Y6633D01*
X52121Y6791D02*
X52514Y6791D01*
X52121Y6948D02*
X52514Y6948D01*
X52121Y7106D02*
X52514Y7106D01*
X52121Y7263D02*
X52514Y7263D01*
X52121Y7421D02*
X52514Y7421D01*
X52121Y7578D02*
X52514Y7578D01*
X52137Y7736D02*
X52498Y7736D01*
X52317Y7893D02*
X52317Y7893D01*
X54352Y5442D02*
X53486Y7765D01*
X53383Y7875D01*
X53233Y7881D01*
X53123Y7778D01*
X53117Y7628D01*
X53983Y5305D01*
X54086Y5194D01*
X54237Y5189D01*
X54347Y5292D01*
X54352Y5442D01*
X53968Y5347D02*
X54349Y5347D01*
X53909Y5504D02*
X54329Y5504D01*
X53850Y5662D02*
X54271Y5662D01*
X53792Y5819D02*
X54212Y5819D01*
X53733Y5976D02*
X54153Y5976D01*
X53674Y6134D02*
X54094Y6134D01*
X53615Y6291D02*
X54036Y6291D01*
X53557Y6449D02*
X53977Y6449D01*
X53498Y6606D02*
X53918Y6606D01*
X53439Y6764D02*
X53859Y6764D01*
X53381Y6921D02*
X53801Y6921D01*
X53322Y7079D02*
X53742Y7079D01*
X53263Y7236D02*
X53683Y7236D01*
X53204Y7394D02*
X53625Y7394D01*
X53146Y7551D02*
X53566Y7551D01*
X53120Y7709D02*
X53507Y7709D01*
X53217Y7866D02*
X53392Y7866D01*
X54890Y7768D02*
X53984Y5445D01*
X53988Y5294D01*
X54096Y5190D01*
X54247Y5193D01*
X54351Y5302D01*
X55257Y7625D01*
X55254Y7775D01*
X55145Y7880D01*
X54994Y7877D01*
X54890Y7768D01*
X53986Y5348D02*
X54369Y5348D01*
X54008Y5505D02*
X54430Y5505D01*
X54069Y5663D02*
X54492Y5663D01*
X54131Y5820D02*
X54553Y5820D01*
X54192Y5978D02*
X54615Y5978D01*
X54253Y6135D02*
X54676Y6135D01*
X54315Y6292D02*
X54737Y6292D01*
X54376Y6450D02*
X54799Y6450D01*
X54438Y6607D02*
X54860Y6607D01*
X54499Y6765D02*
X54921Y6765D01*
X54560Y6922D02*
X54983Y6922D01*
X54622Y7080D02*
X55044Y7080D01*
X54683Y7237D02*
X55106Y7237D01*
X54745Y7395D02*
X55167Y7395D01*
X54806Y7552D02*
X55228Y7552D01*
X54867Y7710D02*
X55255Y7710D01*
X54985Y7867D02*
X55158Y7867D01*
X54365Y4153D02*
X54365Y5374D01*
X54307Y5513D01*
X54168Y5570D01*
X54029Y5513D01*
X53971Y5374D01*
X53971Y4153D01*
X54029Y4014D01*
X54168Y3956D01*
X54307Y4014D01*
X54365Y4153D01*
X53987Y4114D02*
X54348Y4114D01*
X53971Y4271D02*
X54365Y4271D01*
X53971Y4429D02*
X54365Y4429D01*
X53971Y4586D02*
X54365Y4586D01*
X53971Y4744D02*
X54365Y4744D01*
X53971Y4901D02*
X54365Y4901D01*
X53971Y5059D02*
X54365Y5059D01*
X53971Y5216D02*
X54365Y5216D01*
X53971Y5374D02*
X54365Y5374D01*
X54073Y5531D02*
X54263Y5531D01*
X56241Y4947D02*
X57304Y7624D01*
X57301Y7774D01*
X57193Y7879D01*
X57043Y7877D01*
X56938Y7769D01*
X55875Y5092D01*
X55877Y4941D01*
X55985Y4836D01*
X56136Y4838D01*
X56241Y4947D01*
X55876Y4994D02*
X56259Y4994D01*
X55898Y5151D02*
X56322Y5151D01*
X55961Y5309D02*
X56384Y5309D01*
X56023Y5466D02*
X56447Y5466D01*
X56086Y5624D02*
X56509Y5624D01*
X56148Y5781D02*
X56572Y5781D01*
X56211Y5939D02*
X56634Y5939D01*
X56273Y6096D02*
X56697Y6096D01*
X56336Y6254D02*
X56759Y6254D01*
X56398Y6411D02*
X56822Y6411D01*
X56461Y6569D02*
X56885Y6569D01*
X56523Y6726D02*
X56947Y6726D01*
X56586Y6883D02*
X57010Y6883D01*
X56649Y7041D02*
X57072Y7041D01*
X56711Y7198D02*
X57135Y7198D01*
X56774Y7356D02*
X57197Y7356D01*
X56836Y7513D02*
X57260Y7513D01*
X56899Y7671D02*
X57303Y7671D01*
X56995Y7828D02*
X57246Y7828D01*
X57475Y5216D02*
X56058Y5216D01*
X55918Y5158D01*
X55861Y5019D01*
X55918Y4880D01*
X56058Y4822D01*
X57475Y4822D01*
X57614Y4880D01*
X57672Y5019D01*
X57614Y5158D01*
X57475Y5216D01*
X55877Y4980D02*
X57655Y4980D01*
X55910Y5137D02*
X57623Y5137D01*
X57317Y4153D02*
X57317Y5728D01*
X57260Y5867D01*
X57121Y5925D01*
X56981Y5867D01*
X56924Y5728D01*
X56924Y4153D01*
X56981Y4014D01*
X57121Y3956D01*
X57260Y4014D01*
X57317Y4153D01*
X56940Y4114D02*
X57301Y4114D01*
X56924Y4271D02*
X57317Y4271D01*
X56924Y4429D02*
X57317Y4429D01*
X56924Y4586D02*
X57317Y4586D01*
X56924Y4744D02*
X57317Y4744D01*
X56924Y4901D02*
X57317Y4901D01*
X56924Y5059D02*
X57317Y5059D01*
X56924Y5216D02*
X57317Y5216D01*
X56924Y5374D02*
X57317Y5374D01*
X56924Y5531D02*
X57317Y5531D01*
X56924Y5688D02*
X57317Y5688D01*
X56973Y5846D02*
X57268Y5846D01*
X58976Y4377D02*
X58708Y4615D01*
X58566Y4665D01*
X58430Y4599D01*
X58381Y4457D01*
X58446Y4321D01*
X58714Y4083D01*
X58856Y4033D01*
X58992Y4099D01*
X59041Y4241D01*
X58976Y4377D01*
X58593Y4191D02*
X59024Y4191D01*
X58433Y4348D02*
X58990Y4348D01*
X58398Y4506D02*
X58831Y4506D01*
X58563Y4663D02*
X58570Y4663D01*
X59237Y4345D02*
X58887Y4422D01*
X58739Y4396D01*
X58653Y4272D01*
X58679Y4124D01*
X58803Y4038D01*
X59153Y3961D01*
X59301Y3987D01*
X59387Y4111D01*
X59361Y4259D01*
X59237Y4345D01*
X58687Y4118D02*
X59386Y4118D01*
X58655Y4276D02*
X59337Y4276D01*
X59481Y4445D02*
X59138Y4341D01*
X59021Y4246D01*
X59006Y4096D01*
X59102Y3979D01*
X59252Y3964D01*
X59595Y4068D01*
X59711Y4164D01*
X59726Y4314D01*
X59631Y4430D01*
X59481Y4445D01*
X59009Y4122D02*
X59660Y4122D01*
X59062Y4279D02*
X59723Y4279D01*
X59453Y4437D02*
X59564Y4437D01*
X59644Y4651D02*
X59396Y4393D01*
X59341Y4253D01*
X59401Y4115D01*
X59542Y4060D01*
X59680Y4120D01*
X59928Y4379D01*
X59983Y4519D01*
X59922Y4657D01*
X59782Y4712D01*
X59644Y4651D01*
X59356Y4217D02*
X59773Y4217D01*
X59389Y4375D02*
X59924Y4375D01*
X59530Y4532D02*
X59977Y4532D01*
X59732Y4690D02*
X59838Y4690D01*
X59686Y4911D02*
X59596Y4565D01*
X59616Y4415D01*
X59736Y4325D01*
X59886Y4345D01*
X59977Y4465D01*
X60067Y4812D01*
X60046Y4961D01*
X59926Y5052D01*
X59777Y5032D01*
X59686Y4911D01*
X59607Y4482D02*
X59981Y4482D01*
X59615Y4640D02*
X60022Y4640D01*
X59656Y4797D02*
X60063Y4797D01*
X59719Y4954D02*
X60047Y4954D01*
X59680Y5570D02*
X59680Y4862D01*
X59737Y4723D01*
X59876Y4665D01*
X60016Y4723D01*
X60073Y4862D01*
X60073Y5570D01*
X60016Y5710D01*
X59876Y5767D01*
X59737Y5710D01*
X59680Y5570D01*
X59696Y4822D02*
X60057Y4822D01*
X59680Y4980D02*
X60073Y4980D01*
X59680Y5137D02*
X60073Y5137D01*
X59680Y5295D02*
X60073Y5295D01*
X59680Y5452D02*
X60073Y5452D01*
X59696Y5610D02*
X60057Y5610D01*
X59876Y5767D02*
X59876Y5767D01*
X59591Y5874D02*
X59686Y5519D01*
X59778Y5400D01*
X59927Y5380D01*
X60047Y5472D01*
X60067Y5621D01*
X59972Y5976D01*
X59880Y6095D01*
X59731Y6115D01*
X59611Y6023D01*
X59591Y5874D01*
X59681Y5538D02*
X60056Y5538D01*
X59639Y5695D02*
X60047Y5695D01*
X59597Y5853D02*
X60005Y5853D01*
X59609Y6010D02*
X59945Y6010D01*
X59383Y6045D02*
X59642Y5786D01*
X59782Y5728D01*
X59921Y5786D01*
X59978Y5925D01*
X59921Y6064D01*
X59661Y6323D01*
X59522Y6381D01*
X59383Y6323D01*
X59325Y6184D01*
X59383Y6045D01*
X59543Y5885D02*
X59962Y5885D01*
X59385Y6043D02*
X59929Y6043D01*
X59332Y6200D02*
X59784Y6200D01*
X59466Y6358D02*
X59578Y6358D01*
X59117Y6089D02*
X59471Y5994D01*
X59621Y6014D01*
X59712Y6133D01*
X59693Y6283D01*
X59573Y6374D01*
X59219Y6469D01*
X59069Y6450D01*
X58978Y6330D01*
X58997Y6181D01*
X59117Y6089D01*
X59035Y6151D02*
X59710Y6151D01*
X58980Y6309D02*
X59658Y6309D01*
X59198Y6466D02*
X59229Y6466D01*
X58864Y5994D02*
X59219Y6089D01*
X59338Y6181D01*
X59358Y6330D01*
X59266Y6450D01*
X59117Y6469D01*
X58763Y6374D01*
X58643Y6283D01*
X58623Y6133D01*
X58715Y6014D01*
X58864Y5994D01*
X58626Y6151D02*
X59300Y6151D01*
X58677Y6309D02*
X59355Y6309D01*
X59106Y6466D02*
X59138Y6466D01*
X58693Y5786D02*
X58953Y6045D01*
X59010Y6184D01*
X58953Y6323D01*
X58813Y6381D01*
X58674Y6323D01*
X58415Y6064D01*
X58357Y5925D01*
X58415Y5786D01*
X58554Y5728D01*
X58693Y5786D01*
X58374Y5885D02*
X58793Y5885D01*
X58406Y6043D02*
X58951Y6043D01*
X58551Y6200D02*
X59004Y6200D01*
X58758Y6358D02*
X58869Y6358D01*
X58649Y5519D02*
X58744Y5874D01*
X58725Y6023D01*
X58605Y6115D01*
X58456Y6095D01*
X58364Y5976D01*
X58269Y5621D01*
X58289Y5472D01*
X58408Y5380D01*
X58558Y5400D01*
X58649Y5519D01*
X58280Y5538D02*
X58654Y5538D01*
X58289Y5695D02*
X58696Y5695D01*
X58331Y5853D02*
X58739Y5853D01*
X58390Y6010D02*
X58726Y6010D01*
X58262Y7696D02*
X58262Y5570D01*
X58320Y5431D01*
X58459Y5374D01*
X58598Y5431D01*
X58656Y5570D01*
X58656Y7696D01*
X58598Y7836D01*
X58459Y7893D01*
X58320Y7836D01*
X58262Y7696D01*
X58279Y5531D02*
X58640Y5531D01*
X58262Y5688D02*
X58656Y5688D01*
X58262Y5846D02*
X58656Y5846D01*
X58262Y6003D02*
X58656Y6003D01*
X58262Y6161D02*
X58656Y6161D01*
X58262Y6318D02*
X58656Y6318D01*
X58262Y6476D02*
X58656Y6476D01*
X58262Y6633D02*
X58656Y6633D01*
X58262Y6791D02*
X58656Y6791D01*
X58262Y6948D02*
X58656Y6948D01*
X58262Y7106D02*
X58656Y7106D01*
X58262Y7263D02*
X58656Y7263D01*
X58262Y7421D02*
X58656Y7421D01*
X58262Y7578D02*
X58656Y7578D01*
X58279Y7736D02*
X58640Y7736D01*
X58459Y7893D02*
X58459Y7893D01*
X59876Y7893D02*
X58459Y7893D01*
X58320Y7836D01*
X58262Y7696D01*
X58320Y7557D01*
X58459Y7500D01*
X59876Y7500D01*
X60016Y7557D01*
X60073Y7696D01*
X60016Y7836D01*
X59876Y7893D01*
X58279Y7657D02*
X60057Y7657D01*
X58311Y7814D02*
X60024Y7814D01*
X73055Y16284D02*
X73055Y14512D01*
X73112Y14373D01*
X73251Y14315D01*
X73391Y14373D01*
X73448Y14512D01*
X73448Y16284D01*
X73391Y16423D01*
X73251Y16481D01*
X73112Y16423D01*
X73055Y16284D01*
X73071Y14473D02*
X73432Y14473D01*
X73055Y14630D02*
X73448Y14630D01*
X73055Y14788D02*
X73448Y14788D01*
X73055Y14945D02*
X73448Y14945D01*
X73055Y15103D02*
X73448Y15103D01*
X73055Y15260D02*
X73448Y15260D01*
X73055Y15418D02*
X73448Y15418D01*
X73055Y15575D02*
X73448Y15575D01*
X73055Y15733D02*
X73448Y15733D01*
X73055Y15890D02*
X73448Y15890D01*
X73055Y16048D02*
X73448Y16048D01*
X73055Y16205D02*
X73448Y16205D01*
X73087Y16363D02*
X73416Y16363D01*
X76795Y15575D02*
X73251Y15575D01*
X73112Y15518D01*
X73055Y15378D01*
X73112Y15239D01*
X73251Y15182D01*
X76795Y15182D01*
X76934Y15239D01*
X76992Y15378D01*
X76934Y15518D01*
X76795Y15575D01*
X73071Y15339D02*
X76975Y15339D01*
X73104Y15497D02*
X76943Y15497D01*
X73112Y17838D02*
X73821Y17129D01*
X73960Y17071D01*
X74099Y17129D01*
X74157Y17268D01*
X74099Y17407D01*
X73391Y18116D01*
X73251Y18174D01*
X73112Y18116D01*
X73055Y17977D01*
X73112Y17838D01*
X73721Y17229D02*
X74141Y17229D01*
X73564Y17386D02*
X74108Y17386D01*
X73406Y17544D02*
X73963Y17544D01*
X73249Y17701D02*
X73805Y17701D01*
X73104Y17859D02*
X73648Y17859D01*
X73071Y18016D02*
X73490Y18016D01*
X73251Y18174D02*
X73251Y18174D01*
X76795Y18174D02*
X73251Y18174D01*
X73112Y18116D01*
X73055Y17977D01*
X73112Y17838D01*
X73251Y17780D01*
X76795Y17780D01*
X76934Y17838D01*
X76992Y17977D01*
X76934Y18116D01*
X76795Y18174D01*
X73071Y17937D02*
X76975Y17937D01*
X73104Y18095D02*
X76943Y18095D01*
X68080Y14749D02*
X71624Y14749D01*
X71763Y14806D01*
X71820Y14945D01*
X71763Y15085D01*
X71624Y15142D01*
X68080Y15142D01*
X67941Y15085D01*
X67883Y14945D01*
X67941Y14806D01*
X68080Y14749D01*
X67900Y14906D02*
X71804Y14906D01*
X67932Y15063D02*
X71771Y15063D01*
X68080Y15733D02*
X71624Y15733D01*
X71763Y15790D01*
X71820Y15930D01*
X71763Y16069D01*
X71624Y16126D01*
X68080Y16126D01*
X67941Y16069D01*
X67883Y15930D01*
X67941Y15790D01*
X68080Y15733D01*
X67900Y15890D02*
X71804Y15890D01*
X67932Y16048D02*
X71771Y16048D01*
X67883Y16796D02*
X67883Y15930D01*
X67941Y15790D01*
X68080Y15733D01*
X68219Y15790D01*
X68277Y15930D01*
X68277Y16796D01*
X68219Y16935D01*
X68080Y16993D01*
X67941Y16935D01*
X67883Y16796D01*
X67900Y15890D02*
X68261Y15890D01*
X67883Y16048D02*
X68277Y16048D01*
X67883Y16205D02*
X68277Y16205D01*
X67883Y16363D02*
X68277Y16363D01*
X67883Y16520D02*
X68277Y16520D01*
X67883Y16678D02*
X68277Y16678D01*
X67900Y16835D02*
X68261Y16835D01*
X68080Y16993D02*
X68080Y16993D01*
X69523Y17188D02*
X69642Y16745D01*
X69734Y16625D01*
X69883Y16606D01*
X70003Y16697D01*
X70022Y16847D01*
X69904Y17290D01*
X69812Y17409D01*
X69663Y17429D01*
X69543Y17337D01*
X69523Y17188D01*
X69637Y16763D02*
X70011Y16763D01*
X69595Y16921D02*
X70003Y16921D01*
X69553Y17078D02*
X69960Y17078D01*
X69530Y17236D02*
X69918Y17236D01*
X69616Y17393D02*
X69824Y17393D01*
X69250Y17424D02*
X69574Y17099D01*
X69714Y17042D01*
X69853Y17099D01*
X69910Y17239D01*
X69853Y17378D01*
X69528Y17702D01*
X69389Y17760D01*
X69250Y17702D01*
X69192Y17563D01*
X69250Y17424D01*
X69474Y17199D02*
X69894Y17199D01*
X69317Y17357D02*
X69861Y17357D01*
X69213Y17514D02*
X69716Y17514D01*
X69237Y17672D02*
X69559Y17672D01*
X68895Y17491D02*
X69338Y17373D01*
X69488Y17392D01*
X69579Y17512D01*
X69560Y17661D01*
X69440Y17753D01*
X68997Y17872D01*
X68848Y17852D01*
X68756Y17733D01*
X68776Y17583D01*
X68895Y17491D01*
X68845Y17530D02*
X69577Y17530D01*
X68762Y17688D02*
X69525Y17688D01*
X68843Y17845D02*
X69096Y17845D01*
X68554Y17373D02*
X68997Y17491D01*
X69117Y17583D01*
X69136Y17733D01*
X69045Y17852D01*
X68895Y17872D01*
X68452Y17753D01*
X68333Y17661D01*
X68313Y17512D01*
X68405Y17392D01*
X68554Y17373D01*
X68316Y17530D02*
X69048Y17530D01*
X68367Y17688D02*
X69131Y17688D01*
X68796Y17845D02*
X69050Y17845D01*
X68318Y17099D02*
X68643Y17424D01*
X68700Y17563D01*
X68643Y17702D01*
X68503Y17760D01*
X68364Y17702D01*
X68040Y17378D01*
X67982Y17239D01*
X68040Y17099D01*
X68179Y17042D01*
X68318Y17099D01*
X67999Y17199D02*
X68418Y17199D01*
X68031Y17357D02*
X68576Y17357D01*
X68176Y17514D02*
X68680Y17514D01*
X68334Y17672D02*
X68655Y17672D01*
X68251Y16745D02*
X68369Y17188D01*
X68350Y17337D01*
X68230Y17429D01*
X68081Y17409D01*
X67989Y17290D01*
X67870Y16847D01*
X67890Y16697D01*
X68010Y16606D01*
X68159Y16625D01*
X68251Y16745D01*
X67881Y16763D02*
X68256Y16763D01*
X67890Y16921D02*
X68298Y16921D01*
X67932Y17078D02*
X68340Y17078D01*
X67975Y17236D02*
X68363Y17236D01*
X68068Y17393D02*
X68277Y17393D01*
X70049Y15930D02*
X70049Y16796D01*
X69991Y16935D01*
X69852Y16993D01*
X69713Y16935D01*
X69655Y16796D01*
X69655Y15930D01*
X69713Y15790D01*
X69852Y15733D01*
X69991Y15790D01*
X70049Y15930D01*
X69671Y15890D02*
X70032Y15890D01*
X69655Y16048D02*
X70049Y16048D01*
X69655Y16205D02*
X70049Y16205D01*
X69655Y16363D02*
X70049Y16363D01*
X69655Y16520D02*
X70049Y16520D01*
X69655Y16678D02*
X70049Y16678D01*
X69671Y16835D02*
X70032Y16835D01*
X69852Y16993D02*
X69852Y16993D01*
X71534Y17877D02*
X69762Y16971D01*
X69665Y16856D01*
X69677Y16706D01*
X69791Y16608D01*
X69941Y16620D01*
X71713Y17526D01*
X71811Y17641D01*
X71799Y17791D01*
X71684Y17889D01*
X71534Y17877D01*
X69672Y16766D02*
X70226Y16766D01*
X69722Y16923D02*
X70534Y16923D01*
X69977Y17081D02*
X70842Y17081D01*
X70285Y17238D02*
X71150Y17238D01*
X70593Y17396D02*
X71459Y17396D01*
X70902Y17553D02*
X71736Y17553D01*
X71210Y17711D02*
X71805Y17711D01*
X71518Y17868D02*
X71708Y17868D01*
X71624Y18882D02*
X68080Y18882D01*
X67941Y18825D01*
X67883Y18686D01*
X67941Y18546D01*
X68080Y18489D01*
X71624Y18489D01*
X71763Y18546D01*
X71820Y18686D01*
X71763Y18825D01*
X71624Y18882D01*
X67900Y18646D02*
X71804Y18646D01*
X67932Y18804D02*
X71771Y18804D01*
X71427Y20260D02*
X71427Y18686D01*
X71484Y18546D01*
X71624Y18489D01*
X71763Y18546D01*
X71820Y18686D01*
X71820Y20260D01*
X71763Y20400D01*
X71624Y20457D01*
X71484Y20400D01*
X71427Y20260D01*
X71443Y18646D02*
X71804Y18646D01*
X71427Y18804D02*
X71820Y18804D01*
X71427Y18961D02*
X71820Y18961D01*
X71427Y19119D02*
X71820Y19119D01*
X71427Y19276D02*
X71820Y19276D01*
X71427Y19434D02*
X71820Y19434D01*
X71427Y19591D02*
X71820Y19591D01*
X71427Y19749D02*
X71820Y19749D01*
X71427Y19906D02*
X71820Y19906D01*
X71427Y20063D02*
X71820Y20063D01*
X71427Y20221D02*
X71820Y20221D01*
X71476Y20378D02*
X71771Y20378D01*
X68080Y21048D02*
X71624Y21048D01*
X71763Y21105D01*
X71820Y21245D01*
X71763Y21384D01*
X71624Y21441D01*
X68080Y21441D01*
X67941Y21384D01*
X67883Y21245D01*
X67941Y21105D01*
X68080Y21048D01*
X67900Y21205D02*
X71804Y21205D01*
X67932Y21363D02*
X71771Y21363D01*
X70474Y22642D02*
X67993Y21421D01*
X67894Y21308D01*
X67904Y21158D01*
X68017Y21058D01*
X68167Y21068D01*
X70647Y22288D01*
X70747Y22402D01*
X70737Y22552D01*
X70624Y22651D01*
X70474Y22642D01*
X67900Y21216D02*
X68467Y21216D01*
X67951Y21373D02*
X68787Y21373D01*
X68216Y21531D02*
X69107Y21531D01*
X68536Y21688D02*
X69428Y21688D01*
X68856Y21846D02*
X69748Y21846D01*
X69176Y22003D02*
X70068Y22003D01*
X69496Y22161D02*
X70388Y22161D01*
X69816Y22318D02*
X70673Y22318D01*
X70136Y22476D02*
X70742Y22476D01*
X70456Y22633D02*
X70645Y22633D01*
X67991Y23549D02*
X70471Y22290D01*
X70622Y22278D01*
X70736Y22376D01*
X70748Y22526D01*
X70650Y22641D01*
X68169Y23900D01*
X68019Y23912D01*
X67905Y23814D01*
X67893Y23664D01*
X67991Y23549D01*
X70184Y22435D02*
X70741Y22435D01*
X69874Y22593D02*
X70691Y22593D01*
X69564Y22750D02*
X70434Y22750D01*
X69254Y22908D02*
X70123Y22908D01*
X68944Y23065D02*
X69813Y23065D01*
X68634Y23223D02*
X69503Y23223D01*
X68324Y23380D02*
X69193Y23380D01*
X68014Y23538D02*
X68883Y23538D01*
X67896Y23695D02*
X68573Y23695D01*
X67950Y23853D02*
X68263Y23853D01*
X71624Y23922D02*
X68080Y23922D01*
X67941Y23864D01*
X67883Y23725D01*
X67941Y23586D01*
X68080Y23528D01*
X71624Y23528D01*
X71763Y23586D01*
X71820Y23725D01*
X71763Y23864D01*
X71624Y23922D01*
X67900Y23686D02*
X71804Y23686D01*
X67932Y23843D02*
X71771Y23843D01*
X71624Y24906D02*
X68080Y24906D01*
X67941Y24848D01*
X67883Y24709D01*
X67941Y24570D01*
X68080Y24512D01*
X71624Y24512D01*
X71763Y24570D01*
X71820Y24709D01*
X71763Y24848D01*
X71624Y24906D01*
X67900Y24670D02*
X71804Y24670D01*
X67932Y24827D02*
X71771Y24827D01*
X71427Y26284D02*
X71427Y24709D01*
X71484Y24570D01*
X71624Y24512D01*
X71763Y24570D01*
X71820Y24709D01*
X71820Y26284D01*
X71763Y26423D01*
X71624Y26481D01*
X71484Y26423D01*
X71427Y26284D01*
X71443Y24670D02*
X71804Y24670D01*
X71427Y24827D02*
X71820Y24827D01*
X71427Y24985D02*
X71820Y24985D01*
X71427Y25142D02*
X71820Y25142D01*
X71427Y25300D02*
X71820Y25300D01*
X71427Y25457D02*
X71820Y25457D01*
X71427Y25615D02*
X71820Y25615D01*
X71427Y25772D02*
X71820Y25772D01*
X71427Y25930D02*
X71820Y25930D01*
X71427Y26087D02*
X71820Y26087D01*
X71427Y26245D02*
X71820Y26245D01*
X71476Y26402D02*
X71771Y26402D01*
X68485Y28400D02*
X68840Y28495D01*
X68959Y28587D01*
X68979Y28736D01*
X68887Y28856D01*
X68738Y28876D01*
X68384Y28781D01*
X68264Y28689D01*
X68244Y28540D01*
X68336Y28420D01*
X68485Y28400D01*
X68247Y28558D02*
X68921Y28558D01*
X68298Y28715D02*
X68976Y28715D01*
X68728Y28873D02*
X68759Y28873D01*
X68314Y28192D02*
X68574Y28451D01*
X68631Y28591D01*
X68574Y28730D01*
X68435Y28787D01*
X68295Y28730D01*
X68036Y28470D01*
X67978Y28331D01*
X68036Y28192D01*
X68175Y28134D01*
X68314Y28192D01*
X67995Y28292D02*
X68414Y28292D01*
X68027Y28449D02*
X68572Y28449D01*
X68172Y28607D02*
X68625Y28607D01*
X68379Y28764D02*
X68490Y28764D01*
X68270Y27926D02*
X68365Y28280D01*
X68346Y28430D01*
X68226Y28521D01*
X68077Y28502D01*
X67985Y28382D01*
X67890Y28028D01*
X67910Y27878D01*
X68029Y27787D01*
X68179Y27806D01*
X68270Y27926D01*
X67901Y27944D02*
X68275Y27944D01*
X67910Y28102D02*
X68317Y28102D01*
X67952Y28259D02*
X68360Y28259D01*
X68011Y28417D02*
X68347Y28417D01*
X68365Y27673D02*
X68270Y28028D01*
X68179Y28147D01*
X68029Y28167D01*
X67910Y28075D01*
X67890Y27926D01*
X67985Y27572D01*
X68077Y27452D01*
X68226Y27432D01*
X68346Y27524D01*
X68365Y27673D01*
X67980Y27590D02*
X68354Y27590D01*
X67938Y27747D02*
X68346Y27747D01*
X67896Y27905D02*
X68303Y27905D01*
X67908Y28062D02*
X68244Y28062D01*
X68574Y27502D02*
X68314Y27762D01*
X68175Y27819D01*
X68036Y27762D01*
X67978Y27623D01*
X68036Y27483D01*
X68295Y27224D01*
X68435Y27166D01*
X68574Y27224D01*
X68631Y27363D01*
X68574Y27502D01*
X68196Y27324D02*
X68615Y27324D01*
X68038Y27481D02*
X68582Y27481D01*
X67985Y27639D02*
X68437Y27639D01*
X68119Y27796D02*
X68231Y27796D01*
X68840Y27458D02*
X68485Y27553D01*
X68336Y27534D01*
X68244Y27414D01*
X68264Y27265D01*
X68384Y27173D01*
X68738Y27078D01*
X68887Y27098D01*
X68979Y27217D01*
X68959Y27367D01*
X68840Y27458D01*
X68302Y27236D02*
X68977Y27236D01*
X68247Y27393D02*
X68925Y27393D01*
X68464Y27551D02*
X68496Y27551D01*
X71712Y27444D02*
X68877Y28862D01*
X68727Y28872D01*
X68613Y28774D01*
X68602Y28623D01*
X68701Y28509D01*
X71535Y27092D01*
X71686Y27081D01*
X71800Y27180D01*
X71810Y27330D01*
X71712Y27444D01*
X71242Y27239D02*
X71804Y27239D01*
X70927Y27396D02*
X71753Y27396D01*
X70612Y27554D02*
X71492Y27554D01*
X70297Y27711D02*
X71177Y27711D01*
X69982Y27869D02*
X70862Y27869D01*
X69667Y28026D02*
X70547Y28026D01*
X69352Y28184D02*
X70232Y28184D01*
X69037Y28341D02*
X69917Y28341D01*
X68722Y28499D02*
X69603Y28499D01*
X68604Y28656D02*
X69288Y28656D01*
X68659Y28814D02*
X68973Y28814D01*
X71427Y28686D02*
X71427Y27268D01*
X71484Y27129D01*
X71624Y27071D01*
X71763Y27129D01*
X71820Y27268D01*
X71820Y28686D01*
X71763Y28825D01*
X71624Y28882D01*
X71484Y28825D01*
X71427Y28686D01*
X71443Y27229D02*
X71804Y27229D01*
X71427Y27386D02*
X71820Y27386D01*
X71427Y27544D02*
X71820Y27544D01*
X71427Y27701D02*
X71820Y27701D01*
X71427Y27859D02*
X71820Y27859D01*
X71427Y28016D02*
X71820Y28016D01*
X71427Y28174D02*
X71820Y28174D01*
X71427Y28331D02*
X71820Y28331D01*
X71427Y28489D02*
X71820Y28489D01*
X71427Y28646D02*
X71820Y28646D01*
X71476Y28804D02*
X71771Y28804D01*
X71400Y30186D02*
X71162Y29919D01*
X71112Y29776D01*
X71178Y29641D01*
X71320Y29591D01*
X71456Y29657D01*
X71694Y29925D01*
X71743Y30067D01*
X71678Y30203D01*
X71535Y30252D01*
X71400Y30186D01*
X71125Y29749D02*
X71537Y29749D01*
X71157Y29906D02*
X71677Y29906D01*
X71291Y30064D02*
X71742Y30064D01*
X71472Y30221D02*
X71624Y30221D01*
X71431Y30448D02*
X71354Y30098D01*
X71381Y29949D01*
X71504Y29863D01*
X71653Y29890D01*
X71739Y30013D01*
X71816Y30363D01*
X71790Y30512D01*
X71666Y30598D01*
X71518Y30571D01*
X71431Y30448D01*
X71368Y30021D02*
X71741Y30021D01*
X71372Y30178D02*
X71775Y30178D01*
X71407Y30336D02*
X71810Y30336D01*
X71463Y30493D02*
X71793Y30493D01*
X71331Y30691D02*
X71435Y30348D01*
X71531Y30232D01*
X71681Y30217D01*
X71797Y30313D01*
X71812Y30463D01*
X71708Y30805D01*
X71613Y30922D01*
X71463Y30937D01*
X71346Y30841D01*
X71331Y30691D01*
X71427Y30375D02*
X71803Y30375D01*
X71380Y30532D02*
X71791Y30532D01*
X71332Y30690D02*
X71743Y30690D01*
X71353Y30847D02*
X71674Y30847D01*
X71125Y30855D02*
X71383Y30606D01*
X71524Y30552D01*
X71662Y30612D01*
X71717Y30752D01*
X71656Y30890D01*
X71398Y31139D01*
X71258Y31193D01*
X71120Y31133D01*
X71065Y30993D01*
X71125Y30855D01*
X71277Y30709D02*
X71700Y30709D01*
X71120Y30866D02*
X71667Y30866D01*
X71077Y31024D02*
X71517Y31024D01*
X71230Y31181D02*
X71288Y31181D01*
X70865Y30897D02*
X71212Y30806D01*
X71361Y30827D01*
X71452Y30947D01*
X71431Y31096D01*
X71311Y31187D01*
X70965Y31278D01*
X70815Y31257D01*
X70724Y31137D01*
X70745Y30988D01*
X70865Y30897D01*
X70777Y30964D02*
X71450Y30964D01*
X70727Y31121D02*
X71398Y31121D01*
X70206Y30890D02*
X70915Y30890D01*
X71054Y30948D01*
X71112Y31087D01*
X71054Y31226D01*
X70915Y31284D01*
X70206Y31284D01*
X70067Y31226D01*
X70009Y31087D01*
X70067Y30948D01*
X70206Y30890D01*
X70026Y31048D02*
X71095Y31048D01*
X70058Y31205D02*
X71063Y31205D01*
X69903Y30802D02*
X70257Y30897D01*
X70377Y30989D01*
X70396Y31138D01*
X70305Y31258D01*
X70155Y31277D01*
X69801Y31182D01*
X69681Y31091D01*
X69662Y30941D01*
X69753Y30822D01*
X69903Y30802D01*
X69664Y30959D02*
X70339Y30959D01*
X69716Y31117D02*
X70394Y31117D01*
X70145Y31274D02*
X70176Y31274D01*
X69732Y30594D02*
X69991Y30853D01*
X70049Y30992D01*
X69991Y31131D01*
X69852Y31189D01*
X69713Y31131D01*
X69453Y30872D01*
X69396Y30733D01*
X69453Y30594D01*
X69592Y30536D01*
X69732Y30594D01*
X69412Y30693D02*
X69831Y30693D01*
X69445Y30851D02*
X69989Y30851D01*
X69590Y31008D02*
X70042Y31008D01*
X69796Y31166D02*
X69908Y31166D01*
X69688Y30327D02*
X69783Y30682D01*
X69763Y30831D01*
X69643Y30923D01*
X69494Y30903D01*
X69402Y30784D01*
X69307Y30429D01*
X69327Y30280D01*
X69447Y30188D01*
X69596Y30208D01*
X69688Y30327D01*
X69318Y30346D02*
X69693Y30346D01*
X69327Y30503D02*
X69735Y30503D01*
X69369Y30661D02*
X69777Y30661D01*
X69429Y30818D02*
X69765Y30818D01*
X69783Y30075D02*
X69688Y30429D01*
X69596Y30549D01*
X69447Y30569D01*
X69327Y30477D01*
X69307Y30327D01*
X69402Y29973D01*
X69494Y29854D01*
X69643Y29834D01*
X69763Y29926D01*
X69783Y30075D01*
X69397Y29991D02*
X69772Y29991D01*
X69355Y30149D02*
X69763Y30149D01*
X69313Y30306D02*
X69721Y30306D01*
X69325Y30464D02*
X69661Y30464D01*
X69991Y29904D02*
X69732Y30163D01*
X69592Y30221D01*
X69453Y30163D01*
X69396Y30024D01*
X69453Y29885D01*
X69713Y29626D01*
X69852Y29568D01*
X69991Y29626D01*
X70049Y29765D01*
X69991Y29904D01*
X69613Y29725D02*
X70032Y29725D01*
X69455Y29883D02*
X70000Y29883D01*
X69402Y30040D02*
X69855Y30040D01*
X69537Y30198D02*
X69648Y30198D01*
X70257Y29860D02*
X69903Y29955D01*
X69753Y29935D01*
X69662Y29816D01*
X69681Y29666D01*
X69801Y29575D01*
X70155Y29480D01*
X70305Y29499D01*
X70396Y29619D01*
X70377Y29768D01*
X70257Y29860D01*
X69719Y29637D02*
X70394Y29637D01*
X69664Y29795D02*
X70342Y29795D01*
X69882Y29952D02*
X69913Y29952D01*
X68080Y29473D02*
X70206Y29473D01*
X70345Y29531D01*
X70403Y29670D01*
X70345Y29809D01*
X70206Y29867D01*
X68080Y29867D01*
X67941Y29809D01*
X67883Y29670D01*
X67941Y29531D01*
X68080Y29473D01*
X67900Y29630D02*
X70387Y29630D01*
X67932Y29788D02*
X70354Y29788D01*
X67883Y31087D02*
X67883Y29670D01*
X67941Y29531D01*
X68080Y29473D01*
X68219Y29531D01*
X68277Y29670D01*
X68277Y31087D01*
X68219Y31226D01*
X68080Y31284D01*
X67941Y31226D01*
X67883Y31087D01*
X67900Y29630D02*
X68261Y29630D01*
X67883Y29788D02*
X68277Y29788D01*
X67883Y29945D02*
X68277Y29945D01*
X67883Y30103D02*
X68277Y30103D01*
X67883Y30260D02*
X68277Y30260D01*
X67883Y30418D02*
X68277Y30418D01*
X67883Y30575D02*
X68277Y30575D01*
X67883Y30733D02*
X68277Y30733D01*
X67883Y30890D02*
X68277Y30890D01*
X67883Y31048D02*
X68277Y31048D01*
X67932Y31205D02*
X68228Y31205D01*
X70915Y33686D02*
X68789Y33686D01*
X68650Y33628D01*
X68592Y33489D01*
X68650Y33349D01*
X68789Y33292D01*
X70915Y33292D01*
X71054Y33349D01*
X71112Y33489D01*
X71054Y33628D01*
X70915Y33686D01*
X68608Y33449D02*
X71095Y33449D01*
X68641Y33607D02*
X71063Y33607D01*
X68485Y33204D02*
X68840Y33299D01*
X68959Y33390D01*
X68979Y33540D01*
X68887Y33659D01*
X68738Y33679D01*
X68384Y33584D01*
X68264Y33492D01*
X68244Y33343D01*
X68336Y33223D01*
X68485Y33204D01*
X68247Y33361D02*
X68921Y33361D01*
X68298Y33519D02*
X68976Y33519D01*
X68728Y33676D02*
X68759Y33676D01*
X68314Y32995D02*
X68574Y33255D01*
X68631Y33394D01*
X68574Y33533D01*
X68435Y33591D01*
X68295Y33533D01*
X68036Y33274D01*
X67978Y33134D01*
X68036Y32995D01*
X68175Y32937D01*
X68314Y32995D01*
X67995Y33095D02*
X68414Y33095D01*
X68027Y33252D02*
X68572Y33252D01*
X68172Y33410D02*
X68625Y33410D01*
X68379Y33567D02*
X68490Y33567D01*
X68270Y32729D02*
X68365Y33083D01*
X68346Y33233D01*
X68226Y33324D01*
X68077Y33305D01*
X67985Y33185D01*
X67890Y32831D01*
X67910Y32682D01*
X68029Y32590D01*
X68179Y32610D01*
X68270Y32729D01*
X67901Y32747D02*
X68275Y32747D01*
X67910Y32905D02*
X68317Y32905D01*
X67952Y33062D02*
X68360Y33062D01*
X68011Y33220D02*
X68347Y33220D01*
X68365Y32477D02*
X68270Y32831D01*
X68179Y32950D01*
X68029Y32970D01*
X67910Y32878D01*
X67890Y32729D01*
X67985Y32375D01*
X68077Y32255D01*
X68226Y32236D01*
X68346Y32327D01*
X68365Y32477D01*
X67980Y32393D02*
X68354Y32393D01*
X67938Y32551D02*
X68346Y32551D01*
X67896Y32708D02*
X68303Y32708D01*
X67908Y32865D02*
X68244Y32865D01*
X68574Y32305D02*
X68314Y32565D01*
X68175Y32623D01*
X68036Y32565D01*
X67978Y32426D01*
X68036Y32286D01*
X68295Y32027D01*
X68435Y31969D01*
X68574Y32027D01*
X68631Y32166D01*
X68574Y32305D01*
X68196Y32127D02*
X68615Y32127D01*
X68038Y32284D02*
X68582Y32284D01*
X67985Y32442D02*
X68437Y32442D01*
X68119Y32599D02*
X68231Y32599D01*
X68840Y32261D02*
X68485Y32356D01*
X68336Y32337D01*
X68244Y32217D01*
X68264Y32068D01*
X68384Y31976D01*
X68738Y31881D01*
X68887Y31901D01*
X68979Y32020D01*
X68959Y32170D01*
X68840Y32261D01*
X68302Y32039D02*
X68977Y32039D01*
X68247Y32196D02*
X68925Y32196D01*
X68464Y32354D02*
X68496Y32354D01*
X68789Y31875D02*
X70915Y31875D01*
X71054Y31932D01*
X71112Y32071D01*
X71054Y32211D01*
X70915Y32268D01*
X68789Y32268D01*
X68650Y32211D01*
X68592Y32071D01*
X68650Y31932D01*
X68789Y31875D01*
X68608Y32032D02*
X71095Y32032D01*
X68641Y32189D02*
X71063Y32189D01*
X71218Y32356D02*
X70864Y32261D01*
X70744Y32170D01*
X70725Y32020D01*
X70816Y31901D01*
X70966Y31881D01*
X71320Y31976D01*
X71440Y32068D01*
X71459Y32217D01*
X71368Y32337D01*
X71218Y32356D01*
X70727Y32039D02*
X71402Y32039D01*
X70779Y32196D02*
X71457Y32196D01*
X71208Y32354D02*
X71239Y32354D01*
X71389Y32565D02*
X71130Y32305D01*
X71072Y32166D01*
X71130Y32027D01*
X71269Y31969D01*
X71408Y32027D01*
X71668Y32286D01*
X71725Y32426D01*
X71668Y32565D01*
X71529Y32623D01*
X71389Y32565D01*
X71089Y32127D02*
X71508Y32127D01*
X71121Y32284D02*
X71666Y32284D01*
X71266Y32442D02*
X71719Y32442D01*
X71473Y32599D02*
X71585Y32599D01*
X71433Y32831D02*
X71338Y32477D01*
X71358Y32327D01*
X71478Y32236D01*
X71627Y32255D01*
X71719Y32375D01*
X71814Y32729D01*
X71794Y32878D01*
X71674Y32970D01*
X71525Y32950D01*
X71433Y32831D01*
X71349Y32393D02*
X71724Y32393D01*
X71358Y32551D02*
X71766Y32551D01*
X71400Y32708D02*
X71808Y32708D01*
X71460Y32865D02*
X71796Y32865D01*
X71338Y33083D02*
X71433Y32729D01*
X71525Y32610D01*
X71674Y32590D01*
X71794Y32682D01*
X71814Y32831D01*
X71719Y33185D01*
X71627Y33305D01*
X71478Y33324D01*
X71358Y33233D01*
X71338Y33083D01*
X71428Y32747D02*
X71803Y32747D01*
X71386Y32905D02*
X71794Y32905D01*
X71344Y33062D02*
X71752Y33062D01*
X71356Y33220D02*
X71692Y33220D01*
X71130Y33255D02*
X71389Y32995D01*
X71529Y32937D01*
X71668Y32995D01*
X71725Y33134D01*
X71668Y33274D01*
X71408Y33533D01*
X71269Y33591D01*
X71130Y33533D01*
X71072Y33394D01*
X71130Y33255D01*
X71290Y33095D02*
X71709Y33095D01*
X71132Y33252D02*
X71677Y33252D01*
X71079Y33410D02*
X71531Y33410D01*
X71213Y33567D02*
X71325Y33567D01*
X70864Y33299D02*
X71218Y33204D01*
X71368Y33223D01*
X71459Y33343D01*
X71440Y33492D01*
X71320Y33584D01*
X70966Y33679D01*
X70816Y33659D01*
X70725Y33540D01*
X70744Y33390D01*
X70864Y33299D01*
X70782Y33361D02*
X71457Y33361D01*
X70727Y33519D02*
X71405Y33519D01*
X70945Y33676D02*
X70976Y33676D01*
X68485Y35605D02*
X68840Y35700D01*
X68959Y35792D01*
X68979Y35941D01*
X68887Y36061D01*
X68738Y36080D01*
X68384Y35985D01*
X68264Y35894D01*
X68244Y35744D01*
X68336Y35625D01*
X68485Y35605D01*
X68247Y35763D02*
X68921Y35763D01*
X68298Y35920D02*
X68976Y35920D01*
X68728Y36078D02*
X68759Y36078D01*
X68314Y35397D02*
X68574Y35656D01*
X68631Y35795D01*
X68574Y35935D01*
X68435Y35992D01*
X68295Y35935D01*
X68036Y35675D01*
X67978Y35536D01*
X68036Y35397D01*
X68175Y35339D01*
X68314Y35397D01*
X67995Y35497D02*
X68414Y35497D01*
X68027Y35654D02*
X68572Y35654D01*
X68172Y35812D02*
X68625Y35812D01*
X68379Y35969D02*
X68490Y35969D01*
X68270Y35131D02*
X68365Y35485D01*
X68346Y35634D01*
X68226Y35726D01*
X68077Y35706D01*
X67985Y35587D01*
X67890Y35233D01*
X67910Y35083D01*
X68029Y34991D01*
X68179Y35011D01*
X68270Y35131D01*
X67901Y35149D02*
X68275Y35149D01*
X67910Y35306D02*
X68317Y35306D01*
X67952Y35464D02*
X68360Y35464D01*
X68011Y35621D02*
X68347Y35621D01*
X68365Y34878D02*
X68270Y35233D01*
X68179Y35352D01*
X68029Y35372D01*
X67910Y35280D01*
X67890Y35131D01*
X67985Y34776D01*
X68077Y34657D01*
X68226Y34637D01*
X68346Y34729D01*
X68365Y34878D01*
X67980Y34795D02*
X68354Y34795D01*
X67938Y34952D02*
X68346Y34952D01*
X67896Y35110D02*
X68303Y35110D01*
X67908Y35267D02*
X68244Y35267D01*
X68574Y34707D02*
X68314Y34966D01*
X68175Y35024D01*
X68036Y34966D01*
X67978Y34827D01*
X68036Y34688D01*
X68295Y34429D01*
X68435Y34371D01*
X68574Y34429D01*
X68631Y34568D01*
X68574Y34707D01*
X68196Y34528D02*
X68615Y34528D01*
X68038Y34686D02*
X68582Y34686D01*
X67985Y34843D02*
X68437Y34843D01*
X68119Y35001D02*
X68231Y35001D01*
X68840Y34663D02*
X68485Y34758D01*
X68336Y34738D01*
X68244Y34619D01*
X68264Y34469D01*
X68384Y34378D01*
X68738Y34283D01*
X68887Y34302D01*
X68979Y34422D01*
X68959Y34571D01*
X68840Y34663D01*
X68302Y34440D02*
X68977Y34440D01*
X68247Y34598D02*
X68925Y34598D01*
X68464Y34755D02*
X68496Y34755D01*
X71712Y34649D02*
X68877Y36066D01*
X68727Y36077D01*
X68613Y35978D01*
X68602Y35828D01*
X68701Y35714D01*
X71535Y34297D01*
X71686Y34286D01*
X71800Y34385D01*
X71810Y34535D01*
X71712Y34649D01*
X71242Y34444D02*
X71804Y34444D01*
X70927Y34601D02*
X71753Y34601D01*
X70612Y34759D02*
X71492Y34759D01*
X70297Y34916D02*
X71177Y34916D01*
X69982Y35074D02*
X70862Y35074D01*
X69667Y35231D02*
X70547Y35231D01*
X69352Y35389D02*
X70232Y35389D01*
X69037Y35546D02*
X69917Y35546D01*
X68722Y35704D02*
X69603Y35704D01*
X68604Y35861D02*
X69288Y35861D01*
X68659Y36018D02*
X68973Y36018D01*
X71427Y35890D02*
X71427Y34473D01*
X71484Y34334D01*
X71624Y34276D01*
X71763Y34334D01*
X71820Y34473D01*
X71820Y35890D01*
X71763Y36029D01*
X71624Y36087D01*
X71484Y36029D01*
X71427Y35890D01*
X71443Y34434D02*
X71804Y34434D01*
X71427Y34591D02*
X71820Y34591D01*
X71427Y34749D02*
X71820Y34749D01*
X71427Y34906D02*
X71820Y34906D01*
X71427Y35063D02*
X71820Y35063D01*
X71427Y35221D02*
X71820Y35221D01*
X71427Y35378D02*
X71820Y35378D01*
X71427Y35536D02*
X71820Y35536D01*
X71427Y35693D02*
X71820Y35693D01*
X71427Y35851D02*
X71820Y35851D01*
X71476Y36008D02*
X71771Y36008D01*
X63765Y11388D02*
X63765Y7845D01*
X63822Y7705D01*
X63961Y7648D01*
X64101Y7705D01*
X64158Y7845D01*
X64158Y11388D01*
X64101Y11527D01*
X63961Y11585D01*
X63822Y11527D01*
X63765Y11388D01*
X63781Y7805D02*
X64142Y7805D01*
X63765Y7963D02*
X64158Y7963D01*
X63765Y8120D02*
X64158Y8120D01*
X63765Y8278D02*
X64158Y8278D01*
X63765Y8435D02*
X64158Y8435D01*
X63765Y8593D02*
X64158Y8593D01*
X63765Y8750D02*
X64158Y8750D01*
X63765Y8908D02*
X64158Y8908D01*
X63765Y9065D02*
X64158Y9065D01*
X63765Y9223D02*
X64158Y9223D01*
X63765Y9380D02*
X64158Y9380D01*
X63765Y9538D02*
X64158Y9538D01*
X63765Y9695D02*
X64158Y9695D01*
X63765Y9853D02*
X64158Y9853D01*
X63765Y10010D02*
X64158Y10010D01*
X63765Y10167D02*
X64158Y10167D01*
X63765Y10325D02*
X64158Y10325D01*
X63765Y10482D02*
X64158Y10482D01*
X63765Y10640D02*
X64158Y10640D01*
X63765Y10797D02*
X64158Y10797D01*
X63765Y10955D02*
X64158Y10955D01*
X63765Y11112D02*
X64158Y11112D01*
X63765Y11270D02*
X64158Y11270D01*
X63781Y11427D02*
X64142Y11427D01*
X63961Y11585D02*
X63961Y11585D01*
X64828Y11585D02*
X63961Y11585D01*
X63822Y11527D01*
X63765Y11388D01*
X63822Y11249D01*
X63961Y11191D01*
X64828Y11191D01*
X64967Y11249D01*
X65024Y11388D01*
X64967Y11527D01*
X64828Y11585D01*
X63781Y11349D02*
X65008Y11349D01*
X63814Y11506D02*
X64976Y11506D01*
X65220Y9945D02*
X64777Y9826D01*
X64657Y9734D01*
X64637Y9585D01*
X64729Y9465D01*
X64879Y9446D01*
X65321Y9565D01*
X65441Y9656D01*
X65461Y9806D01*
X65369Y9925D01*
X65220Y9945D01*
X64640Y9603D02*
X65372Y9603D01*
X64692Y9761D02*
X65455Y9761D01*
X65121Y9918D02*
X65374Y9918D01*
X65456Y10218D02*
X65131Y9894D01*
X65074Y9755D01*
X65131Y9615D01*
X65271Y9558D01*
X65410Y9615D01*
X65734Y9940D01*
X65792Y10079D01*
X65734Y10218D01*
X65595Y10276D01*
X65456Y10218D01*
X65090Y9715D02*
X65510Y9715D01*
X65123Y9873D02*
X65667Y9873D01*
X65268Y10030D02*
X65771Y10030D01*
X65425Y10188D02*
X65747Y10188D01*
X65523Y10573D02*
X65405Y10130D01*
X65424Y9980D01*
X65544Y9889D01*
X65693Y9908D01*
X65785Y10028D01*
X65904Y10471D01*
X65884Y10620D01*
X65764Y10712D01*
X65615Y10692D01*
X65523Y10573D01*
X65416Y10046D02*
X65790Y10046D01*
X65424Y10204D02*
X65832Y10204D01*
X65467Y10361D02*
X65874Y10361D01*
X65509Y10519D02*
X65897Y10519D01*
X65603Y10676D02*
X65811Y10676D01*
X65405Y10914D02*
X65523Y10471D01*
X65615Y10351D01*
X65764Y10332D01*
X65884Y10423D01*
X65904Y10573D01*
X65785Y11016D01*
X65693Y11135D01*
X65544Y11155D01*
X65424Y11063D01*
X65405Y10914D01*
X65518Y10489D02*
X65893Y10489D01*
X65476Y10647D02*
X65884Y10647D01*
X65434Y10804D02*
X65842Y10804D01*
X65411Y10962D02*
X65799Y10962D01*
X65497Y11119D02*
X65706Y11119D01*
X65131Y11150D02*
X65456Y10826D01*
X65595Y10768D01*
X65734Y10826D01*
X65792Y10965D01*
X65734Y11104D01*
X65410Y11428D01*
X65271Y11486D01*
X65131Y11428D01*
X65074Y11289D01*
X65131Y11150D01*
X65356Y10925D02*
X65775Y10925D01*
X65198Y11083D02*
X65743Y11083D01*
X65094Y11240D02*
X65598Y11240D01*
X65119Y11398D02*
X65440Y11398D01*
X64777Y11217D02*
X65220Y11099D01*
X65369Y11118D01*
X65461Y11238D01*
X65441Y11387D01*
X65321Y11479D01*
X64879Y11598D01*
X64729Y11578D01*
X64637Y11459D01*
X64657Y11309D01*
X64777Y11217D01*
X64726Y11256D02*
X65458Y11256D01*
X64643Y11414D02*
X65407Y11414D01*
X64724Y11571D02*
X64978Y11571D01*
X63961Y9419D02*
X64828Y9419D01*
X64967Y9477D01*
X65024Y9616D01*
X64967Y9755D01*
X64828Y9813D01*
X63961Y9813D01*
X63822Y9755D01*
X63765Y9616D01*
X63822Y9477D01*
X63961Y9419D01*
X63781Y9577D02*
X65008Y9577D01*
X63814Y9734D02*
X64976Y9734D01*
X65908Y7934D02*
X65003Y9706D01*
X64888Y9804D01*
X64738Y9792D01*
X64640Y9677D01*
X64652Y9527D01*
X65558Y7755D01*
X65673Y7657D01*
X65823Y7669D01*
X65920Y7784D01*
X65908Y7934D01*
X65527Y7815D02*
X65918Y7815D01*
X65447Y7972D02*
X65889Y7972D01*
X65366Y8130D02*
X65808Y8130D01*
X65286Y8287D02*
X65728Y8287D01*
X65205Y8445D02*
X65647Y8445D01*
X65125Y8602D02*
X65567Y8602D01*
X65044Y8760D02*
X65486Y8760D01*
X64964Y8917D02*
X65406Y8917D01*
X64883Y9075D02*
X65326Y9075D01*
X64803Y9232D02*
X65245Y9232D01*
X64722Y9390D02*
X65165Y9390D01*
X64651Y9547D02*
X65084Y9547D01*
X64664Y9705D02*
X65004Y9705D01*
X67287Y11527D02*
X66578Y10818D01*
X66521Y10679D01*
X66578Y10540D01*
X66717Y10482D01*
X66857Y10540D01*
X67565Y11249D01*
X67623Y11388D01*
X67565Y11527D01*
X67426Y11585D01*
X67287Y11527D01*
X66537Y10640D02*
X66956Y10640D01*
X66569Y10797D02*
X67114Y10797D01*
X66715Y10955D02*
X67271Y10955D01*
X66872Y11112D02*
X67429Y11112D01*
X67030Y11270D02*
X67574Y11270D01*
X67187Y11427D02*
X67607Y11427D01*
X67426Y11585D02*
X67426Y11585D01*
X67623Y7845D02*
X67623Y11388D01*
X67565Y11527D01*
X67426Y11585D01*
X67287Y11527D01*
X67229Y11388D01*
X67229Y7845D01*
X67287Y7705D01*
X67426Y7648D01*
X67565Y7705D01*
X67623Y7845D01*
X67245Y7805D02*
X67607Y7805D01*
X67229Y7963D02*
X67623Y7963D01*
X67229Y8120D02*
X67623Y8120D01*
X67229Y8278D02*
X67623Y8278D01*
X67229Y8435D02*
X67623Y8435D01*
X67229Y8593D02*
X67623Y8593D01*
X67229Y8750D02*
X67623Y8750D01*
X67229Y8908D02*
X67623Y8908D01*
X67229Y9065D02*
X67623Y9065D01*
X67229Y9223D02*
X67623Y9223D01*
X67229Y9380D02*
X67623Y9380D01*
X67229Y9538D02*
X67623Y9538D01*
X67229Y9695D02*
X67623Y9695D01*
X67229Y9853D02*
X67623Y9853D01*
X67229Y10010D02*
X67623Y10010D01*
X67229Y10167D02*
X67623Y10167D01*
X67229Y10325D02*
X67623Y10325D01*
X67229Y10482D02*
X67623Y10482D01*
X67229Y10640D02*
X67623Y10640D01*
X67229Y10797D02*
X67623Y10797D01*
X67229Y10955D02*
X67623Y10955D01*
X67229Y11112D02*
X67623Y11112D01*
X67229Y11270D02*
X67623Y11270D01*
X67245Y11427D02*
X67607Y11427D01*
X67426Y11585D02*
X67426Y11585D01*
X64579Y6789D02*
X63870Y6080D01*
X63812Y5941D01*
X63870Y5802D01*
X64009Y5744D01*
X64148Y5802D01*
X64857Y6510D01*
X64915Y6649D01*
X64857Y6789D01*
X64718Y6846D01*
X64579Y6789D01*
X63829Y5901D02*
X64248Y5901D01*
X63861Y6059D02*
X64406Y6059D01*
X64006Y6216D02*
X64563Y6216D01*
X64164Y6374D02*
X64721Y6374D01*
X64321Y6531D02*
X64866Y6531D01*
X64479Y6689D02*
X64898Y6689D01*
X64718Y6846D02*
X64718Y6846D01*
X64915Y3106D02*
X64915Y6649D01*
X64857Y6789D01*
X64718Y6846D01*
X64579Y6789D01*
X64521Y6649D01*
X64521Y3106D01*
X64579Y2967D01*
X64718Y2909D01*
X64857Y2967D01*
X64915Y3106D01*
X64537Y3067D02*
X64898Y3067D01*
X64521Y3224D02*
X64915Y3224D01*
X64521Y3382D02*
X64915Y3382D01*
X64521Y3539D02*
X64915Y3539D01*
X64521Y3697D02*
X64915Y3697D01*
X64521Y3854D02*
X64915Y3854D01*
X64521Y4012D02*
X64915Y4012D01*
X64521Y4169D02*
X64915Y4169D01*
X64521Y4327D02*
X64915Y4327D01*
X64521Y4484D02*
X64915Y4484D01*
X64521Y4642D02*
X64915Y4642D01*
X64521Y4799D02*
X64915Y4799D01*
X64521Y4956D02*
X64915Y4956D01*
X64521Y5114D02*
X64915Y5114D01*
X64521Y5271D02*
X64915Y5271D01*
X64521Y5429D02*
X64915Y5429D01*
X64521Y5586D02*
X64915Y5586D01*
X64521Y5744D02*
X64915Y5744D01*
X64521Y5901D02*
X64915Y5901D01*
X64521Y6059D02*
X64915Y6059D01*
X64521Y6216D02*
X64915Y6216D01*
X64521Y6374D02*
X64915Y6374D01*
X64521Y6531D02*
X64915Y6531D01*
X64537Y6689D02*
X64898Y6689D01*
X64718Y6846D02*
X64718Y6846D01*
X67316Y3815D02*
X67316Y5941D01*
X67259Y6080D01*
X67120Y6138D01*
X66980Y6080D01*
X66923Y5941D01*
X66923Y3815D01*
X66980Y3676D01*
X67120Y3618D01*
X67259Y3676D01*
X67316Y3815D01*
X66939Y3775D02*
X67300Y3775D01*
X66923Y3933D02*
X67316Y3933D01*
X66923Y4090D02*
X67316Y4090D01*
X66923Y4248D02*
X67316Y4248D01*
X66923Y4405D02*
X67316Y4405D01*
X66923Y4563D02*
X67316Y4563D01*
X66923Y4720D02*
X67316Y4720D01*
X66923Y4878D02*
X67316Y4878D01*
X66923Y5035D02*
X67316Y5035D01*
X66923Y5193D02*
X67316Y5193D01*
X66923Y5350D02*
X67316Y5350D01*
X66923Y5508D02*
X67316Y5508D01*
X66923Y5665D02*
X67316Y5665D01*
X66923Y5823D02*
X67316Y5823D01*
X66939Y5980D02*
X67300Y5980D01*
X67120Y6138D02*
X67120Y6138D01*
X66834Y6244D02*
X66929Y5890D01*
X67021Y5770D01*
X67170Y5751D01*
X67290Y5842D01*
X67310Y5992D01*
X67215Y6346D01*
X67123Y6466D01*
X66974Y6485D01*
X66854Y6394D01*
X66834Y6244D01*
X66924Y5908D02*
X67299Y5908D01*
X66882Y6066D02*
X67290Y6066D01*
X66840Y6223D02*
X67248Y6223D01*
X66852Y6381D02*
X67188Y6381D01*
X66626Y6415D02*
X66885Y6156D01*
X67025Y6098D01*
X67164Y6156D01*
X67221Y6295D01*
X67164Y6434D01*
X66904Y6694D01*
X66765Y6751D01*
X66626Y6694D01*
X66568Y6554D01*
X66626Y6415D01*
X66786Y6256D02*
X67205Y6256D01*
X66628Y6413D02*
X67173Y6413D01*
X66575Y6571D02*
X67027Y6571D01*
X66709Y6728D02*
X66821Y6728D01*
X66360Y6459D02*
X66714Y6364D01*
X66864Y6384D01*
X66955Y6504D01*
X66936Y6653D01*
X66816Y6745D01*
X66462Y6840D01*
X66312Y6820D01*
X66221Y6700D01*
X66240Y6551D01*
X66360Y6459D01*
X66278Y6522D02*
X66953Y6522D01*
X66224Y6679D02*
X66901Y6679D01*
X66441Y6837D02*
X66472Y6837D01*
X66107Y6364D02*
X66462Y6459D01*
X66581Y6551D01*
X66601Y6700D01*
X66509Y6820D01*
X66360Y6840D01*
X66006Y6745D01*
X65886Y6653D01*
X65866Y6504D01*
X65958Y6384D01*
X66107Y6364D01*
X65869Y6522D02*
X66543Y6522D01*
X65920Y6679D02*
X66598Y6679D01*
X66350Y6837D02*
X66381Y6837D01*
X65936Y6156D02*
X66196Y6415D01*
X66253Y6554D01*
X66196Y6694D01*
X66057Y6751D01*
X65917Y6694D01*
X65658Y6434D01*
X65600Y6295D01*
X65658Y6156D01*
X65797Y6098D01*
X65936Y6156D01*
X65617Y6256D02*
X66036Y6256D01*
X65649Y6413D02*
X66194Y6413D01*
X65794Y6571D02*
X66247Y6571D01*
X66001Y6728D02*
X66112Y6728D01*
X65892Y5890D02*
X65987Y6244D01*
X65968Y6394D01*
X65848Y6485D01*
X65699Y6466D01*
X65607Y6346D01*
X65512Y5992D01*
X65532Y5842D01*
X65651Y5751D01*
X65801Y5770D01*
X65892Y5890D01*
X65523Y5908D02*
X65897Y5908D01*
X65532Y6066D02*
X65939Y6066D01*
X65574Y6223D02*
X65982Y6223D01*
X65633Y6381D02*
X65969Y6381D01*
X65505Y5941D02*
X65505Y3815D01*
X65563Y3676D01*
X65702Y3618D01*
X65841Y3676D01*
X65899Y3815D01*
X65899Y5941D01*
X65841Y6080D01*
X65702Y6138D01*
X65563Y6080D01*
X65505Y5941D01*
X65522Y3775D02*
X65883Y3775D01*
X65505Y3933D02*
X65899Y3933D01*
X65505Y4090D02*
X65899Y4090D01*
X65505Y4248D02*
X65899Y4248D01*
X65505Y4405D02*
X65899Y4405D01*
X65505Y4563D02*
X65899Y4563D01*
X65505Y4720D02*
X65899Y4720D01*
X65505Y4878D02*
X65899Y4878D01*
X65505Y5035D02*
X65899Y5035D01*
X65505Y5193D02*
X65899Y5193D01*
X65505Y5350D02*
X65899Y5350D01*
X65505Y5508D02*
X65899Y5508D01*
X65505Y5665D02*
X65899Y5665D01*
X65505Y5823D02*
X65899Y5823D01*
X65522Y5980D02*
X65883Y5980D01*
X65702Y6138D02*
X65702Y6138D01*
X65987Y3511D02*
X65892Y3866D01*
X65801Y3985D01*
X65651Y4005D01*
X65532Y3913D01*
X65512Y3764D01*
X65607Y3409D01*
X65699Y3290D01*
X65848Y3270D01*
X65968Y3362D01*
X65987Y3511D01*
X65602Y3428D02*
X65976Y3428D01*
X65560Y3585D02*
X65967Y3585D01*
X65518Y3743D02*
X65925Y3743D01*
X65530Y3900D02*
X65866Y3900D01*
X66196Y3340D02*
X65936Y3600D01*
X65797Y3657D01*
X65658Y3600D01*
X65600Y3460D01*
X65658Y3321D01*
X65917Y3062D01*
X66057Y3004D01*
X66196Y3062D01*
X66253Y3201D01*
X66196Y3340D01*
X65818Y3162D02*
X66237Y3162D01*
X65660Y3319D02*
X66204Y3319D01*
X65607Y3477D02*
X66059Y3477D01*
X65741Y3634D02*
X65853Y3634D01*
X66462Y3296D02*
X66107Y3391D01*
X65958Y3372D01*
X65866Y3252D01*
X65886Y3103D01*
X66006Y3011D01*
X66360Y2916D01*
X66509Y2936D01*
X66601Y3055D01*
X66581Y3205D01*
X66462Y3296D01*
X65924Y3073D02*
X66599Y3073D01*
X65869Y3231D02*
X66547Y3231D01*
X66086Y3388D02*
X66118Y3388D01*
X66714Y3391D02*
X66360Y3296D01*
X66240Y3205D01*
X66221Y3055D01*
X66312Y2936D01*
X66462Y2916D01*
X66816Y3011D01*
X66936Y3103D01*
X66955Y3252D01*
X66864Y3372D01*
X66714Y3391D01*
X66223Y3073D02*
X66898Y3073D01*
X66275Y3231D02*
X66953Y3231D01*
X66704Y3388D02*
X66735Y3388D01*
X66885Y3600D02*
X66626Y3340D01*
X66568Y3201D01*
X66626Y3062D01*
X66765Y3004D01*
X66904Y3062D01*
X67164Y3321D01*
X67221Y3460D01*
X67164Y3600D01*
X67025Y3657D01*
X66885Y3600D01*
X66585Y3162D02*
X67004Y3162D01*
X66617Y3319D02*
X67162Y3319D01*
X66762Y3477D02*
X67215Y3477D01*
X66969Y3634D02*
X67081Y3634D01*
X66929Y3866D02*
X66834Y3511D01*
X66854Y3362D01*
X66974Y3270D01*
X67123Y3290D01*
X67215Y3409D01*
X67310Y3764D01*
X67290Y3913D01*
X67170Y4005D01*
X67021Y3985D01*
X66929Y3866D01*
X66845Y3428D02*
X67220Y3428D01*
X66854Y3585D02*
X67262Y3585D01*
X66896Y3743D02*
X67304Y3743D01*
X66956Y3900D02*
X67292Y3900D01*
X67907Y6649D02*
X67907Y3106D01*
X67965Y2967D01*
X68104Y2909D01*
X68243Y2967D01*
X68301Y3106D01*
X68301Y6649D01*
X68243Y6789D01*
X68104Y6846D01*
X67965Y6789D01*
X67907Y6649D01*
X67923Y3067D02*
X68284Y3067D01*
X67907Y3224D02*
X68301Y3224D01*
X67907Y3382D02*
X68301Y3382D01*
X67907Y3539D02*
X68301Y3539D01*
X67907Y3697D02*
X68301Y3697D01*
X67907Y3854D02*
X68301Y3854D01*
X67907Y4012D02*
X68301Y4012D01*
X67907Y4169D02*
X68301Y4169D01*
X67907Y4327D02*
X68301Y4327D01*
X67907Y4484D02*
X68301Y4484D01*
X67907Y4642D02*
X68301Y4642D01*
X67907Y4799D02*
X68301Y4799D01*
X67907Y4956D02*
X68301Y4956D01*
X67907Y5114D02*
X68301Y5114D01*
X67907Y5271D02*
X68301Y5271D01*
X67907Y5429D02*
X68301Y5429D01*
X67907Y5586D02*
X68301Y5586D01*
X67907Y5744D02*
X68301Y5744D01*
X67907Y5901D02*
X68301Y5901D01*
X67907Y6059D02*
X68301Y6059D01*
X67907Y6216D02*
X68301Y6216D01*
X67907Y6374D02*
X68301Y6374D01*
X67907Y6531D02*
X68301Y6531D01*
X67923Y6689D02*
X68284Y6689D01*
X68104Y6846D02*
X68104Y6846D01*
X69719Y6769D02*
X67947Y4446D01*
X67909Y4300D01*
X67984Y4170D01*
X68130Y4131D01*
X68260Y4207D01*
X70032Y6530D01*
X70071Y6676D01*
X69995Y6806D01*
X69849Y6845D01*
X69719Y6769D01*
X67915Y4289D02*
X68323Y4289D01*
X67948Y4446D02*
X68443Y4446D01*
X68068Y4604D02*
X68563Y4604D01*
X68188Y4761D02*
X68683Y4761D01*
X68308Y4919D02*
X68803Y4919D01*
X68428Y5076D02*
X68923Y5076D01*
X68548Y5234D02*
X69043Y5234D01*
X68668Y5391D02*
X69163Y5391D01*
X68788Y5549D02*
X69284Y5549D01*
X68909Y5706D02*
X69404Y5706D01*
X69029Y5864D02*
X69524Y5864D01*
X69149Y6021D02*
X69644Y6021D01*
X69269Y6179D02*
X69764Y6179D01*
X69389Y6336D02*
X69884Y6336D01*
X69509Y6494D02*
X70004Y6494D01*
X69629Y6651D02*
X70064Y6651D01*
X69787Y6809D02*
X69985Y6809D01*
X70052Y3194D02*
X68989Y5320D01*
X68875Y5419D01*
X68724Y5408D01*
X68626Y5294D01*
X68636Y5144D01*
X69699Y3018D01*
X69813Y2919D01*
X69963Y2930D01*
X70062Y3044D01*
X70052Y3194D01*
X69670Y3077D02*
X70060Y3077D01*
X69591Y3234D02*
X70031Y3234D01*
X69513Y3392D02*
X69953Y3392D01*
X69434Y3549D02*
X69874Y3549D01*
X69355Y3707D02*
X69795Y3707D01*
X69276Y3864D02*
X69716Y3864D01*
X69198Y4022D02*
X69638Y4022D01*
X69119Y4179D02*
X69559Y4179D01*
X69040Y4337D02*
X69480Y4337D01*
X68961Y4494D02*
X69401Y4494D01*
X68883Y4652D02*
X69323Y4652D01*
X68804Y4809D02*
X69244Y4809D01*
X68725Y4967D02*
X69165Y4967D01*
X68646Y5124D02*
X69087Y5124D01*
X68627Y5282D02*
X69008Y5282D01*
X16030Y9300D02*
X16148Y8857D01*
X16240Y8738D01*
X16389Y8718D01*
X16509Y8810D01*
X16529Y8959D01*
X16410Y9402D01*
X16318Y9522D01*
X16169Y9541D01*
X16049Y9450D01*
X16030Y9300D01*
X16143Y8876D02*
X16518Y8876D01*
X16101Y9033D02*
X16509Y9033D01*
X16059Y9191D02*
X16467Y9191D01*
X16036Y9348D02*
X16424Y9348D01*
X16122Y9506D02*
X16331Y9506D01*
X15756Y9536D02*
X16081Y9212D01*
X16220Y9154D01*
X16359Y9212D01*
X16417Y9351D01*
X16359Y9490D01*
X16035Y9815D01*
X15896Y9872D01*
X15756Y9815D01*
X15699Y9675D01*
X15756Y9536D01*
X15981Y9312D02*
X16400Y9312D01*
X15823Y9469D02*
X16368Y9469D01*
X15719Y9627D02*
X16223Y9627D01*
X15744Y9784D02*
X16065Y9784D01*
X15402Y9604D02*
X15845Y9485D01*
X15994Y9505D01*
X16086Y9624D01*
X16066Y9774D01*
X15946Y9866D01*
X15504Y9984D01*
X15354Y9965D01*
X15262Y9845D01*
X15282Y9696D01*
X15402Y9604D01*
X15351Y9643D02*
X16083Y9643D01*
X15268Y9800D02*
X16032Y9800D01*
X15349Y9958D02*
X15603Y9958D01*
X15061Y9485D02*
X15504Y9604D01*
X15623Y9696D01*
X15643Y9845D01*
X15551Y9965D01*
X15402Y9984D01*
X14959Y9866D01*
X14839Y9774D01*
X14820Y9624D01*
X14911Y9505D01*
X15061Y9485D01*
X14822Y9643D02*
X15554Y9643D01*
X14874Y9800D02*
X15637Y9800D01*
X15303Y9958D02*
X15556Y9958D01*
X14825Y9212D02*
X15149Y9536D01*
X15207Y9675D01*
X15149Y9815D01*
X15010Y9872D01*
X14871Y9815D01*
X14546Y9490D01*
X14489Y9351D01*
X14546Y9212D01*
X14685Y9154D01*
X14825Y9212D01*
X14505Y9312D02*
X14924Y9312D01*
X14538Y9469D02*
X15082Y9469D01*
X14683Y9627D02*
X15186Y9627D01*
X14840Y9784D02*
X15161Y9784D01*
X14757Y8857D02*
X14876Y9300D01*
X14856Y9450D01*
X14736Y9541D01*
X14587Y9522D01*
X14495Y9402D01*
X14377Y8959D01*
X14396Y8810D01*
X14516Y8718D01*
X14665Y8738D01*
X14757Y8857D01*
X14388Y8876D02*
X14762Y8876D01*
X14396Y9033D02*
X14804Y9033D01*
X14439Y9191D02*
X14846Y9191D01*
X14481Y9348D02*
X14869Y9348D01*
X14575Y9506D02*
X14783Y9506D01*
X14783Y7097D02*
X14783Y8908D01*
X14726Y9047D01*
X14586Y9105D01*
X14447Y9047D01*
X14390Y8908D01*
X14390Y7097D01*
X14447Y6958D01*
X14586Y6900D01*
X14726Y6958D01*
X14783Y7097D01*
X14406Y7058D02*
X14767Y7058D01*
X14390Y7215D02*
X14783Y7215D01*
X14390Y7373D02*
X14783Y7373D01*
X14390Y7530D02*
X14783Y7530D01*
X14390Y7688D02*
X14783Y7688D01*
X14390Y7845D02*
X14783Y7845D01*
X14390Y8003D02*
X14783Y8003D01*
X14390Y8160D02*
X14783Y8160D01*
X14390Y8318D02*
X14783Y8318D01*
X14390Y8475D02*
X14783Y8475D01*
X14390Y8633D02*
X14783Y8633D01*
X14390Y8790D02*
X14783Y8790D01*
X14406Y8948D02*
X14767Y8948D01*
X14586Y9105D02*
X14586Y9105D01*
X14876Y6705D02*
X14757Y7148D01*
X14665Y7268D01*
X14516Y7287D01*
X14396Y7196D01*
X14377Y7046D01*
X14495Y6603D01*
X14587Y6484D01*
X14736Y6464D01*
X14856Y6556D01*
X14876Y6705D01*
X14490Y6622D02*
X14865Y6622D01*
X14448Y6779D02*
X14856Y6779D01*
X14406Y6937D02*
X14814Y6937D01*
X14383Y7094D02*
X14771Y7094D01*
X14469Y7252D02*
X14678Y7252D01*
X15149Y6469D02*
X14825Y6794D01*
X14685Y6851D01*
X14546Y6794D01*
X14489Y6654D01*
X14546Y6515D01*
X14871Y6191D01*
X15010Y6133D01*
X15149Y6191D01*
X15207Y6330D01*
X15149Y6469D01*
X14771Y6291D02*
X15190Y6291D01*
X14613Y6448D02*
X15158Y6448D01*
X14509Y6606D02*
X15012Y6606D01*
X14534Y6763D02*
X14855Y6763D01*
X15504Y6402D02*
X15061Y6520D01*
X14911Y6501D01*
X14820Y6381D01*
X14839Y6232D01*
X14959Y6140D01*
X15402Y6021D01*
X15551Y6041D01*
X15643Y6160D01*
X15623Y6310D01*
X15504Y6402D01*
X14908Y6179D02*
X15640Y6179D01*
X14825Y6336D02*
X15589Y6336D01*
X14906Y6494D02*
X15160Y6494D01*
X15845Y6520D02*
X15402Y6402D01*
X15282Y6310D01*
X15262Y6160D01*
X15354Y6041D01*
X15504Y6021D01*
X15946Y6140D01*
X16066Y6232D01*
X16086Y6381D01*
X15994Y6501D01*
X15845Y6520D01*
X15265Y6179D02*
X15997Y6179D01*
X15317Y6336D02*
X16080Y6336D01*
X15746Y6494D02*
X15999Y6494D01*
X16081Y6794D02*
X15756Y6469D01*
X15699Y6330D01*
X15756Y6191D01*
X15896Y6133D01*
X16035Y6191D01*
X16359Y6515D01*
X16417Y6654D01*
X16359Y6794D01*
X16220Y6851D01*
X16081Y6794D01*
X15715Y6291D02*
X16135Y6291D01*
X15748Y6448D02*
X16292Y6448D01*
X15893Y6606D02*
X16396Y6606D01*
X16050Y6763D02*
X16372Y6763D01*
X16148Y7148D02*
X16030Y6705D01*
X16049Y6556D01*
X16169Y6464D01*
X16318Y6484D01*
X16410Y6603D01*
X16529Y7046D01*
X16509Y7196D01*
X16389Y7287D01*
X16240Y7268D01*
X16148Y7148D01*
X16041Y6622D02*
X16415Y6622D01*
X16049Y6779D02*
X16457Y6779D01*
X16092Y6937D02*
X16499Y6937D01*
X16134Y7094D02*
X16522Y7094D01*
X16228Y7252D02*
X16436Y7252D01*
X17912Y9914D02*
X17203Y9205D01*
X17146Y9066D01*
X17203Y8927D01*
X17342Y8869D01*
X17482Y8927D01*
X18190Y9635D01*
X18248Y9774D01*
X18190Y9914D01*
X18051Y9971D01*
X17912Y9914D01*
X17162Y9026D02*
X17581Y9026D01*
X17194Y9184D02*
X17739Y9184D01*
X17340Y9341D02*
X17896Y9341D01*
X17497Y9499D02*
X18054Y9499D01*
X17655Y9656D02*
X18199Y9656D01*
X17812Y9814D02*
X18232Y9814D01*
X18051Y9971D02*
X18051Y9971D01*
X18248Y6231D02*
X18248Y9774D01*
X18190Y9914D01*
X18051Y9971D01*
X17912Y9914D01*
X17854Y9774D01*
X17854Y6231D01*
X17912Y6092D01*
X18051Y6034D01*
X18190Y6092D01*
X18248Y6231D01*
X17870Y6192D02*
X18232Y6192D01*
X17854Y6349D02*
X18248Y6349D01*
X17854Y6507D02*
X18248Y6507D01*
X17854Y6664D02*
X18248Y6664D01*
X17854Y6822D02*
X18248Y6822D01*
X17854Y6979D02*
X18248Y6979D01*
X17854Y7137D02*
X18248Y7137D01*
X17854Y7294D02*
X18248Y7294D01*
X17854Y7452D02*
X18248Y7452D01*
X17854Y7609D02*
X18248Y7609D01*
X17854Y7767D02*
X18248Y7767D01*
X17854Y7924D02*
X18248Y7924D01*
X17854Y8081D02*
X18248Y8081D01*
X17854Y8239D02*
X18248Y8239D01*
X17854Y8396D02*
X18248Y8396D01*
X17854Y8554D02*
X18248Y8554D01*
X17854Y8711D02*
X18248Y8711D01*
X17854Y8869D02*
X18248Y8869D01*
X17854Y9026D02*
X18248Y9026D01*
X17854Y9184D02*
X18248Y9184D01*
X17854Y9341D02*
X18248Y9341D01*
X17854Y9499D02*
X18248Y9499D01*
X17854Y9656D02*
X18248Y9656D01*
X17870Y9814D02*
X18232Y9814D01*
X18051Y9971D02*
X18051Y9971D01*
X8329Y4914D02*
X7620Y4205D01*
X7562Y4066D01*
X7620Y3927D01*
X7759Y3869D01*
X7898Y3927D01*
X8607Y4635D01*
X8665Y4774D01*
X8607Y4914D01*
X8468Y4971D01*
X8329Y4914D01*
X7579Y4026D02*
X7998Y4026D01*
X7611Y4184D02*
X8156Y4184D01*
X7756Y4341D02*
X8313Y4341D01*
X7914Y4499D02*
X8471Y4499D01*
X8071Y4656D02*
X8616Y4656D01*
X8229Y4814D02*
X8648Y4814D01*
X8468Y4971D02*
X8468Y4971D01*
X8665Y1231D02*
X8665Y4774D01*
X8607Y4914D01*
X8468Y4971D01*
X8329Y4914D01*
X8271Y4774D01*
X8271Y1231D01*
X8329Y1092D01*
X8468Y1034D01*
X8607Y1092D01*
X8665Y1231D01*
X8287Y1192D02*
X8648Y1192D01*
X8271Y1349D02*
X8665Y1349D01*
X8271Y1507D02*
X8665Y1507D01*
X8271Y1664D02*
X8665Y1664D01*
X8271Y1822D02*
X8665Y1822D01*
X8271Y1979D02*
X8665Y1979D01*
X8271Y2137D02*
X8665Y2137D01*
X8271Y2294D02*
X8665Y2294D01*
X8271Y2452D02*
X8665Y2452D01*
X8271Y2609D02*
X8665Y2609D01*
X8271Y2767D02*
X8665Y2767D01*
X8271Y2924D02*
X8665Y2924D01*
X8271Y3081D02*
X8665Y3081D01*
X8271Y3239D02*
X8665Y3239D01*
X8271Y3396D02*
X8665Y3396D01*
X8271Y3554D02*
X8665Y3554D01*
X8271Y3711D02*
X8665Y3711D01*
X8271Y3869D02*
X8665Y3869D01*
X8271Y4026D02*
X8665Y4026D01*
X8271Y4184D02*
X8665Y4184D01*
X8271Y4341D02*
X8665Y4341D01*
X8271Y4499D02*
X8665Y4499D01*
X8271Y4656D02*
X8665Y4656D01*
X8287Y4814D02*
X8648Y4814D01*
X8468Y4971D02*
X8468Y4971D01*
X11066Y1940D02*
X11066Y4066D01*
X11009Y4205D01*
X10870Y4263D01*
X10730Y4205D01*
X10673Y4066D01*
X10673Y1940D01*
X10730Y1801D01*
X10870Y1743D01*
X11009Y1801D01*
X11066Y1940D01*
X10689Y1900D02*
X11050Y1900D01*
X10673Y2058D02*
X11066Y2058D01*
X10673Y2215D02*
X11066Y2215D01*
X10673Y2373D02*
X11066Y2373D01*
X10673Y2530D02*
X11066Y2530D01*
X10673Y2688D02*
X11066Y2688D01*
X10673Y2845D02*
X11066Y2845D01*
X10673Y3003D02*
X11066Y3003D01*
X10673Y3160D02*
X11066Y3160D01*
X10673Y3318D02*
X11066Y3318D01*
X10673Y3475D02*
X11066Y3475D01*
X10673Y3633D02*
X11066Y3633D01*
X10673Y3790D02*
X11066Y3790D01*
X10673Y3948D02*
X11066Y3948D01*
X10689Y4105D02*
X11050Y4105D01*
X10870Y4263D02*
X10870Y4263D01*
X10584Y4369D02*
X10679Y4015D01*
X10771Y3895D01*
X10920Y3876D01*
X11040Y3967D01*
X11060Y4117D01*
X10965Y4471D01*
X10873Y4591D01*
X10724Y4610D01*
X10604Y4519D01*
X10584Y4369D01*
X10674Y4033D02*
X11049Y4033D01*
X10632Y4191D02*
X11040Y4191D01*
X10590Y4348D02*
X10998Y4348D01*
X10602Y4506D02*
X10938Y4506D01*
X10376Y4540D02*
X10635Y4281D01*
X10775Y4223D01*
X10914Y4281D01*
X10971Y4420D01*
X10914Y4559D01*
X10654Y4819D01*
X10515Y4876D01*
X10376Y4819D01*
X10318Y4679D01*
X10376Y4540D01*
X10536Y4381D02*
X10955Y4381D01*
X10378Y4538D02*
X10923Y4538D01*
X10325Y4696D02*
X10777Y4696D01*
X10459Y4853D02*
X10571Y4853D01*
X10110Y4584D02*
X10464Y4489D01*
X10614Y4509D01*
X10705Y4629D01*
X10686Y4778D01*
X10566Y4870D01*
X10212Y4965D01*
X10062Y4945D01*
X9971Y4825D01*
X9990Y4676D01*
X10110Y4584D01*
X10028Y4647D02*
X10703Y4647D01*
X9974Y4804D02*
X10651Y4804D01*
X10191Y4962D02*
X10222Y4962D01*
X9857Y4489D02*
X10212Y4584D01*
X10331Y4676D01*
X10351Y4825D01*
X10259Y4945D01*
X10110Y4965D01*
X9756Y4870D01*
X9636Y4778D01*
X9616Y4629D01*
X9708Y4509D01*
X9857Y4489D01*
X9619Y4647D02*
X10293Y4647D01*
X9670Y4804D02*
X10348Y4804D01*
X10100Y4962D02*
X10131Y4962D01*
X9686Y4281D02*
X9946Y4540D01*
X10003Y4679D01*
X9946Y4819D01*
X9807Y4876D01*
X9667Y4819D01*
X9408Y4559D01*
X9350Y4420D01*
X9408Y4281D01*
X9547Y4223D01*
X9686Y4281D01*
X9367Y4381D02*
X9786Y4381D01*
X9399Y4538D02*
X9944Y4538D01*
X9544Y4696D02*
X9997Y4696D01*
X9751Y4853D02*
X9862Y4853D01*
X9642Y4015D02*
X9737Y4369D01*
X9718Y4519D01*
X9598Y4610D01*
X9449Y4591D01*
X9357Y4471D01*
X9262Y4117D01*
X9282Y3967D01*
X9401Y3876D01*
X9551Y3895D01*
X9642Y4015D01*
X9273Y4033D02*
X9647Y4033D01*
X9282Y4191D02*
X9689Y4191D01*
X9324Y4348D02*
X9732Y4348D01*
X9383Y4506D02*
X9719Y4506D01*
X9255Y4066D02*
X9255Y1940D01*
X9313Y1801D01*
X9452Y1743D01*
X9591Y1801D01*
X9649Y1940D01*
X9649Y4066D01*
X9591Y4205D01*
X9452Y4263D01*
X9313Y4205D01*
X9255Y4066D01*
X9272Y1900D02*
X9633Y1900D01*
X9255Y2058D02*
X9649Y2058D01*
X9255Y2215D02*
X9649Y2215D01*
X9255Y2373D02*
X9649Y2373D01*
X9255Y2530D02*
X9649Y2530D01*
X9255Y2688D02*
X9649Y2688D01*
X9255Y2845D02*
X9649Y2845D01*
X9255Y3003D02*
X9649Y3003D01*
X9255Y3160D02*
X9649Y3160D01*
X9255Y3318D02*
X9649Y3318D01*
X9255Y3475D02*
X9649Y3475D01*
X9255Y3633D02*
X9649Y3633D01*
X9255Y3790D02*
X9649Y3790D01*
X9255Y3948D02*
X9649Y3948D01*
X9272Y4105D02*
X9633Y4105D01*
X9452Y4263D02*
X9452Y4263D01*
X9737Y1636D02*
X9642Y1991D01*
X9551Y2110D01*
X9401Y2130D01*
X9282Y2038D01*
X9262Y1889D01*
X9357Y1534D01*
X9449Y1415D01*
X9598Y1395D01*
X9718Y1487D01*
X9737Y1636D01*
X9352Y1553D02*
X9726Y1553D01*
X9310Y1710D02*
X9717Y1710D01*
X9268Y1868D02*
X9675Y1868D01*
X9280Y2025D02*
X9616Y2025D01*
X9946Y1465D02*
X9686Y1725D01*
X9547Y1782D01*
X9408Y1725D01*
X9350Y1585D01*
X9408Y1446D01*
X9667Y1187D01*
X9807Y1129D01*
X9946Y1187D01*
X10003Y1326D01*
X9946Y1465D01*
X9568Y1287D02*
X9987Y1287D01*
X9410Y1444D02*
X9954Y1444D01*
X9357Y1602D02*
X9809Y1602D01*
X9491Y1759D02*
X9603Y1759D01*
X10212Y1421D02*
X9857Y1516D01*
X9708Y1497D01*
X9616Y1377D01*
X9636Y1228D01*
X9756Y1136D01*
X10110Y1041D01*
X10259Y1061D01*
X10351Y1180D01*
X10331Y1330D01*
X10212Y1421D01*
X9674Y1198D02*
X10349Y1198D01*
X9619Y1356D02*
X10297Y1356D01*
X9836Y1513D02*
X9868Y1513D01*
X10464Y1516D02*
X10110Y1421D01*
X9990Y1330D01*
X9971Y1180D01*
X10062Y1061D01*
X10212Y1041D01*
X10566Y1136D01*
X10686Y1228D01*
X10705Y1377D01*
X10614Y1497D01*
X10464Y1516D01*
X9973Y1198D02*
X10648Y1198D01*
X10025Y1356D02*
X10703Y1356D01*
X10454Y1513D02*
X10485Y1513D01*
X10635Y1725D02*
X10376Y1465D01*
X10318Y1326D01*
X10376Y1187D01*
X10515Y1129D01*
X10654Y1187D01*
X10914Y1446D01*
X10971Y1585D01*
X10914Y1725D01*
X10775Y1782D01*
X10635Y1725D01*
X10335Y1287D02*
X10754Y1287D01*
X10367Y1444D02*
X10912Y1444D01*
X10512Y1602D02*
X10965Y1602D01*
X10719Y1759D02*
X10831Y1759D01*
X10679Y1991D02*
X10584Y1636D01*
X10604Y1487D01*
X10724Y1395D01*
X10873Y1415D01*
X10965Y1534D01*
X11060Y1889D01*
X11040Y2038D01*
X10920Y2130D01*
X10771Y2110D01*
X10679Y1991D01*
X10595Y1553D02*
X10970Y1553D01*
X10604Y1710D02*
X11012Y1710D01*
X10646Y1868D02*
X11054Y1868D01*
X10706Y2025D02*
X11042Y2025D01*
X13468Y1940D02*
X13468Y4066D01*
X13410Y4205D01*
X13271Y4263D01*
X13132Y4205D01*
X13074Y4066D01*
X13074Y1940D01*
X13132Y1801D01*
X13271Y1743D01*
X13410Y1801D01*
X13468Y1940D01*
X13091Y1900D02*
X13452Y1900D01*
X13074Y2058D02*
X13468Y2058D01*
X13074Y2215D02*
X13468Y2215D01*
X13074Y2373D02*
X13468Y2373D01*
X13074Y2530D02*
X13468Y2530D01*
X13074Y2688D02*
X13468Y2688D01*
X13074Y2845D02*
X13468Y2845D01*
X13074Y3003D02*
X13468Y3003D01*
X13074Y3160D02*
X13468Y3160D01*
X13074Y3318D02*
X13468Y3318D01*
X13074Y3475D02*
X13468Y3475D01*
X13074Y3633D02*
X13468Y3633D01*
X13074Y3790D02*
X13468Y3790D01*
X13074Y3948D02*
X13468Y3948D01*
X13091Y4105D02*
X13452Y4105D01*
X13271Y4263D02*
X13271Y4263D01*
X12986Y4369D02*
X13081Y4015D01*
X13173Y3895D01*
X13322Y3876D01*
X13442Y3967D01*
X13461Y4117D01*
X13366Y4471D01*
X13275Y4591D01*
X13125Y4610D01*
X13006Y4519D01*
X12986Y4369D01*
X13076Y4033D02*
X13450Y4033D01*
X13034Y4191D02*
X13441Y4191D01*
X12992Y4348D02*
X13399Y4348D01*
X13004Y4506D02*
X13340Y4506D01*
X12778Y4540D02*
X13037Y4281D01*
X13176Y4223D01*
X13315Y4281D01*
X13373Y4420D01*
X13315Y4559D01*
X13056Y4819D01*
X12917Y4876D01*
X12778Y4819D01*
X12720Y4679D01*
X12778Y4540D01*
X12937Y4381D02*
X13357Y4381D01*
X12780Y4538D02*
X13324Y4538D01*
X12727Y4696D02*
X13179Y4696D01*
X12861Y4853D02*
X12973Y4853D01*
X12511Y4584D02*
X12866Y4489D01*
X13015Y4509D01*
X13107Y4629D01*
X13087Y4778D01*
X12968Y4870D01*
X12613Y4965D01*
X12464Y4945D01*
X12372Y4825D01*
X12392Y4676D01*
X12511Y4584D01*
X12430Y4647D02*
X13105Y4647D01*
X12375Y4804D02*
X13053Y4804D01*
X12592Y4962D02*
X12624Y4962D01*
X12259Y4489D02*
X12613Y4584D01*
X12733Y4676D01*
X12753Y4825D01*
X12661Y4945D01*
X12511Y4965D01*
X12157Y4870D01*
X12038Y4778D01*
X12018Y4629D01*
X12110Y4509D01*
X12259Y4489D01*
X12020Y4647D02*
X12695Y4647D01*
X12072Y4804D02*
X12750Y4804D01*
X12501Y4962D02*
X12533Y4962D01*
X12088Y4281D02*
X12347Y4540D01*
X12405Y4679D01*
X12347Y4819D01*
X12208Y4876D01*
X12069Y4819D01*
X11810Y4559D01*
X11752Y4420D01*
X11810Y4281D01*
X11949Y4223D01*
X12088Y4281D01*
X11768Y4381D02*
X12188Y4381D01*
X11801Y4538D02*
X12345Y4538D01*
X11946Y4696D02*
X12398Y4696D01*
X12152Y4853D02*
X12264Y4853D01*
X12044Y4015D02*
X12139Y4369D01*
X12119Y4519D01*
X12000Y4610D01*
X11850Y4591D01*
X11759Y4471D01*
X11664Y4117D01*
X11683Y3967D01*
X11803Y3876D01*
X11952Y3895D01*
X12044Y4015D01*
X11675Y4033D02*
X12049Y4033D01*
X11683Y4191D02*
X12091Y4191D01*
X11726Y4348D02*
X12133Y4348D01*
X11785Y4506D02*
X12121Y4506D01*
X11657Y4066D02*
X11657Y1940D01*
X11715Y1801D01*
X11854Y1743D01*
X11993Y1801D01*
X12051Y1940D01*
X12051Y4066D01*
X11993Y4205D01*
X11854Y4263D01*
X11715Y4205D01*
X11657Y4066D01*
X11673Y1900D02*
X12034Y1900D01*
X11657Y2058D02*
X12051Y2058D01*
X11657Y2215D02*
X12051Y2215D01*
X11657Y2373D02*
X12051Y2373D01*
X11657Y2530D02*
X12051Y2530D01*
X11657Y2688D02*
X12051Y2688D01*
X11657Y2845D02*
X12051Y2845D01*
X11657Y3003D02*
X12051Y3003D01*
X11657Y3160D02*
X12051Y3160D01*
X11657Y3318D02*
X12051Y3318D01*
X11657Y3475D02*
X12051Y3475D01*
X11657Y3633D02*
X12051Y3633D01*
X11657Y3790D02*
X12051Y3790D01*
X11657Y3948D02*
X12051Y3948D01*
X11673Y4105D02*
X12034Y4105D01*
X11854Y4263D02*
X11854Y4263D01*
X12139Y1636D02*
X12044Y1991D01*
X11952Y2110D01*
X11803Y2130D01*
X11683Y2038D01*
X11664Y1889D01*
X11759Y1534D01*
X11850Y1415D01*
X12000Y1395D01*
X12119Y1487D01*
X12139Y1636D01*
X11754Y1553D02*
X12128Y1553D01*
X11711Y1710D02*
X12119Y1710D01*
X11669Y1868D02*
X12077Y1868D01*
X11682Y2025D02*
X12017Y2025D01*
X12347Y1465D02*
X12088Y1725D01*
X11949Y1782D01*
X11810Y1725D01*
X11752Y1585D01*
X11810Y1446D01*
X12069Y1187D01*
X12208Y1129D01*
X12347Y1187D01*
X12405Y1326D01*
X12347Y1465D01*
X11969Y1287D02*
X12389Y1287D01*
X11812Y1444D02*
X12356Y1444D01*
X11759Y1602D02*
X12211Y1602D01*
X11893Y1759D02*
X12005Y1759D01*
X12613Y1421D02*
X12259Y1516D01*
X12110Y1497D01*
X12018Y1377D01*
X12038Y1228D01*
X12157Y1136D01*
X12511Y1041D01*
X12661Y1061D01*
X12753Y1180D01*
X12733Y1330D01*
X12613Y1421D01*
X12076Y1198D02*
X12750Y1198D01*
X12021Y1356D02*
X12699Y1356D01*
X12238Y1513D02*
X12269Y1513D01*
X12866Y1516D02*
X12511Y1421D01*
X12392Y1330D01*
X12372Y1180D01*
X12464Y1061D01*
X12613Y1041D01*
X12968Y1136D01*
X13087Y1228D01*
X13107Y1377D01*
X13015Y1497D01*
X12866Y1516D01*
X12375Y1198D02*
X13049Y1198D01*
X12426Y1356D02*
X13104Y1356D01*
X12855Y1513D02*
X12887Y1513D01*
X13037Y1725D02*
X12778Y1465D01*
X12720Y1326D01*
X12778Y1187D01*
X12917Y1129D01*
X13056Y1187D01*
X13315Y1446D01*
X13373Y1585D01*
X13315Y1725D01*
X13176Y1782D01*
X13037Y1725D01*
X12736Y1287D02*
X13156Y1287D01*
X12769Y1444D02*
X13313Y1444D01*
X12914Y1602D02*
X13366Y1602D01*
X13120Y1759D02*
X13232Y1759D01*
X13081Y1991D02*
X12986Y1636D01*
X13006Y1487D01*
X13125Y1395D01*
X13275Y1415D01*
X13366Y1534D01*
X13461Y1889D01*
X13442Y2038D01*
X13322Y2130D01*
X13173Y2110D01*
X13081Y1991D01*
X12997Y1553D02*
X13371Y1553D01*
X13006Y1710D02*
X13413Y1710D01*
X13048Y1868D02*
X13456Y1868D01*
X13107Y2025D02*
X13443Y2025D01*
X14059Y3554D02*
X14059Y1231D01*
X14116Y1092D01*
X14255Y1034D01*
X14395Y1092D01*
X14452Y1231D01*
X14452Y3554D01*
X14395Y3693D01*
X14255Y3751D01*
X14116Y3693D01*
X14059Y3554D01*
X14075Y1192D02*
X14436Y1192D01*
X14059Y1349D02*
X14452Y1349D01*
X14059Y1507D02*
X14452Y1507D01*
X14059Y1664D02*
X14452Y1664D01*
X14059Y1822D02*
X14452Y1822D01*
X14059Y1979D02*
X14452Y1979D01*
X14059Y2137D02*
X14452Y2137D01*
X14059Y2294D02*
X14452Y2294D01*
X14059Y2452D02*
X14452Y2452D01*
X14059Y2609D02*
X14452Y2609D01*
X14059Y2767D02*
X14452Y2767D01*
X14059Y2924D02*
X14452Y2924D01*
X14059Y3081D02*
X14452Y3081D01*
X14059Y3239D02*
X14452Y3239D01*
X14059Y3396D02*
X14452Y3396D01*
X14059Y3554D02*
X14452Y3554D01*
X14160Y3711D02*
X14350Y3711D01*
X15388Y3109D02*
X15483Y2755D01*
X15574Y2635D01*
X15724Y2616D01*
X15843Y2707D01*
X15863Y2857D01*
X15768Y3211D01*
X15676Y3331D01*
X15527Y3350D01*
X15407Y3259D01*
X15388Y3109D01*
X15478Y2773D02*
X15852Y2773D01*
X15435Y2931D02*
X15843Y2931D01*
X15393Y3088D02*
X15801Y3088D01*
X15406Y3246D02*
X15741Y3246D01*
X15179Y3280D02*
X15439Y3021D01*
X15578Y2963D01*
X15717Y3021D01*
X15775Y3160D01*
X15717Y3299D01*
X15458Y3559D01*
X15318Y3616D01*
X15179Y3559D01*
X15121Y3420D01*
X15179Y3280D01*
X15339Y3121D02*
X15758Y3121D01*
X15181Y3278D02*
X15726Y3278D01*
X15128Y3436D02*
X15581Y3436D01*
X15262Y3593D02*
X15374Y3593D01*
X14913Y3324D02*
X15267Y3229D01*
X15417Y3249D01*
X15508Y3369D01*
X15489Y3518D01*
X15369Y3610D01*
X15015Y3705D01*
X14866Y3685D01*
X14774Y3566D01*
X14794Y3416D01*
X14913Y3324D01*
X14832Y3387D02*
X15506Y3387D01*
X14777Y3544D02*
X15454Y3544D01*
X14994Y3702D02*
X15025Y3702D01*
X14661Y3229D02*
X15015Y3324D01*
X15134Y3416D01*
X15154Y3566D01*
X15062Y3685D01*
X14913Y3705D01*
X14559Y3610D01*
X14439Y3518D01*
X14420Y3369D01*
X14511Y3249D01*
X14661Y3229D01*
X14422Y3387D02*
X15096Y3387D01*
X14474Y3544D02*
X15151Y3544D01*
X14903Y3702D02*
X14934Y3702D01*
X14489Y3021D02*
X14749Y3280D01*
X14807Y3420D01*
X14749Y3559D01*
X14610Y3616D01*
X14470Y3559D01*
X14211Y3299D01*
X14153Y3160D01*
X14211Y3021D01*
X14350Y2963D01*
X14489Y3021D01*
X14170Y3121D02*
X14589Y3121D01*
X14202Y3278D02*
X14747Y3278D01*
X14348Y3436D02*
X14800Y3436D01*
X14554Y3593D02*
X14666Y3593D01*
X14445Y2755D02*
X14540Y3109D01*
X14521Y3259D01*
X14401Y3350D01*
X14252Y3331D01*
X14160Y3211D01*
X14065Y2857D01*
X14085Y2707D01*
X14204Y2616D01*
X14354Y2635D01*
X14445Y2755D01*
X14076Y2773D02*
X14450Y2773D01*
X14085Y2931D02*
X14493Y2931D01*
X14127Y3088D02*
X14535Y3088D01*
X14187Y3246D02*
X14522Y3246D01*
X15870Y1231D02*
X15870Y2806D01*
X15812Y2945D01*
X15673Y3003D01*
X15533Y2945D01*
X15476Y2806D01*
X15476Y1231D01*
X15533Y1092D01*
X15673Y1034D01*
X15812Y1092D01*
X15870Y1231D01*
X15492Y1192D02*
X15853Y1192D01*
X15476Y1349D02*
X15870Y1349D01*
X15476Y1507D02*
X15870Y1507D01*
X15476Y1664D02*
X15870Y1664D01*
X15476Y1822D02*
X15870Y1822D01*
X15476Y1979D02*
X15870Y1979D01*
X15476Y2137D02*
X15870Y2137D01*
X15476Y2294D02*
X15870Y2294D01*
X15476Y2452D02*
X15870Y2452D01*
X15476Y2609D02*
X15870Y2609D01*
X15476Y2767D02*
X15870Y2767D01*
X15525Y2924D02*
X15821Y2924D01*
X16657Y4578D02*
X18429Y4578D01*
X18568Y4635D01*
X18625Y4774D01*
X18568Y4914D01*
X18429Y4971D01*
X16657Y4971D01*
X16518Y4914D01*
X16460Y4774D01*
X16518Y4635D01*
X16657Y4578D01*
X16476Y4735D02*
X18609Y4735D01*
X16509Y4893D02*
X18577Y4893D01*
X16854Y3003D02*
X16854Y4774D01*
X16796Y4914D01*
X16657Y4971D01*
X16518Y4914D01*
X16460Y4774D01*
X16460Y3003D01*
X16518Y2864D01*
X16657Y2806D01*
X16796Y2864D01*
X16854Y3003D01*
X16476Y2963D02*
X16837Y2963D01*
X16460Y3121D02*
X16854Y3121D01*
X16460Y3278D02*
X16854Y3278D01*
X16460Y3436D02*
X16854Y3436D01*
X16460Y3593D02*
X16854Y3593D01*
X16460Y3751D02*
X16854Y3751D01*
X16460Y3908D02*
X16854Y3908D01*
X16460Y4066D02*
X16854Y4066D01*
X16460Y4223D02*
X16854Y4223D01*
X16460Y4381D02*
X16854Y4381D01*
X16460Y4538D02*
X16854Y4538D01*
X16460Y4696D02*
X16854Y4696D01*
X16493Y4853D02*
X16821Y4853D01*
X17877Y3200D02*
X16657Y3200D01*
X16518Y3142D01*
X16460Y3003D01*
X16518Y2864D01*
X16657Y2806D01*
X17877Y2806D01*
X18017Y2864D01*
X18074Y3003D01*
X18017Y3142D01*
X17877Y3200D01*
X16476Y2963D02*
X18058Y2963D01*
X16509Y3121D02*
X18025Y3121D01*
X16854Y1231D02*
X16854Y3003D01*
X16796Y3142D01*
X16657Y3200D01*
X16518Y3142D01*
X16460Y3003D01*
X16460Y1231D01*
X16518Y1092D01*
X16657Y1034D01*
X16796Y1092D01*
X16854Y1231D01*
X16476Y1192D02*
X16837Y1192D01*
X16460Y1349D02*
X16854Y1349D01*
X16460Y1507D02*
X16854Y1507D01*
X16460Y1664D02*
X16854Y1664D01*
X16460Y1822D02*
X16854Y1822D01*
X16460Y1979D02*
X16854Y1979D01*
X16460Y2137D02*
X16854Y2137D01*
X16460Y2294D02*
X16854Y2294D01*
X16460Y2452D02*
X16854Y2452D01*
X16460Y2609D02*
X16854Y2609D01*
X16460Y2767D02*
X16854Y2767D01*
X16460Y2924D02*
X16854Y2924D01*
X16493Y3081D02*
X16821Y3081D01*
X94525Y3414D02*
X94082Y3295D01*
X93963Y3203D01*
X93943Y3054D01*
X94035Y2934D01*
X94184Y2915D01*
X94627Y3033D01*
X94747Y3125D01*
X94766Y3274D01*
X94675Y3394D01*
X94525Y3414D01*
X93946Y3072D02*
X94678Y3072D01*
X93997Y3230D02*
X94761Y3230D01*
X94426Y3387D02*
X94680Y3387D01*
X94761Y3687D02*
X94437Y3363D01*
X94379Y3223D01*
X94437Y3084D01*
X94576Y3027D01*
X94715Y3084D01*
X95040Y3409D01*
X95097Y3548D01*
X95040Y3687D01*
X94901Y3745D01*
X94761Y3687D01*
X94396Y3184D02*
X94815Y3184D01*
X94428Y3342D02*
X94973Y3342D01*
X94573Y3499D02*
X95077Y3499D01*
X94731Y3657D02*
X95052Y3657D01*
X94829Y4042D02*
X94710Y3599D01*
X94730Y3449D01*
X94850Y3358D01*
X94999Y3377D01*
X95091Y3497D01*
X95209Y3940D01*
X95190Y4089D01*
X95070Y4181D01*
X94921Y4161D01*
X94829Y4042D01*
X94721Y3515D02*
X95096Y3515D01*
X94730Y3673D02*
X95138Y3673D01*
X94772Y3830D02*
X95180Y3830D01*
X94815Y3988D02*
X95203Y3988D01*
X94908Y4145D02*
X95117Y4145D01*
X94710Y4383D02*
X94829Y3940D01*
X94921Y3820D01*
X95070Y3801D01*
X95190Y3892D01*
X95209Y4042D01*
X95091Y4485D01*
X94999Y4604D01*
X94850Y4624D01*
X94730Y4532D01*
X94710Y4383D01*
X94824Y3958D02*
X95198Y3958D01*
X94782Y4115D02*
X95190Y4115D01*
X94740Y4273D02*
X95147Y4273D01*
X94717Y4430D02*
X95105Y4430D01*
X94803Y4588D02*
X95011Y4588D01*
X94437Y4619D02*
X94761Y4294D01*
X94901Y4237D01*
X95040Y4294D01*
X95097Y4434D01*
X95040Y4573D01*
X94715Y4897D01*
X94576Y4955D01*
X94437Y4897D01*
X94379Y4758D01*
X94437Y4619D01*
X94661Y4394D02*
X95081Y4394D01*
X94504Y4552D02*
X95048Y4552D01*
X94400Y4709D02*
X94903Y4709D01*
X94425Y4867D02*
X94746Y4867D01*
X94082Y4686D02*
X94525Y4568D01*
X94675Y4587D01*
X94766Y4707D01*
X94747Y4856D01*
X94627Y4948D01*
X94184Y5067D01*
X94035Y5047D01*
X93943Y4927D01*
X93963Y4778D01*
X94082Y4686D01*
X94032Y4725D02*
X94764Y4725D01*
X93949Y4883D02*
X94712Y4883D01*
X94030Y5040D02*
X94283Y5040D01*
X92322Y4699D02*
X94133Y4699D01*
X94273Y4757D01*
X94330Y4896D01*
X94273Y5035D01*
X94133Y5093D01*
X92322Y5093D01*
X92183Y5035D01*
X92125Y4896D01*
X92183Y4757D01*
X92322Y4699D01*
X92142Y4857D02*
X94314Y4857D01*
X92174Y5014D02*
X94281Y5014D01*
X91930Y4568D02*
X92373Y4686D01*
X92493Y4778D01*
X92512Y4927D01*
X92421Y5047D01*
X92271Y5067D01*
X91828Y4948D01*
X91709Y4856D01*
X91689Y4707D01*
X91781Y4587D01*
X91930Y4568D01*
X91692Y4725D02*
X92424Y4725D01*
X91743Y4883D02*
X92507Y4883D01*
X92172Y5040D02*
X92426Y5040D01*
X91694Y4294D02*
X92019Y4619D01*
X92076Y4758D01*
X92019Y4897D01*
X91879Y4955D01*
X91740Y4897D01*
X91416Y4573D01*
X91358Y4434D01*
X91416Y4294D01*
X91555Y4237D01*
X91694Y4294D01*
X91375Y4394D02*
X91794Y4394D01*
X91407Y4552D02*
X91952Y4552D01*
X91552Y4709D02*
X92056Y4709D01*
X91710Y4867D02*
X92031Y4867D01*
X91627Y3940D02*
X91745Y4383D01*
X91726Y4532D01*
X91606Y4624D01*
X91457Y4604D01*
X91365Y4485D01*
X91246Y4042D01*
X91266Y3892D01*
X91386Y3801D01*
X91535Y3820D01*
X91627Y3940D01*
X91257Y3958D02*
X91632Y3958D01*
X91266Y4115D02*
X91674Y4115D01*
X91308Y4273D02*
X91716Y4273D01*
X91351Y4430D02*
X91739Y4430D01*
X91444Y4588D02*
X91653Y4588D01*
X91745Y3599D02*
X91627Y4042D01*
X91535Y4161D01*
X91386Y4181D01*
X91266Y4089D01*
X91246Y3940D01*
X91365Y3497D01*
X91457Y3377D01*
X91606Y3358D01*
X91726Y3449D01*
X91745Y3599D01*
X91360Y3515D02*
X91734Y3515D01*
X91318Y3673D02*
X91726Y3673D01*
X91276Y3830D02*
X91683Y3830D01*
X91253Y3988D02*
X91641Y3988D01*
X91339Y4145D02*
X91547Y4145D01*
X92019Y3363D02*
X91694Y3687D01*
X91555Y3745D01*
X91416Y3687D01*
X91358Y3548D01*
X91416Y3409D01*
X91740Y3084D01*
X91879Y3027D01*
X92019Y3084D01*
X92076Y3223D01*
X92019Y3363D01*
X91640Y3184D02*
X92060Y3184D01*
X91483Y3342D02*
X92027Y3342D01*
X91378Y3499D02*
X91882Y3499D01*
X91403Y3657D02*
X91725Y3657D01*
X92373Y3295D02*
X91930Y3414D01*
X91781Y3394D01*
X91689Y3274D01*
X91709Y3125D01*
X91828Y3033D01*
X92271Y2915D01*
X92421Y2934D01*
X92512Y3054D01*
X92493Y3203D01*
X92373Y3295D01*
X91778Y3072D02*
X92510Y3072D01*
X91695Y3230D02*
X92458Y3230D01*
X91776Y3387D02*
X92029Y3387D01*
X94133Y3321D02*
X92322Y3321D01*
X92183Y3264D01*
X92125Y3125D01*
X92183Y2985D01*
X92322Y2928D01*
X94133Y2928D01*
X94273Y2985D01*
X94330Y3125D01*
X94273Y3264D01*
X94133Y3321D01*
X92142Y3085D02*
X94314Y3085D01*
X92174Y3243D02*
X94281Y3243D01*
X94133Y6077D02*
X91456Y6077D01*
X91317Y6020D01*
X91259Y5880D01*
X91317Y5741D01*
X91456Y5684D01*
X94133Y5684D01*
X94273Y5741D01*
X94330Y5880D01*
X94273Y6020D01*
X94133Y6077D01*
X91276Y5841D02*
X94314Y5841D01*
X91308Y5999D02*
X94281Y5999D01*
X94525Y6170D02*
X94082Y6051D01*
X93963Y5959D01*
X93943Y5810D01*
X94035Y5690D01*
X94184Y5671D01*
X94627Y5789D01*
X94747Y5881D01*
X94766Y6030D01*
X94675Y6150D01*
X94525Y6170D01*
X93946Y5828D02*
X94678Y5828D01*
X93997Y5986D02*
X94761Y5986D01*
X94426Y6143D02*
X94680Y6143D01*
X94761Y6443D02*
X94437Y6119D01*
X94379Y5979D01*
X94437Y5840D01*
X94576Y5783D01*
X94715Y5840D01*
X95040Y6164D01*
X95097Y6304D01*
X95040Y6443D01*
X94901Y6500D01*
X94761Y6443D01*
X94396Y5940D02*
X94815Y5940D01*
X94428Y6098D02*
X94973Y6098D01*
X94573Y6255D02*
X95077Y6255D01*
X94731Y6412D02*
X95052Y6412D01*
X94829Y6797D02*
X94710Y6355D01*
X94730Y6205D01*
X94850Y6113D01*
X94999Y6133D01*
X95091Y6253D01*
X95209Y6696D01*
X95190Y6845D01*
X95070Y6937D01*
X94921Y6917D01*
X94829Y6797D01*
X94721Y6271D02*
X95096Y6271D01*
X94730Y6428D02*
X95138Y6428D01*
X94772Y6586D02*
X95180Y6586D01*
X94815Y6743D02*
X95203Y6743D01*
X94908Y6901D02*
X95117Y6901D01*
X94710Y7139D02*
X94829Y6696D01*
X94921Y6576D01*
X95070Y6556D01*
X95190Y6648D01*
X95209Y6797D01*
X95091Y7240D01*
X94999Y7360D01*
X94850Y7380D01*
X94730Y7288D01*
X94710Y7139D01*
X94824Y6714D02*
X95198Y6714D01*
X94782Y6871D02*
X95190Y6871D01*
X94740Y7029D02*
X95147Y7029D01*
X94717Y7186D02*
X95105Y7186D01*
X94803Y7344D02*
X95011Y7344D01*
X94437Y7375D02*
X94761Y7050D01*
X94901Y6993D01*
X95040Y7050D01*
X95097Y7189D01*
X95040Y7329D01*
X94715Y7653D01*
X94576Y7711D01*
X94437Y7653D01*
X94379Y7514D01*
X94437Y7375D01*
X94661Y7150D02*
X95081Y7150D01*
X94504Y7308D02*
X95048Y7308D01*
X94400Y7465D02*
X94903Y7465D01*
X94425Y7623D02*
X94746Y7623D01*
X94082Y7442D02*
X94525Y7324D01*
X94675Y7343D01*
X94766Y7463D01*
X94747Y7612D01*
X94627Y7704D01*
X94184Y7823D01*
X94035Y7803D01*
X93943Y7683D01*
X93963Y7534D01*
X94082Y7442D01*
X94032Y7481D02*
X94764Y7481D01*
X93949Y7639D02*
X94712Y7639D01*
X94030Y7796D02*
X94283Y7796D01*
X91456Y7455D02*
X94133Y7455D01*
X94273Y7513D01*
X94330Y7652D01*
X94273Y7791D01*
X94133Y7849D01*
X91456Y7849D01*
X91317Y7791D01*
X91259Y7652D01*
X91317Y7513D01*
X91456Y7455D01*
X91276Y7613D02*
X94314Y7613D01*
X91308Y7770D02*
X94281Y7770D01*
X91259Y10408D02*
X91259Y8636D01*
X91317Y8497D01*
X91456Y8439D01*
X91595Y8497D01*
X91653Y8636D01*
X91653Y10408D01*
X91595Y10547D01*
X91456Y10605D01*
X91317Y10547D01*
X91259Y10408D01*
X91276Y8597D02*
X91637Y8597D01*
X91259Y8754D02*
X91653Y8754D01*
X91259Y8912D02*
X91653Y8912D01*
X91259Y9069D02*
X91653Y9069D01*
X91259Y9227D02*
X91653Y9227D01*
X91259Y9384D02*
X91653Y9384D01*
X91259Y9542D02*
X91653Y9542D01*
X91259Y9699D02*
X91653Y9699D01*
X91259Y9857D02*
X91653Y9857D01*
X91259Y10014D02*
X91653Y10014D01*
X91259Y10172D02*
X91653Y10172D01*
X91259Y10329D02*
X91653Y10329D01*
X91292Y10487D02*
X91620Y10487D01*
X95000Y9699D02*
X91456Y9699D01*
X91317Y9642D01*
X91259Y9502D01*
X91317Y9363D01*
X91456Y9306D01*
X95000Y9306D01*
X95139Y9363D01*
X95196Y9502D01*
X95139Y9642D01*
X95000Y9699D01*
X91276Y9463D02*
X95180Y9463D01*
X91308Y9621D02*
X95147Y9621D01*
X6456Y7303D02*
X10000Y7303D01*
X10139Y7360D01*
X10196Y7500D01*
X10139Y7639D01*
X10000Y7696D01*
X6456Y7696D01*
X6317Y7639D01*
X6259Y7500D01*
X6317Y7360D01*
X6456Y7303D01*
X6276Y7460D02*
X10180Y7460D01*
X6308Y7618D02*
X10147Y7618D01*
X6456Y8287D02*
X10000Y8287D01*
X10139Y8345D01*
X10196Y8484D01*
X10139Y8623D01*
X10000Y8681D01*
X6456Y8681D01*
X6317Y8623D01*
X6259Y8484D01*
X6317Y8345D01*
X6456Y8287D01*
X6276Y8444D02*
X10180Y8444D01*
X6308Y8602D02*
X10147Y8602D01*
X9911Y10431D02*
X6368Y8660D01*
X6269Y8546D01*
X6280Y8396D01*
X6394Y8297D01*
X6544Y8308D01*
X10088Y10079D01*
X10186Y10193D01*
X10176Y10343D01*
X10062Y10442D01*
X9911Y10431D01*
X6276Y8454D02*
X6838Y8454D01*
X6327Y8612D02*
X7153Y8612D01*
X6587Y8769D02*
X7468Y8769D01*
X6902Y8927D02*
X7783Y8927D01*
X7217Y9084D02*
X8098Y9084D01*
X7532Y9242D02*
X8413Y9242D01*
X7847Y9399D02*
X8728Y9399D01*
X8162Y9557D02*
X9043Y9557D01*
X8477Y9714D02*
X9358Y9714D01*
X8792Y9872D02*
X9672Y9872D01*
X9107Y10029D02*
X9987Y10029D01*
X9422Y10187D02*
X10181Y10187D01*
X9737Y10344D02*
X10175Y10344D01*
X6456Y10059D02*
X10000Y10059D01*
X10139Y10116D01*
X10196Y10255D01*
X10139Y10395D01*
X10000Y10452D01*
X6456Y10452D01*
X6317Y10395D01*
X6259Y10255D01*
X6317Y10116D01*
X6456Y10059D01*
X6276Y10216D02*
X10180Y10216D01*
X6308Y10374D02*
X10147Y10374D01*
X13375Y35569D02*
X13493Y35126D01*
X13585Y35006D01*
X13735Y34987D01*
X13854Y35078D01*
X13874Y35228D01*
X13755Y35671D01*
X13663Y35790D01*
X13514Y35810D01*
X13394Y35718D01*
X13375Y35569D01*
X13489Y35144D02*
X13863Y35144D01*
X13446Y35301D02*
X13854Y35301D01*
X13404Y35459D02*
X13812Y35459D01*
X13381Y35616D02*
X13770Y35616D01*
X13467Y35774D02*
X13676Y35774D01*
X13101Y35805D02*
X13426Y35480D01*
X13565Y35423D01*
X13704Y35480D01*
X13762Y35620D01*
X13704Y35759D01*
X13380Y36083D01*
X13241Y36141D01*
X13101Y36083D01*
X13044Y35944D01*
X13101Y35805D01*
X13326Y35580D02*
X13745Y35580D01*
X13168Y35738D02*
X13713Y35738D01*
X13064Y35895D02*
X13568Y35895D01*
X13089Y36053D02*
X13410Y36053D01*
X12747Y35872D02*
X13190Y35754D01*
X13339Y35773D01*
X13431Y35893D01*
X13411Y36042D01*
X13292Y36134D01*
X12849Y36253D01*
X12699Y36233D01*
X12608Y36113D01*
X12627Y35964D01*
X12747Y35872D01*
X12696Y35911D02*
X13428Y35911D01*
X12613Y36069D02*
X13377Y36069D01*
X12694Y36226D02*
X12948Y36226D01*
X12406Y35754D02*
X12849Y35872D01*
X12968Y35964D01*
X12988Y36113D01*
X12896Y36233D01*
X12747Y36253D01*
X12304Y36134D01*
X12184Y36042D01*
X12165Y35893D01*
X12256Y35773D01*
X12406Y35754D01*
X12167Y35911D02*
X12899Y35911D01*
X12219Y36069D02*
X12982Y36069D01*
X12648Y36226D02*
X12901Y36226D01*
X12170Y35480D02*
X12494Y35805D01*
X12552Y35944D01*
X12494Y36083D01*
X12355Y36141D01*
X12216Y36083D01*
X11891Y35759D01*
X11834Y35620D01*
X11891Y35480D01*
X12031Y35423D01*
X12170Y35480D01*
X11850Y35580D02*
X12270Y35580D01*
X11883Y35738D02*
X12427Y35738D01*
X12028Y35895D02*
X12532Y35895D01*
X12185Y36053D02*
X12507Y36053D01*
X12102Y35126D02*
X12221Y35569D01*
X12201Y35718D01*
X12082Y35810D01*
X11932Y35790D01*
X11840Y35671D01*
X11722Y35228D01*
X11741Y35078D01*
X11861Y34987D01*
X12010Y35006D01*
X12102Y35126D01*
X11733Y35144D02*
X12107Y35144D01*
X11742Y35301D02*
X12149Y35301D01*
X11784Y35459D02*
X12191Y35459D01*
X11826Y35616D02*
X12214Y35616D01*
X11920Y35774D02*
X12128Y35774D01*
X12128Y33366D02*
X12128Y35177D01*
X12071Y35316D01*
X11932Y35374D01*
X11792Y35316D01*
X11735Y35177D01*
X11735Y33366D01*
X11792Y33226D01*
X11932Y33169D01*
X12071Y33226D01*
X12128Y33366D01*
X11751Y33326D02*
X12112Y33326D01*
X11735Y33484D02*
X12128Y33484D01*
X11735Y33641D02*
X12128Y33641D01*
X11735Y33799D02*
X12128Y33799D01*
X11735Y33956D02*
X12128Y33956D01*
X11735Y34114D02*
X12128Y34114D01*
X11735Y34271D02*
X12128Y34271D01*
X11735Y34429D02*
X12128Y34429D01*
X11735Y34586D02*
X12128Y34586D01*
X11735Y34744D02*
X12128Y34744D01*
X11735Y34901D02*
X12128Y34901D01*
X11735Y35059D02*
X12128Y35059D01*
X11751Y35216D02*
X12112Y35216D01*
X11932Y35374D02*
X11932Y35374D01*
X12221Y32974D02*
X12102Y33417D01*
X12010Y33536D01*
X11861Y33556D01*
X11741Y33464D01*
X11722Y33315D01*
X11840Y32872D01*
X11932Y32752D01*
X12082Y32733D01*
X12201Y32824D01*
X12221Y32974D01*
X11836Y32890D02*
X12210Y32890D01*
X11793Y33048D02*
X12201Y33048D01*
X11751Y33205D02*
X12159Y33205D01*
X11728Y33363D02*
X12117Y33363D01*
X11814Y33520D02*
X12023Y33520D01*
X12494Y32738D02*
X12170Y33062D01*
X12031Y33120D01*
X11891Y33062D01*
X11834Y32923D01*
X11891Y32784D01*
X12216Y32459D01*
X12355Y32402D01*
X12494Y32459D01*
X12552Y32598D01*
X12494Y32738D01*
X12116Y32559D02*
X12535Y32559D01*
X11958Y32717D02*
X12503Y32717D01*
X11854Y32874D02*
X12358Y32874D01*
X11879Y33032D02*
X12200Y33032D01*
X12849Y32670D02*
X12406Y32789D01*
X12256Y32769D01*
X12165Y32649D01*
X12184Y32500D01*
X12304Y32408D01*
X12747Y32290D01*
X12896Y32309D01*
X12988Y32429D01*
X12968Y32578D01*
X12849Y32670D01*
X12253Y32447D02*
X12985Y32447D01*
X12171Y32605D02*
X12934Y32605D01*
X12251Y32762D02*
X12505Y32762D01*
X13190Y32789D02*
X12747Y32670D01*
X12627Y32578D01*
X12608Y32429D01*
X12699Y32309D01*
X12849Y32290D01*
X13292Y32408D01*
X13411Y32500D01*
X13431Y32649D01*
X13339Y32769D01*
X13190Y32789D01*
X12610Y32447D02*
X13342Y32447D01*
X12662Y32605D02*
X13425Y32605D01*
X13091Y32762D02*
X13344Y32762D01*
X13426Y33062D02*
X13101Y32738D01*
X13044Y32598D01*
X13101Y32459D01*
X13241Y32402D01*
X13380Y32459D01*
X13704Y32784D01*
X13762Y32923D01*
X13704Y33062D01*
X13565Y33120D01*
X13426Y33062D01*
X13060Y32559D02*
X13480Y32559D01*
X13093Y32717D02*
X13637Y32717D01*
X13238Y32874D02*
X13742Y32874D01*
X13395Y33032D02*
X13717Y33032D01*
X13493Y33417D02*
X13375Y32974D01*
X13394Y32824D01*
X13514Y32733D01*
X13663Y32752D01*
X13755Y32872D01*
X13874Y33315D01*
X13854Y33464D01*
X13735Y33556D01*
X13585Y33536D01*
X13493Y33417D01*
X13386Y32890D02*
X13760Y32890D01*
X13395Y33048D02*
X13802Y33048D01*
X13437Y33205D02*
X13844Y33205D01*
X13479Y33363D02*
X13867Y33363D01*
X13573Y33520D02*
X13781Y33520D01*
X15820Y35638D02*
X15915Y35283D01*
X16006Y35164D01*
X16156Y35144D01*
X16275Y35236D01*
X16295Y35385D01*
X16200Y35739D01*
X16108Y35859D01*
X15959Y35879D01*
X15839Y35787D01*
X15820Y35638D01*
X15910Y35301D02*
X16284Y35301D01*
X15868Y35459D02*
X16275Y35459D01*
X15825Y35616D02*
X16233Y35616D01*
X15838Y35774D02*
X16174Y35774D01*
X15611Y35809D02*
X15871Y35549D01*
X16010Y35492D01*
X16149Y35549D01*
X16207Y35688D01*
X16149Y35828D01*
X15890Y36087D01*
X15750Y36145D01*
X15611Y36087D01*
X15554Y35948D01*
X15611Y35809D01*
X15771Y35649D02*
X16190Y35649D01*
X15613Y35807D02*
X16158Y35807D01*
X15560Y35964D02*
X16013Y35964D01*
X15695Y36122D02*
X15806Y36122D01*
X15345Y35853D02*
X15700Y35758D01*
X15849Y35777D01*
X15941Y35897D01*
X15921Y36046D01*
X15801Y36138D01*
X15447Y36233D01*
X15298Y36213D01*
X15206Y36094D01*
X15226Y35944D01*
X15345Y35853D01*
X15264Y35915D02*
X15938Y35915D01*
X15209Y36073D02*
X15887Y36073D01*
X15426Y36230D02*
X15457Y36230D01*
X15093Y35758D02*
X15447Y35853D01*
X15567Y35944D01*
X15586Y36094D01*
X15495Y36213D01*
X15345Y36233D01*
X14991Y36138D01*
X14871Y36046D01*
X14852Y35897D01*
X14943Y35777D01*
X15093Y35758D01*
X14854Y35915D02*
X15529Y35915D01*
X14906Y36073D02*
X15584Y36073D01*
X15335Y36230D02*
X15366Y36230D01*
X14922Y35549D02*
X15181Y35809D01*
X15239Y35948D01*
X15181Y36087D01*
X15042Y36145D01*
X14903Y36087D01*
X14643Y35828D01*
X14586Y35688D01*
X14643Y35549D01*
X14782Y35492D01*
X14922Y35549D01*
X14602Y35649D02*
X15021Y35649D01*
X14635Y35807D02*
X15179Y35807D01*
X14780Y35964D02*
X15232Y35964D01*
X14986Y36122D02*
X15098Y36122D01*
X14878Y35283D02*
X14973Y35638D01*
X14953Y35787D01*
X14833Y35879D01*
X14684Y35859D01*
X14592Y35739D01*
X14497Y35385D01*
X14517Y35236D01*
X14637Y35144D01*
X14786Y35164D01*
X14878Y35283D01*
X14508Y35301D02*
X14883Y35301D01*
X14517Y35459D02*
X14925Y35459D01*
X14559Y35616D02*
X14967Y35616D01*
X14619Y35774D02*
X14955Y35774D01*
X14864Y32411D02*
X16281Y35246D01*
X16292Y35396D01*
X16193Y35510D01*
X16043Y35521D01*
X15929Y35422D01*
X14511Y32588D01*
X14501Y32437D01*
X14599Y32323D01*
X14750Y32313D01*
X14864Y32411D01*
X14503Y32470D02*
X14893Y32470D01*
X14532Y32628D02*
X14972Y32628D01*
X14610Y32785D02*
X15050Y32785D01*
X14689Y32943D02*
X15129Y32943D01*
X14768Y33100D02*
X15208Y33100D01*
X14846Y33258D02*
X15287Y33258D01*
X14925Y33415D02*
X15365Y33415D01*
X15004Y33573D02*
X15444Y33573D01*
X15083Y33730D02*
X15523Y33730D01*
X15161Y33888D02*
X15602Y33888D01*
X15240Y34045D02*
X15680Y34045D01*
X15319Y34203D02*
X15759Y34203D01*
X15398Y34360D02*
X15838Y34360D01*
X15476Y34517D02*
X15917Y34517D01*
X15555Y34675D02*
X15995Y34675D01*
X15634Y34832D02*
X16074Y34832D01*
X15713Y34990D02*
X16153Y34990D01*
X15791Y35147D02*
X16232Y35147D01*
X15870Y35305D02*
X16285Y35305D01*
X15975Y35462D02*
X16234Y35462D01*
X16105Y32696D02*
X14687Y32696D01*
X14548Y32639D01*
X14491Y32500D01*
X14548Y32360D01*
X14687Y32303D01*
X16105Y32303D01*
X16244Y32360D01*
X16302Y32500D01*
X16244Y32639D01*
X16105Y32696D01*
X14507Y32460D02*
X16285Y32460D01*
X14540Y32618D02*
X16253Y32618D01*
X18694Y36182D02*
X17985Y35473D01*
X17928Y35334D01*
X17985Y35195D01*
X18125Y35137D01*
X18264Y35195D01*
X18972Y35904D01*
X19030Y36043D01*
X18972Y36182D01*
X18833Y36240D01*
X18694Y36182D01*
X17944Y35295D02*
X18364Y35295D01*
X17977Y35452D02*
X18521Y35452D01*
X18122Y35610D02*
X18678Y35610D01*
X18279Y35767D02*
X18836Y35767D01*
X18437Y35925D02*
X18981Y35925D01*
X18594Y36082D02*
X19014Y36082D01*
X18833Y36240D02*
X18833Y36240D01*
X19030Y32500D02*
X19030Y36043D01*
X18972Y36182D01*
X18833Y36240D01*
X18694Y36182D01*
X18636Y36043D01*
X18636Y32500D01*
X18694Y32360D01*
X18833Y32303D01*
X18972Y32360D01*
X19030Y32500D01*
X18653Y32460D02*
X19014Y32460D01*
X18636Y32618D02*
X19030Y32618D01*
X18636Y32775D02*
X19030Y32775D01*
X18636Y32933D02*
X19030Y32933D01*
X18636Y33090D02*
X19030Y33090D01*
X18636Y33248D02*
X19030Y33248D01*
X18636Y33405D02*
X19030Y33405D01*
X18636Y33562D02*
X19030Y33562D01*
X18636Y33720D02*
X19030Y33720D01*
X18636Y33877D02*
X19030Y33877D01*
X18636Y34035D02*
X19030Y34035D01*
X18636Y34192D02*
X19030Y34192D01*
X18636Y34350D02*
X19030Y34350D01*
X18636Y34507D02*
X19030Y34507D01*
X18636Y34665D02*
X19030Y34665D01*
X18636Y34822D02*
X19030Y34822D01*
X18636Y34980D02*
X19030Y34980D01*
X18636Y35137D02*
X19030Y35137D01*
X18636Y35295D02*
X19030Y35295D01*
X18636Y35452D02*
X19030Y35452D01*
X18636Y35610D02*
X19030Y35610D01*
X18636Y35767D02*
X19030Y35767D01*
X18636Y35925D02*
X19030Y35925D01*
X18653Y36082D02*
X19014Y36082D01*
X18833Y36240D02*
X18833Y36240D01*
X21432Y33208D02*
X21432Y35334D01*
X21374Y35473D01*
X21235Y35531D01*
X21096Y35473D01*
X21038Y35334D01*
X21038Y33208D01*
X21096Y33069D01*
X21235Y33011D01*
X21374Y33069D01*
X21432Y33208D01*
X21054Y33169D02*
X21415Y33169D01*
X21038Y33326D02*
X21432Y33326D01*
X21038Y33484D02*
X21432Y33484D01*
X21038Y33641D02*
X21432Y33641D01*
X21038Y33799D02*
X21432Y33799D01*
X21038Y33956D02*
X21432Y33956D01*
X21038Y34114D02*
X21432Y34114D01*
X21038Y34271D02*
X21432Y34271D01*
X21038Y34429D02*
X21432Y34429D01*
X21038Y34586D02*
X21432Y34586D01*
X21038Y34744D02*
X21432Y34744D01*
X21038Y34901D02*
X21432Y34901D01*
X21038Y35059D02*
X21432Y35059D01*
X21038Y35216D02*
X21432Y35216D01*
X21054Y35374D02*
X21415Y35374D01*
X21235Y35531D02*
X21235Y35531D01*
X20950Y35638D02*
X21045Y35283D01*
X21136Y35164D01*
X21286Y35144D01*
X21405Y35236D01*
X21425Y35385D01*
X21330Y35739D01*
X21238Y35859D01*
X21089Y35879D01*
X20969Y35787D01*
X20950Y35638D01*
X21040Y35301D02*
X21414Y35301D01*
X20998Y35459D02*
X21405Y35459D01*
X20955Y35616D02*
X21363Y35616D01*
X20968Y35774D02*
X21303Y35774D01*
X20741Y35809D02*
X21001Y35549D01*
X21140Y35492D01*
X21279Y35549D01*
X21337Y35688D01*
X21279Y35828D01*
X21020Y36087D01*
X20880Y36145D01*
X20741Y36087D01*
X20684Y35948D01*
X20741Y35809D01*
X20901Y35649D02*
X21320Y35649D01*
X20743Y35807D02*
X21288Y35807D01*
X20690Y35964D02*
X21143Y35964D01*
X20824Y36122D02*
X20936Y36122D01*
X20475Y35853D02*
X20829Y35758D01*
X20979Y35777D01*
X21071Y35897D01*
X21051Y36046D01*
X20931Y36138D01*
X20577Y36233D01*
X20428Y36213D01*
X20336Y36094D01*
X20356Y35944D01*
X20475Y35853D01*
X20394Y35915D02*
X21068Y35915D01*
X20339Y36073D02*
X21016Y36073D01*
X20556Y36230D02*
X20587Y36230D01*
X20223Y35758D02*
X20577Y35853D01*
X20697Y35944D01*
X20716Y36094D01*
X20625Y36213D01*
X20475Y36233D01*
X20121Y36138D01*
X20001Y36046D01*
X19982Y35897D01*
X20073Y35777D01*
X20223Y35758D01*
X19984Y35915D02*
X20659Y35915D01*
X20036Y36073D02*
X20713Y36073D01*
X20465Y36230D02*
X20496Y36230D01*
X20052Y35549D02*
X20311Y35809D01*
X20369Y35948D01*
X20311Y36087D01*
X20172Y36145D01*
X20033Y36087D01*
X19773Y35828D01*
X19716Y35688D01*
X19773Y35549D01*
X19912Y35492D01*
X20052Y35549D01*
X19732Y35649D02*
X20151Y35649D01*
X19764Y35807D02*
X20309Y35807D01*
X19910Y35964D02*
X20362Y35964D01*
X20116Y36122D02*
X20228Y36122D01*
X20008Y35283D02*
X20102Y35638D01*
X20083Y35787D01*
X19963Y35879D01*
X19814Y35859D01*
X19722Y35739D01*
X19627Y35385D01*
X19647Y35236D01*
X19766Y35144D01*
X19916Y35164D01*
X20008Y35283D01*
X19638Y35301D02*
X20012Y35301D01*
X19647Y35459D02*
X20055Y35459D01*
X19689Y35616D02*
X20097Y35616D01*
X19749Y35774D02*
X20085Y35774D01*
X19621Y35334D02*
X19621Y33208D01*
X19678Y33069D01*
X19817Y33011D01*
X19957Y33069D01*
X20014Y33208D01*
X20014Y35334D01*
X19957Y35473D01*
X19817Y35531D01*
X19678Y35473D01*
X19621Y35334D01*
X19637Y33169D02*
X19998Y33169D01*
X19621Y33326D02*
X20014Y33326D01*
X19621Y33484D02*
X20014Y33484D01*
X19621Y33641D02*
X20014Y33641D01*
X19621Y33799D02*
X20014Y33799D01*
X19621Y33956D02*
X20014Y33956D01*
X19621Y34114D02*
X20014Y34114D01*
X19621Y34271D02*
X20014Y34271D01*
X19621Y34429D02*
X20014Y34429D01*
X19621Y34586D02*
X20014Y34586D01*
X19621Y34744D02*
X20014Y34744D01*
X19621Y34901D02*
X20014Y34901D01*
X19621Y35059D02*
X20014Y35059D01*
X19621Y35216D02*
X20014Y35216D01*
X19637Y35374D02*
X19998Y35374D01*
X19817Y35531D02*
X19817Y35531D01*
X20102Y32905D02*
X20008Y33259D01*
X19916Y33379D01*
X19766Y33398D01*
X19647Y33307D01*
X19627Y33157D01*
X19722Y32803D01*
X19814Y32683D01*
X19963Y32664D01*
X20083Y32755D01*
X20102Y32905D01*
X19717Y32821D02*
X20091Y32821D01*
X19675Y32979D02*
X20083Y32979D01*
X19633Y33136D02*
X20041Y33136D01*
X19645Y33294D02*
X19981Y33294D01*
X20311Y32734D02*
X20052Y32993D01*
X19912Y33051D01*
X19773Y32993D01*
X19716Y32854D01*
X19773Y32715D01*
X20033Y32455D01*
X20172Y32398D01*
X20311Y32455D01*
X20369Y32594D01*
X20311Y32734D01*
X19933Y32555D02*
X20352Y32555D01*
X19775Y32713D02*
X20320Y32713D01*
X19722Y32870D02*
X20175Y32870D01*
X19856Y33028D02*
X19968Y33028D01*
X20577Y32690D02*
X20223Y32785D01*
X20073Y32765D01*
X19982Y32645D01*
X20001Y32496D01*
X20121Y32404D01*
X20475Y32309D01*
X20625Y32329D01*
X20716Y32449D01*
X20697Y32598D01*
X20577Y32690D01*
X20039Y32467D02*
X20714Y32467D01*
X19984Y32624D02*
X20662Y32624D01*
X20202Y32782D02*
X20233Y32782D01*
X20829Y32785D02*
X20475Y32690D01*
X20356Y32598D01*
X20336Y32449D01*
X20428Y32329D01*
X20577Y32309D01*
X20931Y32404D01*
X21051Y32496D01*
X21071Y32645D01*
X20979Y32765D01*
X20829Y32785D01*
X20338Y32467D02*
X21013Y32467D01*
X20390Y32624D02*
X21068Y32624D01*
X20819Y32782D02*
X20851Y32782D01*
X21001Y32993D02*
X20741Y32734D01*
X20684Y32594D01*
X20741Y32455D01*
X20880Y32398D01*
X21020Y32455D01*
X21279Y32715D01*
X21337Y32854D01*
X21279Y32993D01*
X21140Y33051D01*
X21001Y32993D01*
X20700Y32555D02*
X21119Y32555D01*
X20732Y32713D02*
X21277Y32713D01*
X20878Y32870D02*
X21330Y32870D01*
X21084Y33028D02*
X21196Y33028D01*
X21045Y33259D02*
X20950Y32905D01*
X20969Y32755D01*
X21089Y32664D01*
X21238Y32683D01*
X21330Y32803D01*
X21425Y33157D01*
X21405Y33307D01*
X21286Y33398D01*
X21136Y33379D01*
X21045Y33259D01*
X20961Y32821D02*
X21335Y32821D01*
X20969Y32979D02*
X21377Y32979D01*
X21012Y33136D02*
X21419Y33136D01*
X21071Y33294D02*
X21407Y33294D01*
X22770Y33208D02*
X22770Y34822D01*
X22713Y34962D01*
X22573Y35019D01*
X22434Y34962D01*
X22376Y34822D01*
X22376Y33208D01*
X22434Y33069D01*
X22573Y33011D01*
X22713Y33069D01*
X22770Y33208D01*
X22393Y33169D02*
X22754Y33169D01*
X22376Y33326D02*
X22770Y33326D01*
X22376Y33484D02*
X22770Y33484D01*
X22376Y33641D02*
X22770Y33641D01*
X22376Y33799D02*
X22770Y33799D01*
X22376Y33956D02*
X22770Y33956D01*
X22376Y34114D02*
X22770Y34114D01*
X22376Y34271D02*
X22770Y34271D01*
X22376Y34429D02*
X22770Y34429D01*
X22376Y34586D02*
X22770Y34586D01*
X22376Y34744D02*
X22770Y34744D01*
X22409Y34901D02*
X22738Y34901D01*
X22841Y32895D02*
X22744Y33259D01*
X22652Y33379D01*
X22503Y33398D01*
X22383Y33307D01*
X22363Y33157D01*
X22461Y32793D01*
X22553Y32674D01*
X22702Y32654D01*
X22822Y32746D01*
X22841Y32895D01*
X22456Y32811D02*
X22830Y32811D01*
X22414Y32969D02*
X22822Y32969D01*
X22372Y33126D02*
X22779Y33126D01*
X22380Y33284D02*
X22725Y33284D01*
X23057Y32717D02*
X22790Y32983D01*
X22651Y33041D01*
X22512Y32983D01*
X22454Y32844D01*
X22512Y32705D01*
X22779Y32438D01*
X22918Y32381D01*
X23057Y32438D01*
X23115Y32577D01*
X23057Y32717D01*
X22679Y32538D02*
X23098Y32538D01*
X22521Y32696D02*
X23066Y32696D01*
X22458Y32853D02*
X22921Y32853D01*
X22578Y33010D02*
X22725Y33010D01*
X23333Y32670D02*
X22969Y32768D01*
X22819Y32748D01*
X22728Y32628D01*
X22747Y32479D01*
X22867Y32387D01*
X23231Y32290D01*
X23380Y32309D01*
X23472Y32429D01*
X23452Y32578D01*
X23333Y32670D01*
X22789Y32447D02*
X23470Y32447D01*
X22731Y32605D02*
X23418Y32605D01*
X22928Y32762D02*
X22989Y32762D01*
X23595Y32768D02*
X23231Y32670D01*
X23112Y32578D01*
X23092Y32429D01*
X23184Y32309D01*
X23333Y32290D01*
X23697Y32387D01*
X23817Y32479D01*
X23836Y32628D01*
X23745Y32748D01*
X23595Y32768D01*
X23094Y32447D02*
X23775Y32447D01*
X23146Y32605D02*
X23833Y32605D01*
X23575Y32762D02*
X23636Y32762D01*
X23774Y32983D02*
X23507Y32717D01*
X23449Y32577D01*
X23507Y32438D01*
X23646Y32381D01*
X23785Y32438D01*
X24052Y32705D01*
X24110Y32844D01*
X24052Y32983D01*
X23913Y33041D01*
X23774Y32983D01*
X23466Y32538D02*
X23885Y32538D01*
X23498Y32696D02*
X24043Y32696D01*
X23643Y32853D02*
X24106Y32853D01*
X23839Y33010D02*
X23986Y33010D01*
X23820Y33259D02*
X23723Y32895D01*
X23742Y32746D01*
X23862Y32654D01*
X24011Y32674D01*
X24103Y32793D01*
X24200Y33157D01*
X24181Y33307D01*
X24061Y33398D01*
X23912Y33379D01*
X23820Y33259D01*
X23734Y32811D02*
X24108Y32811D01*
X23742Y32969D02*
X24150Y32969D01*
X23785Y33126D02*
X24192Y33126D01*
X23839Y33284D02*
X24184Y33284D01*
X24227Y32500D02*
X24227Y34822D01*
X24169Y34962D01*
X24030Y35019D01*
X23891Y34962D01*
X23833Y34822D01*
X23833Y32500D01*
X23891Y32360D01*
X24030Y32303D01*
X24169Y32360D01*
X24227Y32500D01*
X23849Y32460D02*
X24211Y32460D01*
X23833Y32618D02*
X24227Y32618D01*
X23833Y32775D02*
X24227Y32775D01*
X23833Y32933D02*
X24227Y32933D01*
X23833Y33090D02*
X24227Y33090D01*
X23833Y33248D02*
X24227Y33248D01*
X23833Y33405D02*
X24227Y33405D01*
X23833Y33562D02*
X24227Y33562D01*
X23833Y33720D02*
X24227Y33720D01*
X23833Y33877D02*
X24227Y33877D01*
X23833Y34035D02*
X24227Y34035D01*
X23833Y34192D02*
X24227Y34192D01*
X23833Y34350D02*
X24227Y34350D01*
X23833Y34507D02*
X24227Y34507D01*
X23833Y34665D02*
X24227Y34665D01*
X23833Y34822D02*
X24227Y34822D01*
X23935Y34980D02*
X24125Y34980D01*
X22306Y32301D02*
X22030Y31375D01*
X22046Y31225D01*
X22163Y31130D01*
X22313Y31145D01*
X22408Y31262D01*
X22684Y32189D01*
X22668Y32338D01*
X22551Y32433D01*
X22401Y32418D01*
X22306Y32301D01*
X22039Y31287D02*
X22415Y31287D01*
X22051Y31445D02*
X22462Y31445D01*
X22098Y31602D02*
X22509Y31602D01*
X22145Y31760D02*
X22556Y31760D01*
X22192Y31917D02*
X22603Y31917D01*
X22239Y32075D02*
X22650Y32075D01*
X22286Y32232D02*
X22679Y32232D01*
X22378Y32390D02*
X22605Y32390D01*
X22377Y33224D02*
X22299Y32261D01*
X22345Y32117D01*
X22479Y32049D01*
X22622Y32095D01*
X22691Y32229D01*
X22770Y33192D01*
X22723Y33336D01*
X22589Y33404D01*
X22446Y33358D01*
X22377Y33224D01*
X22316Y32206D02*
X22679Y32206D01*
X22307Y32364D02*
X22702Y32364D01*
X22320Y32521D02*
X22715Y32521D01*
X22333Y32678D02*
X22728Y32678D01*
X22345Y32836D02*
X22740Y32836D01*
X22358Y32993D02*
X22753Y32993D01*
X22371Y33151D02*
X22766Y33151D01*
X22420Y33308D02*
X22732Y33308D01*
X25014Y35846D02*
X26786Y35846D01*
X26925Y35904D01*
X26983Y36043D01*
X26925Y36182D01*
X26786Y36240D01*
X25014Y36240D01*
X24875Y36182D01*
X24817Y36043D01*
X24875Y35904D01*
X25014Y35846D01*
X24834Y36003D02*
X26966Y36003D01*
X24866Y36161D02*
X26934Y36161D01*
X25211Y34271D02*
X25211Y36043D01*
X25153Y36182D01*
X25014Y36240D01*
X24875Y36182D01*
X24817Y36043D01*
X24817Y34271D01*
X24875Y34132D01*
X25014Y34074D01*
X25153Y34132D01*
X25211Y34271D01*
X24834Y34232D02*
X25195Y34232D01*
X24817Y34389D02*
X25211Y34389D01*
X24817Y34547D02*
X25211Y34547D01*
X24817Y34704D02*
X25211Y34704D01*
X24817Y34862D02*
X25211Y34862D01*
X24817Y35019D02*
X25211Y35019D01*
X24817Y35177D02*
X25211Y35177D01*
X24817Y35334D02*
X25211Y35334D01*
X24817Y35492D02*
X25211Y35492D01*
X24817Y35649D02*
X25211Y35649D01*
X24817Y35807D02*
X25211Y35807D01*
X24817Y35964D02*
X25211Y35964D01*
X24850Y36122D02*
X25178Y36122D01*
X26235Y34468D02*
X25014Y34468D01*
X24875Y34410D01*
X24817Y34271D01*
X24875Y34132D01*
X25014Y34074D01*
X26235Y34074D01*
X26374Y34132D01*
X26432Y34271D01*
X26374Y34410D01*
X26235Y34468D01*
X24834Y34232D02*
X26415Y34232D01*
X24866Y34389D02*
X26383Y34389D01*
X25211Y32500D02*
X25211Y34271D01*
X25153Y34410D01*
X25014Y34468D01*
X24875Y34410D01*
X24817Y34271D01*
X24817Y32500D01*
X24875Y32360D01*
X25014Y32303D01*
X25153Y32360D01*
X25211Y32500D01*
X24834Y32460D02*
X25195Y32460D01*
X24817Y32618D02*
X25211Y32618D01*
X24817Y32775D02*
X25211Y32775D01*
X24817Y32933D02*
X25211Y32933D01*
X24817Y33090D02*
X25211Y33090D01*
X24817Y33248D02*
X25211Y33248D01*
X24817Y33405D02*
X25211Y33405D01*
X24817Y33562D02*
X25211Y33562D01*
X24817Y33720D02*
X25211Y33720D01*
X24817Y33877D02*
X25211Y33877D01*
X24817Y34035D02*
X25211Y34035D01*
X24817Y34192D02*
X25211Y34192D01*
X24850Y34350D02*
X25178Y34350D01*
X71788Y47130D02*
X71910Y46727D01*
X71977Y46646D01*
X72082Y46635D01*
X72163Y46702D01*
X72174Y46807D01*
X72052Y47210D01*
X71985Y47291D01*
X71880Y47302D01*
X71798Y47235D01*
X71788Y47130D01*
X71890Y46793D02*
X72172Y46793D01*
X71842Y46950D02*
X72130Y46950D01*
X71795Y47108D02*
X72083Y47108D01*
X71836Y47265D02*
X72006Y47265D01*
X71507Y47330D02*
X71832Y47063D01*
X71933Y47033D01*
X72026Y47082D01*
X72057Y47183D01*
X72007Y47276D01*
X71682Y47543D01*
X71581Y47574D01*
X71488Y47524D01*
X71458Y47423D01*
X71507Y47330D01*
X71678Y47190D02*
X72053Y47190D01*
X71498Y47348D02*
X71920Y47348D01*
X71482Y47505D02*
X71728Y47505D01*
X71163Y47341D02*
X71581Y47299D01*
X71682Y47330D01*
X71732Y47423D01*
X71701Y47524D01*
X71608Y47574D01*
X71190Y47615D01*
X71089Y47584D01*
X71039Y47491D01*
X71070Y47390D01*
X71163Y47341D01*
X71049Y47457D02*
X71721Y47457D01*
X71188Y47614D02*
X71195Y47614D01*
X70870Y47158D02*
X71241Y47356D01*
X71308Y47438D01*
X71298Y47543D01*
X71216Y47610D01*
X71111Y47599D01*
X70740Y47401D01*
X70673Y47319D01*
X70684Y47214D01*
X70765Y47148D01*
X70870Y47158D01*
X70675Y47305D02*
X71145Y47305D01*
X70855Y47463D02*
X71306Y47463D01*
X70728Y46844D02*
X70927Y47214D01*
X70937Y47319D01*
X70870Y47401D01*
X70765Y47411D01*
X70684Y47344D01*
X70485Y46974D01*
X70475Y46869D01*
X70542Y46787D01*
X70647Y46777D01*
X70728Y46844D01*
X70482Y46934D02*
X70777Y46934D01*
X70549Y47092D02*
X70861Y47092D01*
X70633Y47249D02*
X70930Y47249D01*
X70759Y47407D02*
X70813Y47407D01*
X70785Y46504D02*
X70744Y46922D01*
X70694Y47015D01*
X70593Y47046D01*
X70500Y46996D01*
X70470Y46895D01*
X70511Y46476D01*
X70561Y46383D01*
X70662Y46353D01*
X70755Y46403D01*
X70785Y46504D01*
X70508Y46510D02*
X70785Y46510D01*
X70492Y46668D02*
X70769Y46668D01*
X70477Y46825D02*
X70754Y46825D01*
X70496Y46983D02*
X70712Y46983D01*
X71021Y46252D02*
X70755Y46577D01*
X70662Y46627D01*
X70561Y46597D01*
X70511Y46504D01*
X70542Y46403D01*
X70808Y46077D01*
X70901Y46028D01*
X71002Y46058D01*
X71052Y46151D01*
X71021Y46252D01*
X70720Y46185D02*
X71042Y46185D01*
X70591Y46343D02*
X70947Y46343D01*
X70512Y46500D02*
X70818Y46500D01*
X71357Y46175D02*
X70955Y46297D01*
X70850Y46286D01*
X70783Y46205D01*
X70793Y46100D01*
X70875Y46033D01*
X71277Y45911D01*
X71382Y45921D01*
X71449Y46003D01*
X71439Y46108D01*
X71357Y46175D01*
X70832Y46068D02*
X71443Y46068D01*
X70800Y46226D02*
X71189Y46226D01*
X70884Y44970D02*
X70755Y45361D01*
X70687Y45441D01*
X70582Y45449D01*
X70502Y45381D01*
X70494Y45275D01*
X70622Y44885D01*
X70691Y44805D01*
X70796Y44797D01*
X70876Y44865D01*
X70884Y44970D01*
X70599Y44954D02*
X70882Y44954D01*
X70547Y45112D02*
X70837Y45112D01*
X70496Y45269D02*
X70786Y45269D01*
X70555Y45426D02*
X70699Y45426D01*
X71161Y44782D02*
X70838Y45036D01*
X70736Y45064D01*
X70644Y45013D01*
X70616Y44911D01*
X70668Y44819D01*
X70991Y44565D01*
X71093Y44537D01*
X71185Y44589D01*
X71213Y44690D01*
X71161Y44782D01*
X70827Y44694D02*
X71211Y44694D01*
X70649Y44852D02*
X71073Y44852D01*
X70643Y45009D02*
X70872Y45009D01*
X71497Y44780D02*
X71087Y44811D01*
X70987Y44778D01*
X70939Y44684D01*
X70972Y44584D01*
X71066Y44536D01*
X71476Y44505D01*
X71576Y44538D01*
X71624Y44632D01*
X71591Y44732D01*
X71497Y44780D01*
X70946Y44663D02*
X71614Y44663D01*
X71777Y44965D02*
X71419Y44763D01*
X71354Y44680D01*
X71367Y44575D01*
X71450Y44510D01*
X71554Y44522D01*
X71913Y44724D01*
X71978Y44807D01*
X71965Y44912D01*
X71882Y44977D01*
X71777Y44965D01*
X71355Y44667D02*
X71811Y44667D01*
X71529Y44825D02*
X71976Y44825D01*
X71908Y45274D02*
X71722Y44907D01*
X71714Y44802D01*
X71783Y44722D01*
X71888Y44714D01*
X71968Y44782D01*
X72154Y45149D01*
X72162Y45254D01*
X72093Y45334D01*
X71988Y45342D01*
X71908Y45274D01*
X71719Y44871D02*
X72013Y44871D01*
X71784Y45028D02*
X72093Y45028D01*
X71864Y45186D02*
X72157Y45186D01*
X71845Y45603D02*
X71894Y45195D01*
X71946Y45103D01*
X72047Y45075D01*
X72139Y45126D01*
X72168Y45228D01*
X72118Y45636D01*
X72067Y45728D01*
X71965Y45757D01*
X71873Y45705D01*
X71845Y45603D01*
X71890Y45232D02*
X72167Y45232D01*
X71871Y45390D02*
X72148Y45390D01*
X71852Y45547D02*
X72129Y45547D01*
X71873Y45705D02*
X72080Y45705D01*
X71609Y45842D02*
X71877Y45530D01*
X71971Y45483D01*
X72071Y45515D01*
X72119Y45609D01*
X72086Y45710D01*
X71818Y46022D01*
X71724Y46069D01*
X71624Y46037D01*
X71576Y45943D01*
X71609Y45842D01*
X71783Y45640D02*
X72109Y45640D01*
X71648Y45797D02*
X72011Y45797D01*
X71582Y45955D02*
X71876Y45955D01*
X71280Y45910D02*
X71677Y45799D01*
X71781Y45812D01*
X71846Y45895D01*
X71834Y46000D01*
X71751Y46065D01*
X71355Y46176D01*
X71250Y46163D01*
X71185Y46080D01*
X71197Y45975D01*
X71280Y45910D01*
X71221Y45957D02*
X71839Y45957D01*
X71212Y46114D02*
X71573Y46114D01*
X73724Y47184D02*
X73832Y46851D01*
X73901Y46770D01*
X74006Y46762D01*
X74086Y46831D01*
X74094Y46936D01*
X73986Y47269D01*
X73917Y47349D01*
X73812Y47357D01*
X73732Y47289D01*
X73724Y47184D01*
X73810Y46920D02*
X74093Y46920D01*
X73758Y47077D02*
X74048Y47077D01*
X73728Y47235D02*
X73997Y47235D01*
X73490Y47321D02*
X73774Y47115D01*
X73876Y47090D01*
X73966Y47145D01*
X73991Y47248D01*
X73936Y47338D01*
X73652Y47544D01*
X73550Y47568D01*
X73460Y47513D01*
X73435Y47411D01*
X73490Y47321D01*
X73591Y47248D02*
X73991Y47248D01*
X73439Y47405D02*
X73843Y47405D01*
X73540Y47563D02*
X73574Y47563D01*
X73221Y47295D02*
X73571Y47295D01*
X73669Y47335D01*
X73709Y47432D01*
X73669Y47530D01*
X73571Y47570D01*
X73221Y47570D01*
X73124Y47530D01*
X73083Y47432D01*
X73124Y47335D01*
X73221Y47295D01*
X73091Y47452D02*
X73701Y47452D01*
X73018Y47115D02*
X73302Y47321D01*
X73357Y47411D01*
X73332Y47513D01*
X73243Y47568D01*
X73140Y47544D01*
X72857Y47338D01*
X72801Y47248D01*
X72826Y47145D01*
X72916Y47090D01*
X73018Y47115D01*
X72801Y47248D02*
X73201Y47248D01*
X72949Y47405D02*
X73354Y47405D01*
X73219Y47563D02*
X73252Y47563D01*
X72960Y46851D02*
X73069Y47184D01*
X73060Y47289D01*
X72980Y47357D01*
X72875Y47349D01*
X72806Y47269D01*
X72698Y46936D01*
X72706Y46831D01*
X72787Y46762D01*
X72892Y46770D01*
X72960Y46851D01*
X72699Y46920D02*
X72983Y46920D01*
X72744Y47077D02*
X73034Y47077D01*
X72795Y47235D02*
X73065Y47235D01*
X72952Y44564D02*
X74086Y46832D01*
X74094Y46937D01*
X74025Y47016D01*
X73920Y47024D01*
X73840Y46955D01*
X72706Y44687D01*
X72699Y44582D01*
X72768Y44502D01*
X72873Y44495D01*
X72952Y44564D01*
X72704Y44652D02*
X72997Y44652D01*
X72767Y44810D02*
X73075Y44810D01*
X72846Y44967D02*
X73154Y44967D01*
X72925Y45125D02*
X73233Y45125D01*
X73004Y45282D02*
X73312Y45282D01*
X73082Y45440D02*
X73390Y45440D01*
X73161Y45597D02*
X73469Y45597D01*
X73240Y45755D02*
X73548Y45755D01*
X73318Y45912D02*
X73627Y45912D01*
X73397Y46070D02*
X73705Y46070D01*
X73476Y46227D02*
X73784Y46227D01*
X73555Y46385D02*
X73863Y46385D01*
X73633Y46542D02*
X73942Y46542D01*
X73712Y46699D02*
X74020Y46699D01*
X73791Y46857D02*
X74088Y46857D01*
X73909Y47014D02*
X74026Y47014D01*
X73963Y44763D02*
X72829Y44763D01*
X72732Y44723D01*
X72691Y44625D01*
X72732Y44528D01*
X72829Y44488D01*
X73963Y44488D01*
X74061Y44528D01*
X74101Y44625D01*
X74061Y44723D01*
X73963Y44763D01*
X72700Y44645D02*
X74093Y44645D01*
X70487Y42042D02*
X70487Y40625D01*
X70527Y40527D01*
X70625Y40487D01*
X70722Y40527D01*
X70762Y40625D01*
X70762Y42042D01*
X70722Y42139D01*
X70625Y42180D01*
X70527Y42139D01*
X70487Y42042D01*
X70487Y40644D02*
X70762Y40644D01*
X70487Y40802D02*
X70762Y40802D01*
X70487Y40959D02*
X70762Y40959D01*
X70487Y41117D02*
X70762Y41117D01*
X70487Y41274D02*
X70762Y41274D01*
X70487Y41432D02*
X70762Y41432D01*
X70487Y41589D02*
X70762Y41589D01*
X70487Y41747D02*
X70762Y41747D01*
X70487Y41904D02*
X70762Y41904D01*
X70495Y42062D02*
X70754Y42062D01*
X71317Y42180D02*
X70625Y42180D01*
X70527Y42139D01*
X70487Y42042D01*
X70527Y41944D01*
X70625Y41904D01*
X71317Y41904D01*
X71415Y41944D01*
X71455Y42042D01*
X71415Y42139D01*
X71317Y42180D01*
X70495Y42062D02*
X71447Y42062D01*
X71636Y42286D02*
X71282Y42191D01*
X71198Y42126D01*
X71184Y42022D01*
X71249Y41938D01*
X71353Y41924D01*
X71707Y42019D01*
X71791Y42084D01*
X71805Y42188D01*
X71741Y42272D01*
X71636Y42286D01*
X71192Y42082D02*
X71789Y42082D01*
X71464Y42239D02*
X71766Y42239D01*
X71834Y42509D02*
X71574Y42250D01*
X71534Y42153D01*
X71574Y42055D01*
X71672Y42015D01*
X71769Y42055D01*
X72029Y42314D01*
X72069Y42412D01*
X72029Y42509D01*
X71931Y42550D01*
X71834Y42509D01*
X71542Y42172D02*
X71886Y42172D01*
X71654Y42330D02*
X72035Y42330D01*
X71812Y42487D02*
X72038Y42487D01*
X71893Y42802D02*
X71798Y42448D01*
X71812Y42343D01*
X71895Y42279D01*
X72000Y42293D01*
X72064Y42376D01*
X72159Y42731D01*
X72145Y42835D01*
X72062Y42899D01*
X71957Y42886D01*
X71893Y42802D01*
X71800Y42436D02*
X72080Y42436D01*
X71837Y42594D02*
X72123Y42594D01*
X71879Y42751D02*
X72156Y42751D01*
X71798Y43085D02*
X71893Y42731D01*
X71957Y42647D01*
X72062Y42633D01*
X72145Y42697D01*
X72159Y42802D01*
X72064Y43156D01*
X72000Y43240D01*
X71895Y43254D01*
X71812Y43189D01*
X71798Y43085D01*
X71877Y42791D02*
X72158Y42791D01*
X71835Y42948D02*
X72120Y42948D01*
X71801Y43106D02*
X72078Y43106D01*
X71574Y43283D02*
X71834Y43023D01*
X71931Y42983D01*
X72029Y43023D01*
X72069Y43121D01*
X72029Y43218D01*
X71769Y43477D01*
X71672Y43518D01*
X71574Y43477D01*
X71534Y43380D01*
X71574Y43283D01*
X71717Y43140D02*
X72061Y43140D01*
X71568Y43298D02*
X71949Y43298D01*
X71565Y43455D02*
X71791Y43455D01*
X71282Y43342D02*
X71636Y43247D01*
X71741Y43261D01*
X71805Y43344D01*
X71791Y43449D01*
X71707Y43513D01*
X71353Y43608D01*
X71249Y43594D01*
X71184Y43511D01*
X71198Y43406D01*
X71282Y43342D01*
X71200Y43404D02*
X71797Y43404D01*
X71224Y43562D02*
X71525Y43562D01*
X70625Y43321D02*
X71317Y43321D01*
X71415Y43362D01*
X71455Y43459D01*
X71415Y43557D01*
X71317Y43597D01*
X70625Y43597D01*
X70527Y43557D01*
X70487Y43459D01*
X70527Y43362D01*
X70625Y43321D01*
X70495Y43479D02*
X71447Y43479D01*
X70762Y42042D02*
X70762Y43459D01*
X70722Y43557D01*
X70625Y43597D01*
X70527Y43557D01*
X70487Y43459D01*
X70487Y42042D01*
X70527Y41944D01*
X70625Y41904D01*
X70722Y41944D01*
X70762Y42042D01*
X70487Y42062D02*
X70762Y42062D01*
X70487Y42219D02*
X70762Y42219D01*
X70487Y42376D02*
X70762Y42376D01*
X70487Y42534D02*
X70762Y42534D01*
X70487Y42691D02*
X70762Y42691D01*
X70487Y42849D02*
X70762Y42849D01*
X70487Y43006D02*
X70762Y43006D01*
X70487Y43164D02*
X70762Y43164D01*
X70487Y43321D02*
X70762Y43321D01*
X70495Y43479D02*
X70754Y43479D01*
X72691Y42042D02*
X72691Y40625D01*
X72732Y40527D01*
X72829Y40487D01*
X72927Y40527D01*
X72967Y40625D01*
X72967Y42042D01*
X72927Y42139D01*
X72829Y42180D01*
X72732Y42139D01*
X72691Y42042D01*
X72691Y40644D02*
X72967Y40644D01*
X72691Y40802D02*
X72967Y40802D01*
X72691Y40959D02*
X72967Y40959D01*
X72691Y41117D02*
X72967Y41117D01*
X72691Y41274D02*
X72967Y41274D01*
X72691Y41432D02*
X72967Y41432D01*
X72691Y41589D02*
X72967Y41589D01*
X72691Y41747D02*
X72967Y41747D01*
X72691Y41904D02*
X72967Y41904D01*
X72700Y42062D02*
X72959Y42062D01*
X74247Y42180D02*
X72829Y42180D01*
X72732Y42139D01*
X72691Y42042D01*
X72732Y41944D01*
X72829Y41904D01*
X74247Y41904D01*
X74344Y41944D01*
X74384Y42042D01*
X74344Y42139D01*
X74247Y42180D01*
X72700Y42062D02*
X74376Y42062D01*
X72691Y43459D02*
X72691Y42042D01*
X72732Y41944D01*
X72829Y41904D01*
X72927Y41944D01*
X72967Y42042D01*
X72967Y43459D01*
X72927Y43557D01*
X72829Y43597D01*
X72732Y43557D01*
X72691Y43459D01*
X72691Y42062D02*
X72967Y42062D01*
X72691Y42219D02*
X72967Y42219D01*
X72691Y42376D02*
X72967Y42376D01*
X72691Y42534D02*
X72967Y42534D01*
X72691Y42691D02*
X72967Y42691D01*
X72691Y42849D02*
X72967Y42849D01*
X72691Y43006D02*
X72967Y43006D01*
X72691Y43164D02*
X72967Y43164D01*
X72691Y43321D02*
X72967Y43321D01*
X72700Y43479D02*
X72959Y43479D01*
X74384Y40625D02*
X74384Y43459D01*
X74344Y43557D01*
X74247Y43597D01*
X74149Y43557D01*
X74109Y43459D01*
X74109Y40625D01*
X74149Y40527D01*
X74247Y40487D01*
X74344Y40527D01*
X74384Y40625D01*
X74109Y40644D02*
X74384Y40644D01*
X74109Y40802D02*
X74384Y40802D01*
X74109Y40959D02*
X74384Y40959D01*
X74109Y41117D02*
X74384Y41117D01*
X74109Y41274D02*
X74384Y41274D01*
X74109Y41432D02*
X74384Y41432D01*
X74109Y41589D02*
X74384Y41589D01*
X74109Y41747D02*
X74384Y41747D01*
X74109Y41904D02*
X74384Y41904D01*
X74109Y42062D02*
X74384Y42062D01*
X74109Y42219D02*
X74384Y42219D01*
X74109Y42376D02*
X74384Y42376D01*
X74109Y42534D02*
X74384Y42534D01*
X74109Y42691D02*
X74384Y42691D01*
X74109Y42849D02*
X74384Y42849D01*
X74109Y43006D02*
X74384Y43006D01*
X74109Y43164D02*
X74384Y43164D01*
X74109Y43321D02*
X74384Y43321D01*
X74117Y43479D02*
X74376Y43479D01*
X75880Y43504D02*
X74904Y40669D01*
X74910Y40564D01*
X74989Y40494D01*
X75094Y40501D01*
X75164Y40580D01*
X76141Y43414D01*
X76134Y43520D01*
X76055Y43589D01*
X75950Y43583D01*
X75880Y43504D01*
X74905Y40652D02*
X75189Y40652D01*
X74952Y40809D02*
X75243Y40809D01*
X75006Y40967D02*
X75298Y40967D01*
X75060Y41124D02*
X75352Y41124D01*
X75115Y41282D02*
X75406Y41282D01*
X75169Y41439D02*
X75460Y41439D01*
X75223Y41597D02*
X75515Y41597D01*
X75277Y41754D02*
X75569Y41754D01*
X75332Y41912D02*
X75623Y41912D01*
X75386Y42069D02*
X75677Y42069D01*
X75440Y42227D02*
X75731Y42227D01*
X75494Y42384D02*
X75786Y42384D01*
X75548Y42541D02*
X75840Y42541D01*
X75603Y42699D02*
X75894Y42699D01*
X75657Y42856D02*
X75948Y42856D01*
X75711Y43014D02*
X76003Y43014D01*
X75765Y43171D02*
X76057Y43171D01*
X75820Y43329D02*
X76111Y43329D01*
X75874Y43486D02*
X76136Y43486D01*
X77148Y40671D02*
X76140Y43505D01*
X76069Y43584D01*
X75964Y43589D01*
X75886Y43518D01*
X75880Y43413D01*
X76888Y40578D01*
X76959Y40500D01*
X77064Y40495D01*
X77143Y40565D01*
X77148Y40671D01*
X76862Y40652D02*
X77147Y40652D01*
X76806Y40810D02*
X77099Y40810D01*
X76750Y40967D02*
X77043Y40967D01*
X76694Y41125D02*
X76987Y41125D01*
X76638Y41282D02*
X76931Y41282D01*
X76582Y41440D02*
X76875Y41440D01*
X76526Y41597D02*
X76819Y41597D01*
X76470Y41755D02*
X76763Y41755D01*
X76414Y41912D02*
X76707Y41912D01*
X76358Y42069D02*
X76651Y42069D01*
X76302Y42227D02*
X76595Y42227D01*
X76246Y42384D02*
X76539Y42384D01*
X76190Y42542D02*
X76483Y42542D01*
X76134Y42699D02*
X76427Y42699D01*
X76078Y42857D02*
X76371Y42857D01*
X76022Y43014D02*
X76315Y43014D01*
X75966Y43172D02*
X76259Y43172D01*
X75910Y43329D02*
X76203Y43329D01*
X75884Y43487D02*
X76147Y43487D01*
X76735Y41613D02*
X75317Y41613D01*
X75220Y41572D01*
X75180Y41475D01*
X75220Y41377D01*
X75317Y41337D01*
X76735Y41337D01*
X76832Y41377D01*
X76873Y41475D01*
X76832Y41572D01*
X76735Y41613D01*
X75188Y41495D02*
X76864Y41495D01*
X77668Y42042D02*
X77668Y40625D01*
X77708Y40527D01*
X77806Y40487D01*
X77903Y40527D01*
X77943Y40625D01*
X77943Y42042D01*
X77903Y42139D01*
X77806Y42180D01*
X77708Y42139D01*
X77668Y42042D01*
X77668Y40644D02*
X77943Y40644D01*
X77668Y40802D02*
X77943Y40802D01*
X77668Y40959D02*
X77943Y40959D01*
X77668Y41117D02*
X77943Y41117D01*
X77668Y41274D02*
X77943Y41274D01*
X77668Y41432D02*
X77943Y41432D01*
X77668Y41589D02*
X77943Y41589D01*
X77668Y41747D02*
X77943Y41747D01*
X77668Y41904D02*
X77943Y41904D01*
X77676Y42062D02*
X77935Y42062D01*
X78499Y42180D02*
X77806Y42180D01*
X77708Y42139D01*
X77668Y42042D01*
X77708Y41944D01*
X77806Y41904D01*
X78499Y41904D01*
X78596Y41944D01*
X78636Y42042D01*
X78596Y42139D01*
X78499Y42180D01*
X77676Y42062D02*
X78628Y42062D01*
X78817Y42286D02*
X78463Y42191D01*
X78379Y42126D01*
X78365Y42022D01*
X78430Y41938D01*
X78534Y41924D01*
X78889Y42019D01*
X78972Y42084D01*
X78986Y42188D01*
X78922Y42272D01*
X78817Y42286D01*
X78373Y42082D02*
X78970Y42082D01*
X78645Y42239D02*
X78947Y42239D01*
X79015Y42509D02*
X78755Y42250D01*
X78715Y42153D01*
X78755Y42055D01*
X78853Y42015D01*
X78950Y42055D01*
X79210Y42314D01*
X79250Y42412D01*
X79210Y42509D01*
X79112Y42550D01*
X79015Y42509D01*
X78723Y42172D02*
X79067Y42172D01*
X78835Y42330D02*
X79216Y42330D01*
X78993Y42487D02*
X79219Y42487D01*
X79074Y42802D02*
X78979Y42448D01*
X78993Y42343D01*
X79077Y42279D01*
X79181Y42293D01*
X79245Y42376D01*
X79340Y42731D01*
X79327Y42835D01*
X79243Y42899D01*
X79138Y42886D01*
X79074Y42802D01*
X78981Y42436D02*
X79261Y42436D01*
X79018Y42594D02*
X79304Y42594D01*
X79061Y42751D02*
X79338Y42751D01*
X78979Y43085D02*
X79074Y42731D01*
X79138Y42647D01*
X79243Y42633D01*
X79327Y42697D01*
X79340Y42802D01*
X79245Y43156D01*
X79181Y43240D01*
X79077Y43254D01*
X78993Y43189D01*
X78979Y43085D01*
X79058Y42791D02*
X79339Y42791D01*
X79016Y42948D02*
X79301Y42948D01*
X78982Y43106D02*
X79259Y43106D01*
X78755Y43283D02*
X79015Y43023D01*
X79112Y42983D01*
X79210Y43023D01*
X79250Y43121D01*
X79210Y43218D01*
X78950Y43477D01*
X78853Y43518D01*
X78755Y43477D01*
X78715Y43380D01*
X78755Y43283D01*
X78898Y43140D02*
X79242Y43140D01*
X78749Y43298D02*
X79130Y43298D01*
X78746Y43455D02*
X78972Y43455D01*
X78463Y43342D02*
X78817Y43247D01*
X78922Y43261D01*
X78986Y43344D01*
X78972Y43449D01*
X78889Y43513D01*
X78534Y43608D01*
X78430Y43594D01*
X78365Y43511D01*
X78379Y43406D01*
X78463Y43342D01*
X78381Y43404D02*
X78978Y43404D01*
X78405Y43562D02*
X78707Y43562D01*
X77806Y43321D02*
X78499Y43321D01*
X78596Y43362D01*
X78636Y43459D01*
X78596Y43557D01*
X78499Y43597D01*
X77806Y43597D01*
X77708Y43557D01*
X77668Y43459D01*
X77708Y43362D01*
X77806Y43321D01*
X77676Y43479D02*
X78628Y43479D01*
X77943Y42042D02*
X77943Y43459D01*
X77903Y43557D01*
X77806Y43597D01*
X77708Y43557D01*
X77668Y43459D01*
X77668Y42042D01*
X77708Y41944D01*
X77806Y41904D01*
X77903Y41944D01*
X77943Y42042D01*
X77668Y42062D02*
X77943Y42062D01*
X77668Y42219D02*
X77943Y42219D01*
X77668Y42376D02*
X77943Y42376D01*
X77668Y42534D02*
X77943Y42534D01*
X77668Y42691D02*
X77943Y42691D01*
X77668Y42849D02*
X77943Y42849D01*
X77668Y43006D02*
X77943Y43006D01*
X77668Y43164D02*
X77943Y43164D01*
X77668Y43321D02*
X77943Y43321D01*
X77676Y43479D02*
X77935Y43479D01*
X80250Y40901D02*
X80141Y41234D01*
X80073Y41314D01*
X79968Y41322D01*
X79888Y41254D01*
X79879Y41149D01*
X79988Y40816D01*
X80056Y40735D01*
X80161Y40727D01*
X80241Y40796D01*
X80250Y40901D01*
X79965Y40885D02*
X80248Y40885D01*
X79914Y41042D02*
X80204Y41042D01*
X79883Y41200D02*
X80153Y41200D01*
X80483Y40764D02*
X80200Y40970D01*
X80097Y40994D01*
X80007Y40939D01*
X79983Y40837D01*
X80038Y40747D01*
X80321Y40541D01*
X80424Y40516D01*
X80514Y40571D01*
X80538Y40674D01*
X80483Y40764D01*
X80138Y40674D02*
X80538Y40674D01*
X79986Y40831D02*
X80390Y40831D01*
X80088Y40989D02*
X80121Y40989D01*
X80752Y40790D02*
X80402Y40790D01*
X80305Y40750D01*
X80264Y40652D01*
X80305Y40555D01*
X80402Y40514D01*
X80752Y40514D01*
X80850Y40555D01*
X80890Y40652D01*
X80850Y40750D01*
X80752Y40790D01*
X80272Y40672D02*
X80882Y40672D01*
X80955Y40970D02*
X80671Y40764D01*
X80616Y40674D01*
X80641Y40571D01*
X80731Y40516D01*
X80833Y40541D01*
X81117Y40747D01*
X81172Y40837D01*
X81147Y40939D01*
X81057Y40994D01*
X80955Y40970D01*
X80616Y40674D02*
X81016Y40674D01*
X80764Y40831D02*
X81169Y40831D01*
X81034Y40989D02*
X81067Y40989D01*
X81013Y41234D02*
X80905Y40901D01*
X80913Y40796D01*
X80993Y40727D01*
X81098Y40735D01*
X81167Y40816D01*
X81275Y41149D01*
X81267Y41254D01*
X81187Y41322D01*
X81082Y41314D01*
X81013Y41234D01*
X80906Y40885D02*
X81189Y40885D01*
X80951Y41042D02*
X81241Y41042D01*
X81002Y41200D02*
X81271Y41200D01*
X81282Y41191D02*
X81282Y41601D01*
X81242Y41698D01*
X81144Y41739D01*
X81047Y41698D01*
X81006Y41601D01*
X81006Y41191D01*
X81047Y41094D01*
X81144Y41054D01*
X81242Y41094D01*
X81282Y41191D01*
X81006Y41211D02*
X81282Y41211D01*
X81006Y41369D02*
X81282Y41369D01*
X81006Y41526D02*
X81282Y41526D01*
X81041Y41684D02*
X81248Y41684D01*
X80935Y41849D02*
X81011Y41565D01*
X81075Y41482D01*
X81180Y41468D01*
X81264Y41532D01*
X81277Y41637D01*
X81201Y41920D01*
X81137Y42004D01*
X81033Y42017D01*
X80949Y41953D01*
X80935Y41849D01*
X80995Y41625D02*
X81276Y41625D01*
X80953Y41783D02*
X81238Y41783D01*
X80947Y41940D02*
X81186Y41940D01*
X80763Y41994D02*
X80971Y41787D01*
X81068Y41747D01*
X81166Y41787D01*
X81206Y41884D01*
X81166Y41982D01*
X80958Y42189D01*
X80861Y42230D01*
X80763Y42189D01*
X80723Y42092D01*
X80763Y41994D01*
X80854Y41904D02*
X81198Y41904D01*
X80735Y42062D02*
X81086Y42062D01*
X80835Y42219D02*
X80886Y42219D01*
X80542Y42035D02*
X80825Y41959D01*
X80930Y41973D01*
X80994Y42056D01*
X80980Y42161D01*
X80896Y42225D01*
X80613Y42301D01*
X80508Y42287D01*
X80444Y42203D01*
X80458Y42099D01*
X80542Y42035D01*
X80456Y42116D02*
X80986Y42116D01*
X80498Y42274D02*
X80714Y42274D01*
X80577Y42306D02*
X80420Y42306D01*
X80322Y42265D01*
X80282Y42168D01*
X80322Y42070D01*
X80420Y42030D01*
X80577Y42030D01*
X80675Y42070D01*
X80715Y42168D01*
X80675Y42265D01*
X80577Y42306D01*
X80290Y42187D02*
X80707Y42187D01*
X80420Y42030D02*
X80577Y42030D01*
X80675Y42070D01*
X80715Y42168D01*
X80675Y42265D01*
X80577Y42306D01*
X80420Y42306D01*
X80322Y42265D01*
X80282Y42168D01*
X80322Y42070D01*
X80420Y42030D01*
X80290Y42187D02*
X80707Y42187D01*
X80827Y42386D02*
X80538Y42300D01*
X80456Y42233D01*
X80445Y42129D01*
X80512Y42047D01*
X80616Y42036D01*
X80906Y42122D01*
X80988Y42188D01*
X80999Y42293D01*
X80932Y42375D01*
X80827Y42386D01*
X80452Y42193D02*
X80988Y42193D01*
X80709Y42351D02*
X80952Y42351D01*
X80974Y42568D02*
X80767Y42348D01*
X80729Y42250D01*
X80772Y42154D01*
X80870Y42116D01*
X80967Y42159D01*
X81174Y42378D01*
X81212Y42476D01*
X81169Y42573D01*
X81070Y42610D01*
X80974Y42568D01*
X80738Y42273D02*
X81075Y42273D01*
X80845Y42431D02*
X81194Y42431D01*
X81021Y42588D02*
X81128Y42588D01*
X81010Y42798D02*
X80940Y42505D01*
X80957Y42401D01*
X81042Y42339D01*
X81146Y42355D01*
X81208Y42441D01*
X81278Y42734D01*
X81262Y42838D01*
X81176Y42900D01*
X81072Y42884D01*
X81010Y42798D01*
X80941Y42496D02*
X81221Y42496D01*
X80976Y42654D02*
X81259Y42654D01*
X81020Y42811D02*
X81266Y42811D01*
X81282Y42766D02*
X81282Y42892D01*
X81242Y42990D01*
X81144Y43030D01*
X81047Y42990D01*
X81006Y42892D01*
X81006Y42766D01*
X81047Y42669D01*
X81144Y42628D01*
X81242Y42669D01*
X81282Y42766D01*
X81006Y42786D02*
X81282Y42786D01*
X81028Y42943D02*
X81261Y42943D01*
X80905Y43183D02*
X81013Y42850D01*
X81082Y42769D01*
X81187Y42761D01*
X81267Y42830D01*
X81275Y42935D01*
X81167Y43268D01*
X81098Y43348D01*
X80993Y43357D01*
X80913Y43288D01*
X80905Y43183D01*
X80991Y42919D02*
X81274Y42919D01*
X80940Y43076D02*
X81229Y43076D01*
X80909Y43234D02*
X81178Y43234D01*
X80671Y43320D02*
X80955Y43114D01*
X81057Y43089D01*
X81147Y43144D01*
X81172Y43247D01*
X81117Y43337D01*
X80833Y43543D01*
X80731Y43567D01*
X80641Y43512D01*
X80616Y43410D01*
X80671Y43320D01*
X80772Y43247D02*
X81172Y43247D01*
X80620Y43404D02*
X81024Y43404D01*
X80722Y43562D02*
X80755Y43562D01*
X80402Y43294D02*
X80752Y43294D01*
X80850Y43334D01*
X80890Y43431D01*
X80850Y43529D01*
X80752Y43569D01*
X80402Y43569D01*
X80305Y43529D01*
X80264Y43431D01*
X80305Y43334D01*
X80402Y43294D01*
X80272Y43451D02*
X80882Y43451D01*
X80200Y43114D02*
X80483Y43320D01*
X80538Y43410D01*
X80514Y43512D01*
X80424Y43567D01*
X80321Y43543D01*
X80038Y43337D01*
X79983Y43247D01*
X80007Y43144D01*
X80097Y43089D01*
X80200Y43114D01*
X79983Y43247D02*
X80382Y43247D01*
X80130Y43404D02*
X80535Y43404D01*
X80400Y43562D02*
X80433Y43562D01*
X80141Y42850D02*
X80250Y43183D01*
X80241Y43288D01*
X80161Y43357D01*
X80056Y43348D01*
X79988Y43268D01*
X79879Y42935D01*
X79888Y42830D01*
X79968Y42761D01*
X80073Y42769D01*
X80141Y42850D01*
X79881Y42919D02*
X80164Y42919D01*
X79925Y43076D02*
X80215Y43076D01*
X79976Y43234D02*
X80246Y43234D01*
X82171Y40901D02*
X82063Y41234D01*
X81994Y41314D01*
X81889Y41322D01*
X81809Y41254D01*
X81801Y41149D01*
X81909Y40816D01*
X81977Y40735D01*
X82082Y40727D01*
X82163Y40796D01*
X82171Y40901D01*
X81886Y40885D02*
X82170Y40885D01*
X81835Y41042D02*
X82125Y41042D01*
X81805Y41200D02*
X82074Y41200D01*
X82404Y40764D02*
X82121Y40970D01*
X82018Y40994D01*
X81928Y40939D01*
X81904Y40837D01*
X81959Y40747D01*
X82242Y40541D01*
X82345Y40516D01*
X82435Y40571D01*
X82459Y40674D01*
X82404Y40764D01*
X82059Y40674D02*
X82459Y40674D01*
X81907Y40831D02*
X82312Y40831D01*
X82009Y40989D02*
X82042Y40989D01*
X82674Y40790D02*
X82323Y40790D01*
X82226Y40750D01*
X82186Y40652D01*
X82226Y40555D01*
X82323Y40514D01*
X82674Y40514D01*
X82771Y40555D01*
X82812Y40652D01*
X82771Y40750D01*
X82674Y40790D01*
X82194Y40672D02*
X82803Y40672D01*
X82876Y40970D02*
X82593Y40764D01*
X82538Y40674D01*
X82562Y40571D01*
X82652Y40516D01*
X82755Y40541D01*
X83038Y40747D01*
X83093Y40837D01*
X83069Y40939D01*
X82979Y40994D01*
X82876Y40970D01*
X82538Y40674D02*
X82938Y40674D01*
X82685Y40831D02*
X83090Y40831D01*
X82955Y40989D02*
X82988Y40989D01*
X82934Y41234D02*
X82826Y40901D01*
X82834Y40796D01*
X82915Y40727D01*
X83020Y40735D01*
X83088Y40816D01*
X83196Y41149D01*
X83188Y41254D01*
X83108Y41322D01*
X83003Y41314D01*
X82934Y41234D01*
X82827Y40885D02*
X83111Y40885D01*
X82872Y41042D02*
X83162Y41042D01*
X82923Y41200D02*
X83193Y41200D01*
X83203Y41191D02*
X83203Y41601D01*
X83163Y41698D01*
X83065Y41739D01*
X82968Y41698D01*
X82928Y41601D01*
X82928Y41191D01*
X82968Y41094D01*
X83065Y41054D01*
X83163Y41094D01*
X83203Y41191D01*
X82928Y41211D02*
X83203Y41211D01*
X82928Y41369D02*
X83203Y41369D01*
X82928Y41526D02*
X83203Y41526D01*
X82962Y41684D02*
X83169Y41684D01*
X82856Y41849D02*
X82932Y41565D01*
X82997Y41482D01*
X83101Y41468D01*
X83185Y41532D01*
X83199Y41637D01*
X83123Y41920D01*
X83058Y42004D01*
X82954Y42017D01*
X82870Y41953D01*
X82856Y41849D01*
X82916Y41625D02*
X83197Y41625D01*
X82874Y41783D02*
X83159Y41783D01*
X82868Y41940D02*
X83107Y41940D01*
X82685Y41994D02*
X82892Y41787D01*
X82989Y41747D01*
X83087Y41787D01*
X83127Y41884D01*
X83087Y41982D01*
X82879Y42189D01*
X82782Y42230D01*
X82685Y42189D01*
X82644Y42092D01*
X82685Y41994D01*
X82775Y41904D02*
X83119Y41904D01*
X82657Y42062D02*
X83007Y42062D01*
X82756Y42219D02*
X82808Y42219D01*
X82463Y42035D02*
X82746Y41959D01*
X82851Y41973D01*
X82915Y42056D01*
X82901Y42161D01*
X82818Y42225D01*
X82534Y42301D01*
X82430Y42287D01*
X82365Y42203D01*
X82379Y42099D01*
X82463Y42035D01*
X82377Y42116D02*
X82907Y42116D01*
X82419Y42274D02*
X82636Y42274D01*
X82499Y42306D02*
X82341Y42306D01*
X82244Y42265D01*
X82203Y42168D01*
X82244Y42070D01*
X82341Y42030D01*
X82499Y42030D01*
X82596Y42070D01*
X82636Y42168D01*
X82596Y42265D01*
X82499Y42306D01*
X82211Y42187D02*
X82628Y42187D01*
X82341Y42030D02*
X82499Y42030D01*
X82596Y42070D01*
X82636Y42168D01*
X82596Y42265D01*
X82499Y42306D01*
X82341Y42306D01*
X82244Y42265D01*
X82203Y42168D01*
X82244Y42070D01*
X82341Y42030D01*
X82211Y42187D02*
X82628Y42187D01*
X82749Y42386D02*
X82459Y42300D01*
X82377Y42233D01*
X82366Y42129D01*
X82433Y42047D01*
X82538Y42036D01*
X82827Y42122D01*
X82909Y42188D01*
X82920Y42293D01*
X82853Y42375D01*
X82749Y42386D01*
X82373Y42193D02*
X82909Y42193D01*
X82630Y42351D02*
X82873Y42351D01*
X82895Y42568D02*
X82688Y42348D01*
X82650Y42250D01*
X82693Y42154D01*
X82792Y42116D01*
X82888Y42159D01*
X83095Y42378D01*
X83133Y42476D01*
X83090Y42573D01*
X82992Y42610D01*
X82895Y42568D01*
X82659Y42273D02*
X82996Y42273D01*
X82766Y42431D02*
X83116Y42431D01*
X82942Y42588D02*
X83049Y42588D01*
X82931Y42798D02*
X82861Y42505D01*
X82878Y42401D01*
X82963Y42339D01*
X83067Y42355D01*
X83129Y42441D01*
X83199Y42734D01*
X83183Y42838D01*
X83097Y42900D01*
X82993Y42884D01*
X82931Y42798D01*
X82863Y42496D02*
X83143Y42496D01*
X82897Y42654D02*
X83180Y42654D01*
X82941Y42811D02*
X83187Y42811D01*
X83203Y42766D02*
X83203Y42892D01*
X83163Y42990D01*
X83065Y43030D01*
X82968Y42990D01*
X82928Y42892D01*
X82928Y42766D01*
X82968Y42669D01*
X83065Y42628D01*
X83163Y42669D01*
X83203Y42766D01*
X82928Y42786D02*
X83203Y42786D01*
X82949Y42943D02*
X83182Y42943D01*
X82826Y43183D02*
X82934Y42850D01*
X83003Y42769D01*
X83108Y42761D01*
X83188Y42830D01*
X83196Y42935D01*
X83088Y43268D01*
X83020Y43348D01*
X82915Y43357D01*
X82834Y43288D01*
X82826Y43183D01*
X82912Y42919D02*
X83195Y42919D01*
X82861Y43076D02*
X83151Y43076D01*
X82830Y43234D02*
X83099Y43234D01*
X82593Y43320D02*
X82876Y43114D01*
X82979Y43089D01*
X83069Y43144D01*
X83093Y43247D01*
X83038Y43337D01*
X82755Y43543D01*
X82652Y43567D01*
X82562Y43512D01*
X82538Y43410D01*
X82593Y43320D01*
X82693Y43247D02*
X83093Y43247D01*
X82541Y43404D02*
X82945Y43404D01*
X82643Y43562D02*
X82676Y43562D01*
X82323Y43294D02*
X82674Y43294D01*
X82771Y43334D01*
X82812Y43431D01*
X82771Y43529D01*
X82674Y43569D01*
X82323Y43569D01*
X82226Y43529D01*
X82186Y43431D01*
X82226Y43334D01*
X82323Y43294D01*
X82194Y43451D02*
X82803Y43451D01*
X82121Y43114D02*
X82404Y43320D01*
X82459Y43410D01*
X82435Y43512D01*
X82345Y43567D01*
X82242Y43543D01*
X81959Y43337D01*
X81904Y43247D01*
X81928Y43144D01*
X82018Y43089D01*
X82121Y43114D01*
X81904Y43247D02*
X82304Y43247D01*
X82052Y43404D02*
X82456Y43404D01*
X82321Y43562D02*
X82354Y43562D01*
X82063Y42850D02*
X82171Y43183D01*
X82163Y43288D01*
X82082Y43357D01*
X81977Y43348D01*
X81909Y43268D01*
X81801Y42935D01*
X81809Y42830D01*
X81889Y42761D01*
X81994Y42769D01*
X82063Y42850D01*
X81802Y42919D02*
X82085Y42919D01*
X81846Y43076D02*
X82136Y43076D01*
X81898Y43234D02*
X82167Y43234D01*
X84747Y43183D02*
X84856Y42850D01*
X84924Y42769D01*
X85029Y42761D01*
X85109Y42830D01*
X85118Y42935D01*
X85009Y43268D01*
X84941Y43348D01*
X84836Y43357D01*
X84756Y43288D01*
X84747Y43183D01*
X84833Y42919D02*
X85116Y42919D01*
X84782Y43076D02*
X85072Y43076D01*
X84751Y43234D02*
X85021Y43234D01*
X84514Y43320D02*
X84797Y43114D01*
X84900Y43089D01*
X84990Y43144D01*
X85015Y43247D01*
X84959Y43337D01*
X84676Y43543D01*
X84573Y43567D01*
X84483Y43512D01*
X84459Y43410D01*
X84514Y43320D01*
X84615Y43247D02*
X85014Y43247D01*
X84462Y43404D02*
X84867Y43404D01*
X84564Y43562D02*
X84597Y43562D01*
X84245Y43294D02*
X84595Y43294D01*
X84692Y43334D01*
X84733Y43431D01*
X84692Y43529D01*
X84595Y43569D01*
X84245Y43569D01*
X84147Y43529D01*
X84107Y43431D01*
X84147Y43334D01*
X84245Y43294D01*
X84115Y43451D02*
X84725Y43451D01*
X84042Y43114D02*
X84326Y43320D01*
X84381Y43410D01*
X84356Y43512D01*
X84266Y43567D01*
X84164Y43543D01*
X83880Y43337D01*
X83825Y43247D01*
X83850Y43144D01*
X83940Y43089D01*
X84042Y43114D01*
X83825Y43247D02*
X84225Y43247D01*
X83973Y43404D02*
X84377Y43404D01*
X84242Y43562D02*
X84275Y43562D01*
X83984Y42850D02*
X84092Y43183D01*
X84084Y43288D01*
X84004Y43357D01*
X83899Y43348D01*
X83830Y43268D01*
X83722Y42935D01*
X83730Y42830D01*
X83810Y42761D01*
X83915Y42769D01*
X83984Y42850D01*
X83723Y42919D02*
X84006Y42919D01*
X83768Y43076D02*
X84057Y43076D01*
X83819Y43234D02*
X84088Y43234D01*
X83991Y41191D02*
X83991Y42892D01*
X83950Y42990D01*
X83853Y43030D01*
X83755Y42990D01*
X83715Y42892D01*
X83715Y41191D01*
X83755Y41094D01*
X83853Y41054D01*
X83950Y41094D01*
X83991Y41191D01*
X83715Y41211D02*
X83991Y41211D01*
X83715Y41369D02*
X83991Y41369D01*
X83715Y41526D02*
X83991Y41526D01*
X83715Y41684D02*
X83991Y41684D01*
X83715Y41841D02*
X83991Y41841D01*
X83715Y41999D02*
X83991Y41999D01*
X83715Y42156D02*
X83991Y42156D01*
X83715Y42313D02*
X83991Y42313D01*
X83715Y42471D02*
X83991Y42471D01*
X83715Y42628D02*
X83991Y42628D01*
X83715Y42786D02*
X83991Y42786D01*
X83736Y42943D02*
X83969Y42943D01*
X84092Y40901D02*
X83984Y41234D01*
X83915Y41314D01*
X83810Y41322D01*
X83730Y41254D01*
X83722Y41149D01*
X83830Y40816D01*
X83899Y40735D01*
X84004Y40727D01*
X84084Y40796D01*
X84092Y40901D01*
X83808Y40885D02*
X84091Y40885D01*
X83756Y41042D02*
X84046Y41042D01*
X83726Y41200D02*
X83995Y41200D01*
X84326Y40764D02*
X84042Y40970D01*
X83940Y40994D01*
X83850Y40939D01*
X83825Y40837D01*
X83880Y40747D01*
X84164Y40541D01*
X84266Y40516D01*
X84356Y40571D01*
X84381Y40674D01*
X84326Y40764D01*
X83981Y40674D02*
X84381Y40674D01*
X83828Y40831D02*
X84233Y40831D01*
X83930Y40989D02*
X83963Y40989D01*
X84595Y40790D02*
X84245Y40790D01*
X84147Y40750D01*
X84107Y40652D01*
X84147Y40555D01*
X84245Y40514D01*
X84595Y40514D01*
X84692Y40555D01*
X84733Y40652D01*
X84692Y40750D01*
X84595Y40790D01*
X84115Y40672D02*
X84725Y40672D01*
X84797Y40970D02*
X84514Y40764D01*
X84459Y40674D01*
X84483Y40571D01*
X84573Y40516D01*
X84676Y40541D01*
X84959Y40747D01*
X85015Y40837D01*
X84990Y40939D01*
X84900Y40994D01*
X84797Y40970D01*
X84459Y40674D02*
X84859Y40674D01*
X84607Y40831D02*
X85011Y40831D01*
X84876Y40989D02*
X84909Y40989D01*
X84856Y41234D02*
X84747Y40901D01*
X84756Y40796D01*
X84836Y40727D01*
X84941Y40735D01*
X85009Y40816D01*
X85118Y41149D01*
X85109Y41254D01*
X85029Y41322D01*
X84924Y41314D01*
X84856Y41234D01*
X84749Y40885D02*
X85032Y40885D01*
X84793Y41042D02*
X85083Y41042D01*
X84844Y41200D02*
X85114Y41200D01*
X84849Y41758D02*
X84849Y41191D01*
X84889Y41094D01*
X84987Y41054D01*
X85084Y41094D01*
X85125Y41191D01*
X85125Y41758D01*
X85084Y41856D01*
X84987Y41896D01*
X84889Y41856D01*
X84849Y41758D01*
X84849Y41211D02*
X85125Y41211D01*
X84849Y41369D02*
X85125Y41369D01*
X84849Y41526D02*
X85125Y41526D01*
X84849Y41684D02*
X85125Y41684D01*
X84883Y41841D02*
X85090Y41841D01*
X84747Y42049D02*
X84856Y41716D01*
X84924Y41636D01*
X85029Y41627D01*
X85109Y41696D01*
X85118Y41801D01*
X85009Y42134D01*
X84941Y42214D01*
X84836Y42223D01*
X84756Y42154D01*
X84747Y42049D01*
X84833Y41785D02*
X85116Y41785D01*
X84782Y41942D02*
X85072Y41942D01*
X84751Y42100D02*
X85021Y42100D01*
X84514Y42186D02*
X84797Y41980D01*
X84900Y41955D01*
X84990Y42011D01*
X85015Y42113D01*
X84959Y42203D01*
X84676Y42409D01*
X84573Y42434D01*
X84483Y42379D01*
X84459Y42276D01*
X84514Y42186D01*
X84615Y42113D02*
X85014Y42113D01*
X84462Y42270D02*
X84867Y42270D01*
X84564Y42428D02*
X84597Y42428D01*
X84245Y42160D02*
X84595Y42160D01*
X84692Y42200D01*
X84733Y42298D01*
X84692Y42395D01*
X84595Y42435D01*
X84245Y42435D01*
X84147Y42395D01*
X84107Y42298D01*
X84147Y42200D01*
X84245Y42160D01*
X84115Y42317D02*
X84725Y42317D01*
X84042Y41980D02*
X84326Y42186D01*
X84381Y42276D01*
X84356Y42379D01*
X84266Y42434D01*
X84164Y42409D01*
X83880Y42203D01*
X83825Y42113D01*
X83850Y42011D01*
X83940Y41955D01*
X84042Y41980D01*
X83825Y42113D02*
X84225Y42113D01*
X83973Y42270D02*
X84377Y42270D01*
X84242Y42428D02*
X84275Y42428D01*
X83984Y41716D02*
X84092Y42049D01*
X84084Y42154D01*
X84004Y42223D01*
X83899Y42214D01*
X83830Y42134D01*
X83722Y41801D01*
X83730Y41696D01*
X83810Y41627D01*
X83915Y41636D01*
X83984Y41716D01*
X83723Y41785D02*
X84006Y41785D01*
X83768Y41942D02*
X84057Y41942D01*
X83819Y42100D02*
X84088Y42100D01*
X86244Y43557D02*
X85677Y42990D01*
X85636Y42892D01*
X85677Y42795D01*
X85774Y42754D01*
X85872Y42795D01*
X86438Y43362D01*
X86479Y43459D01*
X86438Y43557D01*
X86341Y43597D01*
X86244Y43557D01*
X85644Y42912D02*
X85989Y42912D01*
X85756Y43069D02*
X86146Y43069D01*
X85914Y43227D02*
X86304Y43227D01*
X86071Y43384D02*
X86448Y43384D01*
X86229Y43542D02*
X86445Y43542D01*
X86479Y40625D02*
X86479Y43459D01*
X86438Y43557D01*
X86341Y43597D01*
X86244Y43557D01*
X86203Y43459D01*
X86203Y40625D01*
X86244Y40527D01*
X86341Y40487D01*
X86438Y40527D01*
X86479Y40625D01*
X86203Y40644D02*
X86479Y40644D01*
X86203Y40802D02*
X86479Y40802D01*
X86203Y40959D02*
X86479Y40959D01*
X86203Y41117D02*
X86479Y41117D01*
X86203Y41274D02*
X86479Y41274D01*
X86203Y41432D02*
X86479Y41432D01*
X86203Y41589D02*
X86479Y41589D01*
X86203Y41747D02*
X86479Y41747D01*
X86203Y41904D02*
X86479Y41904D01*
X86203Y42062D02*
X86479Y42062D01*
X86203Y42219D02*
X86479Y42219D01*
X86203Y42376D02*
X86479Y42376D01*
X86203Y42534D02*
X86479Y42534D01*
X86203Y42691D02*
X86479Y42691D01*
X86203Y42849D02*
X86479Y42849D01*
X86203Y43006D02*
X86479Y43006D01*
X86203Y43164D02*
X86479Y43164D01*
X86203Y43321D02*
X86479Y43321D01*
X86211Y43479D02*
X86471Y43479D01*
G54D14*
X87440Y38503D02*
X88708Y38628D01*
X89926Y38998D01*
X91049Y39598D01*
X92034Y40406D01*
X92842Y41390D01*
X93442Y42514D01*
X93812Y43732D01*
X93937Y45000D01*
X93812Y46267D01*
X93442Y47485D01*
X92842Y48609D01*
X92034Y49593D01*
X91049Y50401D01*
X89926Y51001D01*
X88708Y51371D01*
X87440Y51496D01*
X12559Y51496D02*
X11291Y51371D01*
X10073Y51001D01*
X8950Y50401D01*
X7965Y49593D01*
X7157Y48609D01*
X6557Y47485D01*
X6187Y46267D01*
X6062Y44999D01*
X6187Y43732D01*
X6557Y42514D01*
X7157Y41390D01*
X7965Y40406D01*
X8950Y39598D01*
X10073Y38998D01*
X11291Y38628D01*
X12559Y38503D01*
X12559Y51496D02*
X87440Y51496D01*
X87440Y38503D02*
X12559Y38503D01*
X36870Y14468D02*
X36870Y35531D01*
X58129Y35531D01*
X58129Y14468D01*
X36870Y14468D01*
X82755Y24547D02*
X82755Y21200D01*
X77244Y33799D02*
X82755Y33799D01*
X82755Y30452D01*
X82755Y21200D02*
X77244Y21200D01*
X72000Y11300D02*
X88000Y11300D01*
X88000Y3700D01*
X72000Y3700D01*
X72000Y11300D02*
X72000Y3700D01*
X20750Y11300D02*
X36750Y11300D01*
X36750Y3700D01*
X20750Y3700D01*
X20750Y11300D02*
X20750Y3700D01*
X87500Y15000D02*
X87500Y20000D01*
X90000Y22500D01*
X95000Y22500D01*
X97500Y20000D01*
X90000Y12500D02*
X97500Y12500D01*
X87500Y15000D02*
X90000Y12500D01*
X97500Y20000D02*
X97500Y12500D01*
X90000Y22500D02*
X87500Y25000D01*
X87500Y30000D01*
X90000Y32500D01*
X95000Y32500D01*
X97500Y30000D01*
X97500Y25000D01*
X95000Y22500D01*
X2500Y15000D02*
X2500Y20000D01*
X5000Y22500D01*
X10000Y22500D01*
X12500Y20000D01*
X5000Y12500D02*
X12500Y12500D01*
X2500Y15000D02*
X5000Y12500D01*
X12500Y20000D02*
X12500Y12500D01*
X5000Y22500D02*
X2500Y25000D01*
X2500Y30000D01*
X5000Y32500D01*
X10000Y32500D01*
X12500Y30000D01*
X12500Y25000D01*
X10000Y22500D01*
X26929Y13902D02*
X26929Y31097D01*
X26929Y13902D02*
X18070Y13902D01*
X18070Y31097D01*
X26929Y31097D01*
X61811Y38110D02*
X61811Y51889D01*
X38188Y51889D01*
X38188Y38110D01*
X61811Y38110D01*
G54D17*
X55040Y18008D03*
M02*
