%FSLAX35Y35*%
%MOIN*%
%TF.FileFunction,Copper,L1,Top*%
%ADD10C,0.00197*%
%ADD11C,0.00295*%
%ADD12C,0.00984*%
%ADD13C,0.01024*%
%ADD14C,0.01181*%
%ADD15C,0.01575*%
%ADD16C,0.01969*%
%ADD17C,0.02362*%
%ADD18C,0.03150*%
%ADD19C,0.05000*%
%AMR_20*21,1,0.00984,0.00984,0,0,0.000*%
%ADD20R_20*%
%AMR_21*21,1,0.01837,0.01837,0,0,0.000*%
%ADD21R_21*%
%AMR_22*21,1,0.01969,0.01969,0,0,0.000*%
%ADD22R_22*%
%AMOCT_23*4,1,8,0.015748,0.031496,0.007874,0.039370,-0.007874,0.039370,-0.015748,0.031496,-0.015748,-0.031496,-0.007874,-0.039370,0.007874,-0.039370,0.015748,-0.031496,0.015748,0.031496,90.000*%
%ADD23OCT_23*%
%AMOCT_24*4,1,8,0.023622,0.011811,0.011811,0.023622,-0.011811,0.023622,-0.023622,0.011811,-0.023622,-0.011811,-0.011811,-0.023622,0.011811,-0.023622,0.023622,-0.011811,0.023622,0.011811,0.000*%
%ADD24OCT_24*%
%AMOCT_25*4,1,8,0.031496,0.015748,0.015748,0.031496,-0.015748,0.031496,-0.031496,0.015748,-0.031496,-0.015748,-0.015748,-0.031496,0.015748,-0.031496,0.031496,-0.015748,0.031496,0.015748,180.000*%
%ADD25OCT_25*%
%AMOCT_26*4,1,8,0.035433,0.017717,0.017717,0.035433,-0.017717,0.035433,-0.035433,0.017717,-0.035433,-0.017717,-0.017717,-0.035433,0.017717,-0.035433,0.035433,-0.017717,0.035433,0.017717,0.000*%
%ADD26OCT_26*%
%AMOCT_27*4,1,8,0.035433,0.017717,0.017717,0.035433,-0.017717,0.035433,-0.035433,0.017717,-0.035433,-0.017717,-0.017717,-0.035433,0.017717,-0.035433,0.035433,-0.017717,0.035433,0.017717,90.000*%
%ADD27OCT_27*%
%AMRR_28*21,1,0.03150,0.04409,0,0,270.000*21,1,0.02835,0.04724,0,0,270.000*1,1,0.00315,0.02205,-0.01417*1,1,0.00315,-0.02205,0.01417*1,1,0.00315,-0.02205,-0.01417*1,1,0.00315,0.02205,0.01417*%
%ADD28RR_28*%
%AMRR_29*21,1,0.03150,0.07244,0,0,90.000*21,1,0.02520,0.07874,0,0,90.000*1,1,0.00630,-0.03622,0.01260*1,1,0.00630,0.03622,-0.01260*1,1,0.00630,0.03622,0.01260*1,1,0.00630,-0.03622,-0.01260*%
%ADD29RR_29*%
%AMRR_30*21,1,0.04331,0.06654,0,0,270.000*21,1,0.03898,0.07087,0,0,270.000*1,1,0.00433,0.03327,-0.01949*1,1,0.00433,-0.03327,0.01949*1,1,0.00433,-0.03327,-0.01949*1,1,0.00433,0.03327,0.01949*%
%ADD30RR_30*%
%AMRR_31*21,1,0.05512,0.04961,0,0,0.000*21,1,0.04961,0.05512,0,0,0.000*1,1,0.00551,0.02480,0.02480*1,1,0.00551,-0.02480,-0.02480*1,1,0.00551,0.02480,-0.02480*1,1,0.00551,-0.02480,0.02480*%
%ADD31RR_31*%
%AMRR_32*21,1,0.05512,0.04961,0,0,180.000*21,1,0.04961,0.05512,0,0,180.000*1,1,0.00551,-0.02480,-0.02480*1,1,0.00551,0.02480,0.02480*1,1,0.00551,-0.02480,0.02480*1,1,0.00551,0.02480,-0.02480*%
%ADD32RR_32*%
%AMRR_33*21,1,0.05512,0.04961,0,0,270.000*21,1,0.04961,0.05512,0,0,270.000*1,1,0.00551,0.02480,-0.02480*1,1,0.00551,-0.02480,0.02480*1,1,0.00551,-0.02480,-0.02480*1,1,0.00551,0.02480,0.02480*%
%ADD33RR_33*%
%AMRR_34*21,1,0.06299,0.05039,0,0,180.000*21,1,0.05039,0.06299,0,0,180.000*1,1,0.01260,-0.02520,-0.02520*1,1,0.01260,0.02520,0.02520*1,1,0.01260,-0.02520,0.02520*1,1,0.01260,0.02520,-0.02520*%
%ADD34RR_34*%
%AMRR_35*21,1,0.07087,0.05669,0,0,0.000*21,1,0.05669,0.07087,0,0,0.000*1,1,0.01417,0.02835,0.02835*1,1,0.01417,-0.02835,-0.02835*1,1,0.01417,0.02835,-0.02835*1,1,0.01417,-0.02835,0.02835*%
%ADD35RR_35*%
%AMRR_36*21,1,0.07087,0.05669,0,0,90.000*21,1,0.05669,0.07087,0,0,90.000*1,1,0.01417,-0.02835,0.02835*1,1,0.01417,0.02835,-0.02835*1,1,0.01417,0.02835,0.02835*1,1,0.01417,-0.02835,-0.02835*%
%ADD36RR_36*%
%AMRR_37*21,1,0.13780,0.07087,0,0,180.000*21,1,0.12992,0.07874,0,0,180.000*1,1,0.00787,-0.06496,-0.03543*1,1,0.00787,0.06496,0.03543*1,1,0.00787,-0.06496,0.03543*1,1,0.00787,0.06496,-0.03543*%
%ADD37RR_37*%
G54D12*
X86992Y2677D02*
X85397Y1082D01*
X98917Y1082D01*
X98917Y53917D01*
X1082Y53917D01*
X1082Y1082D01*
X8352Y1082D01*
X4448Y4986D01*
X4448Y11889D01*
X3100Y11889D01*
X1889Y13100D01*
X1889Y21899D01*
X3100Y23110D01*
X3651Y23110D01*
X1889Y24872D01*
X1889Y30127D01*
X4872Y33110D01*
X10127Y33110D01*
X13110Y30127D01*
X13110Y24872D01*
X11348Y23110D01*
X11899Y23110D01*
X13110Y21899D01*
X13110Y20551D01*
X16263Y20551D01*
X16945Y19869D01*
X17677Y20600D01*
X17677Y23450D01*
X18203Y23976D01*
X18100Y23976D01*
X16889Y25187D01*
X16889Y31230D01*
X18100Y32440D01*
X26899Y32440D01*
X26909Y32430D01*
X26909Y34143D01*
X28907Y36141D01*
X29862Y36141D01*
X29862Y38996D01*
X29458Y38996D01*
X28248Y40206D01*
X28248Y41948D01*
X15610Y41948D01*
X15610Y40600D01*
X14399Y39389D01*
X5600Y39389D01*
X4389Y40600D01*
X4389Y49399D01*
X5600Y50610D01*
X14399Y50610D01*
X15610Y49399D01*
X15610Y48051D01*
X28248Y48051D01*
X28248Y49793D01*
X29458Y51003D01*
X44950Y51003D01*
X46161Y49793D01*
X46161Y40206D01*
X45255Y39301D01*
X47513Y39301D01*
X54492Y32322D01*
X56082Y32322D01*
X56082Y34143D01*
X58080Y36141D01*
X66092Y36141D01*
X68090Y34143D01*
X68090Y30856D01*
X67234Y30000D01*
X68090Y29143D01*
X68090Y25856D01*
X67234Y25000D01*
X68090Y24143D01*
X68090Y20856D01*
X67627Y20393D01*
X68090Y19930D01*
X68090Y15069D01*
X66879Y13858D01*
X65137Y13858D01*
X65137Y11677D01*
X66145Y10669D01*
X67799Y12322D01*
X79412Y12322D01*
X80000Y11734D01*
X80587Y12322D01*
X87667Y12322D01*
X86889Y13100D01*
X86889Y21899D01*
X88100Y23110D01*
X88651Y23110D01*
X87824Y23937D01*
X87745Y23858D01*
X81309Y23858D01*
X80098Y25069D01*
X80098Y28188D01*
X79281Y28188D01*
X78690Y27598D01*
X72254Y27598D01*
X71043Y28809D01*
X71043Y33671D01*
X72254Y34881D01*
X78690Y34881D01*
X79281Y34291D01*
X82476Y34291D01*
X82677Y34492D01*
X82677Y37200D01*
X85299Y39822D01*
X86939Y39822D01*
X84389Y42372D01*
X84389Y47627D01*
X87372Y50610D01*
X92627Y50610D01*
X95610Y47627D01*
X95610Y42372D01*
X92627Y39389D01*
X90133Y39389D01*
X92322Y37200D01*
X92322Y33110D01*
X95127Y33110D01*
X98110Y30127D01*
X98110Y24872D01*
X96348Y23110D01*
X96899Y23110D01*
X98110Y21899D01*
X98110Y13100D01*
X96899Y11889D01*
X95551Y11889D01*
X95551Y8736D01*
X91263Y4448D01*
X89022Y4448D01*
X89022Y3887D01*
X87812Y2677D01*
X86992Y2677D01*
X72254Y20118D02*
X71043Y21328D01*
X71043Y26190D01*
X72254Y27401D01*
X78690Y27401D01*
X79901Y26190D01*
X79901Y21328D01*
X78690Y20118D01*
X72254Y20118D01*
X55049Y38996D02*
X53838Y40206D01*
X53838Y49793D01*
X55049Y51003D01*
X70541Y51003D01*
X71751Y49793D01*
X71751Y40206D01*
X70541Y38996D01*
X55049Y38996D01*
X19727Y11112D02*
X20937Y12322D01*
X28162Y12322D01*
X28750Y11734D01*
X29337Y12322D01*
X29898Y12322D01*
X29898Y13858D01*
X28907Y13858D01*
X28317Y14448D01*
X28110Y14448D01*
X28110Y13769D01*
X26899Y12559D01*
X18100Y12559D01*
X16919Y13740D01*
X14444Y13740D01*
X13736Y14448D01*
X13110Y14448D01*
X13110Y13100D01*
X11899Y11889D01*
X10551Y11889D01*
X10551Y7513D01*
X12513Y5551D01*
X19727Y5551D01*
X19727Y11112D01*
G54D16*
X7500Y16791D02*
X7500Y17500D01*
X23208Y17500D02*
X32913Y17500D01*
X23208Y17500D02*
X22500Y16791D01*
X32913Y17500D02*
X33300Y17500D01*
X84200Y7500D02*
X90000Y7500D01*
X92500Y10000D01*
X92500Y17500D01*
X22500Y16791D02*
X22500Y21250D01*
X7500Y17500D02*
X15000Y17500D01*
X15708Y16791D01*
X22500Y16791D01*
X32950Y7500D02*
X32950Y17463D01*
X32913Y17500D01*
X7500Y17500D02*
X7500Y6250D01*
X11250Y2500D01*
X82500Y2500D01*
X84200Y4200D01*
X84200Y7500D01*
X40000Y36250D02*
X46250Y36250D01*
X55000Y27500D01*
X62795Y45000D02*
X90000Y45000D01*
X62086Y32500D02*
X62086Y45000D01*
X62795Y45000D01*
X7500Y28208D02*
X7500Y27500D01*
X62086Y32500D02*
X67500Y32500D01*
X70000Y30000D01*
X71240Y23759D02*
X75472Y23759D01*
X71240Y23759D02*
X70000Y25000D01*
X70000Y30000D01*
X7500Y27500D02*
X15000Y27500D01*
X22500Y28208D02*
X15708Y28208D01*
X15000Y27500D01*
X62500Y45000D02*
X62795Y45000D01*
X24550Y7500D02*
X17500Y7500D01*
X87500Y35000D02*
X83740Y31240D01*
X75472Y31240D01*
X40000Y22500D02*
X32913Y22500D01*
X40000Y22500D02*
X45000Y17500D01*
X37204Y45000D02*
X32913Y45000D01*
X10000Y45000D02*
X32913Y45000D01*
X32913Y32500D01*
X32913Y45000D02*
X37204Y45000D01*
X37500Y45000D02*
X37204Y45000D01*
X45000Y27500D02*
X32913Y27500D01*
X45000Y27500D02*
X55000Y17500D01*
X62086Y10413D02*
X62086Y17500D01*
X62086Y10413D02*
X65000Y7500D01*
X70000Y7500D01*
X75800Y7500D02*
X70000Y7500D01*
X75800Y7500D01*
X84527Y27500D02*
X92500Y27500D01*
G54D23*
X62086Y22500D03*
X62086Y27500D03*
X62086Y32500D03*
X32913Y32500D03*
X32913Y27500D03*
X32913Y22500D03*
X32913Y17500D03*
G54D24*
X22500Y21250D03*
X40000Y36250D03*
X55000Y27500D03*
X17500Y7500D03*
X20000Y50000D03*
X13750Y35000D03*
X50000Y50000D03*
X82500Y16250D03*
X52500Y37500D03*
X95000Y36250D03*
X96250Y3750D03*
X87500Y35000D03*
X45000Y17500D03*
X37500Y45000D03*
X55000Y17500D03*
X70000Y7500D03*
G54D26*
X90000Y45000D03*
G54D27*
X92500Y27500D03*
X7500Y27500D03*
G54D28*
X75472Y31240D03*
X75472Y23759D03*
X84527Y27500D03*
G54D29*
X62086Y17500D03*
G54D30*
X22500Y16791D03*
X22500Y28208D03*
G54D31*
X84200Y7500D03*
X75800Y7500D03*
X32950Y7500D03*
X24550Y7500D03*
G54D35*
X10000Y45000D03*
G54D36*
X92500Y17500D03*
X7500Y17500D03*
G54D37*
X62795Y45000D03*
X37204Y45000D03*
G36*
X90000Y44081D02*
X90000Y45918D01*
X95610Y45918D01*
X95610Y44081D01*
X90000Y44081D01*
G37*
G36*
X84389Y44081D02*
X84389Y45918D01*
X90000Y45918D01*
X90000Y44081D01*
X84389Y44081D01*
G37*
G36*
X89081Y45000D02*
X89081Y50610D01*
X90918Y50610D01*
X90918Y45000D01*
X89081Y45000D01*
G37*
G36*
X61102Y32500D02*
X61102Y36141D01*
X63070Y36141D01*
X63070Y32500D01*
X61102Y32500D01*
G37*
G36*
X56082Y32007D02*
X56082Y32992D01*
X62086Y32992D01*
X62086Y32007D01*
X56082Y32007D01*
G37*
G36*
X62086Y31515D02*
X62086Y33484D01*
X68090Y33484D01*
X68090Y31515D01*
X62086Y31515D01*
G37*
G36*
X74488Y20118D02*
X74488Y23759D01*
X76456Y23759D01*
X76456Y20118D01*
X74488Y20118D01*
G37*
G36*
X74488Y23759D02*
X74488Y27401D01*
X76456Y27401D01*
X76456Y23759D01*
X74488Y23759D01*
G37*
G36*
X75472Y22775D02*
X75472Y24744D01*
X79901Y24744D01*
X79901Y22775D01*
X75472Y22775D01*
G37*
G36*
X71043Y22775D02*
X71043Y24744D01*
X75472Y24744D01*
X75472Y22775D01*
X71043Y22775D01*
G37*
G36*
X19727Y6515D02*
X19727Y8484D01*
X24550Y8484D01*
X24550Y6515D01*
X19727Y6515D01*
G37*
G36*
X23565Y7500D02*
X23565Y12322D01*
X25534Y12322D01*
X25534Y7500D01*
X23565Y7500D01*
G37*
G36*
X6515Y27500D02*
X6515Y33110D01*
X8484Y33110D01*
X8484Y27500D01*
X6515Y27500D01*
G37*
G36*
X1889Y26515D02*
X1889Y28484D01*
X7500Y28484D01*
X7500Y26515D01*
X1889Y26515D01*
G37*
G36*
X7500Y26515D02*
X7500Y28484D01*
X13110Y28484D01*
X13110Y26515D01*
X7500Y26515D01*
G37*
G36*
X21515Y28208D02*
X21515Y32440D01*
X23484Y32440D01*
X23484Y28208D01*
X21515Y28208D01*
G37*
G36*
X16889Y27224D02*
X16889Y29192D01*
X22500Y29192D01*
X22500Y27224D01*
X16889Y27224D01*
G37*
G36*
X53838Y44015D02*
X53838Y45984D01*
X62795Y45984D01*
X62795Y44015D01*
X53838Y44015D01*
G37*
G36*
X62795Y44015D02*
X62795Y45984D01*
X71751Y45984D01*
X71751Y44015D01*
X62795Y44015D01*
G37*
G36*
X61811Y38996D02*
X61811Y45000D01*
X63779Y45000D01*
X63779Y38996D01*
X61811Y38996D01*
G37*
G36*
X61811Y45000D02*
X61811Y51003D01*
X63779Y51003D01*
X63779Y45000D01*
X61811Y45000D01*
G37*
G36*
X29458Y51003D02*
X1082Y53917D01*
X98917Y53917D01*
X29458Y51003D01*
G37*
G36*
X44950Y51003D02*
X29458Y51003D01*
X98917Y53917D01*
X44950Y51003D01*
G37*
G36*
X55049Y51003D02*
X44950Y51003D01*
X98917Y53917D01*
X55049Y51003D01*
G37*
G36*
X70541Y51003D02*
X55049Y51003D01*
X98917Y53917D01*
X70541Y51003D01*
G37*
G36*
X5600Y50610D02*
X1082Y53917D01*
X29458Y51003D01*
X5600Y50610D01*
G37*
G36*
X14399Y50610D02*
X5600Y50610D01*
X29458Y51003D01*
X14399Y50610D01*
G37*
G36*
X87372Y50610D02*
X70541Y51003D01*
X98917Y53917D01*
X87372Y50610D01*
G37*
G36*
X92627Y50610D02*
X87372Y50610D01*
X98917Y53917D01*
X92627Y50610D01*
G37*
G36*
X28248Y49793D02*
X14399Y50610D01*
X29458Y51003D01*
X28248Y49793D01*
G37*
G36*
X46161Y49793D02*
X44950Y51003D01*
X55049Y51003D01*
X46161Y49793D01*
G37*
G36*
X53838Y49793D02*
X46161Y49793D01*
X55049Y51003D01*
X53838Y49793D01*
G37*
G36*
X71751Y49793D02*
X70541Y51003D01*
X87372Y50610D01*
X71751Y49793D01*
G37*
G36*
X4389Y49399D02*
X1082Y53917D01*
X5600Y50610D01*
X4389Y49399D01*
G37*
G36*
X15610Y49399D02*
X14399Y50610D01*
X28248Y49793D01*
X15610Y49399D01*
G37*
G36*
X15610Y48051D02*
X15610Y49399D01*
X28248Y49793D01*
X15610Y48051D01*
G37*
G36*
X28248Y48051D02*
X15610Y48051D01*
X28248Y49793D01*
X28248Y48051D01*
G37*
G36*
X84389Y47627D02*
X71751Y49793D01*
X87372Y50610D01*
X84389Y47627D01*
G37*
G36*
X95610Y47627D02*
X92627Y50610D01*
X98917Y53917D01*
X95610Y47627D01*
G37*
G36*
X84389Y42372D02*
X71751Y49793D01*
X84389Y47627D01*
X84389Y42372D01*
G37*
G36*
X95610Y42372D02*
X95610Y47627D01*
X98917Y53917D01*
X95610Y42372D01*
G37*
G36*
X4389Y40600D02*
X1082Y53917D01*
X4389Y49399D01*
X4389Y40600D01*
G37*
G36*
X15610Y40600D02*
X15610Y41948D01*
X28248Y41948D01*
X15610Y40600D01*
G37*
G36*
X28248Y40206D02*
X15610Y40600D01*
X28248Y41948D01*
X28248Y40206D01*
G37*
G36*
X46161Y40206D02*
X46161Y49793D01*
X53838Y49793D01*
X46161Y40206D01*
G37*
G36*
X53838Y40206D02*
X46161Y40206D01*
X53838Y49793D01*
X53838Y40206D01*
G37*
G36*
X71751Y40206D02*
X71751Y49793D01*
X84389Y42372D01*
X71751Y40206D01*
G37*
G36*
X86939Y39822D02*
X71751Y40206D01*
X84389Y42372D01*
X86939Y39822D01*
G37*
G36*
X85299Y39822D02*
X71751Y40206D01*
X86939Y39822D01*
X85299Y39822D01*
G37*
G36*
X14399Y39389D02*
X15610Y40600D01*
X28248Y40206D01*
X14399Y39389D01*
G37*
G36*
X45255Y39301D02*
X46161Y40206D01*
X53838Y40206D01*
X45255Y39301D01*
G37*
G36*
X47513Y39301D02*
X45255Y39301D01*
X53838Y40206D01*
X47513Y39301D01*
G37*
G36*
X29458Y38996D02*
X14399Y39389D01*
X28248Y40206D01*
X29458Y38996D01*
G37*
G36*
X29458Y38996D02*
X5600Y39389D01*
X14399Y39389D01*
X29458Y38996D01*
G37*
G36*
X55049Y38996D02*
X47513Y39301D01*
X53838Y40206D01*
X55049Y38996D01*
G37*
G36*
X70541Y38996D02*
X71751Y40206D01*
X85299Y39822D01*
X70541Y38996D01*
G37*
G36*
X82677Y37200D02*
X70541Y38996D01*
X85299Y39822D01*
X82677Y37200D01*
G37*
G36*
X82677Y37200D02*
X55049Y38996D01*
X70541Y38996D01*
X82677Y37200D01*
G37*
G36*
X82677Y37200D02*
X47513Y39301D01*
X55049Y38996D01*
X82677Y37200D01*
G37*
G36*
X92322Y37200D02*
X90133Y39389D01*
X92627Y39389D01*
X92322Y37200D01*
G37*
G36*
X92322Y37200D02*
X92627Y39389D01*
X95610Y42372D01*
X92322Y37200D01*
G37*
G36*
X28907Y36141D02*
X29458Y38996D01*
X29862Y38996D01*
X28907Y36141D01*
G37*
G36*
X28907Y36141D02*
X5600Y39389D01*
X29458Y38996D01*
X28907Y36141D01*
G37*
G36*
X29862Y36141D02*
X28907Y36141D01*
X29862Y38996D01*
X29862Y36141D01*
G37*
G36*
X58080Y36141D02*
X47513Y39301D01*
X82677Y37200D01*
X58080Y36141D01*
G37*
G36*
X66092Y36141D02*
X58080Y36141D01*
X82677Y37200D01*
X66092Y36141D01*
G37*
G36*
X72254Y34881D02*
X66092Y36141D01*
X82677Y37200D01*
X72254Y34881D01*
G37*
G36*
X78690Y34881D02*
X72254Y34881D01*
X82677Y37200D01*
X78690Y34881D01*
G37*
G36*
X82677Y34492D02*
X78690Y34881D01*
X82677Y37200D01*
X82677Y34492D01*
G37*
G36*
X79281Y34291D02*
X78690Y34881D01*
X82677Y34492D01*
X79281Y34291D01*
G37*
G36*
X82476Y34291D02*
X79281Y34291D01*
X82677Y34492D01*
X82476Y34291D01*
G37*
G36*
X26909Y34143D02*
X5600Y39389D01*
X28907Y36141D01*
X26909Y34143D01*
G37*
G36*
X56082Y34143D02*
X47513Y39301D01*
X58080Y36141D01*
X56082Y34143D01*
G37*
G36*
X68090Y34143D02*
X66092Y36141D01*
X72254Y34881D01*
X68090Y34143D01*
G37*
G36*
X71043Y33671D02*
X68090Y34143D01*
X72254Y34881D01*
X71043Y33671D01*
G37*
G36*
X4872Y33110D02*
X5600Y39389D01*
X26909Y34143D01*
X4872Y33110D01*
G37*
G36*
X4872Y33110D02*
X4389Y40600D01*
X5600Y39389D01*
X4872Y33110D01*
G37*
G36*
X4872Y33110D02*
X1082Y53917D01*
X4389Y40600D01*
X4872Y33110D01*
G37*
G36*
X10127Y33110D02*
X4872Y33110D01*
X26909Y34143D01*
X10127Y33110D01*
G37*
G36*
X92322Y33110D02*
X92322Y37200D01*
X95610Y42372D01*
X92322Y33110D01*
G37*
G36*
X95127Y33110D02*
X92322Y33110D01*
X95610Y42372D01*
X95127Y33110D01*
G37*
G36*
X95127Y33110D02*
X95610Y42372D01*
X98917Y53917D01*
X95127Y33110D01*
G37*
G36*
X18100Y32440D02*
X10127Y33110D01*
X26909Y34143D01*
X18100Y32440D01*
G37*
G36*
X26899Y32440D02*
X18100Y32440D01*
X26909Y34143D01*
X26899Y32440D01*
G37*
G36*
X26909Y32431D02*
X26899Y32440D01*
X26909Y34143D01*
X26909Y32431D01*
G37*
G36*
X54492Y32322D02*
X47513Y39301D01*
X56082Y34143D01*
X54492Y32322D01*
G37*
G36*
X56082Y32322D02*
X54492Y32322D01*
X56082Y34143D01*
X56082Y32322D01*
G37*
G36*
X16889Y31230D02*
X10127Y33110D01*
X18100Y32440D01*
X16889Y31230D01*
G37*
G36*
X68090Y30856D02*
X68090Y34143D01*
X71043Y33671D01*
X68090Y30856D01*
G37*
G36*
X1889Y30127D02*
X1082Y53917D01*
X4872Y33110D01*
X1889Y30127D01*
G37*
G36*
X13110Y30127D02*
X10127Y33110D01*
X16889Y31230D01*
X13110Y30127D01*
G37*
G36*
X98110Y30127D02*
X95127Y33110D01*
X98917Y53917D01*
X98110Y30127D01*
G37*
G36*
X67234Y30000D02*
X68090Y30856D01*
X71043Y33671D01*
X67234Y30000D01*
G37*
G36*
X68090Y29143D02*
X67234Y30000D01*
X71043Y33671D01*
X68090Y29143D01*
G37*
G36*
X71043Y28809D02*
X68090Y29143D01*
X71043Y33671D01*
X71043Y28809D01*
G37*
G36*
X72254Y27598D02*
X68090Y29143D01*
X71043Y28809D01*
X72254Y27598D01*
G37*
G36*
X78690Y27598D02*
X79281Y28188D01*
X80098Y28188D01*
X78690Y27598D01*
G37*
G36*
X72254Y27401D02*
X72254Y27598D01*
X78690Y27598D01*
X72254Y27401D01*
G37*
G36*
X72254Y27401D02*
X68090Y29143D01*
X72254Y27598D01*
X72254Y27401D01*
G37*
G36*
X78690Y27401D02*
X72254Y27401D01*
X78690Y27598D01*
X78690Y27401D01*
G37*
G36*
X78690Y27401D02*
X78690Y27598D01*
X80098Y28188D01*
X78690Y27401D01*
G37*
G36*
X71043Y26190D02*
X68090Y29143D01*
X72254Y27401D01*
X71043Y26190D01*
G37*
G36*
X79901Y26190D02*
X78690Y27401D01*
X80098Y28188D01*
X79901Y26190D01*
G37*
G36*
X68090Y25856D02*
X68090Y29143D01*
X71043Y26190D01*
X68090Y25856D01*
G37*
G36*
X16889Y25187D02*
X13110Y30127D01*
X16889Y31230D01*
X16889Y25187D01*
G37*
G36*
X80098Y25069D02*
X79901Y26190D01*
X80098Y28188D01*
X80098Y25069D01*
G37*
G36*
X67234Y25000D02*
X68090Y25856D01*
X71043Y26190D01*
X67234Y25000D01*
G37*
G36*
X1889Y24872D02*
X1082Y53917D01*
X1889Y30127D01*
X1889Y24872D01*
G37*
G36*
X13110Y24872D02*
X13110Y30127D01*
X16889Y25187D01*
X13110Y24872D01*
G37*
G36*
X98110Y24872D02*
X98110Y30127D01*
X98917Y53917D01*
X98110Y24872D01*
G37*
G36*
X68090Y24143D02*
X67234Y25000D01*
X71043Y26190D01*
X68090Y24143D01*
G37*
G36*
X18100Y23976D02*
X13110Y24872D01*
X16889Y25187D01*
X18100Y23976D01*
G37*
G36*
X17677Y23450D02*
X18100Y23976D01*
X18203Y23976D01*
X17677Y23450D01*
G37*
G36*
X17677Y23450D02*
X13110Y24872D01*
X18100Y23976D01*
X17677Y23450D01*
G37*
G36*
X88651Y23110D02*
X87745Y23858D01*
X87824Y23937D01*
X88651Y23110D01*
G37*
G36*
X88651Y23110D02*
X81309Y23858D01*
X87745Y23858D01*
X88651Y23110D01*
G37*
G36*
X3100Y23110D02*
X1889Y24872D01*
X3651Y23110D01*
X3100Y23110D01*
G37*
G36*
X11348Y23110D02*
X13110Y24872D01*
X17677Y23450D01*
X11348Y23110D01*
G37*
G36*
X11899Y23110D02*
X11348Y23110D01*
X17677Y23450D01*
X11899Y23110D01*
G37*
G36*
X88100Y23110D02*
X81309Y23858D01*
X88651Y23110D01*
X88100Y23110D01*
G37*
G36*
X96899Y23110D02*
X96348Y23110D01*
X98110Y24872D01*
X96899Y23110D01*
G37*
G36*
X1889Y21899D02*
X1889Y24872D01*
X3100Y23110D01*
X1889Y21899D01*
G37*
G36*
X1889Y21899D02*
X1082Y53917D01*
X1889Y24872D01*
X1889Y21899D01*
G37*
G36*
X13110Y21899D02*
X11899Y23110D01*
X17677Y23450D01*
X13110Y21899D01*
G37*
G36*
X86889Y21899D02*
X81309Y23858D01*
X88100Y23110D01*
X86889Y21899D01*
G37*
G36*
X98110Y21899D02*
X96899Y23110D01*
X98110Y24872D01*
X98110Y21899D01*
G37*
G36*
X98110Y21899D02*
X98110Y24872D01*
X98917Y53917D01*
X98110Y21899D01*
G37*
G36*
X71043Y21328D02*
X68090Y24143D01*
X71043Y26190D01*
X71043Y21328D01*
G37*
G36*
X79901Y21328D02*
X79901Y26190D01*
X80098Y25069D01*
X79901Y21328D01*
G37*
G36*
X79901Y21328D02*
X80098Y25069D01*
X81309Y23858D01*
X79901Y21328D01*
G37*
G36*
X79901Y21328D02*
X81309Y23858D01*
X86889Y21899D01*
X79901Y21328D01*
G37*
G36*
X68090Y20856D02*
X68090Y24143D01*
X71043Y21328D01*
X68090Y20856D01*
G37*
G36*
X17677Y20600D02*
X13110Y21899D01*
X17677Y23450D01*
X17677Y20600D01*
G37*
G36*
X13110Y20551D02*
X13110Y21899D01*
X17677Y20600D01*
X13110Y20551D01*
G37*
G36*
X16263Y20551D02*
X13110Y20551D01*
X17677Y20600D01*
X16263Y20551D01*
G37*
G36*
X67627Y20393D02*
X68090Y20856D01*
X71043Y21328D01*
X67627Y20393D01*
G37*
G36*
X72254Y20118D02*
X67627Y20393D01*
X71043Y21328D01*
X72254Y20118D01*
G37*
G36*
X78690Y20118D02*
X79901Y21328D01*
X86889Y21899D01*
X78690Y20118D01*
G37*
G36*
X68090Y19930D02*
X67627Y20393D01*
X72254Y20118D01*
X68090Y19930D01*
G37*
G36*
X68090Y19930D02*
X72254Y20118D01*
X78690Y20118D01*
X68090Y19930D01*
G37*
G36*
X16945Y19869D02*
X16263Y20551D01*
X17677Y20600D01*
X16945Y19869D01*
G37*
G36*
X68090Y15069D02*
X68090Y19930D01*
X78690Y20118D01*
X68090Y15069D01*
G37*
G36*
X68090Y15069D02*
X78690Y20118D01*
X86889Y21899D01*
X68090Y15069D01*
G37*
G36*
X66879Y13858D02*
X68090Y15069D01*
X86889Y21899D01*
X66879Y13858D01*
G37*
G36*
X1889Y13100D02*
X1082Y53917D01*
X1889Y21899D01*
X1889Y13100D01*
G37*
G36*
X86889Y13100D02*
X66879Y13858D01*
X86889Y21899D01*
X86889Y13100D01*
G37*
G36*
X86889Y13100D02*
X65137Y13858D01*
X66879Y13858D01*
X86889Y13100D01*
G37*
G36*
X98110Y13100D02*
X98110Y21899D01*
X98917Y53917D01*
X98110Y13100D01*
G37*
G36*
X67799Y12322D02*
X65137Y13858D01*
X86889Y13100D01*
X67799Y12322D01*
G37*
G36*
X79412Y12322D02*
X67799Y12322D01*
X86889Y13100D01*
X79412Y12322D01*
G37*
G36*
X80587Y12322D02*
X79412Y12322D01*
X86889Y13100D01*
X80587Y12322D01*
G37*
G36*
X87667Y12322D02*
X80587Y12322D01*
X86889Y13100D01*
X87667Y12322D01*
G37*
G36*
X80000Y11734D02*
X79412Y12322D01*
X80587Y12322D01*
X80000Y11734D01*
G37*
G36*
X65137Y11677D02*
X65137Y13858D01*
X67799Y12322D01*
X65137Y11677D01*
G37*
G36*
X66145Y10669D02*
X65137Y11677D01*
X67799Y12322D01*
X66145Y10669D01*
G37*
G36*
X95551Y8736D02*
X95551Y11889D01*
X96899Y11889D01*
X95551Y8736D01*
G37*
G36*
X95551Y8736D02*
X96899Y11889D01*
X98110Y13100D01*
X95551Y8736D01*
G37*
G36*
X4448Y4986D02*
X3100Y11889D01*
X4448Y11889D01*
X4448Y4986D01*
G37*
G36*
X4448Y4986D02*
X1889Y13100D01*
X3100Y11889D01*
X4448Y4986D01*
G37*
G36*
X89022Y3887D02*
X89022Y4448D01*
X91263Y4448D01*
X89022Y3887D01*
G37*
G36*
X87812Y2677D02*
X89022Y3887D01*
X91263Y4448D01*
X87812Y2677D01*
G37*
G36*
X85397Y1082D02*
X86992Y2677D01*
X87812Y2677D01*
X85397Y1082D01*
G37*
G36*
X85397Y1082D02*
X87812Y2677D01*
X91263Y4448D01*
X85397Y1082D01*
G37*
G36*
X1082Y1082D02*
X1082Y53917D01*
X1889Y13100D01*
X1082Y1082D01*
G37*
G36*
X1082Y1082D02*
X1889Y13100D01*
X4448Y4986D01*
X1082Y1082D01*
G37*
G36*
X8352Y1082D02*
X1082Y1082D01*
X4448Y4986D01*
X8352Y1082D01*
G37*
G36*
X98917Y1082D02*
X85397Y1082D01*
X91263Y4448D01*
X98917Y1082D01*
G37*
G36*
X98917Y1082D02*
X91263Y4448D01*
X95551Y8736D01*
X98917Y1082D01*
G37*
G36*
X98917Y1082D02*
X95551Y8736D01*
X98110Y13100D01*
X98917Y1082D01*
G37*
G36*
X98917Y1082D02*
X98110Y13100D01*
X98917Y53917D01*
X98917Y1082D01*
G37*
G36*
X28907Y13858D02*
X28110Y14448D01*
X28317Y14448D01*
X28907Y13858D01*
G37*
G36*
X28110Y13769D02*
X28110Y14448D01*
X28907Y13858D01*
X28110Y13769D01*
G37*
G36*
X28110Y13769D02*
X28907Y13858D01*
X29898Y13858D01*
X28110Y13769D01*
G37*
G36*
X14444Y13740D02*
X13110Y14448D01*
X13736Y14448D01*
X14444Y13740D01*
G37*
G36*
X13110Y13100D02*
X13110Y14448D01*
X14444Y13740D01*
X13110Y13100D01*
G37*
G36*
X13110Y13100D02*
X14444Y13740D01*
X16919Y13740D01*
X13110Y13100D01*
G37*
G36*
X18100Y12559D02*
X13110Y13100D01*
X16919Y13740D01*
X18100Y12559D01*
G37*
G36*
X26899Y12559D02*
X28110Y13769D01*
X29898Y13858D01*
X26899Y12559D01*
G37*
G36*
X20937Y12322D02*
X18100Y12559D01*
X26899Y12559D01*
X20937Y12322D01*
G37*
G36*
X28162Y12322D02*
X20937Y12322D01*
X26899Y12559D01*
X28162Y12322D01*
G37*
G36*
X28162Y12322D02*
X26899Y12559D01*
X29898Y13858D01*
X28162Y12322D01*
G37*
G36*
X29337Y12322D02*
X28162Y12322D01*
X29898Y13858D01*
X29337Y12322D01*
G37*
G36*
X29898Y12322D02*
X29337Y12322D01*
X29898Y13858D01*
X29898Y12322D01*
G37*
G36*
X11899Y11889D02*
X13110Y13100D01*
X18100Y12559D01*
X11899Y11889D01*
G37*
G36*
X11899Y11889D02*
X18100Y12559D01*
X20937Y12322D01*
X11899Y11889D01*
G37*
G36*
X28750Y11734D02*
X28162Y12322D01*
X29337Y12322D01*
X28750Y11734D01*
G37*
G36*
X19727Y11112D02*
X11899Y11889D01*
X20937Y12322D01*
X19727Y11112D01*
G37*
G36*
X19727Y11112D02*
X10551Y11889D01*
X11899Y11889D01*
X19727Y11112D01*
G37*
G36*
X10551Y7513D02*
X10551Y11889D01*
X19727Y11112D01*
X10551Y7513D01*
G37*
G36*
X12513Y5551D02*
X10551Y7513D01*
X19727Y11112D01*
X12513Y5551D01*
G37*
G36*
X19727Y5551D02*
X12513Y5551D01*
X19727Y11112D01*
X19727Y5551D01*
G37*
M02*
