%FSLAX35Y35*%
%MOIN*%
%TF.FileFunction,Legend,Bot*%
%ADD10C,0.00197*%
%ADD11C,0.00295*%
%ADD12C,0.00984*%
%ADD13C,0.01024*%
%ADD14C,0.01181*%
%ADD15C,0.01575*%
%ADD16C,0.01969*%
%ADD17C,0.02362*%
%ADD18C,0.03150*%
%ADD19C,0.05000*%
%AMR_20*21,1,0.00984,0.00984,0,0,0.000*%
%ADD20R_20*%
%AMR_21*21,1,0.01837,0.01837,0,0,0.000*%
%ADD21R_21*%
%AMR_22*21,1,0.01969,0.01969,0,0,0.000*%
%ADD22R_22*%
%AMOCT_23*4,1,8,0.015748,0.031496,0.007874,0.039370,-0.007874,0.039370,-0.015748,0.031496,-0.015748,-0.031496,-0.007874,-0.039370,0.007874,-0.039370,0.015748,-0.031496,0.015748,0.031496,90.000*%
%ADD23OCT_23*%
%AMOCT_24*4,1,8,0.023622,0.011811,0.011811,0.023622,-0.011811,0.023622,-0.023622,0.011811,-0.023622,-0.011811,-0.011811,-0.023622,0.011811,-0.023622,0.023622,-0.011811,0.023622,0.011811,0.000*%
%ADD24OCT_24*%
%AMOCT_25*4,1,8,0.031496,0.015748,0.015748,0.031496,-0.015748,0.031496,-0.031496,0.015748,-0.031496,-0.015748,-0.015748,-0.031496,0.015748,-0.031496,0.031496,-0.015748,0.031496,0.015748,180.000*%
%ADD25OCT_25*%
%AMOCT_26*4,1,8,0.035433,0.017717,0.017717,0.035433,-0.017717,0.035433,-0.035433,0.017717,-0.035433,-0.017717,-0.017717,-0.035433,0.017717,-0.035433,0.035433,-0.017717,0.035433,0.017717,0.000*%
%ADD26OCT_26*%
%AMOCT_27*4,1,8,0.035433,0.017717,0.017717,0.035433,-0.017717,0.035433,-0.035433,0.017717,-0.035433,-0.017717,-0.017717,-0.035433,0.017717,-0.035433,0.035433,-0.017717,0.035433,0.017717,90.000*%
%ADD27OCT_27*%
%AMRR_28*21,1,0.03150,0.04409,0,0,270.000*21,1,0.02835,0.04724,0,0,270.000*1,1,0.00315,0.02205,-0.01417*1,1,0.00315,-0.02205,0.01417*1,1,0.00315,-0.02205,-0.01417*1,1,0.00315,0.02205,0.01417*%
%ADD28RR_28*%
%AMRR_29*21,1,0.03150,0.07244,0,0,90.000*21,1,0.02520,0.07874,0,0,90.000*1,1,0.00630,-0.03622,0.01260*1,1,0.00630,0.03622,-0.01260*1,1,0.00630,0.03622,0.01260*1,1,0.00630,-0.03622,-0.01260*%
%ADD29RR_29*%
%AMRR_30*21,1,0.04331,0.06654,0,0,270.000*21,1,0.03898,0.07087,0,0,270.000*1,1,0.00433,0.03327,-0.01949*1,1,0.00433,-0.03327,0.01949*1,1,0.00433,-0.03327,-0.01949*1,1,0.00433,0.03327,0.01949*%
%ADD30RR_30*%
%AMRR_31*21,1,0.05512,0.04961,0,0,0.000*21,1,0.04961,0.05512,0,0,0.000*1,1,0.00551,0.02480,0.02480*1,1,0.00551,-0.02480,-0.02480*1,1,0.00551,0.02480,-0.02480*1,1,0.00551,-0.02480,0.02480*%
%ADD31RR_31*%
%AMRR_32*21,1,0.05512,0.04961,0,0,180.000*21,1,0.04961,0.05512,0,0,180.000*1,1,0.00551,-0.02480,-0.02480*1,1,0.00551,0.02480,0.02480*1,1,0.00551,-0.02480,0.02480*1,1,0.00551,0.02480,-0.02480*%
%ADD32RR_32*%
%AMRR_33*21,1,0.05512,0.04961,0,0,270.000*21,1,0.04961,0.05512,0,0,270.000*1,1,0.00551,0.02480,-0.02480*1,1,0.00551,-0.02480,0.02480*1,1,0.00551,-0.02480,-0.02480*1,1,0.00551,0.02480,0.02480*%
%ADD33RR_33*%
%AMRR_34*21,1,0.06299,0.05039,0,0,180.000*21,1,0.05039,0.06299,0,0,180.000*1,1,0.01260,-0.02520,-0.02520*1,1,0.01260,0.02520,0.02520*1,1,0.01260,-0.02520,0.02520*1,1,0.01260,0.02520,-0.02520*%
%ADD34RR_34*%
%AMRR_35*21,1,0.07087,0.05669,0,0,0.000*21,1,0.05669,0.07087,0,0,0.000*1,1,0.01417,0.02835,0.02835*1,1,0.01417,-0.02835,-0.02835*1,1,0.01417,0.02835,-0.02835*1,1,0.01417,-0.02835,0.02835*%
%ADD35RR_35*%
%AMRR_36*21,1,0.07087,0.05669,0,0,90.000*21,1,0.05669,0.07087,0,0,90.000*1,1,0.01417,-0.02835,0.02835*1,1,0.01417,0.02835,-0.02835*1,1,0.01417,0.02835,0.02835*1,1,0.01417,-0.02835,-0.02835*%
%ADD36RR_36*%
%AMRR_37*21,1,0.13780,0.07087,0,0,180.000*21,1,0.12992,0.07874,0,0,180.000*1,1,0.00787,-0.06496,-0.03543*1,1,0.00787,0.06496,0.03543*1,1,0.00787,-0.06496,0.03543*1,1,0.00787,0.06496,-0.03543*%
%ADD37RR_37*%
G54D10*
X82047Y26937D02*
X82047Y23394D01*
X82105Y23255D01*
X82244Y23197D01*
X82383Y23255D01*
X82441Y23394D01*
X82441Y26937D01*
X82383Y27076D01*
X82244Y27134D01*
X82105Y27076D01*
X82047Y26937D01*
X82063Y23355D02*
X82424Y23355D01*
X82047Y23512D02*
X82441Y23512D01*
X82047Y23669D02*
X82441Y23669D01*
X82047Y23827D02*
X82441Y23827D01*
X82047Y23984D02*
X82441Y23984D01*
X82047Y24142D02*
X82441Y24142D01*
X82047Y24299D02*
X82441Y24299D01*
X82047Y24457D02*
X82441Y24457D01*
X82047Y24614D02*
X82441Y24614D01*
X82047Y24772D02*
X82441Y24772D01*
X82047Y24929D02*
X82441Y24929D01*
X82047Y25087D02*
X82441Y25087D01*
X82047Y25244D02*
X82441Y25244D01*
X82047Y25402D02*
X82441Y25402D01*
X82047Y25559D02*
X82441Y25559D01*
X82047Y25717D02*
X82441Y25717D01*
X82047Y25874D02*
X82441Y25874D01*
X82047Y26032D02*
X82441Y26032D01*
X82047Y26189D02*
X82441Y26189D01*
X82047Y26347D02*
X82441Y26347D01*
X82047Y26504D02*
X82441Y26504D01*
X82047Y26662D02*
X82441Y26662D01*
X82047Y26819D02*
X82441Y26819D01*
X82063Y26977D02*
X82424Y26977D01*
X82244Y27134D02*
X82244Y27134D01*
X81378Y26740D02*
X82244Y26740D01*
X82383Y26798D01*
X82441Y26937D01*
X82383Y27076D01*
X82244Y27134D01*
X81378Y27134D01*
X81239Y27076D01*
X81181Y26937D01*
X81239Y26798D01*
X81378Y26740D01*
X81197Y26898D02*
X82424Y26898D01*
X81230Y27055D02*
X82392Y27055D01*
X80986Y26648D02*
X81429Y26767D01*
X81548Y26858D01*
X81568Y27008D01*
X81476Y27127D01*
X81327Y27147D01*
X80884Y27028D01*
X80764Y26937D01*
X80745Y26787D01*
X80836Y26668D01*
X80986Y26648D01*
X80747Y26806D02*
X81479Y26806D01*
X80799Y26963D02*
X81562Y26963D01*
X81228Y27120D02*
X81481Y27120D01*
X80750Y26375D02*
X81074Y26699D01*
X81132Y26838D01*
X81074Y26977D01*
X80935Y27035D01*
X80796Y26977D01*
X80471Y26653D01*
X80414Y26514D01*
X80471Y26375D01*
X80611Y26317D01*
X80750Y26375D01*
X80430Y26475D02*
X80850Y26475D01*
X80463Y26632D02*
X81007Y26632D01*
X80608Y26790D02*
X81112Y26790D01*
X80765Y26947D02*
X81087Y26947D01*
X80682Y26020D02*
X80801Y26463D01*
X80781Y26612D01*
X80662Y26704D01*
X80512Y26684D01*
X80421Y26565D01*
X80302Y26122D01*
X80322Y25973D01*
X80441Y25881D01*
X80590Y25901D01*
X80682Y26020D01*
X80313Y26038D02*
X80687Y26038D01*
X80322Y26196D02*
X80729Y26196D01*
X80364Y26353D02*
X80771Y26353D01*
X80406Y26511D02*
X80795Y26511D01*
X80500Y26668D02*
X80708Y26668D01*
X80801Y25679D02*
X80682Y26122D01*
X80590Y26242D01*
X80441Y26261D01*
X80322Y26169D01*
X80302Y26020D01*
X80421Y25577D01*
X80512Y25458D01*
X80662Y25438D01*
X80781Y25530D01*
X80801Y25679D01*
X80416Y25595D02*
X80790Y25595D01*
X80373Y25753D02*
X80781Y25753D01*
X80331Y25910D02*
X80739Y25910D01*
X80308Y26068D02*
X80697Y26068D01*
X80394Y26225D02*
X80603Y26225D01*
X81074Y25443D02*
X80750Y25767D01*
X80611Y25825D01*
X80471Y25767D01*
X80414Y25628D01*
X80471Y25489D01*
X80796Y25165D01*
X80935Y25107D01*
X81074Y25165D01*
X81132Y25304D01*
X81074Y25443D01*
X80696Y25265D02*
X81115Y25265D01*
X80538Y25422D02*
X81083Y25422D01*
X80434Y25579D02*
X80938Y25579D01*
X80459Y25737D02*
X80780Y25737D01*
X81429Y25375D02*
X80986Y25494D01*
X80836Y25474D01*
X80745Y25355D01*
X80764Y25205D01*
X80884Y25114D01*
X81327Y24995D01*
X81476Y25015D01*
X81568Y25134D01*
X81548Y25284D01*
X81429Y25375D01*
X80833Y25153D02*
X81566Y25153D01*
X80751Y25310D02*
X81514Y25310D01*
X80831Y25468D02*
X81085Y25468D01*
X82244Y25362D02*
X81378Y25362D01*
X81239Y25305D01*
X81181Y25166D01*
X81239Y25026D01*
X81378Y24969D01*
X82244Y24969D01*
X82383Y25026D01*
X82441Y25166D01*
X82383Y25305D01*
X82244Y25362D01*
X81197Y25126D02*
X82424Y25126D01*
X81230Y25284D02*
X82392Y25284D01*
X80648Y23304D02*
X81553Y25076D01*
X81565Y25226D01*
X81467Y25341D01*
X81317Y25353D01*
X81203Y25255D01*
X80297Y23483D01*
X80285Y23333D01*
X80383Y23219D01*
X80533Y23207D01*
X80648Y23304D01*
X80287Y23364D02*
X80678Y23364D01*
X80316Y23522D02*
X80759Y23522D01*
X80397Y23679D02*
X80839Y23679D01*
X80477Y23837D02*
X80920Y23837D01*
X80558Y23994D02*
X81000Y23994D01*
X80638Y24151D02*
X81081Y24151D01*
X80719Y24309D02*
X81161Y24309D01*
X80799Y24466D02*
X81242Y24466D01*
X80880Y24624D02*
X81322Y24624D01*
X80960Y24781D02*
X81403Y24781D01*
X81041Y24939D02*
X81483Y24939D01*
X81121Y25096D02*
X81555Y25096D01*
X81202Y25254D02*
X81541Y25254D01*
X78356Y23799D02*
X78261Y24153D01*
X78169Y24273D01*
X78020Y24293D01*
X77900Y24201D01*
X77881Y24052D01*
X77976Y23697D01*
X78067Y23578D01*
X78217Y23558D01*
X78336Y23650D01*
X78356Y23799D01*
X77971Y23716D02*
X78345Y23716D01*
X77928Y23873D02*
X78336Y23873D01*
X77886Y24031D02*
X78294Y24031D01*
X77899Y24188D02*
X78234Y24188D01*
X78564Y23628D02*
X78305Y23887D01*
X78166Y23945D01*
X78026Y23887D01*
X77969Y23748D01*
X78026Y23609D01*
X78286Y23350D01*
X78425Y23292D01*
X78564Y23350D01*
X78622Y23489D01*
X78564Y23628D01*
X78186Y23449D02*
X78606Y23449D01*
X78029Y23607D02*
X78573Y23607D01*
X77976Y23764D02*
X78428Y23764D01*
X78110Y23922D02*
X78222Y23922D01*
X78830Y23584D02*
X78476Y23679D01*
X78327Y23659D01*
X78235Y23540D01*
X78255Y23390D01*
X78374Y23299D01*
X78728Y23204D01*
X78878Y23223D01*
X78970Y23343D01*
X78950Y23492D01*
X78830Y23584D01*
X78293Y23361D02*
X78967Y23361D01*
X78238Y23519D02*
X78915Y23519D01*
X78455Y23676D02*
X78486Y23676D01*
X79083Y23679D02*
X78728Y23584D01*
X78609Y23492D01*
X78589Y23343D01*
X78681Y23223D01*
X78830Y23204D01*
X79185Y23299D01*
X79304Y23390D01*
X79324Y23540D01*
X79232Y23659D01*
X79083Y23679D01*
X78592Y23361D02*
X79266Y23361D01*
X78643Y23519D02*
X79321Y23519D01*
X79072Y23676D02*
X79104Y23676D01*
X79254Y23887D02*
X78995Y23628D01*
X78937Y23489D01*
X78995Y23350D01*
X79134Y23292D01*
X79273Y23350D01*
X79532Y23609D01*
X79590Y23748D01*
X79532Y23887D01*
X79393Y23945D01*
X79254Y23887D01*
X78953Y23449D02*
X79373Y23449D01*
X78986Y23607D02*
X79530Y23607D01*
X79131Y23764D02*
X79583Y23764D01*
X79337Y23922D02*
X79449Y23922D01*
X79298Y24153D02*
X79203Y23799D01*
X79223Y23650D01*
X79342Y23558D01*
X79492Y23578D01*
X79583Y23697D01*
X79678Y24052D01*
X79659Y24201D01*
X79539Y24293D01*
X79390Y24273D01*
X79298Y24153D01*
X79214Y23716D02*
X79588Y23716D01*
X79223Y23873D02*
X79630Y23873D01*
X79265Y24031D02*
X79673Y24031D01*
X79324Y24188D02*
X79660Y24188D01*
X78268Y24103D02*
X78268Y24614D01*
X78210Y24754D01*
X78071Y24811D01*
X77932Y24754D01*
X77874Y24614D01*
X77874Y24103D01*
X77932Y23963D01*
X78071Y23906D01*
X78210Y23963D01*
X78268Y24103D01*
X77890Y24063D02*
X78251Y24063D01*
X77874Y24221D02*
X78268Y24221D01*
X77874Y24378D02*
X78268Y24378D01*
X77874Y24536D02*
X78268Y24536D01*
X77906Y24693D02*
X78235Y24693D01*
X78476Y25038D02*
X78830Y25133D01*
X78950Y25225D01*
X78970Y25374D01*
X78878Y25493D01*
X78728Y25513D01*
X78374Y25418D01*
X78255Y25327D01*
X78235Y25177D01*
X78327Y25058D01*
X78476Y25038D01*
X78237Y25195D02*
X78912Y25195D01*
X78289Y25353D02*
X78967Y25353D01*
X78718Y25510D02*
X78750Y25510D01*
X78305Y24829D02*
X78564Y25089D01*
X78622Y25228D01*
X78564Y25367D01*
X78425Y25425D01*
X78286Y25367D01*
X78026Y25108D01*
X77969Y24969D01*
X78026Y24829D01*
X78166Y24772D01*
X78305Y24829D01*
X77985Y24929D02*
X78405Y24929D01*
X78018Y25087D02*
X78562Y25087D01*
X78163Y25244D02*
X78615Y25244D01*
X78369Y25402D02*
X78481Y25402D01*
X78261Y24563D02*
X78356Y24918D01*
X78336Y25067D01*
X78217Y25159D01*
X78067Y25139D01*
X77976Y25020D01*
X77881Y24665D01*
X77900Y24516D01*
X78020Y24424D01*
X78169Y24444D01*
X78261Y24563D01*
X77892Y24582D02*
X78266Y24582D01*
X77900Y24739D02*
X78308Y24739D01*
X77943Y24897D02*
X78350Y24897D01*
X78002Y25054D02*
X78338Y25054D01*
X78779Y25126D02*
X78976Y25126D01*
X79115Y25184D01*
X79173Y25323D01*
X79115Y25462D01*
X78976Y25520D01*
X78779Y25520D01*
X78640Y25462D01*
X78583Y25323D01*
X78640Y25184D01*
X78779Y25126D01*
X78599Y25284D02*
X79157Y25284D01*
X78631Y25441D02*
X79124Y25441D01*
X78976Y25520D02*
X78779Y25520D01*
X78640Y25462D01*
X78583Y25323D01*
X78640Y25184D01*
X78779Y25126D01*
X78976Y25126D01*
X79115Y25184D01*
X79173Y25323D01*
X79115Y25462D01*
X78976Y25520D01*
X78599Y25284D02*
X79157Y25284D01*
X78631Y25441D02*
X79124Y25441D01*
X78350Y25750D02*
X78262Y26117D01*
X78174Y26239D01*
X78025Y26263D01*
X77903Y26174D01*
X77879Y26025D01*
X77967Y25658D01*
X78055Y25536D01*
X78204Y25513D01*
X78326Y25601D01*
X78350Y25750D01*
X77964Y25670D02*
X78337Y25670D01*
X77926Y25828D02*
X78331Y25828D01*
X77889Y25985D02*
X78294Y25985D01*
X77898Y26143D02*
X78243Y26143D01*
X78561Y25566D02*
X78301Y25840D01*
X78164Y25901D01*
X78023Y25847D01*
X77962Y25710D01*
X78015Y25569D01*
X78275Y25295D01*
X78412Y25234D01*
X78553Y25287D01*
X78615Y25425D01*
X78561Y25566D01*
X78184Y25391D02*
X78599Y25391D01*
X78035Y25549D02*
X78567Y25549D01*
X77963Y25706D02*
X78428Y25706D01*
X78066Y25864D02*
X78248Y25864D01*
X78835Y25512D02*
X78474Y25619D01*
X78324Y25603D01*
X78229Y25486D01*
X78245Y25337D01*
X78362Y25242D01*
X78723Y25134D01*
X78873Y25150D01*
X78968Y25267D01*
X78952Y25417D01*
X78835Y25512D01*
X78300Y25292D02*
X78966Y25292D01*
X78233Y25449D02*
X78912Y25449D01*
X78356Y25607D02*
X78515Y25607D01*
X78268Y26071D02*
X78268Y26229D01*
X78210Y26368D01*
X78071Y26425D01*
X77932Y26368D01*
X77874Y26229D01*
X77874Y26071D01*
X77932Y25932D01*
X78071Y25874D01*
X78210Y25932D01*
X78268Y26071D01*
X77890Y26032D02*
X78251Y26032D01*
X77874Y26189D02*
X78268Y26189D01*
X77923Y26347D02*
X78219Y26347D01*
X79203Y26532D02*
X79298Y26178D01*
X79390Y26058D01*
X79539Y26038D01*
X79659Y26130D01*
X79678Y26279D01*
X79583Y26634D01*
X79492Y26753D01*
X79342Y26773D01*
X79223Y26681D01*
X79203Y26532D01*
X79293Y26196D02*
X79667Y26196D01*
X79251Y26353D02*
X79658Y26353D01*
X79209Y26511D02*
X79616Y26511D01*
X79221Y26668D02*
X79557Y26668D01*
X78995Y26703D02*
X79254Y26444D01*
X79393Y26386D01*
X79532Y26444D01*
X79590Y26583D01*
X79532Y26722D01*
X79273Y26981D01*
X79134Y27039D01*
X78995Y26981D01*
X78937Y26842D01*
X78995Y26703D01*
X79154Y26543D02*
X79574Y26543D01*
X78997Y26701D02*
X79541Y26701D01*
X78944Y26858D02*
X79396Y26858D01*
X79078Y27016D02*
X79190Y27016D01*
X78728Y26747D02*
X79083Y26652D01*
X79232Y26672D01*
X79324Y26791D01*
X79304Y26941D01*
X79185Y27032D01*
X78830Y27127D01*
X78681Y27108D01*
X78589Y26988D01*
X78609Y26839D01*
X78728Y26747D01*
X78647Y26810D02*
X79321Y26810D01*
X78592Y26967D02*
X79270Y26967D01*
X78809Y27125D02*
X78841Y27125D01*
X78476Y26652D02*
X78830Y26747D01*
X78950Y26839D01*
X78970Y26988D01*
X78878Y27108D01*
X78728Y27127D01*
X78374Y27032D01*
X78255Y26941D01*
X78235Y26791D01*
X78327Y26672D01*
X78476Y26652D01*
X78237Y26810D02*
X78912Y26810D01*
X78289Y26967D02*
X78967Y26967D01*
X78718Y27125D02*
X78750Y27125D01*
X78305Y26444D02*
X78564Y26703D01*
X78622Y26842D01*
X78564Y26981D01*
X78425Y27039D01*
X78286Y26981D01*
X78026Y26722D01*
X77969Y26583D01*
X78026Y26444D01*
X78166Y26386D01*
X78305Y26444D01*
X77985Y26543D02*
X78405Y26543D01*
X78018Y26701D02*
X78562Y26701D01*
X78163Y26858D02*
X78615Y26858D01*
X78369Y27016D02*
X78481Y27016D01*
X78261Y26178D02*
X78356Y26532D01*
X78336Y26681D01*
X78217Y26773D01*
X78067Y26753D01*
X77976Y26634D01*
X77881Y26279D01*
X77900Y26130D01*
X78020Y26038D01*
X78169Y26058D01*
X78261Y26178D01*
X77892Y26196D02*
X78266Y26196D01*
X77900Y26353D02*
X78308Y26353D01*
X77943Y26511D02*
X78350Y26511D01*
X78002Y26668D02*
X78338Y26668D01*
X73408Y26798D02*
X74116Y26089D01*
X74255Y26032D01*
X74395Y26089D01*
X74452Y26229D01*
X74395Y26368D01*
X73686Y27076D01*
X73547Y27134D01*
X73408Y27076D01*
X73350Y26937D01*
X73408Y26798D01*
X74016Y26189D02*
X74436Y26189D01*
X73859Y26347D02*
X74403Y26347D01*
X73701Y26504D02*
X74258Y26504D01*
X73544Y26662D02*
X74101Y26662D01*
X73399Y26819D02*
X73943Y26819D01*
X73366Y26977D02*
X73786Y26977D01*
X73547Y27134D02*
X73547Y27134D01*
X73744Y23394D02*
X73744Y26937D01*
X73686Y27076D01*
X73547Y27134D01*
X73408Y27076D01*
X73350Y26937D01*
X73350Y23394D01*
X73408Y23255D01*
X73547Y23197D01*
X73686Y23255D01*
X73744Y23394D01*
X73366Y23355D02*
X73727Y23355D01*
X73350Y23512D02*
X73744Y23512D01*
X73350Y23669D02*
X73744Y23669D01*
X73350Y23827D02*
X73744Y23827D01*
X73350Y23984D02*
X73744Y23984D01*
X73350Y24142D02*
X73744Y24142D01*
X73350Y24299D02*
X73744Y24299D01*
X73350Y24457D02*
X73744Y24457D01*
X73350Y24614D02*
X73744Y24614D01*
X73350Y24772D02*
X73744Y24772D01*
X73350Y24929D02*
X73744Y24929D01*
X73350Y25087D02*
X73744Y25087D01*
X73350Y25244D02*
X73744Y25244D01*
X73350Y25402D02*
X73744Y25402D01*
X73350Y25559D02*
X73744Y25559D01*
X73350Y25717D02*
X73744Y25717D01*
X73350Y25874D02*
X73744Y25874D01*
X73350Y26032D02*
X73744Y26032D01*
X73350Y26189D02*
X73744Y26189D01*
X73350Y26347D02*
X73744Y26347D01*
X73350Y26504D02*
X73744Y26504D01*
X73350Y26662D02*
X73744Y26662D01*
X73350Y26819D02*
X73744Y26819D01*
X73366Y26977D02*
X73727Y26977D01*
X73547Y27134D02*
X73547Y27134D01*
X71342Y24103D02*
X71342Y26229D01*
X71284Y26368D01*
X71145Y26425D01*
X71006Y26368D01*
X70948Y26229D01*
X70948Y24103D01*
X71006Y23963D01*
X71145Y23906D01*
X71284Y23963D01*
X71342Y24103D01*
X70965Y24063D02*
X71326Y24063D01*
X70948Y24221D02*
X71342Y24221D01*
X70948Y24378D02*
X71342Y24378D01*
X70948Y24536D02*
X71342Y24536D01*
X70948Y24693D02*
X71342Y24693D01*
X70948Y24851D02*
X71342Y24851D01*
X70948Y25008D02*
X71342Y25008D01*
X70948Y25166D02*
X71342Y25166D01*
X70948Y25323D02*
X71342Y25323D01*
X70948Y25480D02*
X71342Y25480D01*
X70948Y25638D02*
X71342Y25638D01*
X70948Y25795D02*
X71342Y25795D01*
X70948Y25953D02*
X71342Y25953D01*
X70948Y26110D02*
X71342Y26110D01*
X70965Y26268D02*
X71326Y26268D01*
X71145Y26425D02*
X71145Y26425D01*
X72277Y26532D02*
X72372Y26178D01*
X72464Y26058D01*
X72613Y26038D01*
X72733Y26130D01*
X72753Y26279D01*
X72658Y26634D01*
X72566Y26753D01*
X72417Y26773D01*
X72297Y26681D01*
X72277Y26532D01*
X72367Y26196D02*
X72742Y26196D01*
X72325Y26353D02*
X72733Y26353D01*
X72283Y26511D02*
X72691Y26511D01*
X72295Y26668D02*
X72631Y26668D01*
X72069Y26703D02*
X72328Y26444D01*
X72468Y26386D01*
X72607Y26444D01*
X72664Y26583D01*
X72607Y26722D01*
X72347Y26981D01*
X72208Y27039D01*
X72069Y26981D01*
X72011Y26842D01*
X72069Y26703D01*
X72228Y26543D02*
X72648Y26543D01*
X72071Y26701D02*
X72615Y26701D01*
X72018Y26858D02*
X72470Y26858D01*
X72152Y27016D02*
X72264Y27016D01*
X71803Y26747D02*
X72157Y26652D01*
X72307Y26672D01*
X72398Y26791D01*
X72379Y26941D01*
X72259Y27032D01*
X71905Y27127D01*
X71755Y27108D01*
X71664Y26988D01*
X71683Y26839D01*
X71803Y26747D01*
X71721Y26810D02*
X72396Y26810D01*
X71666Y26967D02*
X72344Y26967D01*
X71884Y27125D02*
X71915Y27125D01*
X71550Y26652D02*
X71905Y26747D01*
X72024Y26839D01*
X72044Y26988D01*
X71952Y27108D01*
X71803Y27127D01*
X71449Y27032D01*
X71329Y26941D01*
X71309Y26791D01*
X71401Y26672D01*
X71550Y26652D01*
X71312Y26810D02*
X71986Y26810D01*
X71363Y26967D02*
X72041Y26967D01*
X71792Y27125D02*
X71824Y27125D01*
X71379Y26444D02*
X71639Y26703D01*
X71696Y26842D01*
X71639Y26981D01*
X71499Y27039D01*
X71360Y26981D01*
X71101Y26722D01*
X71043Y26583D01*
X71101Y26444D01*
X71240Y26386D01*
X71379Y26444D01*
X71060Y26543D02*
X71479Y26543D01*
X71092Y26701D02*
X71637Y26701D01*
X71237Y26858D02*
X71690Y26858D01*
X71444Y27016D02*
X71555Y27016D01*
X71335Y26178D02*
X71430Y26532D01*
X71411Y26681D01*
X71291Y26773D01*
X71142Y26753D01*
X71050Y26634D01*
X70955Y26279D01*
X70975Y26130D01*
X71094Y26038D01*
X71244Y26058D01*
X71335Y26178D01*
X70966Y26196D02*
X71340Y26196D01*
X70975Y26353D02*
X71382Y26353D01*
X71017Y26511D02*
X71425Y26511D01*
X71076Y26668D02*
X71412Y26668D01*
X72366Y26229D02*
X72366Y24103D01*
X72423Y23963D01*
X72562Y23906D01*
X72702Y23963D01*
X72759Y24103D01*
X72759Y26229D01*
X72702Y26368D01*
X72562Y26425D01*
X72423Y26368D01*
X72366Y26229D01*
X72382Y24063D02*
X72743Y24063D01*
X72366Y24221D02*
X72759Y24221D01*
X72366Y24378D02*
X72759Y24378D01*
X72366Y24536D02*
X72759Y24536D01*
X72366Y24693D02*
X72759Y24693D01*
X72366Y24851D02*
X72759Y24851D01*
X72366Y25008D02*
X72759Y25008D01*
X72366Y25166D02*
X72759Y25166D01*
X72366Y25323D02*
X72759Y25323D01*
X72366Y25480D02*
X72759Y25480D01*
X72366Y25638D02*
X72759Y25638D01*
X72366Y25795D02*
X72759Y25795D01*
X72366Y25953D02*
X72759Y25953D01*
X72366Y26110D02*
X72759Y26110D01*
X72382Y26268D02*
X72743Y26268D01*
X72562Y26425D02*
X72562Y26425D01*
X71430Y23799D02*
X71335Y24153D01*
X71244Y24273D01*
X71094Y24293D01*
X70975Y24201D01*
X70955Y24052D01*
X71050Y23697D01*
X71142Y23578D01*
X71291Y23558D01*
X71411Y23650D01*
X71430Y23799D01*
X71045Y23716D02*
X71419Y23716D01*
X71003Y23873D02*
X71410Y23873D01*
X70961Y24031D02*
X71368Y24031D01*
X70973Y24188D02*
X71309Y24188D01*
X71639Y23628D02*
X71379Y23887D01*
X71240Y23945D01*
X71101Y23887D01*
X71043Y23748D01*
X71101Y23609D01*
X71360Y23350D01*
X71499Y23292D01*
X71639Y23350D01*
X71696Y23489D01*
X71639Y23628D01*
X71260Y23449D02*
X71680Y23449D01*
X71103Y23607D02*
X71647Y23607D01*
X71050Y23764D02*
X71502Y23764D01*
X71184Y23922D02*
X71296Y23922D01*
X71905Y23584D02*
X71550Y23679D01*
X71401Y23659D01*
X71309Y23540D01*
X71329Y23390D01*
X71449Y23299D01*
X71803Y23204D01*
X71952Y23223D01*
X72044Y23343D01*
X72024Y23492D01*
X71905Y23584D01*
X71367Y23361D02*
X72042Y23361D01*
X71312Y23519D02*
X71990Y23519D01*
X71529Y23676D02*
X71561Y23676D01*
X72157Y23679D02*
X71803Y23584D01*
X71683Y23492D01*
X71664Y23343D01*
X71755Y23223D01*
X71905Y23204D01*
X72259Y23299D01*
X72379Y23390D01*
X72398Y23540D01*
X72307Y23659D01*
X72157Y23679D01*
X71666Y23361D02*
X72341Y23361D01*
X71718Y23519D02*
X72395Y23519D01*
X72147Y23676D02*
X72178Y23676D01*
X72328Y23887D02*
X72069Y23628D01*
X72011Y23489D01*
X72069Y23350D01*
X72208Y23292D01*
X72347Y23350D01*
X72607Y23609D01*
X72664Y23748D01*
X72607Y23887D01*
X72468Y23945D01*
X72328Y23887D01*
X72028Y23449D02*
X72447Y23449D01*
X72060Y23607D02*
X72605Y23607D01*
X72205Y23764D02*
X72658Y23764D01*
X72412Y23922D02*
X72523Y23922D01*
X72372Y24153D02*
X72277Y23799D01*
X72297Y23650D01*
X72417Y23558D01*
X72566Y23578D01*
X72658Y23697D01*
X72753Y24052D01*
X72733Y24201D01*
X72613Y24293D01*
X72464Y24273D01*
X72372Y24153D01*
X72288Y23716D02*
X72663Y23716D01*
X72297Y23873D02*
X72705Y23873D01*
X72339Y24031D02*
X72747Y24031D01*
X72399Y24188D02*
X72735Y24188D01*
X68940Y24103D02*
X68940Y26229D01*
X68883Y26368D01*
X68744Y26425D01*
X68604Y26368D01*
X68547Y26229D01*
X68547Y24103D01*
X68604Y23963D01*
X68744Y23906D01*
X68883Y23963D01*
X68940Y24103D01*
X68563Y24063D02*
X68924Y24063D01*
X68547Y24221D02*
X68940Y24221D01*
X68547Y24378D02*
X68940Y24378D01*
X68547Y24536D02*
X68940Y24536D01*
X68547Y24693D02*
X68940Y24693D01*
X68547Y24851D02*
X68940Y24851D01*
X68547Y25008D02*
X68940Y25008D01*
X68547Y25166D02*
X68940Y25166D01*
X68547Y25323D02*
X68940Y25323D01*
X68547Y25480D02*
X68940Y25480D01*
X68547Y25638D02*
X68940Y25638D01*
X68547Y25795D02*
X68940Y25795D01*
X68547Y25953D02*
X68940Y25953D01*
X68547Y26110D02*
X68940Y26110D01*
X68563Y26268D02*
X68924Y26268D01*
X68744Y26425D02*
X68744Y26425D01*
X69876Y26532D02*
X69971Y26178D01*
X70062Y26058D01*
X70212Y26038D01*
X70331Y26130D01*
X70351Y26279D01*
X70256Y26634D01*
X70164Y26753D01*
X70015Y26773D01*
X69895Y26681D01*
X69876Y26532D01*
X69966Y26196D02*
X70340Y26196D01*
X69924Y26353D02*
X70331Y26353D01*
X69881Y26511D02*
X70289Y26511D01*
X69894Y26668D02*
X70230Y26668D01*
X69667Y26703D02*
X69927Y26444D01*
X70066Y26386D01*
X70205Y26444D01*
X70263Y26583D01*
X70205Y26722D01*
X69946Y26981D01*
X69807Y27039D01*
X69667Y26981D01*
X69610Y26842D01*
X69667Y26703D01*
X69827Y26543D02*
X70246Y26543D01*
X69669Y26701D02*
X70214Y26701D01*
X69616Y26858D02*
X70069Y26858D01*
X69751Y27016D02*
X69862Y27016D01*
X69401Y26747D02*
X69756Y26652D01*
X69905Y26672D01*
X69997Y26791D01*
X69977Y26941D01*
X69857Y27032D01*
X69503Y27127D01*
X69354Y27108D01*
X69262Y26988D01*
X69282Y26839D01*
X69401Y26747D01*
X69320Y26810D02*
X69994Y26810D01*
X69265Y26967D02*
X69943Y26967D01*
X69482Y27125D02*
X69514Y27125D01*
X69149Y26652D02*
X69503Y26747D01*
X69623Y26839D01*
X69642Y26988D01*
X69551Y27108D01*
X69401Y27127D01*
X69047Y27032D01*
X68927Y26941D01*
X68908Y26791D01*
X68999Y26672D01*
X69149Y26652D01*
X68910Y26810D02*
X69585Y26810D01*
X68962Y26967D02*
X69640Y26967D01*
X69391Y27125D02*
X69422Y27125D01*
X68978Y26444D02*
X69237Y26703D01*
X69295Y26842D01*
X69237Y26981D01*
X69098Y27039D01*
X68959Y26981D01*
X68699Y26722D01*
X68642Y26583D01*
X68699Y26444D01*
X68838Y26386D01*
X68978Y26444D01*
X68658Y26543D02*
X69078Y26543D01*
X68691Y26701D02*
X69235Y26701D01*
X68836Y26858D02*
X69288Y26858D01*
X69042Y27016D02*
X69154Y27016D01*
X68934Y26178D02*
X69029Y26532D01*
X69009Y26681D01*
X68889Y26773D01*
X68740Y26753D01*
X68648Y26634D01*
X68553Y26279D01*
X68573Y26130D01*
X68693Y26038D01*
X68842Y26058D01*
X68934Y26178D01*
X68564Y26196D02*
X68939Y26196D01*
X68573Y26353D02*
X68981Y26353D01*
X68615Y26511D02*
X69023Y26511D01*
X68675Y26668D02*
X69011Y26668D01*
X69964Y26229D02*
X69964Y24103D01*
X70022Y23963D01*
X70161Y23906D01*
X70300Y23963D01*
X70358Y24103D01*
X70358Y26229D01*
X70300Y26368D01*
X70161Y26425D01*
X70022Y26368D01*
X69964Y26229D01*
X69980Y24063D02*
X70341Y24063D01*
X69964Y24221D02*
X70358Y24221D01*
X69964Y24378D02*
X70358Y24378D01*
X69964Y24536D02*
X70358Y24536D01*
X69964Y24693D02*
X70358Y24693D01*
X69964Y24851D02*
X70358Y24851D01*
X69964Y25008D02*
X70358Y25008D01*
X69964Y25166D02*
X70358Y25166D01*
X69964Y25323D02*
X70358Y25323D01*
X69964Y25480D02*
X70358Y25480D01*
X69964Y25638D02*
X70358Y25638D01*
X69964Y25795D02*
X70358Y25795D01*
X69964Y25953D02*
X70358Y25953D01*
X69964Y26110D02*
X70358Y26110D01*
X69980Y26268D02*
X70341Y26268D01*
X70161Y26425D02*
X70161Y26425D01*
X69029Y23799D02*
X68934Y24153D01*
X68842Y24273D01*
X68693Y24293D01*
X68573Y24201D01*
X68553Y24052D01*
X68648Y23697D01*
X68740Y23578D01*
X68889Y23558D01*
X69009Y23650D01*
X69029Y23799D01*
X68643Y23716D02*
X69018Y23716D01*
X68601Y23873D02*
X69009Y23873D01*
X68559Y24031D02*
X68967Y24031D01*
X68571Y24188D02*
X68907Y24188D01*
X69237Y23628D02*
X68978Y23887D01*
X68838Y23945D01*
X68699Y23887D01*
X68642Y23748D01*
X68699Y23609D01*
X68959Y23350D01*
X69098Y23292D01*
X69237Y23350D01*
X69295Y23489D01*
X69237Y23628D01*
X68859Y23449D02*
X69278Y23449D01*
X68701Y23607D02*
X69246Y23607D01*
X68648Y23764D02*
X69101Y23764D01*
X68783Y23922D02*
X68894Y23922D01*
X69503Y23584D02*
X69149Y23679D01*
X68999Y23659D01*
X68908Y23540D01*
X68927Y23390D01*
X69047Y23299D01*
X69401Y23204D01*
X69551Y23223D01*
X69642Y23343D01*
X69623Y23492D01*
X69503Y23584D01*
X68965Y23361D02*
X69640Y23361D01*
X68911Y23519D02*
X69588Y23519D01*
X69128Y23676D02*
X69159Y23676D01*
X69756Y23679D02*
X69401Y23584D01*
X69282Y23492D01*
X69262Y23343D01*
X69354Y23223D01*
X69503Y23204D01*
X69857Y23299D01*
X69977Y23390D01*
X69997Y23540D01*
X69905Y23659D01*
X69756Y23679D01*
X69264Y23361D02*
X69939Y23361D01*
X69316Y23519D02*
X69994Y23519D01*
X69745Y23676D02*
X69777Y23676D01*
X69927Y23887D02*
X69667Y23628D01*
X69610Y23489D01*
X69667Y23350D01*
X69807Y23292D01*
X69946Y23350D01*
X70205Y23609D01*
X70263Y23748D01*
X70205Y23887D01*
X70066Y23945D01*
X69927Y23887D01*
X69626Y23449D02*
X70046Y23449D01*
X69659Y23607D02*
X70203Y23607D01*
X69804Y23764D02*
X70256Y23764D01*
X70010Y23922D02*
X70122Y23922D01*
X69971Y24153D02*
X69876Y23799D01*
X69895Y23650D01*
X70015Y23558D01*
X70164Y23578D01*
X70256Y23697D01*
X70351Y24052D01*
X70331Y24201D01*
X70212Y24293D01*
X70062Y24273D01*
X69971Y24153D01*
X69887Y23716D02*
X70261Y23716D01*
X69896Y23873D02*
X70303Y23873D01*
X69938Y24031D02*
X70345Y24031D01*
X69997Y24188D02*
X70333Y24188D01*
X82091Y53524D02*
X82091Y49981D01*
X82148Y49842D01*
X82288Y49784D01*
X82427Y49842D01*
X82484Y49981D01*
X82484Y53524D01*
X82427Y53664D01*
X82288Y53721D01*
X82148Y53664D01*
X82091Y53524D01*
X82107Y49942D02*
X82468Y49942D01*
X82091Y50099D02*
X82484Y50099D01*
X82091Y50257D02*
X82484Y50257D01*
X82091Y50414D02*
X82484Y50414D01*
X82091Y50572D02*
X82484Y50572D01*
X82091Y50729D02*
X82484Y50729D01*
X82091Y50887D02*
X82484Y50887D01*
X82091Y51044D02*
X82484Y51044D01*
X82091Y51202D02*
X82484Y51202D01*
X82091Y51359D02*
X82484Y51359D01*
X82091Y51517D02*
X82484Y51517D01*
X82091Y51674D02*
X82484Y51674D01*
X82091Y51831D02*
X82484Y51831D01*
X82091Y51989D02*
X82484Y51989D01*
X82091Y52146D02*
X82484Y52146D01*
X82091Y52304D02*
X82484Y52304D01*
X82091Y52461D02*
X82484Y52461D01*
X82091Y52619D02*
X82484Y52619D01*
X82091Y52776D02*
X82484Y52776D01*
X82091Y52934D02*
X82484Y52934D01*
X82091Y53091D02*
X82484Y53091D01*
X82091Y53249D02*
X82484Y53249D01*
X82091Y53406D02*
X82484Y53406D01*
X82107Y53564D02*
X82468Y53564D01*
X82288Y53721D02*
X82288Y53721D01*
X81421Y53328D02*
X82288Y53328D01*
X82427Y53385D01*
X82484Y53524D01*
X82427Y53664D01*
X82288Y53721D01*
X81421Y53721D01*
X81282Y53664D01*
X81225Y53524D01*
X81282Y53385D01*
X81421Y53328D01*
X81241Y53485D02*
X82468Y53485D01*
X81273Y53643D02*
X82435Y53643D01*
X81029Y53235D02*
X81472Y53354D01*
X81592Y53446D01*
X81612Y53595D01*
X81520Y53715D01*
X81370Y53734D01*
X80928Y53616D01*
X80808Y53524D01*
X80788Y53374D01*
X80880Y53255D01*
X81029Y53235D01*
X80791Y53393D02*
X81523Y53393D01*
X80842Y53550D02*
X81606Y53550D01*
X81271Y53708D02*
X81525Y53708D01*
X80793Y52962D02*
X81118Y53286D01*
X81175Y53425D01*
X81118Y53565D01*
X80978Y53622D01*
X80839Y53565D01*
X80515Y53240D01*
X80457Y53101D01*
X80515Y52962D01*
X80654Y52904D01*
X80793Y52962D01*
X80474Y53062D02*
X80893Y53062D01*
X80506Y53219D02*
X81051Y53219D01*
X80651Y53377D02*
X81155Y53377D01*
X80809Y53534D02*
X81130Y53534D01*
X80726Y52607D02*
X80844Y53050D01*
X80825Y53200D01*
X80705Y53291D01*
X80556Y53272D01*
X80464Y53152D01*
X80345Y52709D01*
X80365Y52560D01*
X80485Y52468D01*
X80634Y52488D01*
X80726Y52607D01*
X80356Y52626D02*
X80731Y52626D01*
X80365Y52783D02*
X80773Y52783D01*
X80407Y52941D02*
X80815Y52941D01*
X80450Y53098D02*
X80838Y53098D01*
X80543Y53256D02*
X80752Y53256D01*
X80844Y52266D02*
X80726Y52709D01*
X80634Y52829D01*
X80485Y52848D01*
X80365Y52757D01*
X80345Y52607D01*
X80464Y52164D01*
X80556Y52045D01*
X80705Y52025D01*
X80825Y52117D01*
X80844Y52266D01*
X80459Y52183D02*
X80833Y52183D01*
X80417Y52340D02*
X80825Y52340D01*
X80375Y52498D02*
X80782Y52498D01*
X80352Y52655D02*
X80740Y52655D01*
X80438Y52813D02*
X80646Y52813D01*
X81118Y52030D02*
X80793Y52355D01*
X80654Y52412D01*
X80515Y52355D01*
X80457Y52215D01*
X80515Y52076D01*
X80839Y51752D01*
X80978Y51694D01*
X81118Y51752D01*
X81175Y51891D01*
X81118Y52030D01*
X80739Y51852D02*
X81159Y51852D01*
X80582Y52009D02*
X81126Y52009D01*
X80478Y52167D02*
X80981Y52167D01*
X80502Y52324D02*
X80824Y52324D01*
X81472Y51963D02*
X81029Y52081D01*
X80880Y52062D01*
X80788Y51942D01*
X80808Y51793D01*
X80928Y51701D01*
X81370Y51582D01*
X81520Y51602D01*
X81612Y51721D01*
X81592Y51871D01*
X81472Y51963D01*
X80877Y51740D02*
X81609Y51740D01*
X80794Y51897D02*
X81557Y51897D01*
X80875Y52055D02*
X81128Y52055D01*
X82288Y51950D02*
X81421Y51950D01*
X81282Y51892D01*
X81225Y51753D01*
X81282Y51614D01*
X81421Y51556D01*
X82288Y51556D01*
X82427Y51614D01*
X82484Y51753D01*
X82427Y51892D01*
X82288Y51950D01*
X81241Y51713D02*
X82468Y51713D01*
X81273Y51871D02*
X82435Y51871D01*
X80691Y49892D02*
X81597Y51663D01*
X81609Y51813D01*
X81511Y51928D01*
X81361Y51940D01*
X81246Y51842D01*
X80341Y50071D01*
X80329Y49921D01*
X80426Y49806D01*
X80576Y49794D01*
X80691Y49892D01*
X80331Y49951D02*
X80722Y49951D01*
X80360Y50109D02*
X80802Y50109D01*
X80441Y50266D02*
X80883Y50266D01*
X80521Y50424D02*
X80963Y50424D01*
X80602Y50581D02*
X81044Y50581D01*
X80682Y50739D02*
X81124Y50739D01*
X80763Y50896D02*
X81205Y50896D01*
X80843Y51054D02*
X81285Y51054D01*
X80923Y51211D02*
X81366Y51211D01*
X81004Y51369D02*
X81446Y51369D01*
X81084Y51526D02*
X81527Y51526D01*
X81165Y51684D02*
X81598Y51684D01*
X81245Y51841D02*
X81585Y51841D01*
X79247Y53119D02*
X79341Y52765D01*
X79433Y52645D01*
X79583Y52626D01*
X79702Y52717D01*
X79722Y52867D01*
X79627Y53221D01*
X79535Y53341D01*
X79386Y53360D01*
X79266Y53269D01*
X79247Y53119D01*
X79337Y52783D02*
X79711Y52783D01*
X79294Y52941D02*
X79702Y52941D01*
X79252Y53098D02*
X79660Y53098D01*
X79265Y53256D02*
X79600Y53256D01*
X79038Y53290D02*
X79297Y53031D01*
X79437Y52973D01*
X79576Y53031D01*
X79634Y53170D01*
X79576Y53309D01*
X79316Y53569D01*
X79177Y53626D01*
X79038Y53569D01*
X78980Y53429D01*
X79038Y53290D01*
X79198Y53131D02*
X79617Y53131D01*
X79040Y53288D02*
X79585Y53288D01*
X78987Y53446D02*
X79439Y53446D01*
X79121Y53603D02*
X79233Y53603D01*
X78772Y53334D02*
X79126Y53239D01*
X79276Y53259D01*
X79367Y53379D01*
X79348Y53528D01*
X79228Y53620D01*
X78874Y53715D01*
X78725Y53695D01*
X78633Y53575D01*
X78652Y53426D01*
X78772Y53334D01*
X78691Y53397D02*
X79365Y53397D01*
X78636Y53554D02*
X79313Y53554D01*
X78853Y53712D02*
X78884Y53712D01*
X78520Y53239D02*
X78874Y53334D01*
X78993Y53426D01*
X79013Y53575D01*
X78921Y53695D01*
X78772Y53715D01*
X78418Y53620D01*
X78298Y53528D01*
X78278Y53379D01*
X78370Y53259D01*
X78520Y53239D01*
X78281Y53397D02*
X78955Y53397D01*
X78333Y53554D02*
X79010Y53554D01*
X78762Y53712D02*
X78793Y53712D01*
X78348Y53031D02*
X78608Y53290D01*
X78665Y53429D01*
X78608Y53569D01*
X78469Y53626D01*
X78329Y53569D01*
X78070Y53309D01*
X78012Y53170D01*
X78070Y53031D01*
X78209Y52973D01*
X78348Y53031D01*
X78029Y53131D02*
X78448Y53131D01*
X78061Y53288D02*
X78606Y53288D01*
X78206Y53446D02*
X78659Y53446D01*
X78413Y53603D02*
X78525Y53603D01*
X78304Y52765D02*
X78399Y53119D01*
X78380Y53269D01*
X78260Y53360D01*
X78111Y53341D01*
X78019Y53221D01*
X77924Y52867D01*
X77944Y52717D01*
X78063Y52626D01*
X78213Y52645D01*
X78304Y52765D01*
X77935Y52783D02*
X78309Y52783D01*
X77944Y52941D02*
X78352Y52941D01*
X77986Y53098D02*
X78394Y53098D01*
X78046Y53256D02*
X78381Y53256D01*
X79708Y50069D02*
X78290Y52904D01*
X78177Y53002D01*
X78026Y52992D01*
X77928Y52878D01*
X77938Y52728D01*
X79356Y49893D01*
X79469Y49794D01*
X79620Y49805D01*
X79718Y49919D01*
X79708Y50069D01*
X79326Y49952D02*
X79716Y49952D01*
X79247Y50109D02*
X79688Y50109D01*
X79169Y50267D02*
X79609Y50267D01*
X79090Y50424D02*
X79530Y50424D01*
X79011Y50582D02*
X79451Y50582D01*
X78932Y50739D02*
X79373Y50739D01*
X78854Y50897D02*
X79294Y50897D01*
X78775Y51054D02*
X79215Y51054D01*
X78696Y51212D02*
X79136Y51212D01*
X78618Y51369D02*
X79058Y51369D01*
X78539Y51527D02*
X78979Y51527D01*
X78460Y51684D02*
X78900Y51684D01*
X78381Y51842D02*
X78821Y51842D01*
X78303Y51999D02*
X78743Y51999D01*
X78224Y52157D02*
X78664Y52157D01*
X78145Y52314D02*
X78585Y52314D01*
X78066Y52472D02*
X78507Y52472D01*
X77988Y52629D02*
X78428Y52629D01*
X77934Y52786D02*
X78349Y52786D01*
X77985Y52944D02*
X78244Y52944D01*
X78114Y49784D02*
X79532Y49784D01*
X79671Y49842D01*
X79728Y49981D01*
X79671Y50120D01*
X79532Y50178D01*
X78114Y50178D01*
X77975Y50120D01*
X77917Y49981D01*
X77975Y49842D01*
X78114Y49784D01*
X77934Y49942D02*
X79712Y49942D01*
X77966Y50099D02*
X79680Y50099D01*
X73267Y53385D02*
X73976Y52677D01*
X74115Y52619D01*
X74254Y52677D01*
X74312Y52816D01*
X74254Y52955D01*
X73545Y53664D01*
X73406Y53721D01*
X73267Y53664D01*
X73209Y53524D01*
X73267Y53385D01*
X73876Y52776D02*
X74295Y52776D01*
X73718Y52934D02*
X74263Y52934D01*
X73561Y53091D02*
X74118Y53091D01*
X73403Y53249D02*
X73960Y53249D01*
X73258Y53406D02*
X73803Y53406D01*
X73226Y53564D02*
X73645Y53564D01*
X73406Y53721D02*
X73406Y53721D01*
X73603Y49981D02*
X73603Y53524D01*
X73545Y53664D01*
X73406Y53721D01*
X73267Y53664D01*
X73209Y53524D01*
X73209Y49981D01*
X73267Y49842D01*
X73406Y49784D01*
X73545Y49842D01*
X73603Y49981D01*
X73226Y49942D02*
X73587Y49942D01*
X73209Y50099D02*
X73603Y50099D01*
X73209Y50257D02*
X73603Y50257D01*
X73209Y50414D02*
X73603Y50414D01*
X73209Y50572D02*
X73603Y50572D01*
X73209Y50729D02*
X73603Y50729D01*
X73209Y50887D02*
X73603Y50887D01*
X73209Y51044D02*
X73603Y51044D01*
X73209Y51202D02*
X73603Y51202D01*
X73209Y51359D02*
X73603Y51359D01*
X73209Y51517D02*
X73603Y51517D01*
X73209Y51674D02*
X73603Y51674D01*
X73209Y51831D02*
X73603Y51831D01*
X73209Y51989D02*
X73603Y51989D01*
X73209Y52146D02*
X73603Y52146D01*
X73209Y52304D02*
X73603Y52304D01*
X73209Y52461D02*
X73603Y52461D01*
X73209Y52619D02*
X73603Y52619D01*
X73209Y52776D02*
X73603Y52776D01*
X73209Y52934D02*
X73603Y52934D01*
X73209Y53091D02*
X73603Y53091D01*
X73209Y53249D02*
X73603Y53249D01*
X73209Y53406D02*
X73603Y53406D01*
X73226Y53564D02*
X73587Y53564D01*
X73406Y53721D02*
X73406Y53721D01*
X71201Y50690D02*
X71201Y52816D01*
X71144Y52955D01*
X71004Y53013D01*
X70865Y52955D01*
X70808Y52816D01*
X70808Y50690D01*
X70865Y50551D01*
X71004Y50493D01*
X71144Y50551D01*
X71201Y50690D01*
X70824Y50650D02*
X71185Y50650D01*
X70808Y50808D02*
X71201Y50808D01*
X70808Y50965D02*
X71201Y50965D01*
X70808Y51123D02*
X71201Y51123D01*
X70808Y51280D02*
X71201Y51280D01*
X70808Y51438D02*
X71201Y51438D01*
X70808Y51595D02*
X71201Y51595D01*
X70808Y51753D02*
X71201Y51753D01*
X70808Y51910D02*
X71201Y51910D01*
X70808Y52068D02*
X71201Y52068D01*
X70808Y52225D02*
X71201Y52225D01*
X70808Y52383D02*
X71201Y52383D01*
X70808Y52540D02*
X71201Y52540D01*
X70808Y52698D02*
X71201Y52698D01*
X70824Y52855D02*
X71185Y52855D01*
X71004Y53013D02*
X71004Y53013D01*
X72137Y53119D02*
X72232Y52765D01*
X72323Y52645D01*
X72473Y52626D01*
X72592Y52717D01*
X72612Y52867D01*
X72517Y53221D01*
X72425Y53341D01*
X72276Y53360D01*
X72156Y53269D01*
X72137Y53119D01*
X72227Y52783D02*
X72601Y52783D01*
X72185Y52941D02*
X72592Y52941D01*
X72142Y53098D02*
X72550Y53098D01*
X72155Y53256D02*
X72491Y53256D01*
X71928Y53290D02*
X72188Y53031D01*
X72327Y52973D01*
X72466Y53031D01*
X72524Y53170D01*
X72466Y53309D01*
X72207Y53569D01*
X72067Y53626D01*
X71928Y53569D01*
X71871Y53429D01*
X71928Y53290D01*
X72088Y53131D02*
X72507Y53131D01*
X71930Y53288D02*
X72475Y53288D01*
X71877Y53446D02*
X72330Y53446D01*
X72012Y53603D02*
X72123Y53603D01*
X71662Y53334D02*
X72017Y53239D01*
X72166Y53259D01*
X72258Y53379D01*
X72238Y53528D01*
X72118Y53620D01*
X71764Y53715D01*
X71615Y53695D01*
X71523Y53575D01*
X71543Y53426D01*
X71662Y53334D01*
X71581Y53397D02*
X72255Y53397D01*
X71526Y53554D02*
X72204Y53554D01*
X71743Y53712D02*
X71774Y53712D01*
X71410Y53239D02*
X71764Y53334D01*
X71884Y53426D01*
X71903Y53575D01*
X71812Y53695D01*
X71662Y53715D01*
X71308Y53620D01*
X71188Y53528D01*
X71169Y53379D01*
X71260Y53259D01*
X71410Y53239D01*
X71171Y53397D02*
X71846Y53397D01*
X71223Y53554D02*
X71901Y53554D01*
X71652Y53712D02*
X71683Y53712D01*
X71239Y53031D02*
X71498Y53290D01*
X71556Y53429D01*
X71498Y53569D01*
X71359Y53626D01*
X71220Y53569D01*
X70960Y53309D01*
X70903Y53170D01*
X70960Y53031D01*
X71099Y52973D01*
X71239Y53031D01*
X70919Y53131D02*
X71338Y53131D01*
X70951Y53288D02*
X71496Y53288D01*
X71097Y53446D02*
X71549Y53446D01*
X71303Y53603D02*
X71415Y53603D01*
X71195Y52765D02*
X71290Y53119D01*
X71270Y53269D01*
X71150Y53360D01*
X71001Y53341D01*
X70909Y53221D01*
X70814Y52867D01*
X70834Y52717D01*
X70954Y52626D01*
X71103Y52645D01*
X71195Y52765D01*
X70825Y52783D02*
X71200Y52783D01*
X70834Y52941D02*
X71242Y52941D01*
X70876Y53098D02*
X71284Y53098D01*
X70936Y53256D02*
X71272Y53256D01*
X72225Y52816D02*
X72225Y50690D01*
X72283Y50551D01*
X72422Y50493D01*
X72561Y50551D01*
X72619Y50690D01*
X72619Y52816D01*
X72561Y52955D01*
X72422Y53013D01*
X72283Y52955D01*
X72225Y52816D01*
X72241Y50650D02*
X72602Y50650D01*
X72225Y50808D02*
X72619Y50808D01*
X72225Y50965D02*
X72619Y50965D01*
X72225Y51123D02*
X72619Y51123D01*
X72225Y51280D02*
X72619Y51280D01*
X72225Y51438D02*
X72619Y51438D01*
X72225Y51595D02*
X72619Y51595D01*
X72225Y51753D02*
X72619Y51753D01*
X72225Y51910D02*
X72619Y51910D01*
X72225Y52068D02*
X72619Y52068D01*
X72225Y52225D02*
X72619Y52225D01*
X72225Y52383D02*
X72619Y52383D01*
X72225Y52540D02*
X72619Y52540D01*
X72225Y52698D02*
X72619Y52698D01*
X72241Y52855D02*
X72602Y52855D01*
X72422Y53013D02*
X72422Y53013D01*
X71290Y50386D02*
X71195Y50741D01*
X71103Y50860D01*
X70954Y50880D01*
X70834Y50788D01*
X70814Y50639D01*
X70909Y50284D01*
X71001Y50165D01*
X71150Y50145D01*
X71270Y50237D01*
X71290Y50386D01*
X70904Y50303D02*
X71279Y50303D01*
X70862Y50460D02*
X71270Y50460D01*
X70820Y50618D02*
X71228Y50618D01*
X70832Y50775D02*
X71168Y50775D01*
X71498Y50215D02*
X71239Y50475D01*
X71099Y50532D01*
X70960Y50475D01*
X70903Y50335D01*
X70960Y50196D01*
X71220Y49937D01*
X71359Y49879D01*
X71498Y49937D01*
X71556Y50076D01*
X71498Y50215D01*
X71120Y50037D02*
X71539Y50037D01*
X70962Y50194D02*
X71507Y50194D01*
X70909Y50352D02*
X71362Y50352D01*
X71043Y50509D02*
X71155Y50509D01*
X71764Y50171D02*
X71410Y50266D01*
X71260Y50247D01*
X71169Y50127D01*
X71188Y49978D01*
X71308Y49886D01*
X71662Y49791D01*
X71812Y49811D01*
X71903Y49930D01*
X71884Y50080D01*
X71764Y50171D01*
X71226Y49948D02*
X71901Y49948D01*
X71171Y50106D02*
X71849Y50106D01*
X71389Y50263D02*
X71420Y50263D01*
X72017Y50266D02*
X71662Y50171D01*
X71543Y50080D01*
X71523Y49930D01*
X71615Y49811D01*
X71764Y49791D01*
X72118Y49886D01*
X72238Y49978D01*
X72258Y50127D01*
X72166Y50247D01*
X72017Y50266D01*
X71525Y49948D02*
X72200Y49948D01*
X71577Y50106D02*
X72255Y50106D01*
X72006Y50263D02*
X72038Y50263D01*
X72188Y50475D02*
X71928Y50215D01*
X71871Y50076D01*
X71928Y49937D01*
X72067Y49879D01*
X72207Y49937D01*
X72466Y50196D01*
X72524Y50335D01*
X72466Y50475D01*
X72327Y50532D01*
X72188Y50475D01*
X71887Y50037D02*
X72306Y50037D01*
X71920Y50194D02*
X72464Y50194D01*
X72065Y50352D02*
X72517Y50352D01*
X72271Y50509D02*
X72383Y50509D01*
X72232Y50741D02*
X72137Y50386D01*
X72156Y50237D01*
X72276Y50145D01*
X72425Y50165D01*
X72517Y50284D01*
X72612Y50639D01*
X72592Y50788D01*
X72473Y50880D01*
X72323Y50860D01*
X72232Y50741D01*
X72148Y50303D02*
X72522Y50303D01*
X72157Y50460D02*
X72564Y50460D01*
X72199Y50618D02*
X72606Y50618D01*
X72258Y50775D02*
X72594Y50775D01*
X69823Y53524D02*
X69823Y49981D01*
X69881Y49842D01*
X70020Y49784D01*
X70159Y49842D01*
X70217Y49981D01*
X70217Y53524D01*
X70159Y53664D01*
X70020Y53721D01*
X69881Y53664D01*
X69823Y53524D01*
X69840Y49942D02*
X70201Y49942D01*
X69823Y50099D02*
X70217Y50099D01*
X69823Y50257D02*
X70217Y50257D01*
X69823Y50414D02*
X70217Y50414D01*
X69823Y50572D02*
X70217Y50572D01*
X69823Y50729D02*
X70217Y50729D01*
X69823Y50887D02*
X70217Y50887D01*
X69823Y51044D02*
X70217Y51044D01*
X69823Y51202D02*
X70217Y51202D01*
X69823Y51359D02*
X70217Y51359D01*
X69823Y51517D02*
X70217Y51517D01*
X69823Y51674D02*
X70217Y51674D01*
X69823Y51831D02*
X70217Y51831D01*
X69823Y51989D02*
X70217Y51989D01*
X69823Y52146D02*
X70217Y52146D01*
X69823Y52304D02*
X70217Y52304D01*
X69823Y52461D02*
X70217Y52461D01*
X69823Y52619D02*
X70217Y52619D01*
X69823Y52776D02*
X70217Y52776D01*
X69823Y52934D02*
X70217Y52934D01*
X69823Y53091D02*
X70217Y53091D01*
X69823Y53249D02*
X70217Y53249D01*
X69823Y53406D02*
X70217Y53406D01*
X69840Y53564D02*
X70201Y53564D01*
X70020Y53721D02*
X70020Y53721D01*
X68092Y53405D02*
X69864Y51082D01*
X69994Y51006D01*
X70140Y51045D01*
X70215Y51175D01*
X70177Y51321D01*
X68405Y53644D01*
X68275Y53720D01*
X68129Y53681D01*
X68053Y53551D01*
X68092Y53405D01*
X69801Y51164D02*
X70209Y51164D01*
X69681Y51321D02*
X70176Y51321D01*
X69561Y51479D02*
X70056Y51479D01*
X69441Y51636D02*
X69936Y51636D01*
X69321Y51794D02*
X69816Y51794D01*
X69201Y51951D02*
X69696Y51951D01*
X69081Y52109D02*
X69576Y52109D01*
X68961Y52266D02*
X69456Y52266D01*
X68840Y52424D02*
X69336Y52424D01*
X68720Y52581D02*
X69215Y52581D01*
X68600Y52739D02*
X69095Y52739D01*
X68480Y52896D02*
X68975Y52896D01*
X68360Y53054D02*
X68855Y53054D01*
X68240Y53211D02*
X68735Y53211D01*
X68120Y53369D02*
X68615Y53369D01*
X68060Y53526D02*
X68495Y53526D01*
X68139Y53684D02*
X68337Y53684D01*
X68425Y49893D02*
X69488Y52019D01*
X69498Y52169D01*
X69400Y52283D01*
X69249Y52294D01*
X69135Y52195D01*
X68073Y50069D01*
X68062Y49919D01*
X68161Y49805D01*
X68311Y49794D01*
X68425Y49893D01*
X68064Y49952D02*
X68454Y49952D01*
X68093Y50109D02*
X68533Y50109D01*
X68171Y50267D02*
X68612Y50267D01*
X68250Y50424D02*
X68690Y50424D01*
X68329Y50582D02*
X68769Y50582D01*
X68408Y50739D02*
X68848Y50739D01*
X68486Y50897D02*
X68926Y50897D01*
X68565Y51054D02*
X69005Y51054D01*
X68644Y51212D02*
X69084Y51212D01*
X68723Y51369D02*
X69163Y51369D01*
X68801Y51527D02*
X69241Y51527D01*
X68880Y51684D02*
X69320Y51684D01*
X68959Y51842D02*
X69399Y51842D01*
X69037Y51999D02*
X69478Y51999D01*
X69116Y52157D02*
X69497Y52157D01*
X59803Y10418D02*
X59803Y6875D01*
X59860Y6735D01*
X60000Y6678D01*
X60139Y6735D01*
X60196Y6875D01*
X60196Y10418D01*
X60139Y10557D01*
X60000Y10615D01*
X59860Y10557D01*
X59803Y10418D01*
X59819Y6835D02*
X60180Y6835D01*
X59803Y6993D02*
X60196Y6993D01*
X59803Y7150D02*
X60196Y7150D01*
X59803Y7308D02*
X60196Y7308D01*
X59803Y7465D02*
X60196Y7465D01*
X59803Y7623D02*
X60196Y7623D01*
X59803Y7780D02*
X60196Y7780D01*
X59803Y7937D02*
X60196Y7937D01*
X59803Y8095D02*
X60196Y8095D01*
X59803Y8252D02*
X60196Y8252D01*
X59803Y8410D02*
X60196Y8410D01*
X59803Y8567D02*
X60196Y8567D01*
X59803Y8725D02*
X60196Y8725D01*
X59803Y8882D02*
X60196Y8882D01*
X59803Y9040D02*
X60196Y9040D01*
X59803Y9197D02*
X60196Y9197D01*
X59803Y9355D02*
X60196Y9355D01*
X59803Y9512D02*
X60196Y9512D01*
X59803Y9670D02*
X60196Y9670D01*
X59803Y9827D02*
X60196Y9827D01*
X59803Y9985D02*
X60196Y9985D01*
X59803Y10142D02*
X60196Y10142D01*
X59803Y10300D02*
X60196Y10300D01*
X59819Y10457D02*
X60180Y10457D01*
X60000Y10615D02*
X60000Y10615D01*
X58071Y10298D02*
X59843Y7976D01*
X59973Y7900D01*
X60119Y7938D01*
X60195Y8069D01*
X60156Y8214D01*
X58384Y10537D01*
X58254Y10613D01*
X58108Y10574D01*
X58033Y10444D01*
X58071Y10298D01*
X59781Y8057D02*
X60188Y8057D01*
X59661Y8215D02*
X60156Y8215D01*
X59540Y8372D02*
X60036Y8372D01*
X59420Y8530D02*
X59915Y8530D01*
X59300Y8687D02*
X59795Y8687D01*
X59180Y8845D02*
X59675Y8845D01*
X59060Y9002D02*
X59555Y9002D01*
X58940Y9160D02*
X59435Y9160D01*
X58820Y9317D02*
X59315Y9317D01*
X58700Y9475D02*
X59195Y9475D01*
X58579Y9632D02*
X59075Y9632D01*
X58459Y9790D02*
X58955Y9790D01*
X58339Y9947D02*
X58834Y9947D01*
X58219Y10105D02*
X58714Y10105D01*
X58099Y10262D02*
X58594Y10262D01*
X58039Y10420D02*
X58474Y10420D01*
X58119Y10577D02*
X58316Y10577D01*
X58404Y6786D02*
X59467Y8912D01*
X59478Y9063D01*
X59379Y9177D01*
X59229Y9187D01*
X59115Y9089D01*
X58052Y6963D01*
X58041Y6812D01*
X58140Y6698D01*
X58290Y6688D01*
X58404Y6786D01*
X58043Y6845D02*
X58433Y6845D01*
X58072Y7003D02*
X58512Y7003D01*
X58151Y7160D02*
X58591Y7160D01*
X58229Y7318D02*
X58670Y7318D01*
X58308Y7475D02*
X58748Y7475D01*
X58387Y7633D02*
X58827Y7633D01*
X58466Y7790D02*
X58906Y7790D01*
X58544Y7948D02*
X58984Y7948D01*
X58623Y8105D02*
X59063Y8105D01*
X58702Y8263D02*
X59142Y8263D01*
X58781Y8420D02*
X59221Y8420D01*
X58859Y8578D02*
X59299Y8578D01*
X58938Y8735D02*
X59378Y8735D01*
X59017Y8892D02*
X59457Y8892D01*
X59095Y9050D02*
X59477Y9050D01*
X56111Y7280D02*
X56016Y7634D01*
X55925Y7754D01*
X55775Y7773D01*
X55656Y7682D01*
X55636Y7532D01*
X55731Y7178D01*
X55823Y7058D01*
X55972Y7039D01*
X56092Y7130D01*
X56111Y7280D01*
X55726Y7196D02*
X56100Y7196D01*
X55684Y7354D02*
X56092Y7354D01*
X55642Y7511D02*
X56049Y7511D01*
X55654Y7669D02*
X55990Y7669D01*
X56320Y7109D02*
X56060Y7368D01*
X55921Y7426D01*
X55782Y7368D01*
X55724Y7229D01*
X55782Y7090D01*
X56041Y6830D01*
X56181Y6773D01*
X56320Y6830D01*
X56377Y6969D01*
X56320Y7109D01*
X55942Y6930D02*
X56361Y6930D01*
X55784Y7088D02*
X56329Y7088D01*
X55731Y7245D02*
X56183Y7245D01*
X55865Y7403D02*
X55977Y7403D01*
X56586Y7065D02*
X56232Y7160D01*
X56082Y7140D01*
X55990Y7020D01*
X56010Y6871D01*
X56130Y6779D01*
X56484Y6684D01*
X56633Y6704D01*
X56725Y6824D01*
X56705Y6973D01*
X56586Y7065D01*
X56048Y6842D02*
X56723Y6842D01*
X55993Y6999D02*
X56671Y6999D01*
X56210Y7157D02*
X56242Y7157D01*
X56838Y7160D02*
X56484Y7065D01*
X56364Y6973D01*
X56345Y6824D01*
X56437Y6704D01*
X56586Y6684D01*
X56940Y6779D01*
X57060Y6871D01*
X57079Y7020D01*
X56988Y7140D01*
X56838Y7160D01*
X56347Y6842D02*
X57022Y6842D01*
X56399Y6999D02*
X57077Y6999D01*
X56828Y7157D02*
X56859Y7157D01*
X57009Y7368D02*
X56750Y7109D01*
X56692Y6969D01*
X56750Y6830D01*
X56889Y6773D01*
X57028Y6830D01*
X57288Y7090D01*
X57346Y7229D01*
X57288Y7368D01*
X57149Y7426D01*
X57009Y7368D01*
X56709Y6930D02*
X57128Y6930D01*
X56741Y7088D02*
X57286Y7088D01*
X56886Y7245D02*
X57339Y7245D01*
X57093Y7403D02*
X57205Y7403D01*
X57053Y7634D02*
X56959Y7280D01*
X56978Y7130D01*
X57098Y7039D01*
X57247Y7058D01*
X57339Y7178D01*
X57434Y7532D01*
X57414Y7682D01*
X57295Y7773D01*
X57145Y7754D01*
X57053Y7634D01*
X56970Y7196D02*
X57344Y7196D01*
X56978Y7354D02*
X57386Y7354D01*
X57021Y7511D02*
X57428Y7511D01*
X57080Y7669D02*
X57416Y7669D01*
X56023Y7583D02*
X56023Y8095D01*
X55965Y8234D01*
X55826Y8292D01*
X55687Y8234D01*
X55629Y8095D01*
X55629Y7583D01*
X55687Y7444D01*
X55826Y7386D01*
X55965Y7444D01*
X56023Y7583D01*
X55646Y7544D02*
X56007Y7544D01*
X55629Y7701D02*
X56023Y7701D01*
X55629Y7859D02*
X56023Y7859D01*
X55629Y8016D02*
X56023Y8016D01*
X55662Y8174D02*
X55991Y8174D01*
X56232Y8519D02*
X56586Y8613D01*
X56705Y8705D01*
X56725Y8855D01*
X56633Y8974D01*
X56484Y8994D01*
X56130Y8899D01*
X56010Y8807D01*
X55990Y8658D01*
X56082Y8538D01*
X56232Y8519D01*
X55993Y8676D02*
X56667Y8676D01*
X56045Y8834D02*
X56722Y8834D01*
X56474Y8991D02*
X56505Y8991D01*
X56060Y8310D02*
X56320Y8570D01*
X56377Y8709D01*
X56320Y8848D01*
X56181Y8906D01*
X56041Y8848D01*
X55782Y8588D01*
X55724Y8449D01*
X55782Y8310D01*
X55921Y8252D01*
X56060Y8310D01*
X55741Y8410D02*
X56160Y8410D01*
X55773Y8567D02*
X56318Y8567D01*
X55918Y8725D02*
X56371Y8725D01*
X56125Y8882D02*
X56237Y8882D01*
X56016Y8044D02*
X56111Y8398D01*
X56092Y8548D01*
X55972Y8639D01*
X55823Y8620D01*
X55731Y8500D01*
X55636Y8146D01*
X55656Y7997D01*
X55775Y7905D01*
X55925Y7924D01*
X56016Y8044D01*
X55647Y8062D02*
X56021Y8062D01*
X55656Y8220D02*
X56064Y8220D01*
X55698Y8377D02*
X56106Y8377D01*
X55758Y8535D02*
X56093Y8535D01*
X56535Y8607D02*
X56732Y8607D01*
X56871Y8664D01*
X56929Y8804D01*
X56871Y8943D01*
X56732Y9000D01*
X56535Y9000D01*
X56396Y8943D01*
X56338Y8804D01*
X56396Y8664D01*
X56535Y8607D01*
X56354Y8764D02*
X56912Y8764D01*
X56387Y8922D02*
X56880Y8922D01*
X56732Y9000D02*
X56535Y9000D01*
X56396Y8943D01*
X56338Y8804D01*
X56396Y8664D01*
X56535Y8607D01*
X56732Y8607D01*
X56871Y8664D01*
X56929Y8804D01*
X56871Y8943D01*
X56732Y9000D01*
X56354Y8764D02*
X56912Y8764D01*
X56387Y8922D02*
X56880Y8922D01*
X56105Y9231D02*
X56018Y9597D01*
X55929Y9719D01*
X55781Y9743D01*
X55659Y9655D01*
X55635Y9506D01*
X55722Y9139D01*
X55811Y9017D01*
X55960Y8993D01*
X56082Y9082D01*
X56105Y9231D01*
X55720Y9151D02*
X56093Y9151D01*
X55682Y9308D02*
X56087Y9308D01*
X55644Y9466D02*
X56049Y9466D01*
X55654Y9623D02*
X55999Y9623D01*
X56316Y9046D02*
X56057Y9320D01*
X55919Y9382D01*
X55779Y9328D01*
X55717Y9190D01*
X55771Y9049D01*
X56030Y8776D01*
X56168Y8714D01*
X56309Y8768D01*
X56370Y8906D01*
X56316Y9046D01*
X55939Y8872D02*
X56355Y8872D01*
X55790Y9029D02*
X56323Y9029D01*
X55718Y9187D02*
X56183Y9187D01*
X55821Y9344D02*
X56003Y9344D01*
X56591Y8992D02*
X56229Y9100D01*
X56080Y9084D01*
X55985Y8967D01*
X56000Y8817D01*
X56117Y8722D01*
X56479Y8615D01*
X56629Y8631D01*
X56724Y8748D01*
X56708Y8897D01*
X56591Y8992D01*
X56055Y8772D02*
X56721Y8772D01*
X55989Y8930D02*
X56668Y8930D01*
X56111Y9087D02*
X56271Y9087D01*
X56023Y9552D02*
X56023Y9709D01*
X55965Y9848D01*
X55826Y9906D01*
X55687Y9848D01*
X55629Y9709D01*
X55629Y9552D01*
X55687Y9412D01*
X55826Y9355D01*
X55965Y9412D01*
X56023Y9552D01*
X55646Y9512D02*
X56007Y9512D01*
X55629Y9670D02*
X56023Y9670D01*
X55678Y9827D02*
X55974Y9827D01*
X56959Y10013D02*
X57053Y9658D01*
X57145Y9539D01*
X57295Y9519D01*
X57414Y9611D01*
X57434Y9760D01*
X57339Y10114D01*
X57247Y10234D01*
X57098Y10254D01*
X56978Y10162D01*
X56959Y10013D01*
X57049Y9676D02*
X57423Y9676D01*
X57006Y9834D02*
X57414Y9834D01*
X56964Y9991D02*
X57372Y9991D01*
X56976Y10149D02*
X57312Y10149D01*
X56750Y10184D02*
X57009Y9924D01*
X57149Y9867D01*
X57288Y9924D01*
X57346Y10063D01*
X57288Y10203D01*
X57028Y10462D01*
X56889Y10520D01*
X56750Y10462D01*
X56692Y10323D01*
X56750Y10184D01*
X56910Y10024D02*
X57329Y10024D01*
X56752Y10182D02*
X57297Y10182D01*
X56699Y10339D02*
X57151Y10339D01*
X56833Y10497D02*
X56945Y10497D01*
X56484Y10228D02*
X56838Y10133D01*
X56988Y10152D01*
X57079Y10272D01*
X57060Y10421D01*
X56940Y10513D01*
X56586Y10608D01*
X56437Y10588D01*
X56345Y10469D01*
X56364Y10319D01*
X56484Y10228D01*
X56402Y10290D02*
X57077Y10290D01*
X56348Y10448D02*
X57025Y10448D01*
X56565Y10605D02*
X56596Y10605D01*
X56232Y10133D02*
X56586Y10228D01*
X56705Y10319D01*
X56725Y10469D01*
X56633Y10588D01*
X56484Y10608D01*
X56130Y10513D01*
X56010Y10421D01*
X55990Y10272D01*
X56082Y10152D01*
X56232Y10133D01*
X55993Y10290D02*
X56667Y10290D01*
X56045Y10448D02*
X56722Y10448D01*
X56474Y10605D02*
X56505Y10605D01*
X56060Y9924D02*
X56320Y10184D01*
X56377Y10323D01*
X56320Y10462D01*
X56181Y10520D01*
X56041Y10462D01*
X55782Y10203D01*
X55724Y10063D01*
X55782Y9924D01*
X55921Y9867D01*
X56060Y9924D01*
X55741Y10024D02*
X56160Y10024D01*
X55773Y10182D02*
X56318Y10182D01*
X55918Y10339D02*
X56371Y10339D01*
X56125Y10497D02*
X56237Y10497D01*
X56016Y9658D02*
X56111Y10013D01*
X56092Y10162D01*
X55972Y10254D01*
X55823Y10234D01*
X55731Y10114D01*
X55636Y9760D01*
X55656Y9611D01*
X55775Y9519D01*
X55925Y9539D01*
X56016Y9658D01*
X55647Y9676D02*
X56021Y9676D01*
X55656Y9834D02*
X56064Y9834D01*
X55698Y9991D02*
X56106Y9991D01*
X55758Y10149D02*
X56093Y10149D01*
X52303Y10418D02*
X52303Y6875D01*
X52360Y6735D01*
X52500Y6678D01*
X52639Y6735D01*
X52696Y6875D01*
X52696Y10418D01*
X52639Y10557D01*
X52500Y10615D01*
X52360Y10557D01*
X52303Y10418D01*
X52319Y6835D02*
X52680Y6835D01*
X52303Y6993D02*
X52696Y6993D01*
X52303Y7150D02*
X52696Y7150D01*
X52303Y7308D02*
X52696Y7308D01*
X52303Y7465D02*
X52696Y7465D01*
X52303Y7623D02*
X52696Y7623D01*
X52303Y7780D02*
X52696Y7780D01*
X52303Y7937D02*
X52696Y7937D01*
X52303Y8095D02*
X52696Y8095D01*
X52303Y8252D02*
X52696Y8252D01*
X52303Y8410D02*
X52696Y8410D01*
X52303Y8567D02*
X52696Y8567D01*
X52303Y8725D02*
X52696Y8725D01*
X52303Y8882D02*
X52696Y8882D01*
X52303Y9040D02*
X52696Y9040D01*
X52303Y9197D02*
X52696Y9197D01*
X52303Y9355D02*
X52696Y9355D01*
X52303Y9512D02*
X52696Y9512D01*
X52303Y9670D02*
X52696Y9670D01*
X52303Y9827D02*
X52696Y9827D01*
X52303Y9985D02*
X52696Y9985D01*
X52303Y10142D02*
X52696Y10142D01*
X52303Y10300D02*
X52696Y10300D01*
X52319Y10457D02*
X52680Y10457D01*
X52500Y10615D02*
X52500Y10615D01*
X51014Y8936D02*
X50603Y8838D01*
X50481Y8749D01*
X50458Y8600D01*
X50546Y8478D01*
X50695Y8455D01*
X51106Y8553D01*
X51228Y8642D01*
X51252Y8791D01*
X51163Y8913D01*
X51014Y8936D01*
X50460Y8612D02*
X51187Y8612D01*
X50510Y8770D02*
X51248Y8770D01*
X50976Y8927D02*
X51072Y8927D01*
X51254Y9169D02*
X50932Y8895D01*
X50864Y8760D01*
X50911Y8617D01*
X51045Y8549D01*
X51188Y8595D01*
X51510Y8870D01*
X51578Y9004D01*
X51531Y9147D01*
X51397Y9216D01*
X51254Y9169D01*
X50882Y8706D02*
X51318Y8706D01*
X50917Y8864D02*
X51502Y8864D01*
X51080Y9021D02*
X51572Y9021D01*
X51283Y9179D02*
X51470Y9179D01*
X51362Y9485D02*
X51200Y9095D01*
X51200Y8944D01*
X51306Y8838D01*
X51457Y8838D01*
X51564Y8944D01*
X51725Y9335D01*
X51725Y9485D01*
X51619Y9592D01*
X51468Y9592D01*
X51362Y9485D01*
X51200Y8995D02*
X51585Y8995D01*
X51224Y9153D02*
X51650Y9153D01*
X51289Y9310D02*
X51715Y9310D01*
X51354Y9467D02*
X51725Y9467D01*
X51314Y9816D02*
X51347Y9395D01*
X51416Y9260D01*
X51559Y9214D01*
X51693Y9282D01*
X51740Y9425D01*
X51707Y9847D01*
X51638Y9981D01*
X51495Y10028D01*
X51361Y9959D01*
X51314Y9816D01*
X51359Y9371D02*
X51722Y9371D01*
X51337Y9529D02*
X51732Y9529D01*
X51324Y9686D02*
X51719Y9686D01*
X51323Y9844D02*
X51707Y9844D01*
X51443Y10001D02*
X51577Y10001D01*
X51122Y10089D02*
X51342Y9729D01*
X51464Y9640D01*
X51613Y9664D01*
X51702Y9786D01*
X51678Y9934D01*
X51457Y10295D01*
X51335Y10383D01*
X51187Y10360D01*
X51098Y10238D01*
X51122Y10089D01*
X51300Y9798D02*
X51700Y9798D01*
X51204Y9955D02*
X51665Y9955D01*
X51118Y10113D02*
X51569Y10113D01*
X51121Y10270D02*
X51472Y10270D01*
X50826Y10245D02*
X51187Y10024D01*
X51335Y10001D01*
X51457Y10089D01*
X51481Y10238D01*
X51392Y10360D01*
X51032Y10581D01*
X50883Y10604D01*
X50761Y10516D01*
X50738Y10367D01*
X50826Y10245D01*
X50968Y10158D02*
X51468Y10158D01*
X50775Y10316D02*
X51424Y10316D01*
X50754Y10473D02*
X51208Y10473D01*
X50492Y10250D02*
X50913Y10217D01*
X51057Y10263D01*
X51125Y10397D01*
X51079Y10541D01*
X50944Y10609D01*
X50523Y10642D01*
X50380Y10596D01*
X50311Y10461D01*
X50358Y10318D01*
X50492Y10250D01*
X50340Y10374D02*
X51113Y10374D01*
X50347Y10532D02*
X51082Y10532D01*
X50192Y10102D02*
X50583Y10264D01*
X50689Y10371D01*
X50689Y10521D01*
X50583Y10628D01*
X50432Y10628D01*
X50042Y10466D01*
X49935Y10360D01*
X49935Y10209D01*
X50042Y10102D01*
X50192Y10102D01*
X49935Y10260D02*
X50572Y10260D01*
X49993Y10417D02*
X50689Y10417D01*
X50304Y10575D02*
X50636Y10575D01*
X49992Y9835D02*
X50267Y10156D01*
X50313Y10300D01*
X50245Y10434D01*
X50101Y10480D01*
X49967Y10412D01*
X49693Y10091D01*
X49646Y9947D01*
X49714Y9813D01*
X49858Y9767D01*
X49992Y9835D01*
X49658Y9924D02*
X50068Y9924D01*
X49690Y10081D02*
X50203Y10081D01*
X49819Y10239D02*
X50293Y10239D01*
X49954Y10396D02*
X50264Y10396D01*
X49935Y9506D02*
X50034Y9917D01*
X50010Y10066D01*
X49888Y10154D01*
X49739Y10131D01*
X49651Y10009D01*
X49552Y9598D01*
X49576Y9449D01*
X49698Y9360D01*
X49846Y9384D01*
X49935Y9506D01*
X49565Y9518D02*
X49938Y9518D01*
X49571Y9675D02*
X49976Y9675D01*
X49609Y9833D02*
X50014Y9833D01*
X49646Y9990D02*
X50022Y9990D01*
X49847Y10148D02*
X49897Y10148D01*
X50250Y8346D02*
X50696Y8455D01*
X50817Y8544D01*
X50840Y8693D01*
X50751Y8814D01*
X50602Y8837D01*
X50157Y8728D01*
X50035Y8639D01*
X50013Y8491D01*
X50102Y8369D01*
X50250Y8346D01*
X50015Y8504D02*
X50762Y8504D01*
X50065Y8661D02*
X50835Y8661D01*
X50525Y8818D02*
X50725Y8818D01*
X50009Y8078D02*
X50340Y8395D01*
X50401Y8533D01*
X50346Y8673D01*
X50208Y8734D01*
X50068Y8679D01*
X49736Y8363D01*
X49676Y8225D01*
X49730Y8084D01*
X49868Y8023D01*
X50009Y8078D01*
X49693Y8181D02*
X50116Y8181D01*
X49726Y8338D02*
X50281Y8338D01*
X49876Y8496D02*
X50384Y8496D01*
X50040Y8653D02*
X50354Y8653D01*
X49933Y7725D02*
X50061Y8165D01*
X50045Y8315D01*
X49928Y8409D01*
X49778Y8393D01*
X49683Y8275D01*
X49555Y7835D01*
X49571Y7686D01*
X49689Y7591D01*
X49839Y7608D01*
X49933Y7725D01*
X49565Y7749D02*
X49940Y7749D01*
X49576Y7906D02*
X49986Y7906D01*
X49622Y8064D02*
X50032Y8064D01*
X49668Y8221D02*
X50055Y8221D01*
X49766Y8379D02*
X49966Y8379D01*
X50044Y7381D02*
X49935Y7827D01*
X49846Y7948D01*
X49697Y7971D01*
X49576Y7882D01*
X49553Y7733D01*
X49662Y7288D01*
X49751Y7167D01*
X49900Y7144D01*
X50021Y7233D01*
X50044Y7381D01*
X49658Y7301D02*
X50032Y7301D01*
X49620Y7458D02*
X50025Y7458D01*
X49582Y7616D02*
X49987Y7616D01*
X49559Y7773D02*
X49948Y7773D01*
X49642Y7931D02*
X49859Y7931D01*
X50312Y7140D02*
X49995Y7471D01*
X49857Y7532D01*
X49717Y7477D01*
X49656Y7339D01*
X49711Y7199D01*
X50028Y6867D01*
X50165Y6807D01*
X50306Y6861D01*
X50367Y6999D01*
X50312Y7140D01*
X49935Y6964D02*
X50351Y6964D01*
X49784Y7122D02*
X50319Y7122D01*
X49679Y7279D02*
X50179Y7279D01*
X49699Y7437D02*
X50028Y7437D01*
X50665Y7064D02*
X50225Y7192D01*
X50075Y7176D01*
X49981Y7059D01*
X49997Y6909D01*
X50115Y6814D01*
X50555Y6686D01*
X50704Y6702D01*
X50799Y6820D01*
X50783Y6970D01*
X50665Y7064D01*
X50079Y6843D02*
X50796Y6843D01*
X49987Y7001D02*
X50743Y7001D01*
X50061Y7158D02*
X50341Y7158D01*
X51009Y7175D02*
X50563Y7066D01*
X50442Y6977D01*
X50419Y6828D01*
X50508Y6707D01*
X50657Y6684D01*
X51102Y6792D01*
X51224Y6881D01*
X51247Y7030D01*
X51158Y7152D01*
X51009Y7175D01*
X50421Y6841D02*
X51169Y6841D01*
X50471Y6999D02*
X51242Y6999D01*
X50932Y7156D02*
X51130Y7156D01*
X51251Y7443D02*
X50919Y7126D01*
X50858Y6988D01*
X50913Y6848D01*
X51051Y6787D01*
X51191Y6841D01*
X51523Y7158D01*
X51583Y7296D01*
X51529Y7437D01*
X51391Y7497D01*
X51251Y7443D01*
X50875Y6944D02*
X51299Y6944D01*
X50909Y7102D02*
X51464Y7102D01*
X51059Y7259D02*
X51567Y7259D01*
X51223Y7417D02*
X51537Y7417D01*
X51326Y7796D02*
X51198Y7356D01*
X51214Y7206D01*
X51331Y7112D01*
X51481Y7128D01*
X51576Y7245D01*
X51704Y7685D01*
X51688Y7835D01*
X51570Y7930D01*
X51421Y7913D01*
X51326Y7796D01*
X51207Y7269D02*
X51583Y7269D01*
X51218Y7427D02*
X51629Y7427D01*
X51264Y7584D02*
X51675Y7584D01*
X51310Y7742D02*
X51698Y7742D01*
X51409Y7899D02*
X51609Y7899D01*
X48562Y8646D02*
X48562Y6875D01*
X48620Y6735D01*
X48759Y6678D01*
X48899Y6735D01*
X48956Y6875D01*
X48956Y8646D01*
X48899Y8785D01*
X48759Y8843D01*
X48620Y8785D01*
X48562Y8646D01*
X48579Y6835D02*
X48940Y6835D01*
X48562Y6993D02*
X48956Y6993D01*
X48562Y7150D02*
X48956Y7150D01*
X48562Y7308D02*
X48956Y7308D01*
X48562Y7465D02*
X48956Y7465D01*
X48562Y7623D02*
X48956Y7623D01*
X48562Y7780D02*
X48956Y7780D01*
X48562Y7937D02*
X48956Y7937D01*
X48562Y8095D02*
X48956Y8095D01*
X48562Y8252D02*
X48956Y8252D01*
X48562Y8410D02*
X48956Y8410D01*
X48562Y8567D02*
X48956Y8567D01*
X48595Y8725D02*
X48924Y8725D01*
X47893Y8449D02*
X48759Y8449D01*
X48899Y8507D01*
X48956Y8646D01*
X48899Y8785D01*
X48759Y8843D01*
X47893Y8843D01*
X47754Y8785D01*
X47696Y8646D01*
X47754Y8507D01*
X47893Y8449D01*
X47713Y8607D02*
X48940Y8607D01*
X47745Y8764D02*
X48907Y8764D01*
X47501Y10129D02*
X47944Y10247D01*
X48064Y10339D01*
X48083Y10488D01*
X47992Y10608D01*
X47842Y10628D01*
X47399Y10509D01*
X47280Y10417D01*
X47260Y10268D01*
X47352Y10148D01*
X47501Y10129D01*
X47263Y10286D02*
X47995Y10286D01*
X47314Y10444D02*
X48077Y10444D01*
X47743Y10601D02*
X47997Y10601D01*
X47265Y9855D02*
X47589Y10180D01*
X47647Y10319D01*
X47589Y10458D01*
X47450Y10516D01*
X47311Y10458D01*
X46987Y10134D01*
X46929Y9995D01*
X46987Y9855D01*
X47126Y9798D01*
X47265Y9855D01*
X46946Y9955D02*
X47365Y9955D01*
X46978Y10113D02*
X47523Y10113D01*
X47123Y10270D02*
X47627Y10270D01*
X47281Y10428D02*
X47602Y10428D01*
X47198Y9501D02*
X47316Y9944D01*
X47297Y10093D01*
X47177Y10185D01*
X47028Y10165D01*
X46936Y10046D01*
X46817Y9603D01*
X46837Y9453D01*
X46956Y9362D01*
X47106Y9381D01*
X47198Y9501D01*
X46828Y9519D02*
X47202Y9519D01*
X46837Y9676D02*
X47245Y9676D01*
X46879Y9834D02*
X47287Y9834D01*
X46921Y9991D02*
X47310Y9991D01*
X47015Y10149D02*
X47224Y10149D01*
X47316Y9160D02*
X47198Y9603D01*
X47106Y9722D01*
X46956Y9742D01*
X46837Y9650D01*
X46817Y9501D01*
X46936Y9058D01*
X47028Y8938D01*
X47177Y8919D01*
X47297Y9010D01*
X47316Y9160D01*
X46931Y9076D02*
X47305Y9076D01*
X46889Y9234D02*
X47296Y9234D01*
X46847Y9391D02*
X47254Y9391D01*
X46824Y9549D02*
X47212Y9549D01*
X46910Y9706D02*
X47118Y9706D01*
X47589Y8924D02*
X47265Y9248D01*
X47126Y9306D01*
X46987Y9248D01*
X46929Y9109D01*
X46987Y8970D01*
X47311Y8645D01*
X47450Y8588D01*
X47589Y8645D01*
X47647Y8785D01*
X47589Y8924D01*
X47211Y8745D02*
X47631Y8745D01*
X47054Y8903D02*
X47598Y8903D01*
X46949Y9060D02*
X47453Y9060D01*
X46974Y9218D02*
X47296Y9218D01*
X47944Y8856D02*
X47501Y8975D01*
X47352Y8955D01*
X47260Y8835D01*
X47280Y8686D01*
X47399Y8594D01*
X47842Y8476D01*
X47992Y8495D01*
X48083Y8615D01*
X48064Y8764D01*
X47944Y8856D01*
X47349Y8633D02*
X48081Y8633D01*
X47266Y8791D02*
X48029Y8791D01*
X47347Y8948D02*
X47600Y8948D01*
X48759Y10615D02*
X47893Y10615D01*
X47754Y10557D01*
X47696Y10418D01*
X47754Y10279D01*
X47893Y10221D01*
X48759Y10221D01*
X48899Y10279D01*
X48956Y10418D01*
X48899Y10557D01*
X48759Y10615D01*
X47713Y10378D02*
X48940Y10378D01*
X47745Y10536D02*
X48907Y10536D01*
X48956Y8646D02*
X48956Y10418D01*
X48899Y10557D01*
X48759Y10615D01*
X48620Y10557D01*
X48562Y10418D01*
X48562Y8646D01*
X48620Y8507D01*
X48759Y8449D01*
X48899Y8507D01*
X48956Y8646D01*
X48579Y8607D02*
X48940Y8607D01*
X48562Y8764D02*
X48956Y8764D01*
X48562Y8922D02*
X48956Y8922D01*
X48562Y9079D02*
X48956Y9079D01*
X48562Y9237D02*
X48956Y9237D01*
X48562Y9394D02*
X48956Y9394D01*
X48562Y9552D02*
X48956Y9552D01*
X48562Y9709D02*
X48956Y9709D01*
X48562Y9867D02*
X48956Y9867D01*
X48562Y10024D02*
X48956Y10024D01*
X48562Y10182D02*
X48956Y10182D01*
X48562Y10339D02*
X48956Y10339D01*
X48595Y10497D02*
X48924Y10497D01*
X16937Y27952D02*
X13394Y27952D01*
X13255Y27894D01*
X13197Y27755D01*
X13255Y27616D01*
X13394Y27558D01*
X16937Y27558D01*
X17076Y27616D01*
X17134Y27755D01*
X17076Y27894D01*
X16937Y27952D01*
X13213Y27716D02*
X17118Y27716D01*
X13246Y27873D02*
X17085Y27873D01*
X16740Y28621D02*
X16740Y27755D01*
X16798Y27616D01*
X16937Y27558D01*
X17076Y27616D01*
X17134Y27755D01*
X17134Y28621D01*
X17076Y28760D01*
X16937Y28818D01*
X16798Y28760D01*
X16740Y28621D01*
X16757Y27716D02*
X17118Y27716D01*
X16740Y27873D02*
X17134Y27873D01*
X16740Y28031D02*
X17134Y28031D01*
X16740Y28188D02*
X17134Y28188D01*
X16740Y28346D02*
X17134Y28346D01*
X16740Y28503D02*
X17134Y28503D01*
X16757Y28661D02*
X17118Y28661D01*
X16937Y28818D02*
X16937Y28818D01*
X16648Y29013D02*
X16767Y28570D01*
X16858Y28451D01*
X17008Y28431D01*
X17127Y28523D01*
X17147Y28672D01*
X17028Y29115D01*
X16937Y29235D01*
X16787Y29254D01*
X16668Y29163D01*
X16648Y29013D01*
X16762Y28589D02*
X17136Y28589D01*
X16720Y28746D02*
X17127Y28746D01*
X16677Y28903D02*
X17085Y28903D01*
X16654Y29061D02*
X17043Y29061D01*
X16741Y29218D02*
X16949Y29218D01*
X16375Y29249D02*
X16699Y28925D01*
X16838Y28867D01*
X16977Y28925D01*
X17035Y29064D01*
X16977Y29203D01*
X16653Y29528D01*
X16514Y29585D01*
X16375Y29528D01*
X16317Y29388D01*
X16375Y29249D01*
X16599Y29025D02*
X17019Y29025D01*
X16442Y29182D02*
X16986Y29182D01*
X16337Y29340D02*
X16841Y29340D01*
X16362Y29497D02*
X16684Y29497D01*
X16020Y29317D02*
X16463Y29198D01*
X16612Y29218D01*
X16704Y29337D01*
X16684Y29487D01*
X16565Y29578D01*
X16122Y29697D01*
X15973Y29678D01*
X15881Y29558D01*
X15901Y29409D01*
X16020Y29317D01*
X15970Y29356D02*
X16702Y29356D01*
X15887Y29513D02*
X16650Y29513D01*
X15967Y29671D02*
X16221Y29671D01*
X15679Y29198D02*
X16122Y29317D01*
X16242Y29409D01*
X16261Y29558D01*
X16169Y29678D01*
X16020Y29697D01*
X15577Y29578D01*
X15458Y29487D01*
X15438Y29337D01*
X15530Y29218D01*
X15679Y29198D01*
X15440Y29356D02*
X16173Y29356D01*
X15492Y29513D02*
X16255Y29513D01*
X15921Y29671D02*
X16175Y29671D01*
X15443Y28925D02*
X15767Y29249D01*
X15825Y29388D01*
X15767Y29528D01*
X15628Y29585D01*
X15489Y29528D01*
X15165Y29203D01*
X15107Y29064D01*
X15165Y28925D01*
X15304Y28867D01*
X15443Y28925D01*
X15123Y29025D02*
X15543Y29025D01*
X15156Y29182D02*
X15700Y29182D01*
X15301Y29340D02*
X15805Y29340D01*
X15459Y29497D02*
X15780Y29497D01*
X15375Y28570D02*
X15494Y29013D01*
X15474Y29163D01*
X15355Y29254D01*
X15205Y29235D01*
X15114Y29115D01*
X14995Y28672D01*
X15015Y28523D01*
X15134Y28431D01*
X15284Y28451D01*
X15375Y28570D01*
X15006Y28589D02*
X15380Y28589D01*
X15015Y28746D02*
X15422Y28746D01*
X15057Y28903D02*
X15465Y28903D01*
X15099Y29061D02*
X15488Y29061D01*
X15193Y29218D02*
X15401Y29218D01*
X15362Y27755D02*
X15362Y28621D01*
X15305Y28760D01*
X15166Y28818D01*
X15026Y28760D01*
X14969Y28621D01*
X14969Y27755D01*
X15026Y27616D01*
X15166Y27558D01*
X15305Y27616D01*
X15362Y27755D01*
X14985Y27716D02*
X15346Y27716D01*
X14969Y27873D02*
X15362Y27873D01*
X14969Y28031D02*
X15362Y28031D01*
X14969Y28188D02*
X15362Y28188D01*
X14969Y28346D02*
X15362Y28346D01*
X14969Y28503D02*
X15362Y28503D01*
X14985Y28661D02*
X15346Y28661D01*
X15166Y28818D02*
X15166Y28818D01*
X13304Y29351D02*
X15076Y28446D01*
X15226Y28434D01*
X15341Y28532D01*
X15353Y28682D01*
X15255Y28796D01*
X13483Y29702D01*
X13333Y29714D01*
X13219Y29616D01*
X13207Y29466D01*
X13304Y29351D01*
X14791Y28591D02*
X15346Y28591D01*
X14483Y28749D02*
X15296Y28749D01*
X14175Y28906D02*
X15040Y28906D01*
X13867Y29064D02*
X14732Y29064D01*
X13559Y29221D02*
X14424Y29221D01*
X13281Y29379D02*
X14116Y29379D01*
X13212Y29536D02*
X13808Y29536D01*
X13310Y29694D02*
X13500Y29694D01*
X14333Y30328D02*
X17010Y31391D01*
X17118Y31496D01*
X17120Y31647D01*
X17015Y31755D01*
X16865Y31757D01*
X14187Y30694D01*
X14079Y30589D01*
X14077Y30438D01*
X14182Y30330D01*
X14333Y30328D01*
X14078Y30485D02*
X14729Y30485D01*
X14135Y30643D02*
X15126Y30643D01*
X14456Y30800D02*
X15523Y30800D01*
X14852Y30958D02*
X15919Y30958D01*
X15249Y31115D02*
X16316Y31115D01*
X15646Y31273D02*
X16712Y31273D01*
X16042Y31430D02*
X17050Y31430D01*
X16439Y31588D02*
X17119Y31588D01*
X16835Y31745D02*
X17024Y31745D01*
X14063Y31928D02*
X14063Y30511D01*
X14121Y30372D01*
X14260Y30314D01*
X14399Y30372D01*
X14457Y30511D01*
X14457Y31928D01*
X14399Y32067D01*
X14260Y32125D01*
X14121Y32067D01*
X14063Y31928D01*
X14079Y30472D02*
X14441Y30472D01*
X14063Y30629D02*
X14457Y30629D01*
X14063Y30787D02*
X14457Y30787D01*
X14063Y30944D02*
X14457Y30944D01*
X14063Y31102D02*
X14457Y31102D01*
X14063Y31259D02*
X14457Y31259D01*
X14063Y31416D02*
X14457Y31416D01*
X14063Y31574D02*
X14457Y31574D01*
X14063Y31731D02*
X14457Y31731D01*
X14063Y31889D02*
X14457Y31889D01*
X14112Y32046D02*
X14408Y32046D01*
X13394Y31377D02*
X14969Y31377D01*
X15108Y31435D01*
X15166Y31574D01*
X15108Y31713D01*
X14969Y31771D01*
X13394Y31771D01*
X13255Y31713D01*
X13197Y31574D01*
X13255Y31435D01*
X13394Y31377D01*
X13213Y31535D02*
X15149Y31535D01*
X13246Y31692D02*
X15117Y31692D01*
X16798Y36237D02*
X16089Y35529D01*
X16032Y35389D01*
X16089Y35250D01*
X16229Y35192D01*
X16368Y35250D01*
X17076Y35959D01*
X17134Y36098D01*
X17076Y36237D01*
X16937Y36295D01*
X16798Y36237D01*
X16048Y35350D02*
X16468Y35350D01*
X16081Y35507D02*
X16625Y35507D01*
X16226Y35665D02*
X16783Y35665D01*
X16383Y35822D02*
X16940Y35822D01*
X16541Y35980D02*
X17085Y35980D01*
X16698Y36137D02*
X17118Y36137D01*
X16937Y36295D02*
X16937Y36295D01*
X13394Y35901D02*
X16937Y35901D01*
X17076Y35959D01*
X17134Y36098D01*
X17076Y36237D01*
X16937Y36295D01*
X13394Y36295D01*
X13255Y36237D01*
X13197Y36098D01*
X13255Y35959D01*
X13394Y35901D01*
X13213Y36059D02*
X17118Y36059D01*
X13246Y36216D02*
X17085Y36216D01*
X14103Y38303D02*
X16229Y38303D01*
X16368Y38360D01*
X16425Y38500D01*
X16368Y38639D01*
X16229Y38696D01*
X14103Y38696D01*
X13963Y38639D01*
X13906Y38500D01*
X13963Y38360D01*
X14103Y38303D01*
X13922Y38460D02*
X16409Y38460D01*
X13955Y38618D02*
X16376Y38618D01*
X16532Y37367D02*
X16178Y37272D01*
X16058Y37181D01*
X16038Y37031D01*
X16130Y36912D01*
X16279Y36892D01*
X16634Y36987D01*
X16753Y37079D01*
X16773Y37228D01*
X16681Y37348D01*
X16532Y37367D01*
X16041Y37050D02*
X16715Y37050D01*
X16092Y37207D02*
X16770Y37207D01*
X16522Y37365D02*
X16553Y37365D01*
X16703Y37576D02*
X16444Y37316D01*
X16386Y37177D01*
X16444Y37038D01*
X16583Y36980D01*
X16722Y37038D01*
X16981Y37297D01*
X17039Y37437D01*
X16981Y37576D01*
X16842Y37633D01*
X16703Y37576D01*
X16402Y37138D02*
X16822Y37138D01*
X16435Y37295D02*
X16979Y37295D01*
X16580Y37453D02*
X17032Y37453D01*
X16786Y37610D02*
X16898Y37610D01*
X16747Y37842D02*
X16652Y37488D01*
X16672Y37338D01*
X16791Y37246D01*
X16941Y37266D01*
X17032Y37386D01*
X17127Y37740D01*
X17108Y37889D01*
X16988Y37981D01*
X16839Y37961D01*
X16747Y37842D01*
X16663Y37404D02*
X17037Y37404D01*
X16672Y37561D02*
X17079Y37561D01*
X16714Y37719D02*
X17122Y37719D01*
X16774Y37876D02*
X17109Y37876D01*
X16652Y38094D02*
X16747Y37740D01*
X16839Y37620D01*
X16988Y37601D01*
X17108Y37692D01*
X17127Y37842D01*
X17032Y38196D01*
X16941Y38316D01*
X16791Y38335D01*
X16672Y38244D01*
X16652Y38094D01*
X16742Y37758D02*
X17116Y37758D01*
X16700Y37916D02*
X17108Y37916D01*
X16658Y38073D02*
X17065Y38073D01*
X16670Y38231D02*
X17006Y38231D01*
X16444Y38265D02*
X16703Y38006D01*
X16842Y37948D01*
X16981Y38006D01*
X17039Y38145D01*
X16981Y38284D01*
X16722Y38544D01*
X16583Y38601D01*
X16444Y38544D01*
X16386Y38405D01*
X16444Y38265D01*
X16603Y38106D02*
X17023Y38106D01*
X16446Y38263D02*
X16990Y38263D01*
X16393Y38421D02*
X16845Y38421D01*
X16527Y38578D02*
X16639Y38578D01*
X16178Y38309D02*
X16532Y38214D01*
X16681Y38234D01*
X16773Y38354D01*
X16753Y38503D01*
X16634Y38595D01*
X16279Y38690D01*
X16130Y38670D01*
X16038Y38551D01*
X16058Y38401D01*
X16178Y38309D01*
X16096Y38372D02*
X16771Y38372D01*
X16041Y38529D02*
X16719Y38529D01*
X16258Y38687D02*
X16290Y38687D01*
X16229Y37279D02*
X14103Y37279D01*
X13963Y37221D01*
X13906Y37082D01*
X13963Y36943D01*
X14103Y36885D01*
X16229Y36885D01*
X16368Y36943D01*
X16425Y37082D01*
X16368Y37221D01*
X16229Y37279D01*
X13922Y37043D02*
X16409Y37043D01*
X13955Y37200D02*
X16376Y37200D01*
X13799Y38214D02*
X14153Y38309D01*
X14273Y38401D01*
X14293Y38551D01*
X14201Y38670D01*
X14052Y38690D01*
X13697Y38595D01*
X13578Y38503D01*
X13558Y38354D01*
X13650Y38234D01*
X13799Y38214D01*
X13560Y38372D02*
X14235Y38372D01*
X13612Y38529D02*
X14290Y38529D01*
X14041Y38687D02*
X14073Y38687D01*
X13628Y38006D02*
X13887Y38265D01*
X13945Y38405D01*
X13887Y38544D01*
X13748Y38601D01*
X13609Y38544D01*
X13350Y38284D01*
X13292Y38145D01*
X13350Y38006D01*
X13489Y37948D01*
X13628Y38006D01*
X13308Y38106D02*
X13728Y38106D01*
X13341Y38263D02*
X13885Y38263D01*
X13486Y38421D02*
X13938Y38421D01*
X13692Y38578D02*
X13804Y38578D01*
X13584Y37740D02*
X13679Y38094D01*
X13659Y38244D01*
X13540Y38335D01*
X13390Y38316D01*
X13299Y38196D01*
X13204Y37842D01*
X13223Y37692D01*
X13343Y37601D01*
X13492Y37620D01*
X13584Y37740D01*
X13215Y37758D02*
X13589Y37758D01*
X13224Y37916D02*
X13631Y37916D01*
X13266Y38073D02*
X13673Y38073D01*
X13325Y38231D02*
X13661Y38231D01*
X13679Y37488D02*
X13584Y37842D01*
X13492Y37961D01*
X13343Y37981D01*
X13223Y37889D01*
X13204Y37740D01*
X13299Y37386D01*
X13390Y37266D01*
X13540Y37246D01*
X13659Y37338D01*
X13679Y37488D01*
X13294Y37404D02*
X13668Y37404D01*
X13252Y37561D02*
X13659Y37561D01*
X13209Y37719D02*
X13617Y37719D01*
X13222Y37876D02*
X13558Y37876D01*
X13887Y37316D02*
X13628Y37576D01*
X13489Y37633D01*
X13350Y37576D01*
X13292Y37437D01*
X13350Y37297D01*
X13609Y37038D01*
X13748Y36980D01*
X13887Y37038D01*
X13945Y37177D01*
X13887Y37316D01*
X13509Y37138D02*
X13929Y37138D01*
X13352Y37295D02*
X13896Y37295D01*
X13299Y37453D02*
X13751Y37453D01*
X13433Y37610D02*
X13545Y37610D01*
X14153Y37272D02*
X13799Y37367D01*
X13650Y37348D01*
X13558Y37228D01*
X13578Y37079D01*
X13697Y36987D01*
X14052Y36892D01*
X14201Y36912D01*
X14293Y37031D01*
X14273Y37181D01*
X14153Y37272D01*
X13616Y37050D02*
X14290Y37050D01*
X13561Y37207D02*
X14239Y37207D01*
X13778Y37365D02*
X13810Y37365D01*
X16937Y39681D02*
X13394Y39681D01*
X13255Y39623D01*
X13197Y39484D01*
X13255Y39345D01*
X13394Y39287D01*
X16937Y39287D01*
X17076Y39345D01*
X17134Y39484D01*
X17076Y39623D01*
X16937Y39681D01*
X13213Y39444D02*
X17118Y39444D01*
X13246Y39602D02*
X17085Y39602D01*
X16818Y41412D02*
X14495Y39640D01*
X14419Y39510D01*
X14458Y39364D01*
X14588Y39289D01*
X14734Y39327D01*
X17057Y41099D01*
X17132Y41229D01*
X17094Y41375D01*
X16963Y41451D01*
X16818Y41412D01*
X14436Y39446D02*
X14890Y39446D01*
X14474Y39604D02*
X15096Y39604D01*
X14653Y39761D02*
X15303Y39761D01*
X14860Y39919D02*
X15509Y39919D01*
X15066Y40076D02*
X15716Y40076D01*
X15273Y40234D02*
X15922Y40234D01*
X15479Y40391D02*
X16128Y40391D01*
X15686Y40549D02*
X16335Y40549D01*
X15892Y40706D02*
X16541Y40706D01*
X16099Y40864D02*
X16748Y40864D01*
X16305Y41021D02*
X16954Y41021D01*
X16512Y41178D02*
X17103Y41178D01*
X16718Y41336D02*
X17104Y41336D01*
X13306Y41079D02*
X15432Y40016D01*
X15582Y40006D01*
X15696Y40104D01*
X15707Y40255D01*
X15608Y40369D01*
X13482Y41432D01*
X13332Y41442D01*
X13218Y41343D01*
X13207Y41193D01*
X13306Y41079D01*
X15138Y40163D02*
X15700Y40163D01*
X14823Y40321D02*
X15649Y40321D01*
X14508Y40478D02*
X15389Y40478D01*
X14193Y40636D02*
X15074Y40636D01*
X13878Y40793D02*
X14759Y40793D01*
X13563Y40951D02*
X14444Y40951D01*
X13281Y41108D02*
X14129Y41108D01*
X13212Y41266D02*
X13814Y41266D01*
X13310Y41423D02*
X13499Y41423D01*
X56830Y47504D02*
X56830Y36875D01*
X56958Y36481D01*
X57293Y36238D01*
X57706Y36238D01*
X58041Y36481D01*
X58169Y36875D01*
X58169Y47504D01*
X58041Y47898D01*
X57706Y48141D01*
X57293Y48141D01*
X56958Y47898D01*
X56830Y47504D01*
X57076Y36395D02*
X57923Y36395D01*
X56935Y36553D02*
X58064Y36553D01*
X56884Y36710D02*
X58115Y36710D01*
X56832Y36868D02*
X58167Y36868D01*
X56830Y37025D02*
X58169Y37025D01*
X56830Y37183D02*
X58169Y37183D01*
X56830Y37340D02*
X58169Y37340D01*
X56830Y37498D02*
X58169Y37498D01*
X56830Y37655D02*
X58169Y37655D01*
X56830Y37813D02*
X58169Y37813D01*
X56830Y37970D02*
X58169Y37970D01*
X56830Y38128D02*
X58169Y38128D01*
X56830Y38285D02*
X58169Y38285D01*
X56830Y38443D02*
X58169Y38443D01*
X56830Y38600D02*
X58169Y38600D01*
X56830Y38758D02*
X58169Y38758D01*
X56830Y38915D02*
X58169Y38915D01*
X56830Y39073D02*
X58169Y39073D01*
X56830Y39230D02*
X58169Y39230D01*
X56830Y39388D02*
X58169Y39388D01*
X56830Y39545D02*
X58169Y39545D01*
X56830Y39703D02*
X58169Y39703D01*
X56830Y39860D02*
X58169Y39860D01*
X56830Y40017D02*
X58169Y40017D01*
X56830Y40175D02*
X58169Y40175D01*
X56830Y40332D02*
X58169Y40332D01*
X56830Y40490D02*
X58169Y40490D01*
X56830Y40647D02*
X58169Y40647D01*
X56830Y40805D02*
X58169Y40805D01*
X56830Y40962D02*
X58169Y40962D01*
X56830Y41120D02*
X58169Y41120D01*
X56830Y41277D02*
X58169Y41277D01*
X56830Y41435D02*
X58169Y41435D01*
X56830Y41592D02*
X58169Y41592D01*
X56830Y41750D02*
X58169Y41750D01*
X56830Y41907D02*
X58169Y41907D01*
X56830Y42065D02*
X58169Y42065D01*
X56830Y42222D02*
X58169Y42222D01*
X56830Y42380D02*
X58169Y42380D01*
X56830Y42537D02*
X58169Y42537D01*
X56830Y42695D02*
X58169Y42695D01*
X56830Y42852D02*
X58169Y42852D01*
X56830Y43010D02*
X58169Y43010D01*
X56830Y43167D02*
X58169Y43167D01*
X56830Y43325D02*
X58169Y43325D01*
X56830Y43482D02*
X58169Y43482D01*
X56830Y43640D02*
X58169Y43640D01*
X56830Y43797D02*
X58169Y43797D01*
X56830Y43955D02*
X58169Y43955D01*
X56830Y44112D02*
X58169Y44112D01*
X56830Y44269D02*
X58169Y44269D01*
X56830Y44427D02*
X58169Y44427D01*
X56830Y44584D02*
X58169Y44584D01*
X56830Y44742D02*
X58169Y44742D01*
X56830Y44899D02*
X58169Y44899D01*
X56830Y45057D02*
X58169Y45057D01*
X56830Y45214D02*
X58169Y45214D01*
X56830Y45372D02*
X58169Y45372D01*
X56830Y45529D02*
X58169Y45529D01*
X56830Y45687D02*
X58169Y45687D01*
X56830Y45844D02*
X58169Y45844D01*
X56830Y46002D02*
X58169Y46002D01*
X56830Y46159D02*
X58169Y46159D01*
X56830Y46317D02*
X58169Y46317D01*
X56830Y46474D02*
X58169Y46474D01*
X56830Y46632D02*
X58169Y46632D01*
X56830Y46789D02*
X58169Y46789D01*
X56830Y46947D02*
X58169Y46947D01*
X56830Y47104D02*
X58169Y47104D01*
X56830Y47262D02*
X58169Y47262D01*
X56830Y47419D02*
X58169Y47419D01*
X56854Y47577D02*
X58145Y47577D01*
X56905Y47734D02*
X58094Y47734D01*
X56956Y47892D02*
X58043Y47892D01*
X57166Y48049D02*
X57833Y48049D01*
X54439Y39768D02*
X58100Y47209D01*
X58159Y47618D01*
X57966Y47984D01*
X57595Y48167D01*
X57187Y48096D01*
X56899Y47800D01*
X53238Y40359D01*
X53179Y39950D01*
X53371Y39584D01*
X53743Y39401D01*
X54150Y39471D01*
X54439Y39768D01*
X53423Y39559D02*
X54235Y39559D01*
X53302Y39716D02*
X54388Y39716D01*
X53219Y39873D02*
X54491Y39873D01*
X53190Y40031D02*
X54568Y40031D01*
X53213Y40188D02*
X54645Y40188D01*
X53236Y40346D02*
X54723Y40346D01*
X53309Y40503D02*
X54800Y40503D01*
X53386Y40661D02*
X54878Y40661D01*
X53464Y40818D02*
X54955Y40818D01*
X53541Y40976D02*
X55033Y40976D01*
X53619Y41133D02*
X55110Y41133D01*
X53696Y41291D02*
X55188Y41291D01*
X53774Y41448D02*
X55265Y41448D01*
X53851Y41606D02*
X55343Y41606D01*
X53929Y41763D02*
X55420Y41763D01*
X54006Y41921D02*
X55498Y41921D01*
X54084Y42078D02*
X55575Y42078D01*
X54161Y42236D02*
X55653Y42236D01*
X54239Y42393D02*
X55730Y42393D01*
X54316Y42551D02*
X55808Y42551D01*
X54393Y42708D02*
X55885Y42708D01*
X54471Y42866D02*
X55963Y42866D01*
X54548Y43023D02*
X56040Y43023D01*
X54626Y43181D02*
X56118Y43181D01*
X54703Y43338D02*
X56195Y43338D01*
X54781Y43496D02*
X56273Y43496D01*
X54858Y43653D02*
X56350Y43653D01*
X54936Y43810D02*
X56428Y43810D01*
X55013Y43968D02*
X56505Y43968D01*
X55091Y44125D02*
X56583Y44125D01*
X55168Y44283D02*
X56660Y44283D01*
X55246Y44440D02*
X56738Y44440D01*
X55323Y44598D02*
X56815Y44598D01*
X55401Y44755D02*
X56893Y44755D01*
X55478Y44913D02*
X56970Y44913D01*
X55556Y45070D02*
X57048Y45070D01*
X55633Y45228D02*
X57125Y45228D01*
X55711Y45385D02*
X57203Y45385D01*
X55788Y45543D02*
X57280Y45543D01*
X55866Y45700D02*
X57358Y45700D01*
X55943Y45858D02*
X57435Y45858D01*
X56021Y46015D02*
X57513Y46015D01*
X56098Y46173D02*
X57590Y46173D01*
X56176Y46330D02*
X57668Y46330D01*
X56253Y46488D02*
X57745Y46488D01*
X56331Y46645D02*
X57823Y46645D01*
X56408Y46803D02*
X57900Y46803D01*
X56486Y46960D02*
X57978Y46960D01*
X56563Y47118D02*
X58055Y47118D01*
X56641Y47275D02*
X58110Y47275D01*
X56718Y47433D02*
X58132Y47433D01*
X56796Y47590D02*
X58155Y47590D01*
X56873Y47747D02*
X58091Y47747D01*
X57001Y47905D02*
X58008Y47905D01*
X57154Y48062D02*
X57807Y48062D01*
X49462Y47201D02*
X53241Y39760D01*
X53533Y39468D01*
X53942Y39402D01*
X54311Y39590D01*
X54499Y39958D01*
X54435Y40367D01*
X50655Y47808D01*
X50363Y48100D01*
X49955Y48166D01*
X49586Y47978D01*
X49398Y47610D01*
X49462Y47201D01*
X53441Y39560D02*
X54252Y39560D01*
X53284Y39717D02*
X54376Y39717D01*
X53183Y39875D02*
X54456Y39875D01*
X53103Y40032D02*
X54487Y40032D01*
X53023Y40190D02*
X54463Y40190D01*
X52943Y40347D02*
X54438Y40347D01*
X52863Y40505D02*
X54365Y40505D01*
X52783Y40662D02*
X54285Y40662D01*
X52703Y40820D02*
X54205Y40820D01*
X52623Y40977D02*
X54125Y40977D01*
X52543Y41135D02*
X54045Y41135D01*
X52463Y41292D02*
X53965Y41292D01*
X52383Y41450D02*
X53885Y41450D01*
X52303Y41607D02*
X53805Y41607D01*
X52223Y41765D02*
X53725Y41765D01*
X52143Y41922D02*
X53645Y41922D01*
X52063Y42079D02*
X53565Y42079D01*
X51983Y42237D02*
X53485Y42237D01*
X51903Y42394D02*
X53405Y42394D01*
X51823Y42552D02*
X53325Y42552D01*
X51743Y42709D02*
X53245Y42709D01*
X51663Y42867D02*
X53165Y42867D01*
X51583Y43024D02*
X53085Y43024D01*
X51503Y43182D02*
X53005Y43182D01*
X51423Y43339D02*
X52925Y43339D01*
X51344Y43497D02*
X52845Y43497D01*
X51264Y43654D02*
X52765Y43654D01*
X51184Y43812D02*
X52685Y43812D01*
X51104Y43969D02*
X52605Y43969D01*
X51024Y44127D02*
X52525Y44127D01*
X50944Y44284D02*
X52445Y44284D01*
X50864Y44442D02*
X52365Y44442D01*
X50784Y44599D02*
X52285Y44599D01*
X50704Y44757D02*
X52205Y44757D01*
X50624Y44914D02*
X52125Y44914D01*
X50544Y45072D02*
X52045Y45072D01*
X50464Y45229D02*
X51965Y45229D01*
X50384Y45387D02*
X51885Y45387D01*
X50304Y45544D02*
X51805Y45544D01*
X50224Y45702D02*
X51725Y45702D01*
X50144Y45859D02*
X51645Y45859D01*
X50064Y46016D02*
X51565Y46016D01*
X49984Y46174D02*
X51485Y46174D01*
X49904Y46331D02*
X51405Y46331D01*
X49824Y46489D02*
X51325Y46489D01*
X49744Y46646D02*
X51245Y46646D01*
X49664Y46804D02*
X51165Y46804D01*
X49584Y46961D02*
X51085Y46961D01*
X49504Y47119D02*
X51005Y47119D01*
X49450Y47276D02*
X50925Y47276D01*
X49425Y47434D02*
X50845Y47434D01*
X49401Y47591D02*
X50765Y47591D01*
X49469Y47749D02*
X50685Y47749D01*
X49549Y47906D02*
X50557Y47906D01*
X49754Y48064D02*
X50400Y48064D01*
X50728Y36875D02*
X50728Y47504D01*
X50600Y47898D01*
X50265Y48141D01*
X49852Y48141D01*
X49517Y47898D01*
X49389Y47504D01*
X49389Y36875D01*
X49517Y36481D01*
X49852Y36238D01*
X50265Y36238D01*
X50600Y36481D01*
X50728Y36875D01*
X49635Y36395D02*
X50482Y36395D01*
X49494Y36553D02*
X50623Y36553D01*
X49443Y36710D02*
X50675Y36710D01*
X49391Y36868D02*
X50726Y36868D01*
X49389Y37025D02*
X50728Y37025D01*
X49389Y37183D02*
X50728Y37183D01*
X49389Y37340D02*
X50728Y37340D01*
X49389Y37498D02*
X50728Y37498D01*
X49389Y37655D02*
X50728Y37655D01*
X49389Y37813D02*
X50728Y37813D01*
X49389Y37970D02*
X50728Y37970D01*
X49389Y38128D02*
X50728Y38128D01*
X49389Y38285D02*
X50728Y38285D01*
X49389Y38443D02*
X50728Y38443D01*
X49389Y38600D02*
X50728Y38600D01*
X49389Y38758D02*
X50728Y38758D01*
X49389Y38915D02*
X50728Y38915D01*
X49389Y39073D02*
X50728Y39073D01*
X49389Y39230D02*
X50728Y39230D01*
X49389Y39388D02*
X50728Y39388D01*
X49389Y39545D02*
X50728Y39545D01*
X49389Y39703D02*
X50728Y39703D01*
X49389Y39860D02*
X50728Y39860D01*
X49389Y40017D02*
X50728Y40017D01*
X49389Y40175D02*
X50728Y40175D01*
X49389Y40332D02*
X50728Y40332D01*
X49389Y40490D02*
X50728Y40490D01*
X49389Y40647D02*
X50728Y40647D01*
X49389Y40805D02*
X50728Y40805D01*
X49389Y40962D02*
X50728Y40962D01*
X49389Y41120D02*
X50728Y41120D01*
X49389Y41277D02*
X50728Y41277D01*
X49389Y41435D02*
X50728Y41435D01*
X49389Y41592D02*
X50728Y41592D01*
X49389Y41750D02*
X50728Y41750D01*
X49389Y41907D02*
X50728Y41907D01*
X49389Y42065D02*
X50728Y42065D01*
X49389Y42222D02*
X50728Y42222D01*
X49389Y42380D02*
X50728Y42380D01*
X49389Y42537D02*
X50728Y42537D01*
X49389Y42695D02*
X50728Y42695D01*
X49389Y42852D02*
X50728Y42852D01*
X49389Y43010D02*
X50728Y43010D01*
X49389Y43167D02*
X50728Y43167D01*
X49389Y43325D02*
X50728Y43325D01*
X49389Y43482D02*
X50728Y43482D01*
X49389Y43640D02*
X50728Y43640D01*
X49389Y43797D02*
X50728Y43797D01*
X49389Y43955D02*
X50728Y43955D01*
X49389Y44112D02*
X50728Y44112D01*
X49389Y44269D02*
X50728Y44269D01*
X49389Y44427D02*
X50728Y44427D01*
X49389Y44584D02*
X50728Y44584D01*
X49389Y44742D02*
X50728Y44742D01*
X49389Y44899D02*
X50728Y44899D01*
X49389Y45057D02*
X50728Y45057D01*
X49389Y45214D02*
X50728Y45214D01*
X49389Y45372D02*
X50728Y45372D01*
X49389Y45529D02*
X50728Y45529D01*
X49389Y45687D02*
X50728Y45687D01*
X49389Y45844D02*
X50728Y45844D01*
X49389Y46002D02*
X50728Y46002D01*
X49389Y46159D02*
X50728Y46159D01*
X49389Y46317D02*
X50728Y46317D01*
X49389Y46474D02*
X50728Y46474D01*
X49389Y46632D02*
X50728Y46632D01*
X49389Y46789D02*
X50728Y46789D01*
X49389Y46947D02*
X50728Y46947D01*
X49389Y47104D02*
X50728Y47104D01*
X49389Y47262D02*
X50728Y47262D01*
X49389Y47419D02*
X50728Y47419D01*
X49413Y47577D02*
X50704Y47577D01*
X49464Y47734D02*
X50653Y47734D01*
X49515Y47892D02*
X50602Y47892D01*
X49725Y48049D02*
X50392Y48049D01*
X46673Y42189D02*
X46673Y36875D01*
X46801Y36481D01*
X47135Y36238D01*
X47549Y36238D01*
X47883Y36481D01*
X48011Y36875D01*
X48011Y42189D01*
X47883Y42583D01*
X47549Y42826D01*
X47135Y42826D01*
X46801Y42583D01*
X46673Y42189D01*
X46918Y36395D02*
X47766Y36395D01*
X46777Y36553D02*
X47907Y36553D01*
X46726Y36710D02*
X47958Y36710D01*
X46675Y36868D02*
X48009Y36868D01*
X46673Y37025D02*
X48011Y37025D01*
X46673Y37183D02*
X48011Y37183D01*
X46673Y37340D02*
X48011Y37340D01*
X46673Y37498D02*
X48011Y37498D01*
X46673Y37655D02*
X48011Y37655D01*
X46673Y37813D02*
X48011Y37813D01*
X46673Y37970D02*
X48011Y37970D01*
X46673Y38128D02*
X48011Y38128D01*
X46673Y38285D02*
X48011Y38285D01*
X46673Y38443D02*
X48011Y38443D01*
X46673Y38600D02*
X48011Y38600D01*
X46673Y38758D02*
X48011Y38758D01*
X46673Y38915D02*
X48011Y38915D01*
X46673Y39073D02*
X48011Y39073D01*
X46673Y39230D02*
X48011Y39230D01*
X46673Y39388D02*
X48011Y39388D01*
X46673Y39545D02*
X48011Y39545D01*
X46673Y39703D02*
X48011Y39703D01*
X46673Y39860D02*
X48011Y39860D01*
X46673Y40017D02*
X48011Y40017D01*
X46673Y40175D02*
X48011Y40175D01*
X46673Y40332D02*
X48011Y40332D01*
X46673Y40490D02*
X48011Y40490D01*
X46673Y40647D02*
X48011Y40647D01*
X46673Y40805D02*
X48011Y40805D01*
X46673Y40962D02*
X48011Y40962D01*
X46673Y41120D02*
X48011Y41120D01*
X46673Y41277D02*
X48011Y41277D01*
X46673Y41435D02*
X48011Y41435D01*
X46673Y41592D02*
X48011Y41592D01*
X46673Y41750D02*
X48011Y41750D01*
X46673Y41907D02*
X48011Y41907D01*
X46673Y42065D02*
X48011Y42065D01*
X46683Y42222D02*
X48001Y42222D01*
X46735Y42380D02*
X47950Y42380D01*
X46786Y42537D02*
X47898Y42537D01*
X46954Y42695D02*
X47730Y42695D01*
X44744Y41520D02*
X47342Y41520D01*
X47735Y41648D01*
X47979Y41983D01*
X47979Y42396D01*
X47735Y42731D01*
X47342Y42859D01*
X44744Y42859D01*
X44350Y42731D01*
X44107Y42396D01*
X44107Y41983D01*
X44350Y41648D01*
X44744Y41520D01*
X44329Y41678D02*
X47757Y41678D01*
X44214Y41835D02*
X47871Y41835D01*
X44107Y41993D02*
X47979Y41993D01*
X44107Y42150D02*
X47979Y42150D01*
X44107Y42308D02*
X47979Y42308D01*
X44157Y42465D02*
X47929Y42465D01*
X44271Y42623D02*
X47814Y42623D01*
X44501Y42780D02*
X47584Y42780D01*
X44027Y46772D02*
X44848Y46902D01*
X45217Y47090D01*
X45405Y47459D01*
X45340Y47867D01*
X45047Y48160D01*
X44639Y48225D01*
X43818Y48094D01*
X43449Y47907D01*
X43261Y47538D01*
X43326Y47130D01*
X43619Y46837D01*
X44027Y46772D01*
X43526Y46930D02*
X44902Y46930D01*
X43368Y47087D02*
X45211Y47087D01*
X43308Y47245D02*
X45296Y47245D01*
X43283Y47402D02*
X45376Y47402D01*
X43272Y47560D02*
X45389Y47560D01*
X43353Y47717D02*
X45364Y47717D01*
X43433Y47875D02*
X45333Y47875D01*
X43695Y48032D02*
X45175Y48032D01*
X44419Y48190D02*
X44859Y48190D01*
X43485Y46460D02*
X44226Y46837D01*
X44519Y47130D01*
X44583Y47538D01*
X44396Y47907D01*
X44027Y48094D01*
X43619Y48030D01*
X42878Y47652D01*
X42585Y47360D01*
X42521Y46951D01*
X42708Y46583D01*
X43077Y46395D01*
X43485Y46460D01*
X42768Y46552D02*
X43667Y46552D01*
X42644Y46710D02*
X43977Y46710D01*
X42563Y46867D02*
X44257Y46867D01*
X42532Y47025D02*
X44414Y47025D01*
X42557Y47182D02*
X44527Y47182D01*
X42582Y47340D02*
X44552Y47340D01*
X42723Y47497D02*
X44577Y47497D01*
X42883Y47655D02*
X44524Y47655D01*
X43192Y47812D02*
X44444Y47812D01*
X43501Y47970D02*
X44272Y47970D01*
X43067Y45995D02*
X43655Y46583D01*
X43843Y46951D01*
X43778Y47360D01*
X43485Y47652D01*
X43077Y47717D01*
X42708Y47529D01*
X42120Y46941D01*
X41933Y46573D01*
X41997Y46164D01*
X42290Y45872D01*
X42698Y45807D01*
X43067Y45995D01*
X42197Y45964D02*
X43007Y45964D01*
X42040Y46122D02*
X43194Y46122D01*
X41979Y46279D02*
X43352Y46279D01*
X41954Y46437D02*
X43509Y46437D01*
X41944Y46594D02*
X43661Y46594D01*
X42024Y46752D02*
X43741Y46752D01*
X42104Y46909D02*
X43821Y46909D01*
X42246Y47067D02*
X43824Y47067D01*
X42403Y47224D02*
X43799Y47224D01*
X42561Y47382D02*
X43756Y47382D01*
X42728Y47539D02*
X43598Y47539D01*
X43037Y47697D02*
X43205Y47697D01*
X42813Y45423D02*
X43190Y46164D01*
X43255Y46573D01*
X43067Y46941D01*
X42698Y47129D01*
X42290Y47064D01*
X41997Y46772D01*
X41620Y46031D01*
X41555Y45623D01*
X41743Y45254D01*
X42111Y45066D01*
X42520Y45131D01*
X42813Y45423D01*
X41802Y45224D02*
X42613Y45224D01*
X41678Y45381D02*
X42770Y45381D01*
X41598Y45539D02*
X42871Y45539D01*
X41567Y45696D02*
X42951Y45696D01*
X41592Y45854D02*
X43032Y45854D01*
X41617Y46011D02*
X43112Y46011D01*
X41690Y46169D02*
X43191Y46169D01*
X41770Y46326D02*
X43216Y46326D01*
X41850Y46483D02*
X43241Y46483D01*
X41931Y46641D02*
X43220Y46641D01*
X42024Y46798D02*
X43140Y46798D01*
X42181Y46956D02*
X43038Y46956D01*
X42599Y47113D02*
X42729Y47113D01*
X42747Y44801D02*
X42877Y45623D01*
X42813Y46031D01*
X42520Y46324D01*
X42111Y46388D01*
X41743Y46200D01*
X41555Y45832D01*
X41425Y45011D01*
X41490Y44602D01*
X41782Y44310D01*
X42191Y44245D01*
X42559Y44433D01*
X42747Y44801D01*
X41689Y44402D02*
X42500Y44402D01*
X41532Y44560D02*
X42624Y44560D01*
X41472Y44717D02*
X42704Y44717D01*
X41447Y44875D02*
X42759Y44875D01*
X41428Y45032D02*
X42784Y45032D01*
X41453Y45190D02*
X42809Y45190D01*
X41478Y45347D02*
X42834Y45347D01*
X41503Y45505D02*
X42859Y45505D01*
X41528Y45662D02*
X42871Y45662D01*
X41553Y45820D02*
X42846Y45820D01*
X41629Y45977D02*
X42821Y45977D01*
X41709Y46135D02*
X42709Y46135D01*
X41923Y46292D02*
X42551Y46292D01*
X42877Y44189D02*
X42747Y45011D01*
X42559Y45379D01*
X42191Y45567D01*
X41782Y45502D01*
X41490Y45210D01*
X41425Y44801D01*
X41555Y43980D01*
X41743Y43612D01*
X42111Y43424D01*
X42520Y43488D01*
X42813Y43781D01*
X42877Y44189D01*
X41802Y43581D02*
X42613Y43581D01*
X41678Y43739D02*
X42770Y43739D01*
X41598Y43896D02*
X42831Y43896D01*
X41543Y44054D02*
X42856Y44054D01*
X41519Y44211D02*
X42874Y44211D01*
X41494Y44369D02*
X42849Y44369D01*
X41469Y44526D02*
X42824Y44526D01*
X41444Y44684D02*
X42799Y44684D01*
X41431Y44841D02*
X42774Y44841D01*
X41456Y44999D02*
X42749Y44999D01*
X41481Y45156D02*
X42673Y45156D01*
X41593Y45314D02*
X42593Y45314D01*
X41751Y45471D02*
X42379Y45471D01*
X43190Y43648D02*
X42813Y44389D01*
X42520Y44681D01*
X42111Y44746D01*
X41743Y44558D01*
X41555Y44189D01*
X41620Y43781D01*
X41997Y43040D01*
X42290Y42748D01*
X42698Y42683D01*
X43067Y42871D01*
X43255Y43239D01*
X43190Y43648D01*
X42197Y42840D02*
X43007Y42840D01*
X42040Y42998D02*
X43132Y42998D01*
X41939Y43155D02*
X43212Y43155D01*
X41858Y43313D02*
X43243Y43313D01*
X41778Y43470D02*
X43218Y43470D01*
X41698Y43628D02*
X43193Y43628D01*
X41619Y43785D02*
X43120Y43785D01*
X41594Y43943D02*
X43040Y43943D01*
X41569Y44100D02*
X42959Y44100D01*
X41590Y44258D02*
X42879Y44258D01*
X41670Y44415D02*
X42786Y44415D01*
X41772Y44573D02*
X42628Y44573D01*
X42081Y44730D02*
X42210Y44730D01*
X43655Y43229D02*
X43067Y43817D01*
X42698Y44005D01*
X42290Y43940D01*
X41997Y43648D01*
X41933Y43239D01*
X42120Y42871D01*
X42708Y42283D01*
X43077Y42095D01*
X43485Y42160D01*
X43778Y42452D01*
X43843Y42861D01*
X43655Y43229D01*
X42768Y42252D02*
X43578Y42252D01*
X42581Y42410D02*
X43736Y42410D01*
X42424Y42567D02*
X43796Y42567D01*
X42266Y42725D02*
X43821Y42725D01*
X42114Y42882D02*
X43832Y42882D01*
X42034Y43040D02*
X43751Y43040D01*
X41954Y43197D02*
X43671Y43197D01*
X41951Y43355D02*
X43529Y43355D01*
X41976Y43512D02*
X43372Y43512D01*
X42019Y43670D02*
X43214Y43670D01*
X42177Y43827D02*
X43047Y43827D01*
X42570Y43985D02*
X42738Y43985D01*
X44226Y42975D02*
X43485Y43352D01*
X43077Y43417D01*
X42708Y43229D01*
X42521Y42861D01*
X42585Y42452D01*
X42878Y42160D01*
X43619Y41782D01*
X44027Y41718D01*
X44396Y41905D01*
X44583Y42274D01*
X44519Y42682D01*
X44226Y42975D01*
X43436Y41875D02*
X44336Y41875D01*
X43127Y42032D02*
X44460Y42032D01*
X42847Y42190D02*
X44541Y42190D01*
X42690Y42347D02*
X44572Y42347D01*
X42577Y42505D02*
X44547Y42505D01*
X42552Y42662D02*
X44522Y42662D01*
X42527Y42820D02*
X44381Y42820D01*
X42580Y42977D02*
X44221Y42977D01*
X42660Y43135D02*
X43912Y43135D01*
X42832Y43292D02*
X43603Y43292D01*
X44848Y42910D02*
X44027Y43040D01*
X43619Y42975D01*
X43326Y42682D01*
X43261Y42274D01*
X43449Y41905D01*
X43818Y41718D01*
X44639Y41587D01*
X45047Y41652D01*
X45340Y41945D01*
X45405Y42353D01*
X45217Y42722D01*
X44848Y42910D01*
X43764Y41745D02*
X45140Y41745D01*
X43455Y41902D02*
X45298Y41902D01*
X43370Y42060D02*
X45358Y42060D01*
X43290Y42217D02*
X45383Y42217D01*
X43277Y42375D02*
X45394Y42375D01*
X43302Y42532D02*
X45313Y42532D01*
X43333Y42690D02*
X45233Y42690D01*
X43491Y42847D02*
X44970Y42847D01*
X43807Y43005D02*
X44247Y43005D01*
X47342Y48174D02*
X44744Y48174D01*
X44350Y48046D01*
X44107Y47711D01*
X44107Y47298D01*
X44350Y46963D01*
X44744Y46835D01*
X47342Y46835D01*
X47735Y46963D01*
X47979Y47298D01*
X47979Y47711D01*
X47735Y48046D01*
X47342Y48174D01*
X44329Y46993D02*
X47757Y46993D01*
X44214Y47150D02*
X47871Y47150D01*
X44107Y47308D02*
X47979Y47308D01*
X44107Y47465D02*
X47979Y47465D01*
X44107Y47623D02*
X47979Y47623D01*
X44157Y47780D02*
X47929Y47780D01*
X44271Y47937D02*
X47814Y47937D01*
X44501Y48095D02*
X47584Y48095D01*
X48011Y42189D02*
X48011Y47504D01*
X47883Y47898D01*
X47549Y48141D01*
X47135Y48141D01*
X46801Y47898D01*
X46673Y47504D01*
X46673Y42189D01*
X46801Y41796D01*
X47135Y41553D01*
X47549Y41553D01*
X47883Y41796D01*
X48011Y42189D01*
X46918Y41710D02*
X47766Y41710D01*
X46777Y41868D02*
X47907Y41868D01*
X46726Y42025D02*
X47958Y42025D01*
X46675Y42183D02*
X48009Y42183D01*
X46673Y42340D02*
X48011Y42340D01*
X46673Y42498D02*
X48011Y42498D01*
X46673Y42655D02*
X48011Y42655D01*
X46673Y42813D02*
X48011Y42813D01*
X46673Y42970D02*
X48011Y42970D01*
X46673Y43128D02*
X48011Y43128D01*
X46673Y43285D02*
X48011Y43285D01*
X46673Y43443D02*
X48011Y43443D01*
X46673Y43600D02*
X48011Y43600D01*
X46673Y43758D02*
X48011Y43758D01*
X46673Y43915D02*
X48011Y43915D01*
X46673Y44073D02*
X48011Y44073D01*
X46673Y44230D02*
X48011Y44230D01*
X46673Y44388D02*
X48011Y44388D01*
X46673Y44545D02*
X48011Y44545D01*
X46673Y44703D02*
X48011Y44703D01*
X46673Y44860D02*
X48011Y44860D01*
X46673Y45017D02*
X48011Y45017D01*
X46673Y45175D02*
X48011Y45175D01*
X46673Y45332D02*
X48011Y45332D01*
X46673Y45490D02*
X48011Y45490D01*
X46673Y45647D02*
X48011Y45647D01*
X46673Y45805D02*
X48011Y45805D01*
X46673Y45962D02*
X48011Y45962D01*
X46673Y46120D02*
X48011Y46120D01*
X46673Y46277D02*
X48011Y46277D01*
X46673Y46435D02*
X48011Y46435D01*
X46673Y46592D02*
X48011Y46592D01*
X46673Y46750D02*
X48011Y46750D01*
X46673Y46907D02*
X48011Y46907D01*
X46673Y47065D02*
X48011Y47065D01*
X46673Y47222D02*
X48011Y47222D01*
X46673Y47380D02*
X48011Y47380D01*
X46683Y47537D02*
X48001Y47537D01*
X46735Y47695D02*
X47950Y47695D01*
X46786Y47852D02*
X47898Y47852D01*
X46954Y48010D02*
X47730Y48010D01*
G54D14*
X67000Y28700D02*
X83000Y28700D01*
X83000Y36300D01*
X67000Y36300D01*
X67000Y28700D02*
X67000Y36300D01*
X83000Y48800D02*
X67000Y48800D01*
X67000Y41200D01*
X83000Y41200D01*
X83000Y48800D02*
X83000Y41200D01*
X60000Y12500D02*
X60000Y30000D01*
X60000Y12500D02*
X52500Y12500D01*
X50000Y15000D01*
X47500Y12500D01*
X42500Y12500D02*
X40000Y15000D01*
X60000Y30000D02*
X57500Y32500D01*
X52500Y32500D01*
X50000Y30000D01*
X47500Y32500D01*
X42500Y32500D01*
X40000Y30000D01*
X50000Y30000D02*
X50000Y15000D01*
X40000Y30000D02*
X40000Y15000D01*
X47500Y12500D02*
X42500Y12500D01*
X40000Y15000D02*
X37500Y12500D01*
X32500Y12500D02*
X30000Y15000D01*
X40000Y30000D02*
X37500Y32500D01*
X32500Y32500D01*
X30000Y30000D01*
X30000Y15000D01*
X37500Y12500D02*
X32500Y12500D01*
X18700Y43000D02*
X18700Y27000D01*
X26300Y27000D01*
X26300Y43000D01*
X18700Y43000D02*
X26300Y43000D01*
M02*
